M48
;Layer_Color=9474304
;FILE_FORMAT=2:5
INCH,LZ
;TYPE=PLATED
T1F00S00C0.01181
T2F00S00C0.01378
%
T01
X-0002756Y-057126
X0009055
X0020866
X0032677
X0052362
Y-0561024
Y-055
X0045276Y-0547244
X0033465Y-0541339
X0021654Y-0533465
X0009843Y-0525591
X-0001969Y-0517717
X0003937Y-0481496
Y-0472047
X0012598
X0015748Y-0474016
X0014484Y-0468504
X0015354Y-0464961
X0008858Y-0448819
X0018701Y-0441929
X0025591Y-0436024
X0031496Y-0431102
X003937Y-0425197
X0039764Y-0490551
X003635Y-0494898
X0042535Y-0496457
X-0001969Y-0456693
X0031496Y-0304134
X0018701Y-0287402
X-0001969Y-0265748
X0007874Y-0222441
X0025591Y-0206693
X0042323Y-0188976
X0031594Y-0139567
X0018799Y-0132677
X-0001969Y-0121653
X0008465Y-0056004
X0025591Y-0062992
X0039469Y-0069095
X0037402Y-0020472
X0031496
X0025591
X0019685
X0003937Y-0019291
Y-0030709
X0043307Y-0020472
T02
X0033071Y-0497244
M30
