G04*
G04 #@! TF.GenerationSoftware,Altium Limited,Altium Designer,20.2.6 (244)*
G04*
G04 Layer_Physical_Order=2*
G04 Layer_Color=417716*
%FSLAX25Y25*%
%MOIN*%
G70*
G04*
G04 #@! TF.SameCoordinates,2B018634-E8C6-49A8-AC31-D19AD41F8AF0*
G04*
G04*
G04 #@! TF.FilePolarity,Positive*
G04*
G01*
G75*
%ADD10C,0.00394*%
%ADD11C,0.01000*%
%ADD19C,0.02756*%
%ADD20C,0.00591*%
%ADD21C,0.02165*%
G36*
X35511Y-493493D02*
X35576Y-493538D01*
X35654Y-493580D01*
X35744Y-493622D01*
X35846Y-493661D01*
X36086Y-493735D01*
X36224Y-493769D01*
X36537Y-493831D01*
X36019Y-494187D01*
X36013Y-494280D01*
X36324Y-494259D01*
X36328Y-494272D01*
X36334Y-494288D01*
X36343Y-494305D01*
X36355Y-494325D01*
X36370Y-494346D01*
X36409Y-494393D01*
X36460Y-494448D01*
X36489Y-494479D01*
X36211Y-494757D01*
X36181Y-494727D01*
X36078Y-494638D01*
X36057Y-494623D01*
X36038Y-494611D01*
X36020Y-494601D01*
X36005Y-494595D01*
X35991Y-494592D01*
X36013Y-494280D01*
X35868Y-494290D01*
X35288Y-494689D01*
X35311Y-494550D01*
X35326Y-494420D01*
X35332Y-494297D01*
X35329Y-494183D01*
X35318Y-494077D01*
X35297Y-493980D01*
X35267Y-493890D01*
X35229Y-493809D01*
X35182Y-493737D01*
X35126Y-493672D01*
X35457Y-493446D01*
X35511Y-493493D01*
D02*
G37*
G36*
X41314Y-495357D02*
X41387Y-495404D01*
X41467Y-495441D01*
X41555Y-495468D01*
X41650Y-495485D01*
X41753Y-495491D01*
X41862Y-495488D01*
X41980Y-495474D01*
X42104Y-495450D01*
X42235Y-495416D01*
X41924Y-495967D01*
X42126Y-496161D01*
X41831Y-496457D01*
X41827Y-496450D01*
X41814Y-496434D01*
X41764Y-496379D01*
X41718Y-496332D01*
X41489Y-496736D01*
X41443Y-496568D01*
X41263Y-496032D01*
X41219Y-495930D01*
X41133Y-495767D01*
X41090Y-495706D01*
X41048Y-495657D01*
X41248Y-495300D01*
X41314Y-495357D01*
D02*
G37*
G36*
X33273Y-495610D02*
X33290Y-495693D01*
X33318Y-495779D01*
X33358Y-495868D01*
X33408Y-495961D01*
X33470Y-496056D01*
X33543Y-496155D01*
X33627Y-496257D01*
X33829Y-496471D01*
X32313D01*
X32420Y-496362D01*
X32599Y-496155D01*
X32672Y-496056D01*
X32734Y-495961D01*
X32784Y-495868D01*
X32824Y-495779D01*
X32852Y-495693D01*
X32868Y-495610D01*
X32874Y-495530D01*
X33268D01*
X33273Y-495610D01*
D02*
G37*
G36*
X16410Y-465254D02*
X16401Y-465513D01*
X16408Y-465630D01*
X16423Y-465738D01*
X16446Y-465836D01*
X16477Y-465927D01*
X16517Y-466008D01*
X16564Y-466080D01*
X16619Y-466144D01*
X16304Y-466385D01*
X16248Y-466337D01*
X16180Y-466291D01*
X16101Y-466249D01*
X16011Y-466209D01*
X15909Y-466173D01*
X15795Y-466139D01*
X15534Y-466081D01*
X15385Y-466057D01*
X15226Y-466036D01*
X15634Y-465721D01*
X15354Y-465453D01*
X15650Y-465157D01*
X15654Y-465165D01*
X15666Y-465180D01*
X15716Y-465235D01*
X15953Y-465476D01*
X16427Y-465111D01*
X16410Y-465254D01*
D02*
G37*
G36*
X15516Y-468872D02*
X15499Y-469001D01*
X15491Y-469122D01*
X15492Y-469235D01*
X15503Y-469340D01*
X15522Y-469437D01*
X15551Y-469526D01*
X15589Y-469607D01*
X15636Y-469680D01*
X15693Y-469745D01*
X15356Y-469965D01*
X15303Y-469919D01*
X15238Y-469875D01*
X15161Y-469832D01*
X15072Y-469790D01*
X14970Y-469749D01*
X14729Y-469672D01*
X14439Y-469600D01*
X14275Y-469566D01*
X15542Y-468735D01*
X15516Y-468872D01*
D02*
G37*
G36*
X13250Y-472929D02*
X13070Y-473136D01*
X12997Y-473235D01*
X12935Y-473331D01*
X12885Y-473423D01*
X12846Y-473513D01*
X12818Y-473599D01*
X12801Y-473682D01*
X12795Y-473762D01*
X12402D01*
X12396Y-473682D01*
X12379Y-473599D01*
X12351Y-473513D01*
X12312Y-473423D01*
X12261Y-473331D01*
X12200Y-473235D01*
X12127Y-473136D01*
X12043Y-473034D01*
X11841Y-472820D01*
X13356D01*
X13250Y-472929D01*
D02*
G37*
G36*
X16832Y-474179D02*
X16851Y-474452D01*
X16870Y-474574D01*
X16894Y-474685D01*
X16924Y-474786D01*
X16959Y-474877D01*
X17000Y-474958D01*
X17047Y-475028D01*
X17099Y-475089D01*
X16821Y-475367D01*
X16761Y-475315D01*
X16690Y-475268D01*
X16609Y-475227D01*
X16518Y-475191D01*
X16417Y-475162D01*
X16306Y-475138D01*
X16184Y-475119D01*
X16053Y-475107D01*
X15759Y-475098D01*
X16831Y-474027D01*
X16832Y-474179D01*
D02*
G37*
G36*
X38751Y-489252D02*
X38822Y-489299D01*
X38903Y-489340D01*
X38993Y-489376D01*
X39095Y-489405D01*
X39206Y-489429D01*
X39327Y-489448D01*
X39459Y-489460D01*
X39753Y-489469D01*
X38681Y-490540D01*
X38680Y-490388D01*
X38660Y-490115D01*
X38642Y-489993D01*
X38618Y-489882D01*
X38588Y-489781D01*
X38553Y-489690D01*
X38512Y-489609D01*
X38465Y-489539D01*
X38412Y-489478D01*
X38691Y-489200D01*
X38751Y-489252D01*
D02*
G37*
D10*
X45587Y-20472D02*
G03*
X45587Y-20472I-2279J0D01*
G01*
X44602Y-188976D02*
G03*
X44602Y-188976I-2279J0D01*
G01*
X39681Y-20472D02*
G03*
X39681Y-20472I-2279J0D01*
G01*
X33776D02*
G03*
X33776Y-20472I-2279J0D01*
G01*
X41748Y-69095D02*
G03*
X41748Y-69095I-2279J0D01*
G01*
X27870Y-20472D02*
G03*
X27870Y-20472I-2279J0D01*
G01*
X21965D02*
G03*
X21965Y-20472I-2279J0D01*
G01*
X5807Y-19291D02*
G03*
X4945Y-17716I-1870J0D01*
G01*
X2929D02*
G03*
X5807Y-19291I1008J-1575D01*
G01*
X27870Y-62992D02*
G03*
X27870Y-62992I-2279J0D01*
G01*
X5807Y-30709D02*
G03*
X5807Y-30709I-1870J0D01*
G01*
X10744Y-56004D02*
G03*
X10744Y-56004I-2279J0D01*
G01*
X33874Y-139567D02*
G03*
X33874Y-139567I-2279J0D01*
G01*
X33776Y-304134D02*
G03*
X33776Y-304134I-2279J0D01*
G01*
X27870Y-206693D02*
G03*
X27870Y-206693I-2279J0D01*
G01*
X41650Y-425197D02*
G03*
X41650Y-425197I-2279J0D01*
G01*
X33776Y-431102D02*
G03*
X33776Y-431102I-2279J0D01*
G01*
X27870Y-436024D02*
G03*
X27870Y-436024I-2279J0D01*
G01*
X21079Y-132677D02*
G03*
X21079Y-132677I-2279J0D01*
G01*
X20980Y-287402D02*
G03*
X20980Y-287402I-2279J0D01*
G01*
X10153Y-222441D02*
G03*
X10153Y-222441I-2279J0D01*
G01*
X20980Y-441929D02*
G03*
X20980Y-441929I-2279J0D01*
G01*
X21063Y-469882D02*
G03*
X20775Y-469186I-984J0D01*
G01*
X21063Y-469882D02*
G03*
X20775Y-469186I-984J0D01*
G01*
X17224Y-464961D02*
G03*
X14520Y-466634I-1870J0D01*
G01*
X11138Y-448819D02*
G03*
X11138Y-448819I-2279J0D01*
G01*
X14520Y-466634D02*
G03*
X14032Y-470319I-36J-1870D01*
G01*
X54527Y-534252D02*
G03*
X53893Y-532721I-2165J0D01*
G01*
X50197Y-571260D02*
G03*
X50876Y-572835I2165J0D01*
G01*
X53848Y-572835D02*
G03*
X54527Y-571260I-1486J1575D01*
G01*
X39082Y-488477D02*
G03*
X38386Y-488189I-696J-696D01*
G01*
X39082Y-488477D02*
G03*
X38386Y-488189I-696J-696D01*
G01*
X41634Y-490551D02*
G03*
X39850Y-488683I-1870J0D01*
G01*
X39457Y-492396D02*
G03*
X41634Y-490551I307J1845D01*
G01*
X38220Y-494898D02*
G03*
X36770Y-493075I-1870J0D01*
G01*
X44405Y-496457D02*
G03*
X42115Y-494634I-1870J0D01*
G01*
X34499Y-494635D02*
G03*
X38220Y-494898I1852J-262D01*
G01*
X34941Y-497244D02*
G03*
X34453Y-495984I-1870J0D01*
G01*
X31695Y-495978D02*
G03*
X34941Y-497244I1376J-1266D01*
G01*
X14290Y-472845D02*
G03*
X14469Y-472047I-1691J798D01*
G01*
D02*
G03*
X11216Y-473307I-1870J0D01*
G01*
X16661Y-472384D02*
G03*
X14290Y-472845I-913J-1632D01*
G01*
X14166Y-477369D02*
G03*
X14862Y-477658I696J696D01*
G01*
X14166Y-477369D02*
G03*
X14862Y-477658I696J696D01*
G01*
X6102Y-472047D02*
G03*
X1772Y-472047I-2165J0D01*
G01*
X11614Y-474409D02*
G03*
X11902Y-475105I984J0D01*
G01*
X11614Y-474409D02*
G03*
X11902Y-475105I984J0D01*
G01*
X1772Y-485827D02*
G03*
X2406Y-487358I2165J0D01*
G01*
X1772Y-485827D02*
G03*
X2409Y-487361I2165J0D01*
G01*
X40755Y-497027D02*
G03*
X44405Y-496457I1781J571D01*
G01*
X35744Y-541339D02*
G03*
X35744Y-541339I-2279J0D01*
G01*
X47555Y-547244D02*
G03*
X47555Y-547244I-2279J0D01*
G01*
X34957Y-571260D02*
G03*
X31029Y-572835I-2279J0D01*
G01*
X34325Y-572835D02*
G03*
X34957Y-571260I-1648J1575D01*
G01*
X12122Y-525591D02*
G03*
X12122Y-525591I-2279J0D01*
G01*
X23933Y-533465D02*
G03*
X23933Y-533465I-2279J0D01*
G01*
X22514Y-572835D02*
G03*
X23146Y-571260I-1648J1575D01*
G01*
D02*
G03*
X19218Y-572835I-2279J0D01*
G01*
X10703Y-572835D02*
G03*
X11335Y-571260I-1648J1575D01*
G01*
D02*
G03*
X7407Y-572835I-2279J0D01*
G01*
X311Y-121653D02*
G03*
X311Y-121653I-2279J0D01*
G01*
Y-265748D02*
G03*
X311Y-265748I-2279J0D01*
G01*
Y-456693D02*
G03*
X311Y-456693I-2279J0D01*
G01*
Y-517717D02*
G03*
X311Y-517717I-2279J0D01*
G01*
X-476Y-571260D02*
G03*
X-4404Y-572835I-2279J0D01*
G01*
X-1108Y-572835D02*
G03*
X-476Y-571260I-1648J1575D01*
G01*
X46932Y-17716D02*
X47732Y-18517D01*
X45363Y-19489D02*
X47726Y-21851D01*
X45451Y-21247D02*
X47722Y-23518D01*
X45262Y-17716D02*
X47729Y-20184D01*
X39681Y-20488D02*
X47712Y-28519D01*
X33670Y-21158D02*
X47699Y-35186D01*
X44762Y-22228D02*
X47719Y-25185D01*
X43597Y-22733D02*
X47715Y-26852D01*
X39283Y-21760D02*
X47709Y-30185D01*
X38383Y-22530D02*
X47705Y-31852D01*
X36872Y-22690D02*
X47702Y-33519D01*
X44898Y-18840D02*
X46022Y-17716D01*
X43817Y-18251D02*
X44352Y-17716D01*
X45513Y-19896D02*
X47692Y-17716D01*
X43591D02*
X44291Y-18416D01*
X39666Y-20731D02*
X42682Y-17716D01*
X33015Y-22173D02*
X47695Y-36853D01*
X31889Y-22718D02*
X47692Y-38520D01*
X27868Y-20366D02*
X47688Y-40187D01*
X47542Y-112109D02*
X47734Y-17716D01*
X27519Y-21688D02*
X47685Y-41854D01*
X26651Y-22490D02*
X47681Y-43521D01*
X25210Y-22720D02*
X47678Y-45188D01*
X27304Y-61489D02*
X47686Y-41107D01*
X27840Y-62624D02*
X47683Y-42781D01*
X38433Y-67064D02*
X47652Y-57845D01*
X26298Y-60825D02*
X47690Y-39433D01*
X24412Y-61041D02*
X47693Y-37760D01*
X40224Y-66944D02*
X47649Y-59518D01*
X41212Y-67626D02*
X47646Y-61192D01*
X41726Y-68781D02*
X47642Y-62866D01*
X27518Y-61775D02*
X47603Y-81860D01*
X27761Y-63688D02*
X47600Y-83527D01*
X27101Y-64699D02*
X47597Y-85194D01*
X41737Y-69313D02*
X47617Y-75193D01*
X41259Y-70505D02*
X47613Y-76860D01*
X40300Y-71217D02*
X47610Y-78527D01*
X38626Y-71213D02*
X47607Y-80194D01*
X25972Y-65240D02*
X47593Y-86861D01*
X21886Y-21066D02*
X47675Y-46855D01*
X21265Y-22116D02*
X47671Y-48522D01*
X13525Y-17716D02*
X47664Y-51856D01*
X4945Y-17716D02*
X47734D01*
X10716Y-56364D02*
X47731Y-19349D01*
X1181Y-67568D02*
X47727Y-21022D01*
X1181Y-69239D02*
X47724Y-22696D01*
X20177Y-22698D02*
X47668Y-50189D01*
X1181Y-70909D02*
X47721Y-24370D01*
X1181Y-72579D02*
X47717Y-26043D01*
X1181Y-74250D02*
X47714Y-27717D01*
X11855Y-17716D02*
X47661Y-53523D01*
X10185Y-17716D02*
X47658Y-55190D01*
X8514Y-17716D02*
X47654Y-56856D01*
X6844Y-17716D02*
X47651Y-58523D01*
X5174Y-17716D02*
X47648Y-60190D01*
X5700Y-19914D02*
X47644Y-61857D01*
X5579Y-29815D02*
X47624Y-71859D01*
X10476Y-54932D02*
X42731Y-22678D01*
X5619Y-31525D02*
X47620Y-73526D01*
X4968Y-20852D02*
X47641Y-63524D01*
X3572Y-21125D02*
X47637Y-65191D01*
X1181Y-73856D02*
X54921Y-127596D01*
X1181Y-72185D02*
X54921Y-125926D01*
X1181Y-75526D02*
X54921Y-129266D01*
X1181Y-68845D02*
X54921Y-122585D01*
X1181Y-67174D02*
X54921Y-120915D01*
X1181Y-70515D02*
X54921Y-124255D01*
X1181Y-90559D02*
X54921Y-144299D01*
X1181Y-80537D02*
X54921Y-134277D01*
X1181Y-92229D02*
X54921Y-145969D01*
X1181Y-77196D02*
X54921Y-130937D01*
X1181Y-78867D02*
X54921Y-132607D01*
X10662Y-56611D02*
X47580Y-93529D01*
X10036Y-57656D02*
X47576Y-95196D01*
X8943Y-58233D02*
X47573Y-96863D01*
X1181Y-82207D02*
X54921Y-135948D01*
X1181Y-75920D02*
X47710Y-29391D01*
X1181Y-83878D02*
X54921Y-137618D01*
X1181Y-93900D02*
X54921Y-147640D01*
X1181Y-88889D02*
X54921Y-142629D01*
X1181Y-95570D02*
X54921Y-149310D01*
X1181Y-85548D02*
X54921Y-139288D01*
X1181Y-87218D02*
X54921Y-140958D01*
X33845Y-139927D02*
X54921Y-161003D01*
X47542Y-112109D02*
X54921Y-119488D01*
X42403Y-186698D02*
X54921Y-174180D01*
X32309Y-141731D02*
X54921Y-164343D01*
X33313Y-141065D02*
X54921Y-162673D01*
X30441Y-141533D02*
X54921Y-166014D01*
X44401Y-188040D02*
X54921Y-177521D01*
X43649Y-187122D02*
X54921Y-175850D01*
X44517Y-189595D02*
X54921Y-179191D01*
X43229Y-191068D02*
X54921Y-202761D01*
X41642Y-191152D02*
X54921Y-204431D01*
X33786Y-140194D02*
X54707Y-119274D01*
X32924Y-137715D02*
X53036Y-117603D01*
X31680Y-137289D02*
X52201Y-116768D01*
X33675Y-138635D02*
X53872Y-118438D01*
X44159Y-190328D02*
X54921Y-201090D01*
X44599Y-189098D02*
X54921Y-199420D01*
X27832Y-206280D02*
X42942Y-191170D01*
X27397Y-205302D02*
X54921Y-232827D01*
X27773Y-207349D02*
X54921Y-234497D01*
X41332Y-426358D02*
X54921Y-439948D01*
X41641Y-424997D02*
X54921Y-438277D01*
X40487Y-427184D02*
X54921Y-441618D01*
X30601Y-429006D02*
X54921Y-404685D01*
X32306Y-428971D02*
X54921Y-406356D01*
X39092Y-427459D02*
X54921Y-443288D01*
X33597Y-431986D02*
X54921Y-453310D01*
X33656Y-430375D02*
X54921Y-451640D01*
X32865Y-432925D02*
X54921Y-454981D01*
X31647Y-433377D02*
X54921Y-456651D01*
X27857Y-436268D02*
X54921Y-463332D01*
X33668Y-303442D02*
X54921Y-324695D01*
X33764Y-303908D02*
X54921Y-282751D01*
X33590Y-305034D02*
X54921Y-326365D01*
X30641Y-302021D02*
X54921Y-277740D01*
X32323Y-302009D02*
X54921Y-279411D01*
X33283Y-302719D02*
X54921Y-281081D01*
X41007Y-423611D02*
X54921Y-409696D01*
X39954Y-422993D02*
X54921Y-408026D01*
X41594Y-424694D02*
X54921Y-411367D01*
X32852Y-305966D02*
X54921Y-328035D01*
X31625Y-306410D02*
X54921Y-329706D01*
X1181Y-103922D02*
X54921Y-157662D01*
X1181Y-102251D02*
X54921Y-155991D01*
X1181Y-105592D02*
X54921Y-159332D01*
X1181Y-98911D02*
X54921Y-152651D01*
X1181Y-97240D02*
X54921Y-150980D01*
X1181Y-100581D02*
X54921Y-154321D01*
X20109Y-134543D02*
X54921Y-169354D01*
X20869Y-133632D02*
X54921Y-167684D01*
X19107Y-285159D02*
X54921Y-249345D01*
X18853Y-134956D02*
X54921Y-171025D01*
X8348Y-224671D02*
X54921Y-271244D01*
X20757Y-131509D02*
X47557Y-104709D01*
X21071Y-132865D02*
X47553Y-106383D01*
X27129Y-208375D02*
X54921Y-236167D01*
X18509Y-130416D02*
X47564Y-101362D01*
X19909Y-130686D02*
X47560Y-103035D01*
X7152Y-220279D02*
X54921Y-172510D01*
X20227Y-285709D02*
X54921Y-251015D01*
X26016Y-208932D02*
X54921Y-237838D01*
X20879Y-286728D02*
X54921Y-252685D01*
X10070Y-223052D02*
X54921Y-267904D01*
X9442Y-224095D02*
X54921Y-269574D01*
X18125Y-466537D02*
X54921Y-429740D01*
X17290Y-465701D02*
X54921Y-428070D01*
X18960Y-467372D02*
X54921Y-431411D01*
X2698Y-470271D02*
X54921Y-418048D01*
X4640Y-469999D02*
X54921Y-419719D01*
X5622Y-470688D02*
X54921Y-421389D01*
X24700Y-438122D02*
X54921Y-468343D01*
X26402Y-438154D02*
X54921Y-466673D01*
X21063Y-470280D02*
X54921Y-436422D01*
X19796Y-468207D02*
X54921Y-433081D01*
X20631Y-469042D02*
X54921Y-434751D01*
X20980Y-287413D02*
X54921Y-321354D01*
X20568Y-288709D02*
X54921Y-254356D01*
X20583Y-288687D02*
X54921Y-323025D01*
X9602Y-446664D02*
X54921Y-401345D01*
X7791Y-446805D02*
X54921Y-399675D01*
X17080Y-464241D02*
X54921Y-426400D01*
X18240Y-439697D02*
X54921Y-403015D01*
X27369Y-437450D02*
X54921Y-465003D01*
X14808Y-463172D02*
X54921Y-423059D01*
X16302Y-463348D02*
X54921Y-424729D01*
X41921Y-17716D02*
X42533Y-18328D01*
X40251Y-17716D02*
X41552Y-19018D01*
X39383Y-19345D02*
X41011Y-17716D01*
X38552Y-18505D02*
X39341Y-17716D01*
X33724Y-19992D02*
X36000Y-17716D01*
X38580D02*
X41046Y-20182D01*
X37183Y-18203D02*
X37670Y-17716D01*
X36910D02*
X37387Y-18193D01*
X35240Y-17716D02*
X36114Y-18591D01*
X33569Y-17716D02*
X35344Y-19491D01*
X27613Y-19422D02*
X29319Y-17716D01*
X26815Y-18550D02*
X27648Y-17716D01*
X26888D02*
X29251Y-20079D01*
X25500Y-18195D02*
X25978Y-17716D01*
X25218D02*
X25697Y-18195D01*
X23547Y-17716D02*
X24375Y-18544D01*
X31899Y-17716D02*
X32754Y-18571D01*
X32101Y-18275D02*
X32660Y-17716D01*
X33146Y-18900D02*
X34330Y-17716D01*
X30229D02*
X30811Y-18298D01*
X28558Y-17716D02*
X29796Y-18954D01*
X33397Y-19215D02*
X35184Y-21002D01*
X27835Y-20870D02*
X30989Y-17716D01*
X21877D02*
X23573Y-19412D01*
X21392Y-18962D02*
X22637Y-17716D01*
X21933Y-20092D02*
X24308Y-17716D01*
X20382Y-18302D02*
X20967Y-17716D01*
X20207D02*
X23343Y-20853D01*
X5454Y-18197D02*
X5934Y-17716D01*
X5792Y-19529D02*
X7604Y-17716D01*
X1833D02*
X2377Y-18260D01*
X2657Y-29346D02*
X14286Y-17716D01*
X18469Y-18544D02*
X19297Y-17716D01*
X18536D02*
X19091Y-18272D01*
X16866Y-17716D02*
X18042Y-18892D01*
X15196Y-17716D02*
X17459Y-19980D01*
X4680Y-28993D02*
X15956Y-17716D01*
X9670Y-54069D02*
X41675Y-22064D01*
X8340Y-53728D02*
X41085Y-20983D01*
X4795Y-32370D02*
X39250Y-66825D01*
X1181Y-54206D02*
X35133Y-20254D01*
X1181Y-50865D02*
X29923Y-22123D01*
X1181Y-57547D02*
X36274Y-22454D01*
X3167Y-32413D02*
X38058Y-67304D01*
X1181Y-35438D02*
X26808Y-61065D01*
X1181Y-33768D02*
X37350Y-69937D01*
X5710Y-31303D02*
X17757Y-19256D01*
X5561Y-29782D02*
X17627Y-17716D01*
X1181Y-42513D02*
X23313Y-20382D01*
X1181Y-45854D02*
X24540Y-22495D01*
X27280Y-205162D02*
X41387Y-191055D01*
X26258Y-204513D02*
X40469Y-190303D01*
X24257Y-204844D02*
X40045Y-189057D01*
X21003Y-132096D02*
X29629Y-140721D01*
X33762Y-430856D02*
X37784Y-426834D01*
X33273Y-429674D02*
X37167Y-425781D01*
X27725Y-435223D02*
X30068Y-432879D01*
X25848Y-433759D02*
X29400Y-430207D01*
X27025Y-434252D02*
X29365Y-431912D01*
X27678Y-436940D02*
X31249Y-433368D01*
X8760Y-220341D02*
X23742Y-205360D01*
X9698Y-221074D02*
X23411Y-207361D01*
X10149Y-222293D02*
X24060Y-208382D01*
X19684Y-289458D02*
X32188Y-301962D01*
X19718Y-439889D02*
X23326Y-436281D01*
X20603Y-440674D02*
X23819Y-437458D01*
X18176Y-289620D02*
X30596Y-302040D01*
X20980Y-441967D02*
X24790Y-438158D01*
X17268Y-465679D02*
X20775Y-469186D01*
X11114Y-448492D02*
X16661Y-442946D01*
X10594Y-447342D02*
X16468Y-441468D01*
X13929Y-470733D02*
X14275Y-470387D01*
X12803Y-470188D02*
X13163Y-469828D01*
X14460Y-471872D02*
X15305Y-471027D01*
X41571Y-490070D02*
X54921Y-503420D01*
X44250Y-497203D02*
X54921Y-486532D01*
X41359Y-491528D02*
X54921Y-505091D01*
X37686Y-496207D02*
X54921Y-513442D01*
X38213Y-495063D02*
X54921Y-511772D01*
X35489Y-514316D02*
X54921Y-494883D01*
X44047Y-497557D02*
X54921Y-508431D01*
X44392Y-496232D02*
X54921Y-506761D01*
X43069Y-498249D02*
X54921Y-510102D01*
X36564Y-496755D02*
X54921Y-515112D01*
X36324Y-515151D02*
X54921Y-496554D01*
X40780Y-488981D02*
X54921Y-474839D01*
X39439Y-488652D02*
X54921Y-473169D01*
X41521Y-489910D02*
X54921Y-476510D01*
X36561Y-488189D02*
X54921Y-469828D01*
X34890Y-488189D02*
X54921Y-468158D01*
X38231Y-488189D02*
X54921Y-471499D01*
X43343Y-494770D02*
X54921Y-483191D01*
X41758Y-494684D02*
X54921Y-481521D01*
X44193Y-495590D02*
X54921Y-484861D01*
X40081Y-493020D02*
X54921Y-478180D01*
X40916Y-493855D02*
X54921Y-479850D01*
X47181Y-526008D02*
X54921Y-518268D01*
X46346Y-525173D02*
X54921Y-516598D01*
Y-572835D02*
Y-119488D01*
X44675Y-523503D02*
X54921Y-513257D01*
X44675Y-523503D02*
X54921Y-513257D01*
X45511Y-524338D02*
X54921Y-514927D01*
X50521Y-529349D02*
X54921Y-524949D01*
X49686Y-528514D02*
X54921Y-523279D01*
X51357Y-530184D02*
X54921Y-526620D01*
X48016Y-526844D02*
X54921Y-519938D01*
X48851Y-527679D02*
X54921Y-521609D01*
X38829Y-517657D02*
X54921Y-501565D01*
X37994Y-516821D02*
X54921Y-499894D01*
X39664Y-518492D02*
X54921Y-503235D01*
X34869Y-496731D02*
X54921Y-516783D01*
X37159Y-515986D02*
X54921Y-498224D01*
X34674Y-498206D02*
X54921Y-518453D01*
X43005Y-521833D02*
X54921Y-509916D01*
X42170Y-520997D02*
X54921Y-508246D01*
X43840Y-522668D02*
X54921Y-511587D01*
X40499Y-519327D02*
X54921Y-504905D01*
X41335Y-520162D02*
X54921Y-506576D01*
X28830Y-482557D02*
X54921Y-456466D01*
X27995Y-481721D02*
X54921Y-454795D01*
X29666Y-483392D02*
X54921Y-458136D01*
X26325Y-480051D02*
X54921Y-451455D01*
X19065Y-444179D02*
X54921Y-480035D01*
X27160Y-480886D02*
X54921Y-453125D01*
X33006Y-486732D02*
X54921Y-464817D01*
X32171Y-485897D02*
X54921Y-463147D01*
X33841Y-487568D02*
X54921Y-466488D01*
X30501Y-484227D02*
X54921Y-459806D01*
X31336Y-485062D02*
X54921Y-461477D01*
X21314Y-475040D02*
X54921Y-441433D01*
X21063Y-473621D02*
X54921Y-439762D01*
X22149Y-475875D02*
X54921Y-443103D01*
X20659Y-440762D02*
X54921Y-475025D01*
X21063Y-471950D02*
X54921Y-438092D01*
X20867Y-442640D02*
X54921Y-476695D01*
X24655Y-478381D02*
X54921Y-448114D01*
X23819Y-477546D02*
X54921Y-446444D01*
X25490Y-479216D02*
X54921Y-449784D01*
X22984Y-476710D02*
X54921Y-444773D01*
X20201Y-443645D02*
X54921Y-478365D01*
X11031Y-449508D02*
X54921Y-493398D01*
X10769Y-447575D02*
X54921Y-491728D01*
X10374Y-450521D02*
X54921Y-495069D01*
X6102Y-472975D02*
X54921Y-521794D01*
X9247Y-451065D02*
X54921Y-496739D01*
X6102Y-474645D02*
X54921Y-523464D01*
X34653Y-513481D02*
X54921Y-493213D01*
X33818Y-512646D02*
X54921Y-491543D01*
X33775Y-498977D02*
X54921Y-520123D01*
X32148Y-510975D02*
X54921Y-488202D01*
X32983Y-511810D02*
X54921Y-489872D01*
X6102Y-481326D02*
X54921Y-530145D01*
X6102Y-479656D02*
X54921Y-528475D01*
X6102Y-482997D02*
X54921Y-531816D01*
X6102Y-476315D02*
X54921Y-525135D01*
X6102Y-477986D02*
X54921Y-526805D01*
X6102Y-484930D02*
X53893Y-532721D01*
X11658Y-526970D02*
X50197Y-565509D01*
X10714Y-527697D02*
X50197Y-567179D01*
X6102Y-484667D02*
X54921Y-533486D01*
X2409Y-487361D02*
X50197Y-535149D01*
X54527Y-538103D02*
X54921Y-538497D01*
X54527Y-537035D02*
X54921Y-536642D01*
X54527Y-538706D02*
X54921Y-538312D01*
X54527Y-535365D02*
X54921Y-534971D01*
X54527Y-534763D02*
X54921Y-535156D01*
X54527Y-536433D02*
X54921Y-536827D01*
X54527Y-542046D02*
X54921Y-541652D01*
X54527Y-541444D02*
X54921Y-541838D01*
X54527Y-543114D02*
X54921Y-543508D01*
X54527Y-539774D02*
X54921Y-540167D01*
X54527Y-540376D02*
X54921Y-539982D01*
X54527Y-546455D02*
X54921Y-546849D01*
X54527Y-545387D02*
X54921Y-544993D01*
X54527Y-547057D02*
X54921Y-546664D01*
X54527Y-544785D02*
X54921Y-545178D01*
X54527Y-543717D02*
X54921Y-543323D01*
X54527Y-550000D02*
Y-534350D01*
Y-550398D02*
X54921Y-550004D01*
X54527Y-549796D02*
X54921Y-550189D01*
X54527Y-551466D02*
X54921Y-551860D01*
X54527Y-548125D02*
X54921Y-548519D01*
X54527Y-548728D02*
X54921Y-548334D01*
X54527Y-555409D02*
X54921Y-555015D01*
X54527Y-554807D02*
X54921Y-555200D01*
X54527Y-556477D02*
X54921Y-556871D01*
X54527Y-553136D02*
X54921Y-553530D01*
X54527Y-552068D02*
X54921Y-551675D01*
X54527Y-553739D02*
X54921Y-553345D01*
X54527Y-561488D02*
X54921Y-561882D01*
X54527Y-560420D02*
X54921Y-560026D01*
X54527Y-563158D02*
X54921Y-563552D01*
X54527Y-557079D02*
X54921Y-556685D01*
X54527Y-558147D02*
X54921Y-558541D01*
X54527Y-565431D02*
X54921Y-565037D01*
X54527Y-564829D02*
X54921Y-565222D01*
X54527Y-566499D02*
X54921Y-566893D01*
X54527Y-563761D02*
X54921Y-563367D01*
X54527Y-561024D02*
Y-550000D01*
Y-571260D02*
Y-561024D01*
Y-569840D02*
X54921Y-570233D01*
X54527Y-568772D02*
X54921Y-568378D01*
X54527Y-570442D02*
X54921Y-570048D01*
X54527Y-567101D02*
X54921Y-566708D01*
X54527Y-568169D02*
X54921Y-568563D01*
X54469Y-533753D02*
X54921Y-533301D01*
X53862Y-532690D02*
X54921Y-531631D01*
X53027Y-531854D02*
X54921Y-529960D01*
X52192Y-531019D02*
X54921Y-528290D01*
X44896Y-544996D02*
X50197Y-539696D01*
X54527Y-559818D02*
X54921Y-560211D01*
X54527Y-558750D02*
X54921Y-558356D01*
X54527Y-562090D02*
X54921Y-561696D01*
X47204Y-546029D02*
X50197Y-543036D01*
X47553Y-547351D02*
X50197Y-544707D01*
Y-550000D02*
Y-535149D01*
X46336Y-545226D02*
X50197Y-541366D01*
X35720Y-541011D02*
X50197Y-555487D01*
X22065Y-535707D02*
X50197Y-563839D01*
X23183Y-535155D02*
X50197Y-562168D01*
X9089Y-527742D02*
X50197Y-568850D01*
X46897Y-548846D02*
X50197Y-552146D01*
X47493Y-547772D02*
X50197Y-550476D01*
Y-561024D02*
Y-550000D01*
X45834Y-549454D02*
X50197Y-553817D01*
X35467Y-542428D02*
X50197Y-557157D01*
Y-571260D02*
Y-561024D01*
X34918Y-571678D02*
X50197Y-556399D01*
X32603Y-568982D02*
X50197Y-551388D01*
X48794Y-572835D02*
X50203Y-571426D01*
X54131Y-572508D02*
X54921Y-571719D01*
X54514Y-571497D02*
X54921Y-571904D01*
X53848Y-572835D02*
X54921D01*
X34325Y-572835D02*
X50876Y-572835D01*
X50464D02*
X50678Y-572621D01*
X34706Y-570220D02*
X50197Y-554729D01*
X33912Y-569344D02*
X50197Y-553058D01*
X25409Y-572835D02*
X50197Y-548047D01*
X15387Y-572835D02*
X50197Y-538025D01*
X23739Y-572835D02*
X50197Y-546377D01*
X45453Y-572835D02*
X50197Y-568091D01*
X43783Y-572835D02*
X50197Y-566421D01*
X47124Y-572835D02*
X50197Y-569762D01*
X40442Y-572835D02*
X50197Y-563080D01*
X42113Y-572835D02*
X50197Y-564751D01*
X34463Y-488189D02*
X38386D01*
X21063Y-471232D02*
X38020Y-488189D01*
X20974Y-469473D02*
X40245Y-488744D01*
X40451Y-492290D02*
X42761Y-494600D01*
X39457Y-492396D02*
X41730Y-494668D01*
X36399Y-492985D02*
X36695Y-493044D01*
X36710Y-493050D02*
X37019Y-492742D01*
X21063Y-472902D02*
X36349Y-488189D01*
X21063Y-474789D02*
Y-469882D01*
X34069Y-490945D02*
X35939Y-492815D01*
X21063Y-474573D02*
X34679Y-488189D01*
X21063Y-474789D02*
X34463Y-488189D01*
X16423Y-477658D02*
X32087Y-493321D01*
X35607Y-492483D02*
X36184Y-491906D01*
X34772Y-491648D02*
X35349Y-491071D01*
X34094Y-490945D02*
X36009Y-492860D01*
X34069Y-490945D02*
X35222D01*
X34055Y-493715D02*
X34461Y-494121D01*
X38220Y-494881D02*
X38689Y-494412D01*
X35222Y-490945D02*
X40404Y-496126D01*
X34055Y-494246D02*
X34492Y-494684D01*
X34143Y-495617D02*
X34513Y-495248D01*
X27972Y-506800D02*
X39524Y-495247D01*
X28807Y-507635D02*
X40360Y-496082D01*
X20456Y-499283D02*
X29252Y-490486D01*
X19620Y-498448D02*
X28417Y-489651D01*
X21291Y-500118D02*
X30087Y-491322D01*
X17950Y-496778D02*
X26747Y-487981D01*
X17115Y-495942D02*
X25911Y-487146D01*
X18785Y-497613D02*
X27582Y-488816D01*
X34055Y-495424D02*
Y-493715D01*
X32087Y-495424D02*
Y-493321D01*
X23796Y-502624D02*
X32087Y-494333D01*
X22126Y-500953D02*
X30922Y-492157D01*
X22961Y-501789D02*
X31758Y-492992D01*
X14906Y-470629D02*
X16661Y-472384D01*
X15854Y-472149D02*
X16140Y-471863D01*
X14144Y-470995D02*
X15340Y-472191D01*
X6102Y-473548D02*
X13742Y-465908D01*
X14862Y-477658D02*
X16423D01*
X11902Y-475105D02*
X14166Y-477369D01*
X6102Y-475219D02*
X12624Y-468697D01*
X6102Y-476889D02*
X10740Y-472252D01*
X6102Y-481496D02*
Y-472047D01*
X6096Y-471884D02*
X13566Y-464415D01*
X1772Y-481496D02*
Y-472047D01*
X11614Y-474409D02*
Y-473867D01*
X6102Y-478559D02*
X11273Y-473389D01*
X6102Y-480230D02*
X11652Y-474680D01*
X12104Y-490931D02*
X20900Y-482135D01*
X11269Y-490096D02*
X20065Y-481300D01*
X15796Y-477658D02*
X32087Y-493948D01*
X10434Y-489261D02*
X19230Y-480465D01*
X9598Y-488426D02*
X18395Y-479629D01*
X5871Y-471073D02*
X31338Y-496540D01*
X15445Y-494272D02*
X24241Y-485476D01*
X14609Y-493437D02*
X23406Y-484640D01*
X16280Y-495107D02*
X25076Y-486311D01*
X12939Y-491767D02*
X21736Y-482970D01*
X13774Y-492602D02*
X22571Y-483805D01*
X7093Y-485920D02*
X15356Y-477658D01*
X6258Y-485085D02*
X14070Y-477273D01*
X7928Y-486756D02*
X16725Y-477959D01*
X6102Y-481900D02*
X12400Y-475603D01*
X6102Y-483570D02*
X13235Y-476438D01*
X6102Y-484930D02*
Y-481496D01*
X1772Y-485827D02*
Y-481496D01*
X8763Y-487591D02*
X17560Y-478794D01*
X40513Y-496319D02*
X40675Y-496803D01*
X31313Y-510140D02*
X43281Y-498172D01*
X29642Y-508470D02*
X40848Y-497264D01*
X27137Y-505964D02*
X36334Y-496768D01*
X30477Y-509305D02*
X41669Y-498114D01*
X35104Y-539755D02*
X44954Y-529906D01*
X34053Y-539136D02*
X44119Y-529071D01*
X35689Y-540841D02*
X45789Y-530741D01*
X23712Y-534445D02*
X36602Y-521554D01*
X34828Y-496603D02*
X35123Y-496308D01*
X25467Y-504294D02*
X31501Y-498260D01*
X26302Y-505129D02*
X32430Y-499001D01*
X23107Y-531708D02*
X34932Y-519884D01*
X24631Y-503459D02*
X31244Y-496847D01*
X23797Y-532689D02*
X35767Y-520719D01*
X23507Y-532138D02*
X31519Y-540150D01*
X23833Y-534134D02*
X31190Y-541491D01*
X34653Y-543284D02*
X50197Y-558828D01*
X33312Y-543613D02*
X50197Y-560498D01*
X38772Y-572835D02*
X50197Y-561410D01*
X37102Y-572835D02*
X50197Y-559740D01*
X27080Y-572835D02*
X50197Y-549718D01*
X35432Y-572835D02*
X50197Y-558069D01*
X23073Y-571830D02*
X45382Y-549521D01*
X30421Y-572835D02*
X30761Y-572494D01*
X34867Y-571893D02*
X35808Y-572835D01*
X23081Y-571800D02*
X24116Y-572835D01*
X28750Y-572835D02*
X30399Y-571186D01*
X12079Y-526034D02*
X26580Y-511532D01*
X11878Y-524564D02*
X25745Y-510697D01*
X21942Y-531203D02*
X34097Y-519049D01*
X11089Y-523682D02*
X24910Y-509862D01*
X9790Y-523312D02*
X24075Y-509027D01*
X9214Y-568986D02*
X46624Y-531576D01*
X22172Y-569391D02*
X43258Y-548305D01*
X20912Y-568981D02*
X43028Y-546865D01*
X22933Y-570300D02*
X44060Y-549173D01*
X10429Y-569441D02*
X47459Y-532411D01*
X11159Y-570382D02*
X48294Y-533246D01*
X12116Y-525758D02*
X19411Y-533053D01*
X12047Y-572835D02*
X49965Y-534917D01*
X13717Y-572835D02*
X50197Y-536355D01*
X11211Y-572000D02*
X49130Y-534082D01*
X3695Y-572835D02*
X32967Y-543563D01*
X2025Y-572835D02*
X31881Y-542978D01*
X22514Y-572835D02*
X31029Y-572835D01*
X17058Y-572835D02*
X18587Y-571305D01*
X11291Y-571702D02*
X12424Y-572835D01*
X18728Y-572835D02*
X18997Y-572565D01*
X5366Y-572835D02*
X6781Y-571419D01*
X10703Y-572835D02*
X19218Y-572835D01*
X-5631Y-209678D02*
X54921Y-149125D01*
X-5633Y-208009D02*
X54921Y-147455D01*
X-5630Y-211347D02*
X54921Y-150795D01*
X-5636Y-204671D02*
X54921Y-144114D01*
X-5637Y-203002D02*
X54921Y-142444D01*
X-5634Y-206340D02*
X54921Y-145784D01*
X-5624Y-218022D02*
X54921Y-157477D01*
X-5626Y-216353D02*
X54921Y-155806D01*
X-5623Y-219691D02*
X54921Y-159147D01*
X-5628Y-213015D02*
X54921Y-152466D01*
X-5627Y-214684D02*
X54921Y-154136D01*
X7Y-122791D02*
X54921Y-177706D01*
X298Y-121413D02*
X54921Y-176035D01*
X-828Y-123627D02*
X54921Y-179376D01*
X-2635Y-116809D02*
X54921Y-174365D01*
X-1800Y-115973D02*
X54921Y-172695D01*
X-2204Y-123921D02*
X54921Y-181046D01*
X-5640Y-199664D02*
X54921Y-139103D01*
X-5641Y-197995D02*
X54921Y-137433D01*
X-5639Y-201333D02*
X54921Y-140773D01*
X-5644Y-194658D02*
X54921Y-134092D01*
X-5643Y-196326D02*
X54921Y-135762D01*
X-5594Y-253069D02*
X54921Y-192554D01*
X-5595Y-251400D02*
X54921Y-190883D01*
X-5592Y-254737D02*
X54921Y-194224D01*
X-5597Y-249731D02*
X54921Y-189213D01*
X-5598Y-248062D02*
X54921Y-187543D01*
X-5645Y-193975D02*
X54921Y-254541D01*
X-5589Y-258075D02*
X54921Y-197565D01*
X-5591Y-256406D02*
X54921Y-195894D01*
X-5641Y-198990D02*
X54921Y-259552D01*
X-5644Y-195647D02*
X54921Y-256211D01*
X-5642Y-197318D02*
X54921Y-257882D01*
X-5615Y-228035D02*
X54921Y-167499D01*
X-5617Y-226366D02*
X54921Y-165828D01*
X-5614Y-229704D02*
X54921Y-169169D01*
X-5620Y-223029D02*
X54921Y-162488D01*
X-5621Y-221360D02*
X54921Y-160817D01*
X-5618Y-224697D02*
X54921Y-164158D01*
X-5601Y-244724D02*
X54921Y-184202D01*
X-5602Y-243055D02*
X54921Y-182532D01*
X-5599Y-246393D02*
X54921Y-185872D01*
X-5613Y-231373D02*
X54921Y-170839D01*
X-5604Y-241386D02*
X54921Y-180861D01*
X-5647Y-191320D02*
X54921Y-130751D01*
X-5649Y-189651D02*
X54921Y-129081D01*
X-5646Y-192989D02*
X54921Y-132422D01*
X-5698Y-132119D02*
X54921Y-192739D01*
X-5700Y-130447D02*
X54921Y-191068D01*
X-5697Y-133791D02*
X54921Y-194409D01*
X-5686Y-147165D02*
X54921Y-207772D01*
X-5687Y-145493D02*
X54921Y-206101D01*
X-5684Y-148837D02*
X54921Y-209442D01*
X-5696Y-135463D02*
X54921Y-196079D01*
X-5694Y-137134D02*
X54921Y-197750D01*
X-5655Y-182975D02*
X54921Y-122400D01*
X-5656Y-181307D02*
X54921Y-120729D01*
X-5653Y-184644D02*
X54921Y-124070D01*
X-5707Y-122088D02*
X54921Y-182717D01*
X-5663Y-172962D02*
X51366Y-115933D01*
X-5706Y-123760D02*
X54921Y-184387D01*
X-5650Y-187982D02*
X54921Y-127411D01*
X-5652Y-186313D02*
X54921Y-125740D01*
X-5701Y-128776D02*
X54921Y-189398D01*
X-5704Y-125432D02*
X54921Y-186057D01*
X-5703Y-127104D02*
X54921Y-187728D01*
X-5655Y-182272D02*
X54921Y-242849D01*
X-5657Y-180601D02*
X54921Y-241178D01*
X-5654Y-183944D02*
X54921Y-244519D01*
X-5665Y-170570D02*
X54921Y-231156D01*
X-5667Y-168898D02*
X54921Y-229486D01*
X-5658Y-178929D02*
X54921Y-239508D01*
X-5648Y-190631D02*
X54921Y-251200D01*
X-5649Y-188960D02*
X54921Y-249530D01*
X-5646Y-192303D02*
X54921Y-252871D01*
X-5652Y-185616D02*
X54921Y-246189D01*
X-5651Y-187288D02*
X54921Y-247860D01*
X-5677Y-157196D02*
X54921Y-217794D01*
X-5678Y-155524D02*
X54921Y-216123D01*
X-5675Y-158868D02*
X54921Y-219464D01*
X-5681Y-152180D02*
X54921Y-212783D01*
X-5683Y-150509D02*
X54921Y-211112D01*
X-5680Y-153852D02*
X54921Y-214453D01*
X-5670Y-165555D02*
X54921Y-226145D01*
X-5671Y-163883D02*
X54921Y-224475D01*
X-5668Y-167226D02*
X54921Y-227816D01*
X-5674Y-160539D02*
X54921Y-221134D01*
X-5672Y-162211D02*
X54921Y-222805D01*
X-5556Y-296460D02*
X54921Y-235982D01*
X-5558Y-294791D02*
X54921Y-234312D01*
X-5555Y-298129D02*
X54921Y-237652D01*
X-5561Y-291453D02*
X54921Y-230971D01*
X-5562Y-289784D02*
X54921Y-229301D01*
X-5559Y-293122D02*
X54921Y-232642D01*
X-5549Y-304804D02*
X54921Y-244334D01*
X-5550Y-303135D02*
X54921Y-242664D01*
X-5548Y-306473D02*
X54921Y-246004D01*
X-5553Y-299797D02*
X54921Y-239323D01*
X-5552Y-301466D02*
X54921Y-240993D01*
X-170Y-264348D02*
X54921Y-209257D01*
X-1123Y-263631D02*
X54921Y-207587D01*
X302Y-265546D02*
X54921Y-210927D01*
X-5572Y-278102D02*
X54921Y-217608D01*
X-2781Y-263618D02*
X54921Y-205916D01*
X-5571Y-279771D02*
X54921Y-219279D01*
X-5565Y-286446D02*
X54921Y-225960D01*
X-5566Y-284777D02*
X54921Y-224290D01*
X-5563Y-288115D02*
X54921Y-227630D01*
X-5569Y-281440D02*
X54921Y-220949D01*
X-5568Y-283108D02*
X54921Y-222620D01*
X-5523Y-334844D02*
X54921Y-274400D01*
X-5524Y-333175D02*
X54921Y-272729D01*
X-5522Y-336513D02*
X54921Y-276070D01*
X-5573Y-277564D02*
X54921Y-338057D01*
X-5526Y-331506D02*
X54921Y-271059D01*
X-5571Y-279236D02*
X54921Y-339728D01*
X-5514Y-344857D02*
X54921Y-284422D01*
X-5567Y-284251D02*
X54921Y-344739D01*
X-5565Y-285923D02*
X54921Y-346409D01*
X-5570Y-280907D02*
X54921Y-341398D01*
X-5568Y-282579D02*
X54921Y-343069D01*
X-5534Y-321493D02*
X54921Y-261037D01*
X-5536Y-319824D02*
X54921Y-259367D01*
X-5533Y-323162D02*
X54921Y-262707D01*
X-5539Y-316486D02*
X54921Y-256026D01*
X-5546Y-308142D02*
X54921Y-247674D01*
X-5537Y-318155D02*
X54921Y-257697D01*
X-5529Y-328168D02*
X54921Y-267718D01*
X154Y-264917D02*
X54921Y-319684D01*
X-5527Y-329837D02*
X54921Y-269389D01*
X-5532Y-324831D02*
X54921Y-264378D01*
X-5530Y-326500D02*
X54921Y-266048D01*
X-5573Y-276433D02*
X54921Y-215938D01*
X-5575Y-274764D02*
X54921Y-214268D01*
X-5622Y-220723D02*
X54921Y-281266D01*
X-5625Y-217380D02*
X54921Y-277926D01*
X-5626Y-215708D02*
X54921Y-276255D01*
X-5623Y-219052D02*
X54921Y-279596D01*
X-5616Y-227410D02*
X54921Y-287948D01*
X-5617Y-225739D02*
X54921Y-286277D01*
X-5615Y-229082D02*
X54921Y-289618D01*
X-5620Y-222395D02*
X54921Y-282937D01*
X-5619Y-224067D02*
X54921Y-284607D01*
X-5587Y-261413D02*
X54921Y-200905D01*
X-5588Y-259744D02*
X54921Y-199235D01*
X-5585Y-263082D02*
X54921Y-202576D01*
X-5638Y-202334D02*
X54921Y-262893D01*
X-5639Y-200662D02*
X54921Y-261222D01*
X-5636Y-204006D02*
X54921Y-264563D01*
X-5576Y-273095D02*
X54921Y-212597D01*
X-5584Y-264751D02*
X54921Y-204246D01*
X-5628Y-214036D02*
X54921Y-274585D01*
X-5635Y-205677D02*
X54921Y-266233D01*
X-5629Y-212364D02*
X54921Y-272915D01*
X-5593Y-254159D02*
X54921Y-314673D01*
X-5594Y-252487D02*
X54921Y-313002D01*
X-5591Y-255831D02*
X54921Y-316343D01*
X-5597Y-249144D02*
X54921Y-309662D01*
X-5599Y-247472D02*
X54921Y-307992D01*
X-5596Y-250815D02*
X54921Y-311332D01*
X-5575Y-274220D02*
X54921Y-334717D01*
X-5577Y-272548D02*
X54921Y-333047D01*
X-5574Y-275892D02*
X54921Y-336387D01*
X-5590Y-257502D02*
X54921Y-318014D01*
X-5578Y-270877D02*
X54921Y-331376D01*
X-5609Y-235769D02*
X54921Y-296299D01*
X-5610Y-234098D02*
X54921Y-294629D01*
X-5607Y-237441D02*
X54921Y-297970D01*
X-5613Y-230754D02*
X54921Y-291288D01*
X-5612Y-232426D02*
X54921Y-292959D01*
X-5601Y-244128D02*
X54921Y-304651D01*
X-5603Y-242456D02*
X54921Y-302981D01*
X-5600Y-245800D02*
X54921Y-306321D01*
X-5606Y-239113D02*
X54921Y-299640D01*
X-5604Y-240785D02*
X54921Y-301310D01*
X1181Y-37503D02*
X17515Y-21169D01*
X1181Y-24140D02*
X4175Y-21146D01*
X1181Y-44184D02*
X23668Y-21697D01*
X1181Y-27481D02*
X10945Y-17716D01*
X1181Y-25810D02*
X9275Y-17716D01*
X1181Y-29151D02*
X12616Y-17716D01*
X1181Y-25416D02*
X4831Y-29066D01*
X1181Y-35832D02*
X4532Y-32482D01*
X1181Y-40843D02*
X19304Y-22720D01*
X1181Y-39173D02*
X18174Y-22179D01*
X1181Y-47524D02*
X25989Y-22717D01*
X1181Y-22469D02*
X2843Y-20808D01*
X1181Y-20799D02*
X2147Y-19833D01*
X1181Y-27086D02*
X3121Y-29026D01*
X1181Y-17716D02*
X2929D01*
X1181Y-19129D02*
X2594Y-17716D01*
X1181Y-18735D02*
X2103Y-19657D01*
X1181Y-30427D02*
X2233Y-31479D01*
X1181Y-32491D02*
X2221Y-31452D01*
X1181Y-34162D02*
X3010Y-32333D01*
X1181Y-28757D02*
X2275Y-29851D01*
X1181Y-30821D02*
X2574Y-29428D01*
X1181Y-77590D02*
X47707Y-31065D01*
X1181Y-79261D02*
X47703Y-32738D01*
X1181Y-80931D02*
X47700Y-34412D01*
X1181Y-20405D02*
X47634Y-66858D01*
X1181Y-22075D02*
X47631Y-68525D01*
X1181Y-23746D02*
X47627Y-70192D01*
X1181Y-90953D02*
X47680Y-44455D01*
X1181Y-43790D02*
X47586Y-90195D01*
X1181Y-92623D02*
X47676Y-46128D01*
X1181Y-82601D02*
X47697Y-36086D01*
X1181Y-42120D02*
X47590Y-88528D01*
X1181Y-59217D02*
X37661Y-22737D01*
X1181Y-52535D02*
X31016Y-22701D01*
X1181Y-32098D02*
X37346Y-68263D01*
X1181Y-55876D02*
X35434Y-21623D01*
X1181Y-49195D02*
X29298Y-21078D01*
X1181Y-112992D02*
Y-17716D01*
Y-40449D02*
X23343Y-62611D01*
X1181Y-47131D02*
X7857Y-53807D01*
X1181Y-45460D02*
X47583Y-91862D01*
X1181Y-37108D02*
X24894Y-60822D01*
X1181Y-38779D02*
X23884Y-61481D01*
X1181Y-99305D02*
X47662Y-52823D01*
X1181Y-52141D02*
X47569Y-98530D01*
X1181Y-53812D02*
X47566Y-100197D01*
X1181Y-94294D02*
X47673Y-47802D01*
X1181Y-95964D02*
X47669Y-49476D01*
X1181Y-97634D02*
X47666Y-51149D01*
X1181Y-102645D02*
X47656Y-56171D01*
X1181Y-57152D02*
X47559Y-103531D01*
X1181Y-58823D02*
X47556Y-105198D01*
X1181Y-100975D02*
X47659Y-54497D01*
X1181Y-55482D02*
X47563Y-101864D01*
X1181Y-64228D02*
X7393Y-58016D01*
X1181Y-62557D02*
X6530Y-57209D01*
X1181Y-65898D02*
X8824Y-58255D01*
X1181Y-48801D02*
X6813Y-54433D01*
X1181Y-50471D02*
X6236Y-55526D01*
X1181Y-60887D02*
X6188Y-55880D01*
X1181Y-89283D02*
X25222Y-65242D01*
X1181Y-87612D02*
X24088Y-64706D01*
X1181Y-104316D02*
X37438Y-68059D01*
X1181Y-84272D02*
X23639Y-61813D01*
X1181Y-85942D02*
X23424Y-63700D01*
X1181Y-110997D02*
X47639Y-64539D01*
X1181Y-112667D02*
X47635Y-66213D01*
X9Y-120520D02*
X47622Y-72908D01*
X-2196Y-119385D02*
X47628Y-69561D01*
X-823Y-119683D02*
X47625Y-71234D01*
X-5708Y-121227D02*
X47632Y-67887D01*
X297Y-121903D02*
X47618Y-74582D01*
X-5698Y-132909D02*
X47608Y-79603D01*
X-5696Y-134578D02*
X47605Y-81277D01*
X-5701Y-129571D02*
X47615Y-76256D01*
X-5699Y-131240D02*
X47611Y-77929D01*
X1181Y-63834D02*
X47546Y-110198D01*
X1181Y-105986D02*
X37318Y-69849D01*
X1181Y-65504D02*
X47542Y-111865D01*
X1181Y-60493D02*
X47552Y-106864D01*
X1181Y-62163D02*
X47549Y-108531D01*
X1181Y-109327D02*
X39155Y-71352D01*
X1181Y-107656D02*
X38000Y-70838D01*
X-5692Y-139584D02*
X47594Y-86298D01*
X-5695Y-136247D02*
X47601Y-82951D01*
X-5694Y-137916D02*
X47598Y-84624D01*
X1181Y-107262D02*
X31235Y-137316D01*
X1181Y-108933D02*
X30097Y-137848D01*
X1181Y-110603D02*
X29430Y-138852D01*
X1181Y-112273D02*
X19381Y-130473D01*
X705Y-113468D02*
X17845Y-130607D01*
X-130Y-114303D02*
X16934Y-131367D01*
X-965Y-115138D02*
X16520Y-132624D01*
X-5607Y-238049D02*
X7726Y-224716D01*
X-5605Y-239718D02*
X25177Y-208935D01*
X-3471Y-117644D02*
X-1727Y-119387D01*
X-4306Y-118479D02*
X-3106Y-119678D01*
X-5141Y-119314D02*
X-3942Y-120513D01*
X-5585Y-262518D02*
X-3762Y-264341D01*
X-5584Y-264190D02*
X-4238Y-265535D01*
X-5588Y-259174D02*
X-1137Y-263626D01*
X-5587Y-260846D02*
X-2805Y-263628D01*
X152Y-266585D02*
X18689Y-285122D01*
X-562Y-267542D02*
X17416Y-285519D01*
X-5540Y-314817D02*
X20008Y-289269D01*
X-5581Y-267533D02*
X29664Y-302778D01*
X-5580Y-269205D02*
X29220Y-304005D01*
X-5543Y-311479D02*
X17008Y-288928D01*
X-5517Y-341519D02*
X30081Y-305921D01*
X-5519Y-339851D02*
X29372Y-304960D01*
X-5516Y-343188D02*
X31271Y-306402D01*
X-5542Y-313148D02*
X18027Y-289579D01*
X-5520Y-338182D02*
X29383Y-303279D01*
X-5582Y-266420D02*
X-4098Y-264936D01*
X-5583Y-265861D02*
X16483Y-287926D01*
X-1756Y-268018D02*
X16644Y-286418D01*
X-5578Y-271426D02*
X-2170Y-268019D01*
X-5545Y-309811D02*
X16458Y-287808D01*
X-5581Y-268089D02*
X-4086Y-266593D01*
X-5579Y-269757D02*
X-3369Y-267547D01*
X-5686Y-146260D02*
X47581Y-92993D01*
X-5685Y-147929D02*
X47577Y-94667D01*
X-5683Y-149598D02*
X47574Y-96341D01*
X-5691Y-141253D02*
X47591Y-87972D01*
X-5689Y-142922D02*
X47587Y-89646D01*
X-5688Y-144591D02*
X47584Y-91319D01*
X-5673Y-161280D02*
X47550Y-108057D01*
X-5672Y-162949D02*
X47547Y-109731D01*
X-5669Y-166287D02*
X48025Y-112592D01*
X-5682Y-151267D02*
X47570Y-98014D01*
X-5680Y-152936D02*
X47567Y-99688D01*
X-5704Y-126233D02*
X-3102Y-123631D01*
X-5705Y-124565D02*
X-3939Y-122799D01*
X-5670Y-164618D02*
X47543Y-111404D01*
X-5709Y-119882D02*
X1181Y-112992D01*
X-5709Y-120417D02*
X-4236Y-121889D01*
X-5706Y-122896D02*
X-4237Y-121426D01*
X-5676Y-157942D02*
X17631Y-134635D01*
X-5678Y-156273D02*
X16808Y-133787D01*
X-5675Y-159611D02*
X18988Y-134949D01*
X-5702Y-127902D02*
X-1719Y-123919D01*
X-5679Y-154604D02*
X16538Y-132387D01*
X-5665Y-171293D02*
X50531Y-115098D01*
X-5666Y-169624D02*
X49696Y-114263D01*
X-5662Y-174631D02*
X29317Y-139653D01*
X-5667Y-167956D02*
X48861Y-113427D01*
X-5693Y-138806D02*
X42201Y-186700D01*
X-5691Y-140478D02*
X40971Y-187141D01*
X-5659Y-177969D02*
X30663Y-141647D01*
X-5660Y-176300D02*
X29743Y-140897D01*
X-5657Y-179638D02*
X32222Y-141758D01*
X-5690Y-142150D02*
X40231Y-188070D01*
X-5688Y-143822D02*
X40147Y-189657D01*
X-5661Y-175585D02*
X23908Y-205154D01*
X-5659Y-177257D02*
X23351Y-206267D01*
X-5633Y-207349D02*
X7263Y-220245D01*
X-5662Y-173914D02*
X24934Y-204510D01*
X-5664Y-172242D02*
X26981Y-204887D01*
X-5610Y-234711D02*
X5774Y-223327D01*
X-5611Y-233042D02*
X5712Y-221719D01*
X-5608Y-236380D02*
X6507Y-224265D01*
X-5632Y-209021D02*
X6220Y-220872D01*
X-5630Y-210693D02*
X5644Y-221967D01*
X-5485Y-378235D02*
X54921Y-317828D01*
X-5487Y-376566D02*
X54921Y-316158D01*
X-5484Y-379904D02*
X54921Y-319499D01*
X-5490Y-373228D02*
X54921Y-312817D01*
X-5491Y-371559D02*
X54921Y-311147D01*
X-5488Y-374897D02*
X54921Y-314488D01*
X-5478Y-386579D02*
X54921Y-326180D01*
X-5480Y-384910D02*
X54921Y-324510D01*
X-5477Y-388248D02*
X54921Y-327850D01*
X-5482Y-381573D02*
X54921Y-321169D01*
X-5481Y-383242D02*
X54921Y-322839D01*
X-5501Y-359877D02*
X54921Y-299455D01*
X-5503Y-358208D02*
X54921Y-297784D01*
X-5500Y-361546D02*
X54921Y-301125D01*
X-5506Y-354871D02*
X54921Y-294444D01*
X-5507Y-353202D02*
X54921Y-292773D01*
X-5504Y-356539D02*
X54921Y-296114D01*
X-5494Y-368222D02*
X54921Y-307806D01*
X-5495Y-366553D02*
X54921Y-306136D01*
X-5492Y-369890D02*
X54921Y-309477D01*
X-5498Y-363215D02*
X54921Y-302795D01*
X-5497Y-364884D02*
X54921Y-304466D01*
X-5456Y-411613D02*
X54921Y-351235D01*
X-5458Y-409944D02*
X54921Y-349565D01*
X-5455Y-413281D02*
X54921Y-352905D01*
X-5507Y-352794D02*
X54921Y-413222D01*
X-5459Y-408275D02*
X54921Y-347894D01*
X-5506Y-354466D02*
X54921Y-414893D01*
X-5452Y-416619D02*
X54921Y-356246D01*
X-5454Y-414950D02*
X54921Y-354576D01*
X-5451Y-418288D02*
X54921Y-357916D01*
X-5504Y-356137D02*
X54921Y-416563D01*
X-5503Y-357809D02*
X54921Y-418233D01*
X-5469Y-396593D02*
X54921Y-336202D01*
X-5471Y-394924D02*
X54921Y-334532D01*
X-5468Y-398261D02*
X54921Y-337872D01*
X-5474Y-391586D02*
X54921Y-331191D01*
X-5475Y-389917D02*
X54921Y-329521D01*
X-5472Y-393255D02*
X54921Y-332861D01*
X-5462Y-404937D02*
X54921Y-344554D01*
X-5464Y-403268D02*
X54921Y-342883D01*
X-5461Y-406606D02*
X54921Y-346224D01*
X-5466Y-399930D02*
X54921Y-339543D01*
X-5465Y-401599D02*
X54921Y-341213D01*
X-5548Y-305984D02*
X54921Y-366453D01*
X-5549Y-304312D02*
X54921Y-364783D01*
X-5547Y-307656D02*
X54921Y-368123D01*
X-5552Y-300969D02*
X54921Y-361442D01*
X-5554Y-299297D02*
X54921Y-359772D01*
X-5551Y-302640D02*
X54921Y-363112D01*
X-5541Y-314343D02*
X54921Y-374805D01*
X-5542Y-312671D02*
X54921Y-373134D01*
X-5539Y-316015D02*
X54921Y-376475D01*
X-5545Y-309328D02*
X54921Y-369794D01*
X-5544Y-310999D02*
X54921Y-371464D01*
X-5511Y-348195D02*
X54921Y-287762D01*
X-5513Y-346526D02*
X54921Y-286092D01*
X-5510Y-349864D02*
X54921Y-289433D01*
X-5562Y-289266D02*
X54921Y-349750D01*
X-5564Y-287594D02*
X54921Y-348079D01*
X-5561Y-290938D02*
X54921Y-351420D01*
X-5557Y-295953D02*
X54921Y-356431D01*
X-5508Y-351533D02*
X54921Y-291103D01*
X-5555Y-297625D02*
X54921Y-358102D01*
X-5559Y-292610D02*
X54921Y-353091D01*
X-5558Y-294282D02*
X54921Y-354761D01*
X-5517Y-341091D02*
X54921Y-401530D01*
X-5519Y-339420D02*
X54921Y-399860D01*
X-5516Y-342763D02*
X54921Y-403200D01*
X-5522Y-336076D02*
X54921Y-396519D01*
X-5523Y-334404D02*
X54921Y-394849D01*
X-5520Y-337748D02*
X54921Y-398189D01*
X-5510Y-349450D02*
X54921Y-409882D01*
X-5512Y-347778D02*
X54921Y-408211D01*
X-5509Y-351122D02*
X54921Y-411552D01*
X-5515Y-344435D02*
X54921Y-404871D01*
X-5513Y-346107D02*
X54921Y-406541D01*
X-5533Y-322702D02*
X54921Y-383156D01*
X-5535Y-321030D02*
X54921Y-381486D01*
X-5532Y-324374D02*
X54921Y-384827D01*
X-5538Y-317686D02*
X54921Y-378145D01*
X-5536Y-319358D02*
X54921Y-379816D01*
X-5526Y-331061D02*
X54921Y-391508D01*
X-5528Y-329389D02*
X54921Y-389838D01*
X-5525Y-332732D02*
X54921Y-393178D01*
X-5531Y-326045D02*
X54921Y-386497D01*
X-5529Y-327717D02*
X54921Y-388167D01*
X-5425Y-448328D02*
X54921Y-387982D01*
X-5426Y-446659D02*
X54921Y-386312D01*
X-5423Y-449997D02*
X54921Y-389652D01*
X-5429Y-443321D02*
X54921Y-382971D01*
X-5430Y-441652D02*
X54921Y-381301D01*
X-5427Y-444990D02*
X54921Y-384642D01*
X-5419Y-455004D02*
X54921Y-394664D01*
X-1530Y-454456D02*
X54921Y-398004D01*
X-5417Y-456672D02*
X54921Y-396334D01*
X-5422Y-451666D02*
X54921Y-391323D01*
X-5420Y-453335D02*
X54921Y-392993D01*
X-5400Y-476699D02*
X54921Y-416378D01*
X-5401Y-475030D02*
X54921Y-414708D01*
X-5397Y-479849D02*
X50197Y-535443D01*
X-5403Y-473361D02*
X54921Y-413037D01*
X-5404Y-471692D02*
X38868Y-427420D01*
X-5431Y-441398D02*
X54921Y-501750D01*
X-5392Y-486536D02*
X50197Y-542124D01*
X-5393Y-484864D02*
X50197Y-540454D01*
X-5390Y-488208D02*
X50197Y-543795D01*
X-5396Y-481521D02*
X50197Y-537113D01*
X-5394Y-483192D02*
X50197Y-538784D01*
X-5384Y-494895D02*
X44747Y-545027D01*
X-5383Y-496567D02*
X43673Y-545623D01*
X-5364Y-518300D02*
X49171Y-572835D01*
X-5387Y-491551D02*
X50197Y-547135D01*
X-5389Y-489880D02*
X50197Y-545465D01*
X-5386Y-493223D02*
X50197Y-548806D01*
X-708Y-519616D02*
X50197Y-570520D01*
X-5360Y-523315D02*
X44160Y-572835D01*
X-1997Y-519996D02*
X50841Y-572835D01*
X-5362Y-519972D02*
X47501Y-572835D01*
X-5361Y-521643D02*
X45830Y-572835D01*
X-1315Y-569493D02*
X41613Y-526565D01*
X-2488Y-568996D02*
X40778Y-525730D01*
X-5319Y-570157D02*
X39943Y-524895D01*
X-5381Y-498238D02*
X43066Y-546685D01*
X-5320Y-568488D02*
X39108Y-524060D01*
X-5358Y-524987D02*
X42490Y-572835D01*
X-619Y-570467D02*
X42448Y-527400D01*
X-1315Y-569493D02*
X41613Y-526565D01*
X-678Y-572197D02*
X43283Y-528235D01*
X-5357Y-526659D02*
X40819Y-572835D01*
X-5355Y-528330D02*
X39149Y-572835D01*
X-5448Y-421626D02*
X54921Y-361257D01*
X-5449Y-419957D02*
X54921Y-359587D01*
X-5446Y-423295D02*
X54921Y-362927D01*
X-5500Y-361153D02*
X54921Y-421574D01*
X-5502Y-359481D02*
X54921Y-419904D01*
X-5499Y-362824D02*
X54921Y-423244D01*
X-5443Y-426632D02*
X54921Y-366268D01*
X-5445Y-424964D02*
X54921Y-364598D01*
X-5494Y-367840D02*
X54921Y-428255D01*
X-5497Y-364496D02*
X54921Y-424915D01*
X-5496Y-366168D02*
X54921Y-426585D01*
X-5441Y-429970D02*
X54921Y-369609D01*
X-5442Y-428301D02*
X54921Y-367938D01*
X-5439Y-431639D02*
X54921Y-371279D01*
X-5491Y-371183D02*
X54921Y-431596D01*
X-5493Y-369512D02*
X54921Y-429926D01*
X-5490Y-372855D02*
X54921Y-433266D01*
X-5438Y-433308D02*
X54921Y-372949D01*
X-5486Y-377870D02*
X39570Y-422926D01*
X-5436Y-434977D02*
X54921Y-374620D01*
X-5488Y-374527D02*
X54921Y-434937D01*
X-5487Y-376199D02*
X54921Y-436607D01*
X-5446Y-423008D02*
X54921Y-483376D01*
X-5448Y-421337D02*
X54921Y-481706D01*
X-5445Y-424680D02*
X54921Y-485046D01*
X-5457Y-411306D02*
X54921Y-471684D01*
X-5458Y-409634D02*
X54921Y-470014D01*
X-5455Y-412978D02*
X54921Y-473354D01*
X-5434Y-438054D02*
X54921Y-498409D01*
X-5441Y-429696D02*
X54921Y-490058D01*
X-5432Y-439726D02*
X54921Y-500079D01*
X-5444Y-426352D02*
X54921Y-486717D01*
X-5442Y-428024D02*
X54921Y-488387D01*
X-5433Y-438315D02*
X54921Y-377960D01*
X-5435Y-436646D02*
X54921Y-376290D01*
X-5432Y-439984D02*
X54921Y-379630D01*
X-5480Y-384558D02*
X54921Y-444959D01*
X-5478Y-386229D02*
X54921Y-446629D01*
X-5467Y-399604D02*
X54921Y-459992D01*
X-5468Y-397932D02*
X54921Y-458321D01*
X-5465Y-401275D02*
X54921Y-461662D01*
X-5477Y-387901D02*
X54921Y-448299D01*
X-5475Y-389573D02*
X54921Y-449970D01*
X-225Y-458161D02*
X7381Y-450555D01*
X218Y-456048D02*
X6703Y-449563D01*
X271Y-457121D02*
X13651Y-470501D01*
X-5406Y-470023D02*
X26507Y-438111D01*
X-422Y-455018D02*
X6844Y-447752D01*
X-288Y-458233D02*
X11824Y-470345D01*
X-1315Y-458877D02*
X10958Y-471149D01*
X-3374Y-458488D02*
X10851Y-472712D01*
X-5399Y-478368D02*
X2161Y-470808D01*
X-5402Y-474833D02*
X1772Y-482007D01*
X-5400Y-476505D02*
X1772Y-483677D01*
X-5406Y-469818D02*
X1772Y-476996D01*
X-5396Y-481706D02*
X1772Y-474538D01*
X-5397Y-480037D02*
X1772Y-472868D01*
X-5394Y-483375D02*
X1772Y-476209D01*
X-5404Y-471490D02*
X1772Y-478666D01*
X-5403Y-473162D02*
X1772Y-480337D01*
X-5373Y-508408D02*
X9042Y-493994D01*
X-5374Y-506739D02*
X8207Y-493158D01*
X-5371Y-510077D02*
X9877Y-494829D01*
X-5377Y-503401D02*
X6536Y-491488D01*
X-5378Y-501732D02*
X5701Y-490653D01*
X-5375Y-505070D02*
X7371Y-492323D01*
X-2426Y-515483D02*
X14053Y-499005D01*
X-5367Y-515083D02*
X12382Y-497334D01*
X-5365Y-516752D02*
X13217Y-498170D01*
X-5370Y-511746D02*
X10712Y-495664D01*
X-5368Y-513414D02*
X11547Y-496499D01*
X-5389Y-490050D02*
X1772Y-482890D01*
X-5390Y-488381D02*
X1772Y-481220D01*
X-5387Y-491719D02*
X1772Y-484560D01*
X-5399Y-478177D02*
X1772Y-485348D01*
X-5393Y-485043D02*
X1772Y-477879D01*
X-5391Y-486712D02*
X1772Y-479549D01*
X-5381Y-498395D02*
X4031Y-488983D01*
X-5383Y-496726D02*
X3196Y-488147D01*
X-5380Y-500064D02*
X4866Y-489818D01*
X-5386Y-493388D02*
X1804Y-486199D01*
X-5384Y-495057D02*
X2361Y-487312D01*
X-5474Y-391245D02*
X32223Y-428942D01*
X-5473Y-392916D02*
X30612Y-429001D01*
X-5471Y-394588D02*
X29674Y-429733D01*
X-5484Y-379542D02*
X38209Y-423235D01*
X-5483Y-381214D02*
X37383Y-424080D01*
X-5481Y-382886D02*
X37108Y-425475D01*
X-5463Y-404619D02*
X24164Y-434245D01*
X-5461Y-406291D02*
X23460Y-435212D01*
X-5460Y-407962D02*
X23492Y-436914D01*
X-5470Y-396260D02*
X29222Y-430951D01*
X-5464Y-402947D02*
X25346Y-433757D01*
X-5449Y-419665D02*
X16451Y-441565D01*
X-5438Y-433039D02*
X8169Y-446646D01*
X-5439Y-431367D02*
X10102Y-446909D01*
X-5454Y-414649D02*
X19868Y-439971D01*
X-5452Y-416321D02*
X17990Y-439763D01*
X-5451Y-417993D02*
X16985Y-440429D01*
X-5422Y-451429D02*
X-2397Y-454454D01*
X-5421Y-453100D02*
X-3509Y-455012D01*
X-5419Y-454772D02*
X-4152Y-456039D01*
X-5436Y-434711D02*
X7156Y-447303D01*
X-5435Y-436383D02*
X6612Y-448430D01*
X-5409Y-466686D02*
X17445Y-443832D01*
X-5425Y-448085D02*
X13442Y-466952D01*
X-5407Y-468355D02*
X18739Y-444208D01*
X-5429Y-443070D02*
X14707Y-463206D01*
X-5428Y-444741D02*
X13781Y-463950D01*
X-5426Y-446413D02*
X13529Y-465369D01*
X-5410Y-465017D02*
X8532Y-451075D01*
X-5413Y-461459D02*
X3155Y-470028D01*
X-5415Y-459788D02*
X4911Y-470113D01*
X-5423Y-449757D02*
X12716Y-467896D01*
X-5416Y-458116D02*
X32033Y-495565D01*
X-5415Y-460010D02*
X-3643Y-458239D01*
X-5416Y-458341D02*
X-4205Y-457131D01*
X-5412Y-463348D02*
X-500Y-458436D01*
X-5418Y-456444D02*
X-3763Y-458098D01*
X-5709Y-119882D02*
X-5317Y-572835D01*
X-5410Y-464803D02*
X1773Y-471986D01*
X-5409Y-466475D02*
X1772Y-473655D01*
X-5407Y-468146D02*
X1772Y-475325D01*
X-5413Y-461679D02*
X-2613Y-458879D01*
X-5412Y-463131D02*
X2205Y-470748D01*
X-5331Y-556806D02*
X33261Y-518214D01*
X-5332Y-555137D02*
X32426Y-517378D01*
X-5323Y-565150D02*
X37437Y-522389D01*
X-5335Y-551799D02*
X30756Y-515708D01*
X-5336Y-550130D02*
X29921Y-514873D01*
X-5333Y-553468D02*
X31591Y-516543D01*
X-5325Y-563481D02*
X22634Y-535523D01*
X-5326Y-561812D02*
X20878Y-535608D01*
X-5322Y-566819D02*
X38272Y-523224D01*
X-5329Y-558474D02*
X19392Y-533753D01*
X-5328Y-560143D02*
X19897Y-534918D01*
X311Y-517758D02*
X16558Y-501510D01*
X-65Y-516463D02*
X15723Y-500675D01*
X261Y-517244D02*
X7736Y-524719D01*
X-950Y-515677D02*
X14888Y-499840D01*
X75Y-518727D02*
X7691Y-526344D01*
X-5322Y-566781D02*
X-3097Y-569006D01*
X-5331Y-556751D02*
X7506Y-569587D01*
X-5329Y-558422D02*
X6867Y-570619D01*
X355Y-572835D02*
X31262Y-541927D01*
X-5334Y-553407D02*
X14094Y-572835D01*
X-5332Y-555079D02*
X8613Y-569024D01*
X-5335Y-551735D02*
X15764Y-572835D01*
X-5325Y-563438D02*
X4072Y-572835D01*
X-5323Y-565109D02*
X2402Y-572835D01*
X-1108Y-572835D02*
X7407Y-572835D01*
X-5328Y-560094D02*
X7344Y-572766D01*
X-5326Y-561766D02*
X5742Y-572835D01*
X-5320Y-568453D02*
X-4242Y-569531D01*
X-5319Y-570125D02*
X-4915Y-570529D01*
X-5317Y-572835D02*
X-4404D01*
X-502Y-571601D02*
X731Y-572835D01*
X-5318Y-571826D02*
X-5020Y-571527D01*
X-5318Y-571797D02*
X-4750Y-572364D01*
X-5355Y-528435D02*
X19064Y-504016D01*
X-5357Y-526766D02*
X18228Y-503181D01*
X-5354Y-530103D02*
X19899Y-504851D01*
X-5376Y-504925D02*
X20984Y-531285D01*
X-5358Y-525097D02*
X17393Y-502345D01*
X-5377Y-503254D02*
X22980Y-531611D01*
X-5349Y-535110D02*
X22404Y-507356D01*
X-5351Y-533441D02*
X21569Y-506521D01*
X-5348Y-536779D02*
X23239Y-508191D01*
X-5352Y-531772D02*
X20734Y-505686D01*
X-5374Y-506597D02*
X19963Y-531935D01*
X-5368Y-513284D02*
X-2979Y-515673D01*
X-5367Y-514956D02*
X-3867Y-516456D01*
X-5365Y-516628D02*
X-4248Y-517745D01*
X-5373Y-508269D02*
X9675Y-523317D01*
X-5370Y-511613D02*
X-1496Y-515486D01*
X-5371Y-509941D02*
X8463Y-523775D01*
X-5359Y-523428D02*
X-1927Y-519996D01*
X-5361Y-521759D02*
X-3222Y-519620D01*
X-5347Y-538448D02*
X7564Y-525538D01*
X-5364Y-518421D02*
X-4202Y-517259D01*
X-5362Y-520090D02*
X-4008Y-518735D01*
X-5338Y-548461D02*
X29086Y-514038D01*
X-5339Y-546792D02*
X28251Y-513202D01*
X-5352Y-531674D02*
X32044Y-569070D01*
X-5380Y-499910D02*
X33793Y-539083D01*
X-5378Y-501582D02*
X32376Y-539336D01*
X-5354Y-530002D02*
X37479Y-572835D01*
X-5347Y-538361D02*
X29127Y-572835D01*
X-5345Y-540033D02*
X27457Y-572835D01*
X-5348Y-536689D02*
X30797Y-572835D01*
X-5351Y-533346D02*
X31009Y-569706D01*
X-5350Y-535017D02*
X30443Y-570810D01*
X-5342Y-543454D02*
X10286Y-527827D01*
X-5344Y-541786D02*
X8816Y-527626D01*
X-5341Y-545123D02*
X27415Y-512367D01*
X-5345Y-540117D02*
X7934Y-526837D01*
X-5344Y-541705D02*
X25786Y-572835D01*
X-5338Y-548392D02*
X19105Y-572835D01*
X-5339Y-546720D02*
X18653Y-570713D01*
X-5336Y-550064D02*
X17435Y-572835D01*
X-5342Y-543376D02*
X20326Y-569045D01*
X-5341Y-545048D02*
X19257Y-569646D01*
X15354Y-465158D02*
X20079Y-469882D01*
X14484Y-468815D02*
X18504Y-472835D01*
X14484Y-468815D02*
Y-468504D01*
X20079Y-475197D02*
Y-469882D01*
X14862Y-476673D02*
X16831D01*
X33071Y-497244D02*
Y-492913D01*
X16831Y-476673D02*
X33071Y-492913D01*
X34055Y-489173D02*
X38386D01*
X20079Y-475197D02*
X34055Y-489173D01*
X33268Y-489961D02*
X35630D01*
X18504Y-475197D02*
X33268Y-489961D01*
X18504Y-475197D02*
Y-472835D01*
X15748Y-474016D02*
X36350Y-494618D01*
Y-494898D02*
Y-494618D01*
X12598Y-474409D02*
Y-472047D01*
Y-474409D02*
X14862Y-476673D01*
X35630Y-489961D02*
X42126Y-496457D01*
X38386Y-489173D02*
X39764Y-490551D01*
D11*
X43307Y-20472D02*
Y-18390D01*
Y-20472D02*
X45390D01*
X43307Y-22555D02*
Y-20472D01*
X41224D02*
X43307D01*
X42323Y-188976D02*
X44405D01*
X35319Y-20472D02*
X37402D01*
X39484D01*
X37402D02*
Y-18390D01*
X31496Y-20472D02*
X33579D01*
X39469Y-69095D02*
X41551D01*
X39469D02*
Y-67012D01*
X37402Y-22555D02*
Y-20472D01*
X37386Y-69095D02*
X39469D01*
X31496Y-20472D02*
Y-18390D01*
Y-22555D02*
Y-20472D01*
X25591D02*
X27673D01*
X25591D02*
Y-18390D01*
X29413Y-20472D02*
X31496D01*
X25591Y-22555D02*
Y-20472D01*
Y-62992D02*
Y-60909D01*
Y-62992D02*
X27673D01*
X25591Y-65075D02*
Y-62992D01*
X19685Y-20472D02*
Y-18390D01*
X23508Y-20472D02*
X25591D01*
X19685D02*
X21768D01*
X19685Y-22555D02*
Y-20472D01*
X17602D02*
X19685D01*
X23508Y-62992D02*
X25591D01*
X8465Y-56004D02*
X10547D01*
X8465D02*
Y-53921D01*
Y-58087D02*
Y-56004D01*
X6382D02*
X8465D01*
X40240Y-188976D02*
X42323D01*
Y-186894D01*
Y-191059D02*
Y-188976D01*
X39469Y-71177D02*
Y-69095D01*
X31594Y-139567D02*
X33677D01*
X31496Y-304134D02*
X33579D01*
X31594Y-139567D02*
Y-137484D01*
X29512Y-139567D02*
X31594D01*
Y-141650D02*
Y-139567D01*
X25591Y-206693D02*
Y-204610D01*
X29413Y-304134D02*
X31496D01*
X25591Y-206693D02*
X27673D01*
X31496Y-304134D02*
Y-302051D01*
X23508Y-206693D02*
X25591D01*
Y-208776D02*
Y-206693D01*
X39370Y-425197D02*
X41453D01*
X39370D02*
Y-423114D01*
Y-427280D02*
Y-425197D01*
X37287D02*
X39370D01*
X31496Y-306217D02*
Y-304134D01*
Y-431102D02*
X33579D01*
X29413D02*
X31496D01*
Y-433185D02*
Y-431102D01*
Y-429020D01*
X25591Y-436024D02*
X27673D01*
X25591D02*
Y-433941D01*
Y-438106D02*
Y-436024D01*
X23508D02*
X25591D01*
X18799Y-132677D02*
X20882D01*
X18701Y-287402D02*
X20784D01*
X18799Y-132677D02*
Y-130595D01*
X16716Y-132677D02*
X18799D01*
Y-134760D02*
Y-132677D01*
X5791Y-222441D02*
X7874D01*
Y-220358D01*
X16618Y-287402D02*
X18701D01*
Y-285319D01*
Y-289484D02*
Y-287402D01*
X7874Y-222441D02*
X9957D01*
X7874Y-224524D02*
Y-222441D01*
X18701Y-441929D02*
Y-439847D01*
Y-441929D02*
X20784D01*
X16618D02*
X18701D01*
Y-444012D02*
Y-441929D01*
X8858Y-448819D02*
Y-446736D01*
Y-448819D02*
X10941D01*
X6776D02*
X8858D01*
Y-450902D02*
Y-448819D01*
X33465Y-541339D02*
X35547D01*
X31382D02*
X33465D01*
Y-539256D01*
X45276Y-547244D02*
X47358D01*
X45276D02*
Y-545161D01*
X43193Y-547244D02*
X45276D01*
Y-549327D02*
Y-547244D01*
X33465Y-543421D02*
Y-541339D01*
X32677Y-571260D02*
Y-569177D01*
Y-571260D02*
X34760D01*
X30595D02*
X32677D01*
X9843Y-525591D02*
X11925D01*
X9843D02*
Y-523508D01*
X7760Y-525591D02*
X9843D01*
Y-527673D02*
Y-525591D01*
X21654Y-533465D02*
X23736D01*
X21654D02*
Y-531382D01*
Y-535547D02*
Y-533465D01*
X19571D02*
X21654D01*
X20866Y-571260D02*
Y-569177D01*
Y-571260D02*
X22949D01*
X18783D02*
X20866D01*
X9055D02*
X11138D01*
X9055D02*
Y-569177D01*
X6972Y-571260D02*
X9055D01*
X-1969Y-121653D02*
X114D01*
X-1969Y-265748D02*
X114D01*
X-1969Y-121653D02*
Y-119571D01*
X-4051Y-121653D02*
X-1969D01*
Y-123736D02*
Y-121653D01*
Y-265748D02*
Y-263665D01*
Y-267831D02*
Y-265748D01*
X-4051D02*
X-1969D01*
Y-456693D02*
X114D01*
X-1969D02*
Y-454610D01*
Y-458776D02*
Y-456693D01*
X-4051D02*
X-1969D01*
Y-517717D02*
Y-515634D01*
Y-517717D02*
X114D01*
X-1969Y-519799D02*
Y-517717D01*
X-4051D02*
X-1969D01*
X-2756Y-571260D02*
X-673D01*
X-2756D02*
Y-569177D01*
X-4839Y-571260D02*
X-2756D01*
D19*
X52362Y-550000D02*
Y-534350D01*
Y-561024D02*
Y-550000D01*
Y-571260D02*
Y-561024D01*
X3937Y-481496D02*
Y-472047D01*
Y-485827D02*
Y-481496D01*
Y-485827D02*
X52362Y-534252D01*
D20*
X15354Y-465158D02*
Y-464961D01*
X36032Y-494579D02*
X36350Y-494898D01*
X36032Y-494579D02*
Y-494300D01*
X42126Y-496457D02*
X42535D01*
D21*
X8858Y-448819D02*
D03*
X31496Y-304134D02*
D03*
X18701Y-287402D02*
D03*
X42323Y-188976D02*
D03*
X25591Y-206693D02*
D03*
X7874Y-222441D02*
D03*
X-1969Y-265748D02*
D03*
X25591Y-62992D02*
D03*
X39469Y-69095D02*
D03*
X8465Y-56004D02*
D03*
X31594Y-139567D02*
D03*
X18799Y-132677D02*
D03*
X-1969Y-121653D02*
D03*
X39370Y-425197D02*
D03*
X25591Y-436024D02*
D03*
X31496Y-431102D02*
D03*
X18701Y-441929D02*
D03*
X-1969Y-456693D02*
D03*
X45276Y-547244D02*
D03*
X33465Y-541339D02*
D03*
X21654Y-533465D02*
D03*
X9843Y-525591D02*
D03*
X-1969Y-517717D02*
D03*
X15354Y-464961D02*
D03*
X14484Y-468504D02*
D03*
X37402Y-20472D02*
D03*
X52362Y-550000D02*
D03*
X9055Y-571260D02*
D03*
X12598Y-472047D02*
D03*
X3937D02*
D03*
Y-481496D02*
D03*
X52362Y-561024D02*
D03*
X3937Y-30709D02*
D03*
X19685Y-20472D02*
D03*
X31496D02*
D03*
X25591D02*
D03*
X3937Y-19291D02*
D03*
X52362Y-571260D02*
D03*
X36350Y-494898D02*
D03*
X33071Y-497244D02*
D03*
X42535Y-496457D02*
D03*
X39764Y-490551D02*
D03*
X15748Y-474016D02*
D03*
X43307Y-20472D02*
D03*
X32677Y-571260D02*
D03*
X20866D02*
D03*
X-2756D02*
D03*
M02*
