G04*
G04 #@! TF.GenerationSoftware,Altium Limited,Altium Designer,20.2.6 (244)*
G04*
G04 Layer_Color=255*
%FSLAX25Y25*%
%MOIN*%
G70*
G04*
G04 #@! TF.SameCoordinates,2B018634-E8C6-49A8-AC31-D19AD41F8AF0*
G04*
G04*
G04 #@! TF.FilePolarity,Positive*
G04*
G01*
G75*
%ADD13R,0.02756X0.15748*%
%ADD14R,0.01181X0.15748*%
D13*
X52362Y-581890D02*
D03*
X48425D02*
D03*
X44488D02*
D03*
X40551D02*
D03*
X36614D02*
D03*
X32677D02*
D03*
X28740D02*
D03*
X24803D02*
D03*
X20866D02*
D03*
X16929D02*
D03*
X12992D02*
D03*
X9055D02*
D03*
X5118D02*
D03*
X1181D02*
D03*
X-2756D02*
D03*
D03*
D14*
X1969Y-8661D02*
D03*
X3937D02*
D03*
D03*
X5906D02*
D03*
X7874D02*
D03*
X9843D02*
D03*
X11811D02*
D03*
X13780D02*
D03*
X15748D02*
D03*
X17717D02*
D03*
X19685D02*
D03*
X21654D02*
D03*
X23622D02*
D03*
X25591D02*
D03*
X27559D02*
D03*
X29528D02*
D03*
X31496D02*
D03*
X33465D02*
D03*
X35433D02*
D03*
X37402D02*
D03*
X39370D02*
D03*
X41339D02*
D03*
X43307D02*
D03*
X45276D02*
D03*
X47244D02*
D03*
M02*
