G04*
G04 #@! TF.GenerationSoftware,Altium Limited,Altium Designer,20.2.6 (244)*
G04*
G04 Layer_Color=65535*
%FSLAX25Y25*%
%MOIN*%
G70*
G04*
G04 #@! TF.SameCoordinates,2B018634-E8C6-49A8-AC31-D19AD41F8AF0*
G04*
G04*
G04 #@! TF.FilePolarity,Positive*
G04*
G01*
G75*
G36*
X35536Y-207705D02*
X35527Y-207842D01*
X35518Y-207997D01*
X35509Y-208161D01*
X35491Y-208316D01*
X35473Y-208452D01*
Y-208471D01*
X35454Y-208534D01*
X35436Y-208616D01*
X35409Y-208726D01*
X35363Y-208844D01*
X35309Y-208972D01*
X35245Y-209108D01*
X35172Y-209227D01*
X35163Y-209245D01*
X35136Y-209281D01*
X35081Y-209336D01*
X35017Y-209409D01*
X34935Y-209491D01*
X34826Y-209573D01*
X34707Y-209664D01*
X34571Y-209737D01*
X34552Y-209746D01*
X34507Y-209764D01*
X34425Y-209801D01*
X34316Y-209837D01*
X34188Y-209864D01*
X34042Y-209901D01*
X33878Y-209919D01*
X33705Y-209928D01*
X33696D01*
X33669D01*
X33632D01*
X33569Y-209919D01*
X33505Y-209910D01*
X33423Y-209901D01*
X33332Y-209883D01*
X33232Y-209864D01*
X33022Y-209801D01*
X32913Y-209764D01*
X32794Y-209710D01*
X32676Y-209646D01*
X32566Y-209582D01*
X32457Y-209500D01*
X32348Y-209409D01*
X32339Y-209400D01*
X32321Y-209382D01*
X32293Y-209354D01*
X32266Y-209309D01*
X32220Y-209254D01*
X32175Y-209181D01*
X32120Y-209090D01*
X32075Y-208990D01*
X32020Y-208871D01*
X31965Y-208735D01*
X31920Y-208589D01*
X31883Y-208416D01*
X31847Y-208234D01*
X31819Y-208033D01*
X31801Y-207806D01*
X31792Y-207569D01*
Y-205956D01*
X29232D01*
Y-205118D01*
X35536D01*
Y-207705D01*
D02*
G37*
G36*
X31637Y-210611D02*
X31728D01*
X31829Y-210621D01*
X31956Y-210639D01*
X32084Y-210657D01*
X32230Y-210693D01*
X32375Y-210730D01*
X32530Y-210775D01*
X32694Y-210830D01*
X32849Y-210903D01*
X32995Y-210976D01*
X33141Y-211076D01*
X33277Y-211176D01*
X33395Y-211304D01*
X33405Y-211313D01*
X33414Y-211331D01*
X33441Y-211368D01*
X33478Y-211413D01*
X33514Y-211468D01*
X33560Y-211541D01*
X33605Y-211613D01*
X33651Y-211705D01*
X33696Y-211805D01*
X33742Y-211914D01*
X33824Y-212160D01*
X33887Y-212442D01*
X33897Y-212588D01*
X33906Y-212743D01*
Y-212834D01*
X33897Y-212898D01*
X33887Y-212980D01*
X33869Y-213071D01*
X33851Y-213171D01*
X33833Y-213290D01*
X33751Y-213536D01*
X33705Y-213663D01*
X33641Y-213791D01*
X33578Y-213918D01*
X33487Y-214046D01*
X33395Y-214164D01*
X33286Y-214283D01*
X33277Y-214292D01*
X33259Y-214310D01*
X33222Y-214337D01*
X33177Y-214374D01*
X33113Y-214419D01*
X33031Y-214474D01*
X32940Y-214529D01*
X32840Y-214583D01*
X32730Y-214638D01*
X32594Y-214693D01*
X32457Y-214747D01*
X32302Y-214793D01*
X32138Y-214829D01*
X31965Y-214857D01*
X31783Y-214875D01*
X31583Y-214884D01*
X31574D01*
X31546D01*
X31501D01*
X31437D01*
X31364Y-214875D01*
X31273Y-214866D01*
X31182D01*
X31082Y-214848D01*
X30854Y-214820D01*
X30626Y-214766D01*
X30398Y-214702D01*
X30189Y-214611D01*
X30180D01*
X30171Y-214602D01*
X30143Y-214583D01*
X30107Y-214565D01*
X30016Y-214501D01*
X29906Y-214419D01*
X29779Y-214310D01*
X29651Y-214174D01*
X29524Y-214019D01*
X29405Y-213836D01*
Y-213827D01*
X29396Y-213818D01*
X29378Y-213791D01*
X29360Y-213745D01*
X29342Y-213700D01*
X29323Y-213645D01*
X29269Y-213508D01*
X29223Y-213353D01*
X29178Y-213162D01*
X29141Y-212962D01*
X29132Y-212743D01*
Y-212652D01*
X29141Y-212579D01*
X29150Y-212497D01*
X29168Y-212406D01*
X29187Y-212297D01*
X29205Y-212188D01*
X29278Y-211942D01*
X29333Y-211805D01*
X29387Y-211677D01*
X29460Y-211550D01*
X29542Y-211422D01*
X29633Y-211304D01*
X29742Y-211185D01*
X29752Y-211176D01*
X29770Y-211158D01*
X29806Y-211131D01*
X29861Y-211094D01*
X29925Y-211049D01*
X29998Y-211003D01*
X30089Y-210948D01*
X30198Y-210894D01*
X30316Y-210839D01*
X30453Y-210785D01*
X30599Y-210739D01*
X30754Y-210693D01*
X30927Y-210657D01*
X31109Y-210630D01*
X31309Y-210611D01*
X31519Y-210602D01*
X31537D01*
X31574D01*
X31637Y-210611D01*
D02*
G37*
G36*
X35536Y-216551D02*
X29232D01*
Y-215777D01*
X35536D01*
Y-216551D01*
D02*
G37*
G36*
X33806Y-218127D02*
X31155Y-219084D01*
X31145D01*
X31136Y-219093D01*
X31109Y-219102D01*
X31063Y-219111D01*
X31018Y-219129D01*
X30963Y-219147D01*
X30836Y-219193D01*
X30681Y-219248D01*
X30499Y-219302D01*
X30307Y-219357D01*
X30098Y-219412D01*
X30107D01*
X30125Y-219421D01*
X30152Y-219430D01*
X30189Y-219439D01*
X30234Y-219448D01*
X30289Y-219466D01*
X30426Y-219503D01*
X30581Y-219548D01*
X30763Y-219612D01*
X30945Y-219667D01*
X31136Y-219740D01*
X33806Y-220724D01*
Y-221498D01*
X29159Y-219758D01*
X29150D01*
X29123Y-219749D01*
X29087Y-219730D01*
X29041Y-219712D01*
X28977Y-219685D01*
X28904Y-219658D01*
X28749Y-219594D01*
X28576Y-219530D01*
X28403Y-219457D01*
X28248Y-219384D01*
X28185Y-219348D01*
X28121Y-219321D01*
X28103Y-219311D01*
X28057Y-219284D01*
X27993Y-219239D01*
X27911Y-219184D01*
X27820Y-219111D01*
X27729Y-219029D01*
X27638Y-218947D01*
X27565Y-218847D01*
X27556Y-218838D01*
X27538Y-218801D01*
X27510Y-218747D01*
X27474Y-218665D01*
X27438Y-218574D01*
X27410Y-218464D01*
X27392Y-218346D01*
X27383Y-218209D01*
Y-218173D01*
X27392Y-218127D01*
Y-218063D01*
X27410Y-217990D01*
X27428Y-217909D01*
X27447Y-217817D01*
X27483Y-217717D01*
X28203Y-217635D01*
Y-217644D01*
X28194Y-217681D01*
X28185Y-217726D01*
X28166Y-217781D01*
X28139Y-217927D01*
X28130Y-218073D01*
Y-218118D01*
X28139Y-218164D01*
Y-218218D01*
X28166Y-218355D01*
X28194Y-218419D01*
X28221Y-218482D01*
Y-218492D01*
X28239Y-218510D01*
X28258Y-218537D01*
X28285Y-218574D01*
X28358Y-218656D01*
X28458Y-218728D01*
X28467D01*
X28485Y-218747D01*
X28522Y-218765D01*
X28576Y-218783D01*
X28649Y-218819D01*
X28759Y-218856D01*
X28886Y-218911D01*
X29041Y-218965D01*
X29050D01*
X29087Y-218984D01*
X29150Y-219002D01*
X29232Y-219038D01*
X33806Y-217307D01*
Y-218127D01*
D02*
G37*
G36*
X35536Y-222937D02*
X33277D01*
X33286Y-222946D01*
X33305Y-222965D01*
X33332Y-222992D01*
X33377Y-223038D01*
X33423Y-223083D01*
X33478Y-223147D01*
X33532Y-223229D01*
X33596Y-223311D01*
X33651Y-223402D01*
X33705Y-223502D01*
X33806Y-223739D01*
X33851Y-223867D01*
X33878Y-224003D01*
X33897Y-224149D01*
X33906Y-224295D01*
Y-224377D01*
X33897Y-224477D01*
X33878Y-224595D01*
X33860Y-224732D01*
X33824Y-224878D01*
X33769Y-225024D01*
X33705Y-225169D01*
X33696Y-225187D01*
X33669Y-225233D01*
X33623Y-225297D01*
X33560Y-225379D01*
X33478Y-225461D01*
X33386Y-225552D01*
X33277Y-225634D01*
X33150Y-225707D01*
X33131Y-225716D01*
X33086Y-225734D01*
X33004Y-225761D01*
X32885Y-225789D01*
X32740Y-225816D01*
X32566Y-225843D01*
X32357Y-225862D01*
X32120Y-225871D01*
X29232D01*
Y-225096D01*
X32129D01*
X32138D01*
X32157D01*
X32184D01*
X32220D01*
X32321Y-225087D01*
X32448Y-225069D01*
X32585Y-225033D01*
X32721Y-224987D01*
X32858Y-224923D01*
X32967Y-224841D01*
X32976Y-224832D01*
X33013Y-224796D01*
X33059Y-224741D01*
X33104Y-224659D01*
X33159Y-224559D01*
X33195Y-224440D01*
X33232Y-224295D01*
X33241Y-224131D01*
Y-224076D01*
X33232Y-224012D01*
X33222Y-223921D01*
X33195Y-223830D01*
X33168Y-223721D01*
X33122Y-223611D01*
X33059Y-223493D01*
X33049Y-223484D01*
X33022Y-223447D01*
X32986Y-223393D01*
X32931Y-223329D01*
X32858Y-223256D01*
X32776Y-223183D01*
X32676Y-223119D01*
X32566Y-223065D01*
X32548Y-223056D01*
X32512Y-223047D01*
X32439Y-223028D01*
X32348Y-223001D01*
X32230Y-222974D01*
X32084Y-222955D01*
X31920Y-222946D01*
X31728Y-222937D01*
X29232D01*
Y-222163D01*
X35536D01*
Y-222937D01*
D02*
G37*
G36*
X31665Y-226809D02*
X31765Y-226818D01*
X31874Y-226827D01*
X32002Y-226846D01*
X32129Y-226873D01*
X32421Y-226946D01*
X32566Y-226991D01*
X32721Y-227046D01*
X32867Y-227119D01*
X33004Y-227201D01*
X33141Y-227292D01*
X33268Y-227392D01*
X33277Y-227401D01*
X33295Y-227419D01*
X33323Y-227456D01*
X33368Y-227501D01*
X33414Y-227556D01*
X33468Y-227629D01*
X33532Y-227711D01*
X33587Y-227811D01*
X33651Y-227911D01*
X33705Y-228030D01*
X33760Y-228157D01*
X33806Y-228294D01*
X33851Y-228440D01*
X33878Y-228595D01*
X33897Y-228759D01*
X33906Y-228932D01*
Y-229023D01*
X33897Y-229086D01*
X33887Y-229159D01*
X33869Y-229251D01*
X33851Y-229351D01*
X33824Y-229469D01*
X33796Y-229578D01*
X33751Y-229706D01*
X33705Y-229824D01*
X33641Y-229952D01*
X33569Y-230080D01*
X33487Y-230207D01*
X33386Y-230326D01*
X33277Y-230435D01*
X33268Y-230444D01*
X33250Y-230462D01*
X33213Y-230489D01*
X33159Y-230526D01*
X33095Y-230572D01*
X33022Y-230617D01*
X32931Y-230672D01*
X32822Y-230726D01*
X32703Y-230781D01*
X32576Y-230836D01*
X32430Y-230881D01*
X32275Y-230927D01*
X32102Y-230963D01*
X31920Y-230991D01*
X31728Y-231009D01*
X31519Y-231018D01*
X31510D01*
X31473D01*
X31410D01*
X31319Y-231009D01*
Y-227592D01*
X31309D01*
X31282D01*
X31246Y-227602D01*
X31191D01*
X31127Y-227611D01*
X31054Y-227629D01*
X30890Y-227656D01*
X30708Y-227711D01*
X30508Y-227784D01*
X30325Y-227884D01*
X30161Y-228011D01*
Y-228021D01*
X30143Y-228030D01*
X30098Y-228084D01*
X30034Y-228166D01*
X29970Y-228276D01*
X29897Y-228421D01*
X29833Y-228586D01*
X29788Y-228768D01*
X29779Y-228868D01*
X29770Y-228977D01*
Y-229050D01*
X29779Y-229132D01*
X29797Y-229232D01*
X29824Y-229342D01*
X29861Y-229469D01*
X29915Y-229588D01*
X29988Y-229706D01*
X29998Y-229715D01*
X30034Y-229761D01*
X30089Y-229815D01*
X30161Y-229879D01*
X30262Y-229952D01*
X30389Y-230034D01*
X30535Y-230116D01*
X30708Y-230189D01*
X30608Y-230991D01*
X30599D01*
X30581Y-230981D01*
X30544Y-230972D01*
X30490Y-230954D01*
X30435Y-230927D01*
X30362Y-230899D01*
X30207Y-230826D01*
X30034Y-230735D01*
X29852Y-230608D01*
X29679Y-230462D01*
X29515Y-230280D01*
Y-230271D01*
X29496Y-230253D01*
X29478Y-230225D01*
X29451Y-230189D01*
X29424Y-230134D01*
X29396Y-230080D01*
X29360Y-230007D01*
X29323Y-229925D01*
X29287Y-229834D01*
X29250Y-229742D01*
X29196Y-229515D01*
X29150Y-229260D01*
X29132Y-228977D01*
Y-228877D01*
X29141Y-228813D01*
X29150Y-228731D01*
X29168Y-228631D01*
X29187Y-228522D01*
X29205Y-228403D01*
X29278Y-228148D01*
X29333Y-228011D01*
X29387Y-227884D01*
X29460Y-227747D01*
X29542Y-227620D01*
X29633Y-227501D01*
X29742Y-227383D01*
X29752Y-227374D01*
X29770Y-227356D01*
X29806Y-227328D01*
X29861Y-227292D01*
X29925Y-227246D01*
X29998Y-227201D01*
X30089Y-227146D01*
X30189Y-227091D01*
X30307Y-227037D01*
X30435Y-226982D01*
X30581Y-226937D01*
X30735Y-226891D01*
X30899Y-226855D01*
X31082Y-226827D01*
X31273Y-226809D01*
X31473Y-226800D01*
X31482D01*
X31528D01*
X31583D01*
X31665Y-226809D01*
D02*
G37*
G36*
X31601Y-233104D02*
X33806Y-231564D01*
Y-232512D01*
X32721Y-233232D01*
X32712Y-233241D01*
X32676Y-233268D01*
X32612Y-233304D01*
X32548Y-233350D01*
X32466Y-233396D01*
X32384Y-233450D01*
X32302Y-233505D01*
X32220Y-233550D01*
X32230Y-233559D01*
X32266Y-233587D01*
X32321Y-233623D01*
X32384Y-233669D01*
X32466Y-233723D01*
X32548Y-233778D01*
X32721Y-233897D01*
X33806Y-234671D01*
Y-235609D01*
X31601Y-234051D01*
X29232Y-235719D01*
Y-234771D01*
X30644Y-233824D01*
X30981Y-233605D01*
X29232Y-232375D01*
Y-231437D01*
X31601Y-233104D01*
D02*
G37*
G36*
X29405Y-238506D02*
X29487Y-238515D01*
X29579Y-238534D01*
X29670Y-238552D01*
X29770Y-238588D01*
X29779D01*
X29788Y-238597D01*
X29843Y-238616D01*
X29925Y-238652D01*
X30034Y-238707D01*
X30161Y-238780D01*
X30307Y-238871D01*
X30453Y-238971D01*
X30608Y-239098D01*
X30617D01*
X30626Y-239117D01*
X30681Y-239162D01*
X30763Y-239244D01*
X30881Y-239363D01*
X31018Y-239499D01*
X31182Y-239672D01*
X31364Y-239882D01*
X31555Y-240110D01*
X31564Y-240119D01*
X31592Y-240155D01*
X31637Y-240210D01*
X31692Y-240274D01*
X31765Y-240356D01*
X31847Y-240456D01*
X31938Y-240556D01*
X32038Y-240674D01*
X32257Y-240902D01*
X32475Y-241130D01*
X32585Y-241239D01*
X32694Y-241339D01*
X32794Y-241431D01*
X32895Y-241504D01*
X32904D01*
X32913Y-241522D01*
X32940Y-241540D01*
X32976Y-241558D01*
X33077Y-241622D01*
X33195Y-241695D01*
X33341Y-241758D01*
X33496Y-241822D01*
X33669Y-241859D01*
X33833Y-241877D01*
X33842D01*
X33851D01*
X33906Y-241868D01*
X33997Y-241859D01*
X34097Y-241831D01*
X34225Y-241795D01*
X34352Y-241731D01*
X34480Y-241649D01*
X34607Y-241540D01*
X34625Y-241522D01*
X34662Y-241476D01*
X34707Y-241412D01*
X34771Y-241312D01*
X34826Y-241185D01*
X34881Y-241039D01*
X34917Y-240866D01*
X34926Y-240674D01*
Y-240620D01*
X34917Y-240583D01*
X34908Y-240474D01*
X34881Y-240347D01*
X34844Y-240210D01*
X34780Y-240055D01*
X34698Y-239909D01*
X34589Y-239773D01*
X34571Y-239754D01*
X34525Y-239718D01*
X34452Y-239663D01*
X34343Y-239609D01*
X34215Y-239545D01*
X34051Y-239490D01*
X33869Y-239454D01*
X33660Y-239436D01*
X33742Y-238643D01*
X33751D01*
X33778Y-238652D01*
X33824D01*
X33887Y-238661D01*
X33960Y-238679D01*
X34042Y-238698D01*
X34143Y-238725D01*
X34243Y-238752D01*
X34461Y-238825D01*
X34680Y-238934D01*
X34789Y-238998D01*
X34899Y-239080D01*
X34999Y-239162D01*
X35090Y-239253D01*
X35099Y-239262D01*
X35108Y-239281D01*
X35136Y-239308D01*
X35163Y-239353D01*
X35199Y-239408D01*
X35236Y-239472D01*
X35281Y-239545D01*
X35327Y-239636D01*
X35372Y-239736D01*
X35418Y-239845D01*
X35454Y-239964D01*
X35491Y-240091D01*
X35518Y-240228D01*
X35546Y-240374D01*
X35555Y-240529D01*
X35564Y-240693D01*
Y-240784D01*
X35555Y-240847D01*
X35546Y-240920D01*
X35536Y-241012D01*
X35518Y-241112D01*
X35500Y-241212D01*
X35436Y-241449D01*
X35345Y-241686D01*
X35290Y-241804D01*
X35227Y-241922D01*
X35145Y-242032D01*
X35054Y-242132D01*
X35045Y-242141D01*
X35035Y-242159D01*
X34999Y-242178D01*
X34962Y-242214D01*
X34917Y-242260D01*
X34853Y-242305D01*
X34789Y-242351D01*
X34707Y-242405D01*
X34534Y-242496D01*
X34316Y-242587D01*
X34206Y-242624D01*
X34079Y-242642D01*
X33951Y-242660D01*
X33815Y-242670D01*
X33796D01*
X33751D01*
X33678Y-242660D01*
X33578Y-242651D01*
X33468Y-242633D01*
X33341Y-242597D01*
X33204Y-242560D01*
X33068Y-242506D01*
X33049Y-242496D01*
X33004Y-242478D01*
X32931Y-242442D01*
X32831Y-242387D01*
X32721Y-242314D01*
X32585Y-242223D01*
X32448Y-242114D01*
X32293Y-241986D01*
X32275Y-241968D01*
X32220Y-241922D01*
X32175Y-241877D01*
X32129Y-241831D01*
X32075Y-241777D01*
X32002Y-241704D01*
X31929Y-241631D01*
X31847Y-241540D01*
X31756Y-241449D01*
X31655Y-241339D01*
X31555Y-241221D01*
X31437Y-241093D01*
X31319Y-240948D01*
X31191Y-240802D01*
X31182Y-240793D01*
X31164Y-240775D01*
X31136Y-240738D01*
X31100Y-240693D01*
X31045Y-240638D01*
X30990Y-240574D01*
X30872Y-240428D01*
X30735Y-240274D01*
X30599Y-240128D01*
X30480Y-240000D01*
X30435Y-239946D01*
X30389Y-239900D01*
X30380Y-239891D01*
X30353Y-239864D01*
X30316Y-239827D01*
X30262Y-239782D01*
X30198Y-239736D01*
X30134Y-239681D01*
X29979Y-239572D01*
Y-242679D01*
X29232D01*
Y-238497D01*
X29241D01*
X29278D01*
X29333D01*
X29405Y-238506D01*
D02*
G37*
G36*
X35536Y-246131D02*
Y-246760D01*
X31455D01*
Y-247616D01*
X30744D01*
Y-246760D01*
X29232D01*
Y-245986D01*
X30744D01*
Y-243244D01*
X31455D01*
X35536Y-246131D01*
D02*
G37*
G36*
Y-251315D02*
X35527Y-251452D01*
X35518Y-251606D01*
X35509Y-251770D01*
X35491Y-251925D01*
X35473Y-252062D01*
Y-252080D01*
X35454Y-252144D01*
X35436Y-252226D01*
X35409Y-252335D01*
X35363Y-252454D01*
X35309Y-252581D01*
X35245Y-252718D01*
X35172Y-252836D01*
X35163Y-252854D01*
X35136Y-252891D01*
X35081Y-252946D01*
X35017Y-253018D01*
X34935Y-253100D01*
X34826Y-253183D01*
X34707Y-253274D01*
X34571Y-253346D01*
X34552Y-253356D01*
X34507Y-253374D01*
X34425Y-253410D01*
X34316Y-253447D01*
X34188Y-253474D01*
X34042Y-253510D01*
X33878Y-253529D01*
X33705Y-253538D01*
X33696D01*
X33669D01*
X33632D01*
X33569Y-253529D01*
X33505Y-253520D01*
X33423Y-253510D01*
X33332Y-253492D01*
X33232Y-253474D01*
X33022Y-253410D01*
X32913Y-253374D01*
X32794Y-253319D01*
X32676Y-253255D01*
X32566Y-253192D01*
X32457Y-253110D01*
X32348Y-253018D01*
X32339Y-253009D01*
X32321Y-252991D01*
X32293Y-252964D01*
X32266Y-252918D01*
X32220Y-252864D01*
X32175Y-252791D01*
X32120Y-252700D01*
X32075Y-252599D01*
X32020Y-252481D01*
X31965Y-252344D01*
X31920Y-252199D01*
X31883Y-252026D01*
X31847Y-251843D01*
X31819Y-251643D01*
X31801Y-251415D01*
X31792Y-251178D01*
Y-249566D01*
X29232D01*
Y-248728D01*
X35536D01*
Y-251315D01*
D02*
G37*
G36*
Y-255578D02*
X29232D01*
Y-254740D01*
X35536D01*
Y-255578D01*
D02*
G37*
G36*
Y-257902D02*
X30581Y-261208D01*
X35536D01*
Y-262010D01*
X29232D01*
Y-261145D01*
X34179Y-257847D01*
X29232D01*
Y-257045D01*
X35536D01*
Y-257902D01*
D02*
G37*
G36*
X31901Y-265399D02*
X31127D01*
Y-263003D01*
X31901D01*
Y-265399D01*
D02*
G37*
G36*
X35536Y-268934D02*
X35527Y-269070D01*
X35518Y-269225D01*
X35509Y-269389D01*
X35491Y-269544D01*
X35473Y-269681D01*
Y-269699D01*
X35454Y-269763D01*
X35436Y-269845D01*
X35409Y-269954D01*
X35363Y-270072D01*
X35309Y-270200D01*
X35245Y-270337D01*
X35172Y-270455D01*
X35163Y-270473D01*
X35136Y-270510D01*
X35081Y-270564D01*
X35017Y-270637D01*
X34935Y-270719D01*
X34826Y-270801D01*
X34707Y-270892D01*
X34571Y-270965D01*
X34552Y-270974D01*
X34507Y-270992D01*
X34425Y-271029D01*
X34316Y-271065D01*
X34188Y-271093D01*
X34042Y-271129D01*
X33878Y-271147D01*
X33705Y-271157D01*
X33696D01*
X33669D01*
X33632D01*
X33569Y-271147D01*
X33505Y-271138D01*
X33423Y-271129D01*
X33332Y-271111D01*
X33232Y-271093D01*
X33022Y-271029D01*
X32913Y-270992D01*
X32794Y-270938D01*
X32676Y-270874D01*
X32566Y-270810D01*
X32457Y-270728D01*
X32348Y-270637D01*
X32339Y-270628D01*
X32321Y-270610D01*
X32293Y-270583D01*
X32266Y-270537D01*
X32220Y-270482D01*
X32175Y-270409D01*
X32120Y-270318D01*
X32075Y-270218D01*
X32020Y-270100D01*
X31965Y-269963D01*
X31920Y-269817D01*
X31883Y-269644D01*
X31847Y-269462D01*
X31819Y-269262D01*
X31801Y-269034D01*
X31792Y-268797D01*
Y-267184D01*
X29232D01*
Y-266346D01*
X35536D01*
Y-268934D01*
D02*
G37*
G36*
X30553Y-271867D02*
X30635Y-271876D01*
X30735Y-271894D01*
X30836Y-271922D01*
X30945Y-271958D01*
X31045Y-272004D01*
X31054Y-272013D01*
X31091Y-272031D01*
X31145Y-272067D01*
X31209Y-272113D01*
X31282Y-272168D01*
X31355Y-272241D01*
X31428Y-272313D01*
X31492Y-272405D01*
X31501Y-272414D01*
X31519Y-272450D01*
X31555Y-272496D01*
X31592Y-272569D01*
X31628Y-272651D01*
X31674Y-272751D01*
X31710Y-272851D01*
X31747Y-272969D01*
Y-272978D01*
X31756Y-273015D01*
X31774Y-273070D01*
X31783Y-273143D01*
X31801Y-273234D01*
X31819Y-273352D01*
X31847Y-273489D01*
X31865Y-273653D01*
Y-273662D01*
X31874Y-273698D01*
Y-273744D01*
X31883Y-273808D01*
X31892Y-273880D01*
X31911Y-273972D01*
X31920Y-274072D01*
X31938Y-274181D01*
X31984Y-274400D01*
X32029Y-274637D01*
X32084Y-274846D01*
X32111Y-274946D01*
X32138Y-275037D01*
X32147D01*
X32166D01*
X32220Y-275046D01*
X32284D01*
X32321D01*
X32339D01*
X32348D01*
X32357D01*
X32412D01*
X32503Y-275037D01*
X32603Y-275019D01*
X32712Y-274992D01*
X32822Y-274946D01*
X32922Y-274892D01*
X33004Y-274819D01*
X33013Y-274810D01*
X33049Y-274764D01*
X33086Y-274691D01*
X33141Y-274600D01*
X33186Y-274472D01*
X33232Y-274327D01*
X33259Y-274145D01*
X33268Y-273935D01*
Y-273844D01*
X33259Y-273753D01*
X33241Y-273625D01*
X33222Y-273498D01*
X33186Y-273361D01*
X33141Y-273234D01*
X33077Y-273124D01*
X33068Y-273115D01*
X33040Y-273079D01*
X32995Y-273033D01*
X32922Y-272978D01*
X32831Y-272924D01*
X32712Y-272860D01*
X32566Y-272805D01*
X32403Y-272751D01*
X32503Y-271995D01*
X32512D01*
X32521Y-272004D01*
X32548D01*
X32585Y-272013D01*
X32667Y-272040D01*
X32785Y-272077D01*
X32904Y-272122D01*
X33031Y-272177D01*
X33159Y-272250D01*
X33277Y-272332D01*
X33286Y-272341D01*
X33323Y-272377D01*
X33377Y-272432D01*
X33450Y-272505D01*
X33523Y-272605D01*
X33596Y-272723D01*
X33678Y-272860D01*
X33742Y-273015D01*
Y-273024D01*
X33751Y-273033D01*
X33760Y-273060D01*
X33769Y-273097D01*
X33796Y-273188D01*
X33824Y-273316D01*
X33851Y-273461D01*
X33878Y-273643D01*
X33897Y-273835D01*
X33906Y-274054D01*
Y-274154D01*
X33897Y-274254D01*
X33887Y-274391D01*
X33869Y-274545D01*
X33842Y-274700D01*
X33806Y-274855D01*
X33760Y-275001D01*
X33751Y-275019D01*
X33733Y-275065D01*
X33705Y-275129D01*
X33669Y-275210D01*
X33614Y-275302D01*
X33560Y-275393D01*
X33487Y-275475D01*
X33414Y-275548D01*
X33405Y-275557D01*
X33377Y-275575D01*
X33332Y-275602D01*
X33277Y-275639D01*
X33195Y-275684D01*
X33113Y-275721D01*
X33013Y-275757D01*
X32895Y-275784D01*
X32885D01*
X32858Y-275794D01*
X32803Y-275803D01*
X32730Y-275812D01*
X32630D01*
X32512Y-275821D01*
X32357Y-275830D01*
X32184D01*
X31145D01*
X31136D01*
X31100D01*
X31045D01*
X30972D01*
X30890D01*
X30790D01*
X30571Y-275839D01*
X30344D01*
X30116Y-275848D01*
X30016Y-275857D01*
X29925D01*
X29843Y-275866D01*
X29779Y-275875D01*
X29770D01*
X29733Y-275885D01*
X29679Y-275894D01*
X29606Y-275921D01*
X29524Y-275939D01*
X29433Y-275976D01*
X29333Y-276021D01*
X29232Y-276067D01*
Y-275256D01*
X29241Y-275247D01*
X29278Y-275238D01*
X29323Y-275220D01*
X29396Y-275192D01*
X29478Y-275165D01*
X29579Y-275147D01*
X29688Y-275129D01*
X29806Y-275110D01*
Y-275101D01*
X29788Y-275092D01*
X29742Y-275037D01*
X29679Y-274955D01*
X29597Y-274846D01*
X29515Y-274709D01*
X29424Y-274573D01*
X29342Y-274427D01*
X29278Y-274272D01*
X29269Y-274254D01*
X29260Y-274199D01*
X29232Y-274117D01*
X29205Y-274017D01*
X29178Y-273889D01*
X29159Y-273744D01*
X29141Y-273580D01*
X29132Y-273416D01*
Y-273343D01*
X29141Y-273288D01*
Y-273224D01*
X29150Y-273152D01*
X29178Y-272988D01*
X29223Y-272805D01*
X29287Y-272605D01*
X29378Y-272423D01*
X29496Y-272259D01*
X29515Y-272241D01*
X29560Y-272195D01*
X29642Y-272131D01*
X29752Y-272058D01*
X29888Y-271986D01*
X30043Y-271922D01*
X30234Y-271876D01*
X30325Y-271867D01*
X30435Y-271858D01*
X30453D01*
X30490D01*
X30553Y-271867D01*
D02*
G37*
G36*
X35536Y-277798D02*
X34653D01*
Y-277023D01*
X35536D01*
Y-277798D01*
D02*
G37*
G36*
X33806D02*
X29232D01*
Y-277023D01*
X33806D01*
Y-277798D01*
D02*
G37*
G36*
X33979Y-281815D02*
X33997Y-281833D01*
X34006Y-281870D01*
X34033Y-281915D01*
X34061Y-281970D01*
X34097Y-282034D01*
X34188Y-282189D01*
X34288Y-282371D01*
X34416Y-282553D01*
X34562Y-282744D01*
X34716Y-282936D01*
X34726Y-282945D01*
X34735Y-282954D01*
X34762Y-282981D01*
X34789Y-283018D01*
X34881Y-283100D01*
X34990Y-283209D01*
X35117Y-283318D01*
X35263Y-283437D01*
X35409Y-283537D01*
X35564Y-283628D01*
Y-284129D01*
X29232D01*
Y-283355D01*
X34161D01*
X34152Y-283346D01*
X34115Y-283300D01*
X34061Y-283245D01*
X33997Y-283154D01*
X33915Y-283054D01*
X33824Y-282927D01*
X33724Y-282781D01*
X33623Y-282617D01*
Y-282608D01*
X33614Y-282599D01*
X33578Y-282544D01*
X33532Y-282453D01*
X33478Y-282344D01*
X33414Y-282216D01*
X33350Y-282079D01*
X33286Y-281943D01*
X33232Y-281806D01*
X33979D01*
Y-281815D01*
D02*
G37*
G36*
X30945Y-286926D02*
X30936D01*
X30918D01*
X30890Y-286935D01*
X30845Y-286944D01*
X30744Y-286971D01*
X30608Y-287008D01*
X30471Y-287063D01*
X30316Y-287135D01*
X30180Y-287227D01*
X30052Y-287336D01*
X30043Y-287354D01*
X30007Y-287390D01*
X29961Y-287463D01*
X29906Y-287564D01*
X29852Y-287673D01*
X29806Y-287810D01*
X29770Y-287964D01*
X29761Y-288138D01*
Y-288192D01*
X29770Y-288229D01*
X29779Y-288338D01*
X29815Y-288465D01*
X29861Y-288620D01*
X29934Y-288775D01*
X30043Y-288939D01*
X30107Y-289012D01*
X30180Y-289085D01*
X30189Y-289094D01*
X30198Y-289103D01*
X30225Y-289121D01*
X30253Y-289149D01*
X30353Y-289212D01*
X30480Y-289285D01*
X30635Y-289349D01*
X30827Y-289413D01*
X31054Y-289458D01*
X31173Y-289477D01*
X31300D01*
X31309D01*
X31328D01*
X31364D01*
X31410Y-289468D01*
X31464D01*
X31528Y-289458D01*
X31674Y-289431D01*
X31847Y-289386D01*
X32020Y-289322D01*
X32184Y-289231D01*
X32339Y-289103D01*
X32348D01*
X32357Y-289085D01*
X32403Y-289039D01*
X32466Y-288957D01*
X32539Y-288848D01*
X32603Y-288702D01*
X32667Y-288538D01*
X32712Y-288347D01*
X32730Y-288238D01*
Y-288065D01*
X32721Y-287992D01*
X32712Y-287901D01*
X32685Y-287791D01*
X32658Y-287682D01*
X32612Y-287564D01*
X32557Y-287445D01*
X32548Y-287436D01*
X32530Y-287400D01*
X32485Y-287345D01*
X32439Y-287272D01*
X32375Y-287199D01*
X32293Y-287126D01*
X32211Y-287044D01*
X32111Y-286981D01*
X32211Y-286252D01*
X35454Y-286862D01*
Y-289996D01*
X34716D01*
Y-287473D01*
X33013Y-287135D01*
X33022Y-287144D01*
X33031Y-287163D01*
X33049Y-287190D01*
X33077Y-287236D01*
X33104Y-287290D01*
X33141Y-287354D01*
X33213Y-287500D01*
X33286Y-287682D01*
X33350Y-287882D01*
X33395Y-288101D01*
X33414Y-288210D01*
Y-288411D01*
X33405Y-288465D01*
X33395Y-288538D01*
X33386Y-288620D01*
X33368Y-288712D01*
X33341Y-288812D01*
X33277Y-289030D01*
X33232Y-289149D01*
X33168Y-289267D01*
X33104Y-289386D01*
X33031Y-289504D01*
X32940Y-289613D01*
X32840Y-289723D01*
X32831Y-289732D01*
X32812Y-289750D01*
X32785Y-289777D01*
X32740Y-289814D01*
X32676Y-289859D01*
X32612Y-289905D01*
X32530Y-289960D01*
X32439Y-290014D01*
X32339Y-290060D01*
X32230Y-290114D01*
X32102Y-290160D01*
X31974Y-290206D01*
X31838Y-290242D01*
X31683Y-290269D01*
X31528Y-290287D01*
X31364Y-290297D01*
X31355D01*
X31328D01*
X31282D01*
X31218Y-290287D01*
X31145Y-290278D01*
X31063Y-290269D01*
X30963Y-290251D01*
X30863Y-290233D01*
X30626Y-290178D01*
X30380Y-290087D01*
X30253Y-290032D01*
X30134Y-289960D01*
X30007Y-289887D01*
X29888Y-289796D01*
X29879Y-289787D01*
X29852Y-289768D01*
X29815Y-289732D01*
X29770Y-289686D01*
X29715Y-289622D01*
X29642Y-289550D01*
X29579Y-289458D01*
X29506Y-289358D01*
X29433Y-289249D01*
X29369Y-289121D01*
X29305Y-288985D01*
X29241Y-288839D01*
X29196Y-288684D01*
X29159Y-288511D01*
X29132Y-288329D01*
X29123Y-288138D01*
Y-288055D01*
X29132Y-287992D01*
X29141Y-287919D01*
X29150Y-287837D01*
X29159Y-287737D01*
X29187Y-287636D01*
X29241Y-287409D01*
X29323Y-287181D01*
X29378Y-287063D01*
X29442Y-286944D01*
X29515Y-286835D01*
X29597Y-286725D01*
X29606Y-286716D01*
X29615Y-286698D01*
X29651Y-286680D01*
X29688Y-286644D01*
X29733Y-286598D01*
X29788Y-286552D01*
X29861Y-286498D01*
X29943Y-286452D01*
X30025Y-286398D01*
X30125Y-286343D01*
X30344Y-286243D01*
X30599Y-286161D01*
X30735Y-286133D01*
X30881Y-286115D01*
X30945Y-286926D01*
D02*
G37*
G36*
X35536Y-293922D02*
X35527Y-294059D01*
X35518Y-294214D01*
X35509Y-294378D01*
X35491Y-294533D01*
X35473Y-294669D01*
Y-294688D01*
X35454Y-294751D01*
X35436Y-294833D01*
X35409Y-294943D01*
X35363Y-295061D01*
X35309Y-295189D01*
X35245Y-295325D01*
X35172Y-295444D01*
X35163Y-295462D01*
X35136Y-295498D01*
X35081Y-295553D01*
X35017Y-295626D01*
X34935Y-295708D01*
X34826Y-295790D01*
X34707Y-295881D01*
X34571Y-295954D01*
X34552Y-295963D01*
X34507Y-295981D01*
X34425Y-296018D01*
X34316Y-296054D01*
X34188Y-296081D01*
X34042Y-296118D01*
X33878Y-296136D01*
X33705Y-296145D01*
X33696D01*
X33669D01*
X33632D01*
X33569Y-296136D01*
X33505Y-296127D01*
X33423Y-296118D01*
X33332Y-296100D01*
X33232Y-296081D01*
X33022Y-296018D01*
X32913Y-295981D01*
X32794Y-295927D01*
X32676Y-295863D01*
X32566Y-295799D01*
X32457Y-295717D01*
X32348Y-295626D01*
X32339Y-295617D01*
X32321Y-295599D01*
X32293Y-295571D01*
X32266Y-295526D01*
X32220Y-295471D01*
X32175Y-295398D01*
X32120Y-295307D01*
X32075Y-295207D01*
X32020Y-295089D01*
X31965Y-294952D01*
X31920Y-294806D01*
X31883Y-294633D01*
X31847Y-294451D01*
X31819Y-294250D01*
X31801Y-294023D01*
X31792Y-293786D01*
Y-292173D01*
X29232D01*
Y-291335D01*
X35536D01*
Y-293922D01*
D02*
G37*
G36*
Y-298186D02*
X29232D01*
Y-297348D01*
X35536D01*
Y-298186D01*
D02*
G37*
G36*
Y-300509D02*
X30581Y-303816D01*
X35536D01*
Y-304618D01*
X29232D01*
Y-303752D01*
X34179Y-300454D01*
X29232D01*
Y-299653D01*
X35536D01*
Y-300509D01*
D02*
G37*
G36*
Y-308726D02*
X30954Y-310366D01*
X30945D01*
X30927Y-310375D01*
X30899Y-310384D01*
X30863Y-310402D01*
X30808Y-310412D01*
X30754Y-310430D01*
X30617Y-310475D01*
X30462Y-310530D01*
X30289Y-310585D01*
X29925Y-310694D01*
X29934D01*
X29952Y-310703D01*
X29979Y-310712D01*
X30016Y-310721D01*
X30116Y-310749D01*
X30253Y-310794D01*
X30408Y-310840D01*
X30581Y-310894D01*
X30763Y-310958D01*
X30954Y-311031D01*
X35536Y-312744D01*
Y-313591D01*
X29232Y-311131D01*
Y-310257D01*
X35536Y-307815D01*
Y-308726D01*
D02*
G37*
G36*
X32621Y-314037D02*
X32730D01*
X32849Y-314046D01*
X32986Y-314055D01*
X33268Y-314083D01*
X33569Y-314128D01*
X33869Y-314183D01*
X34006Y-314219D01*
X34143Y-314256D01*
X34152D01*
X34170Y-314265D01*
X34206Y-314283D01*
X34252Y-314301D01*
X34316Y-314320D01*
X34379Y-314356D01*
X34534Y-314429D01*
X34698Y-314520D01*
X34871Y-314638D01*
X35045Y-314775D01*
X35190Y-314939D01*
Y-314948D01*
X35208Y-314957D01*
X35227Y-314985D01*
X35245Y-315021D01*
X35281Y-315067D01*
X35309Y-315121D01*
X35381Y-315258D01*
X35445Y-315422D01*
X35509Y-315613D01*
X35546Y-315841D01*
X35564Y-316087D01*
Y-316169D01*
X35555Y-316269D01*
X35536Y-316388D01*
X35509Y-316524D01*
X35473Y-316670D01*
X35427Y-316825D01*
X35354Y-316971D01*
Y-316980D01*
X35345Y-316989D01*
X35318Y-317035D01*
X35272Y-317107D01*
X35208Y-317198D01*
X35117Y-317299D01*
X35017Y-317408D01*
X34899Y-317508D01*
X34762Y-317608D01*
X34744Y-317618D01*
X34698Y-317654D01*
X34616Y-317690D01*
X34498Y-317754D01*
X34361Y-317809D01*
X34206Y-317882D01*
X34024Y-317946D01*
X33824Y-318000D01*
X33815D01*
X33796Y-318009D01*
X33769Y-318018D01*
X33724Y-318027D01*
X33669Y-318037D01*
X33605Y-318046D01*
X33523Y-318064D01*
X33432Y-318073D01*
X33332Y-318091D01*
X33222Y-318100D01*
X33095Y-318109D01*
X32967Y-318128D01*
X32822Y-318137D01*
X32676D01*
X32512Y-318146D01*
X32339D01*
X32330D01*
X32293D01*
X32230D01*
X32157D01*
X32056Y-318137D01*
X31947D01*
X31829Y-318128D01*
X31701Y-318119D01*
X31410Y-318091D01*
X31109Y-318046D01*
X30817Y-317991D01*
X30681Y-317955D01*
X30544Y-317909D01*
X30535D01*
X30517Y-317900D01*
X30480Y-317882D01*
X30435Y-317863D01*
X30371Y-317845D01*
X30307Y-317809D01*
X30152Y-317736D01*
X29988Y-317645D01*
X29806Y-317526D01*
X29642Y-317390D01*
X29487Y-317226D01*
Y-317217D01*
X29469Y-317208D01*
X29451Y-317180D01*
X29433Y-317144D01*
X29405Y-317098D01*
X29369Y-317053D01*
X29305Y-316916D01*
X29241Y-316752D01*
X29178Y-316561D01*
X29141Y-316333D01*
X29123Y-316087D01*
Y-315996D01*
X29132Y-315932D01*
X29141Y-315859D01*
X29159Y-315768D01*
X29178Y-315668D01*
X29205Y-315559D01*
X29241Y-315449D01*
X29278Y-315331D01*
X29333Y-315212D01*
X29396Y-315094D01*
X29469Y-314976D01*
X29560Y-314857D01*
X29660Y-314748D01*
X29770Y-314648D01*
X29779Y-314638D01*
X29806Y-314620D01*
X29852Y-314593D01*
X29925Y-314547D01*
X30007Y-314502D01*
X30116Y-314456D01*
X30244Y-314393D01*
X30389Y-314338D01*
X30553Y-314283D01*
X30744Y-314229D01*
X30954Y-314174D01*
X31191Y-314128D01*
X31446Y-314083D01*
X31719Y-314055D01*
X32020Y-314037D01*
X32339Y-314028D01*
X32348D01*
X32384D01*
X32448D01*
X32521D01*
X32621Y-314037D01*
D02*
G37*
G36*
X33979Y-319531D02*
X33997Y-319549D01*
X34006Y-319585D01*
X34033Y-319631D01*
X34061Y-319686D01*
X34097Y-319749D01*
X34188Y-319904D01*
X34288Y-320086D01*
X34416Y-320269D01*
X34562Y-320460D01*
X34716Y-320651D01*
X34726Y-320660D01*
X34735Y-320669D01*
X34762Y-320697D01*
X34789Y-320733D01*
X34881Y-320815D01*
X34990Y-320924D01*
X35117Y-321034D01*
X35263Y-321152D01*
X35409Y-321252D01*
X35564Y-321343D01*
Y-321845D01*
X29232D01*
Y-321070D01*
X34161D01*
X34152Y-321061D01*
X34115Y-321016D01*
X34061Y-320961D01*
X33997Y-320870D01*
X33915Y-320770D01*
X33824Y-320642D01*
X33724Y-320496D01*
X33623Y-320332D01*
Y-320323D01*
X33614Y-320314D01*
X33578Y-320259D01*
X33532Y-320168D01*
X33478Y-320059D01*
X33414Y-319931D01*
X33350Y-319795D01*
X33286Y-319658D01*
X33232Y-319521D01*
X33979D01*
Y-319531D01*
D02*
G37*
G36*
X29405Y-326181D02*
X29487Y-326190D01*
X29579Y-326208D01*
X29670Y-326226D01*
X29770Y-326263D01*
X29779D01*
X29788Y-326272D01*
X29843Y-326290D01*
X29925Y-326327D01*
X30034Y-326381D01*
X30161Y-326454D01*
X30307Y-326545D01*
X30453Y-326645D01*
X30608Y-326773D01*
X30617D01*
X30626Y-326791D01*
X30681Y-326837D01*
X30763Y-326919D01*
X30881Y-327037D01*
X31018Y-327174D01*
X31182Y-327347D01*
X31364Y-327556D01*
X31555Y-327784D01*
X31564Y-327793D01*
X31592Y-327830D01*
X31637Y-327885D01*
X31692Y-327948D01*
X31765Y-328030D01*
X31847Y-328130D01*
X31938Y-328231D01*
X32038Y-328349D01*
X32257Y-328577D01*
X32475Y-328805D01*
X32585Y-328914D01*
X32694Y-329014D01*
X32794Y-329105D01*
X32895Y-329178D01*
X32904D01*
X32913Y-329196D01*
X32940Y-329215D01*
X32976Y-329233D01*
X33077Y-329296D01*
X33195Y-329369D01*
X33341Y-329433D01*
X33496Y-329497D01*
X33669Y-329533D01*
X33833Y-329552D01*
X33842D01*
X33851D01*
X33906Y-329542D01*
X33997Y-329533D01*
X34097Y-329506D01*
X34225Y-329470D01*
X34352Y-329406D01*
X34480Y-329324D01*
X34607Y-329215D01*
X34625Y-329196D01*
X34662Y-329151D01*
X34707Y-329087D01*
X34771Y-328987D01*
X34826Y-328859D01*
X34881Y-328713D01*
X34917Y-328540D01*
X34926Y-328349D01*
Y-328294D01*
X34917Y-328258D01*
X34908Y-328149D01*
X34881Y-328021D01*
X34844Y-327885D01*
X34780Y-327730D01*
X34698Y-327584D01*
X34589Y-327447D01*
X34571Y-327429D01*
X34525Y-327393D01*
X34452Y-327338D01*
X34343Y-327283D01*
X34215Y-327219D01*
X34051Y-327165D01*
X33869Y-327128D01*
X33660Y-327110D01*
X33742Y-326318D01*
X33751D01*
X33778Y-326327D01*
X33824D01*
X33887Y-326336D01*
X33960Y-326354D01*
X34042Y-326372D01*
X34143Y-326399D01*
X34243Y-326427D01*
X34461Y-326500D01*
X34680Y-326609D01*
X34789Y-326673D01*
X34899Y-326755D01*
X34999Y-326837D01*
X35090Y-326928D01*
X35099Y-326937D01*
X35108Y-326955D01*
X35136Y-326983D01*
X35163Y-327028D01*
X35199Y-327083D01*
X35236Y-327147D01*
X35281Y-327219D01*
X35327Y-327310D01*
X35372Y-327411D01*
X35418Y-327520D01*
X35454Y-327639D01*
X35491Y-327766D01*
X35518Y-327903D01*
X35546Y-328048D01*
X35555Y-328203D01*
X35564Y-328367D01*
Y-328458D01*
X35555Y-328522D01*
X35546Y-328595D01*
X35536Y-328686D01*
X35518Y-328786D01*
X35500Y-328887D01*
X35436Y-329123D01*
X35345Y-329360D01*
X35290Y-329479D01*
X35227Y-329597D01*
X35145Y-329707D01*
X35054Y-329807D01*
X35045Y-329816D01*
X35035Y-329834D01*
X34999Y-329852D01*
X34962Y-329889D01*
X34917Y-329934D01*
X34853Y-329980D01*
X34789Y-330025D01*
X34707Y-330080D01*
X34534Y-330171D01*
X34316Y-330262D01*
X34206Y-330299D01*
X34079Y-330317D01*
X33951Y-330335D01*
X33815Y-330344D01*
X33796D01*
X33751D01*
X33678Y-330335D01*
X33578Y-330326D01*
X33468Y-330308D01*
X33341Y-330271D01*
X33204Y-330235D01*
X33068Y-330180D01*
X33049Y-330171D01*
X33004Y-330153D01*
X32931Y-330116D01*
X32831Y-330062D01*
X32721Y-329989D01*
X32585Y-329898D01*
X32448Y-329788D01*
X32293Y-329661D01*
X32275Y-329643D01*
X32220Y-329597D01*
X32175Y-329552D01*
X32129Y-329506D01*
X32075Y-329451D01*
X32002Y-329379D01*
X31929Y-329306D01*
X31847Y-329215D01*
X31756Y-329123D01*
X31655Y-329014D01*
X31555Y-328896D01*
X31437Y-328768D01*
X31319Y-328622D01*
X31191Y-328477D01*
X31182Y-328467D01*
X31164Y-328449D01*
X31136Y-328413D01*
X31100Y-328367D01*
X31045Y-328313D01*
X30990Y-328249D01*
X30872Y-328103D01*
X30735Y-327948D01*
X30599Y-327802D01*
X30480Y-327675D01*
X30435Y-327620D01*
X30389Y-327575D01*
X30380Y-327566D01*
X30353Y-327538D01*
X30316Y-327502D01*
X30262Y-327456D01*
X30198Y-327411D01*
X30134Y-327356D01*
X29979Y-327247D01*
Y-330353D01*
X29232D01*
Y-326172D01*
X29241D01*
X29278D01*
X29333D01*
X29405Y-326181D01*
D02*
G37*
G36*
X32621Y-331191D02*
X32730D01*
X32849Y-331201D01*
X32986Y-331210D01*
X33268Y-331237D01*
X33569Y-331282D01*
X33869Y-331337D01*
X34006Y-331374D01*
X34143Y-331410D01*
X34152D01*
X34170Y-331419D01*
X34206Y-331437D01*
X34252Y-331456D01*
X34316Y-331474D01*
X34379Y-331510D01*
X34534Y-331583D01*
X34698Y-331674D01*
X34871Y-331793D01*
X35045Y-331929D01*
X35190Y-332093D01*
Y-332102D01*
X35208Y-332112D01*
X35227Y-332139D01*
X35245Y-332175D01*
X35281Y-332221D01*
X35309Y-332276D01*
X35381Y-332412D01*
X35445Y-332576D01*
X35509Y-332767D01*
X35546Y-332995D01*
X35564Y-333241D01*
Y-333323D01*
X35555Y-333423D01*
X35536Y-333542D01*
X35509Y-333678D01*
X35473Y-333824D01*
X35427Y-333979D01*
X35354Y-334125D01*
Y-334134D01*
X35345Y-334143D01*
X35318Y-334189D01*
X35272Y-334261D01*
X35208Y-334353D01*
X35117Y-334453D01*
X35017Y-334562D01*
X34899Y-334662D01*
X34762Y-334763D01*
X34744Y-334772D01*
X34698Y-334808D01*
X34616Y-334844D01*
X34498Y-334908D01*
X34361Y-334963D01*
X34206Y-335036D01*
X34024Y-335100D01*
X33824Y-335154D01*
X33815D01*
X33796Y-335163D01*
X33769Y-335173D01*
X33724Y-335182D01*
X33669Y-335191D01*
X33605Y-335200D01*
X33523Y-335218D01*
X33432Y-335227D01*
X33332Y-335245D01*
X33222Y-335255D01*
X33095Y-335264D01*
X32967Y-335282D01*
X32822Y-335291D01*
X32676D01*
X32512Y-335300D01*
X32339D01*
X32330D01*
X32293D01*
X32230D01*
X32157D01*
X32056Y-335291D01*
X31947D01*
X31829Y-335282D01*
X31701Y-335273D01*
X31410Y-335245D01*
X31109Y-335200D01*
X30817Y-335145D01*
X30681Y-335109D01*
X30544Y-335063D01*
X30535D01*
X30517Y-335054D01*
X30480Y-335036D01*
X30435Y-335018D01*
X30371Y-334999D01*
X30307Y-334963D01*
X30152Y-334890D01*
X29988Y-334799D01*
X29806Y-334681D01*
X29642Y-334544D01*
X29487Y-334380D01*
Y-334371D01*
X29469Y-334362D01*
X29451Y-334334D01*
X29433Y-334298D01*
X29405Y-334252D01*
X29369Y-334207D01*
X29305Y-334070D01*
X29241Y-333906D01*
X29178Y-333715D01*
X29141Y-333487D01*
X29123Y-333241D01*
Y-333150D01*
X29132Y-333086D01*
X29141Y-333013D01*
X29159Y-332922D01*
X29178Y-332822D01*
X29205Y-332713D01*
X29241Y-332604D01*
X29278Y-332485D01*
X29333Y-332367D01*
X29396Y-332248D01*
X29469Y-332130D01*
X29560Y-332011D01*
X29660Y-331902D01*
X29770Y-331802D01*
X29779Y-331793D01*
X29806Y-331774D01*
X29852Y-331747D01*
X29925Y-331702D01*
X30007Y-331656D01*
X30116Y-331610D01*
X30244Y-331547D01*
X30389Y-331492D01*
X30553Y-331437D01*
X30744Y-331383D01*
X30954Y-331328D01*
X31191Y-331282D01*
X31446Y-331237D01*
X31719Y-331210D01*
X32020Y-331191D01*
X32339Y-331182D01*
X32348D01*
X32384D01*
X32448D01*
X32521D01*
X32621Y-331191D01*
D02*
G37*
G36*
X29405Y-335983D02*
X29487Y-335992D01*
X29579Y-336011D01*
X29670Y-336029D01*
X29770Y-336065D01*
X29779D01*
X29788Y-336074D01*
X29843Y-336093D01*
X29925Y-336129D01*
X30034Y-336184D01*
X30161Y-336257D01*
X30307Y-336348D01*
X30453Y-336448D01*
X30608Y-336575D01*
X30617D01*
X30626Y-336594D01*
X30681Y-336639D01*
X30763Y-336721D01*
X30881Y-336840D01*
X31018Y-336976D01*
X31182Y-337149D01*
X31364Y-337359D01*
X31555Y-337587D01*
X31564Y-337596D01*
X31592Y-337632D01*
X31637Y-337687D01*
X31692Y-337751D01*
X31765Y-337833D01*
X31847Y-337933D01*
X31938Y-338033D01*
X32038Y-338151D01*
X32257Y-338379D01*
X32475Y-338607D01*
X32585Y-338716D01*
X32694Y-338816D01*
X32794Y-338908D01*
X32895Y-338981D01*
X32904D01*
X32913Y-338999D01*
X32940Y-339017D01*
X32976Y-339035D01*
X33077Y-339099D01*
X33195Y-339172D01*
X33341Y-339235D01*
X33496Y-339299D01*
X33669Y-339336D01*
X33833Y-339354D01*
X33842D01*
X33851D01*
X33906Y-339345D01*
X33997Y-339336D01*
X34097Y-339308D01*
X34225Y-339272D01*
X34352Y-339208D01*
X34480Y-339126D01*
X34607Y-339017D01*
X34625Y-338999D01*
X34662Y-338953D01*
X34707Y-338889D01*
X34771Y-338789D01*
X34826Y-338662D01*
X34881Y-338516D01*
X34917Y-338343D01*
X34926Y-338151D01*
Y-338097D01*
X34917Y-338060D01*
X34908Y-337951D01*
X34881Y-337824D01*
X34844Y-337687D01*
X34780Y-337532D01*
X34698Y-337386D01*
X34589Y-337249D01*
X34571Y-337231D01*
X34525Y-337195D01*
X34452Y-337140D01*
X34343Y-337086D01*
X34215Y-337022D01*
X34051Y-336967D01*
X33869Y-336931D01*
X33660Y-336912D01*
X33742Y-336120D01*
X33751D01*
X33778Y-336129D01*
X33824D01*
X33887Y-336138D01*
X33960Y-336156D01*
X34042Y-336175D01*
X34143Y-336202D01*
X34243Y-336229D01*
X34461Y-336302D01*
X34680Y-336411D01*
X34789Y-336475D01*
X34899Y-336557D01*
X34999Y-336639D01*
X35090Y-336730D01*
X35099Y-336739D01*
X35108Y-336758D01*
X35136Y-336785D01*
X35163Y-336830D01*
X35199Y-336885D01*
X35236Y-336949D01*
X35281Y-337022D01*
X35327Y-337113D01*
X35372Y-337213D01*
X35418Y-337322D01*
X35454Y-337441D01*
X35491Y-337568D01*
X35518Y-337705D01*
X35546Y-337851D01*
X35555Y-338006D01*
X35564Y-338170D01*
Y-338261D01*
X35555Y-338324D01*
X35546Y-338397D01*
X35536Y-338489D01*
X35518Y-338589D01*
X35500Y-338689D01*
X35436Y-338926D01*
X35345Y-339163D01*
X35290Y-339281D01*
X35227Y-339400D01*
X35145Y-339509D01*
X35054Y-339609D01*
X35045Y-339618D01*
X35035Y-339636D01*
X34999Y-339655D01*
X34962Y-339691D01*
X34917Y-339737D01*
X34853Y-339782D01*
X34789Y-339828D01*
X34707Y-339882D01*
X34534Y-339973D01*
X34316Y-340065D01*
X34206Y-340101D01*
X34079Y-340119D01*
X33951Y-340137D01*
X33815Y-340146D01*
X33796D01*
X33751D01*
X33678Y-340137D01*
X33578Y-340128D01*
X33468Y-340110D01*
X33341Y-340074D01*
X33204Y-340037D01*
X33068Y-339983D01*
X33049Y-339973D01*
X33004Y-339955D01*
X32931Y-339919D01*
X32831Y-339864D01*
X32721Y-339791D01*
X32585Y-339700D01*
X32448Y-339591D01*
X32293Y-339463D01*
X32275Y-339445D01*
X32220Y-339400D01*
X32175Y-339354D01*
X32129Y-339308D01*
X32075Y-339254D01*
X32002Y-339181D01*
X31929Y-339108D01*
X31847Y-339017D01*
X31756Y-338926D01*
X31655Y-338816D01*
X31555Y-338698D01*
X31437Y-338570D01*
X31319Y-338425D01*
X31191Y-338279D01*
X31182Y-338270D01*
X31164Y-338252D01*
X31136Y-338215D01*
X31100Y-338170D01*
X31045Y-338115D01*
X30990Y-338051D01*
X30872Y-337906D01*
X30735Y-337751D01*
X30599Y-337605D01*
X30480Y-337477D01*
X30435Y-337423D01*
X30389Y-337377D01*
X30380Y-337368D01*
X30353Y-337341D01*
X30316Y-337304D01*
X30262Y-337259D01*
X30198Y-337213D01*
X30134Y-337158D01*
X29979Y-337049D01*
Y-340156D01*
X29232D01*
Y-335974D01*
X29241D01*
X29278D01*
X29333D01*
X29405Y-335983D01*
D02*
G37*
G36*
X30945Y-341795D02*
X30936D01*
X30918D01*
X30890Y-341805D01*
X30845Y-341814D01*
X30744Y-341841D01*
X30608Y-341877D01*
X30471Y-341932D01*
X30316Y-342005D01*
X30180Y-342096D01*
X30052Y-342205D01*
X30043Y-342224D01*
X30007Y-342260D01*
X29961Y-342333D01*
X29906Y-342433D01*
X29852Y-342543D01*
X29806Y-342679D01*
X29770Y-342834D01*
X29761Y-343007D01*
Y-343062D01*
X29770Y-343098D01*
X29779Y-343208D01*
X29815Y-343335D01*
X29861Y-343490D01*
X29934Y-343645D01*
X30043Y-343809D01*
X30107Y-343882D01*
X30180Y-343954D01*
X30189Y-343964D01*
X30198Y-343973D01*
X30225Y-343991D01*
X30253Y-344018D01*
X30353Y-344082D01*
X30480Y-344155D01*
X30635Y-344219D01*
X30827Y-344283D01*
X31054Y-344328D01*
X31173Y-344346D01*
X31300D01*
X31309D01*
X31328D01*
X31364D01*
X31410Y-344337D01*
X31464D01*
X31528Y-344328D01*
X31674Y-344301D01*
X31847Y-344255D01*
X32020Y-344191D01*
X32184Y-344100D01*
X32339Y-343973D01*
X32348D01*
X32357Y-343954D01*
X32403Y-343909D01*
X32466Y-343827D01*
X32539Y-343718D01*
X32603Y-343572D01*
X32667Y-343408D01*
X32712Y-343217D01*
X32730Y-343107D01*
Y-342934D01*
X32721Y-342861D01*
X32712Y-342770D01*
X32685Y-342661D01*
X32658Y-342552D01*
X32612Y-342433D01*
X32557Y-342315D01*
X32548Y-342306D01*
X32530Y-342269D01*
X32485Y-342214D01*
X32439Y-342142D01*
X32375Y-342069D01*
X32293Y-341996D01*
X32211Y-341914D01*
X32111Y-341850D01*
X32211Y-341121D01*
X35454Y-341732D01*
Y-344865D01*
X34716D01*
Y-342342D01*
X33013Y-342005D01*
X33022Y-342014D01*
X33031Y-342032D01*
X33049Y-342060D01*
X33077Y-342105D01*
X33104Y-342160D01*
X33141Y-342224D01*
X33213Y-342369D01*
X33286Y-342552D01*
X33350Y-342752D01*
X33395Y-342971D01*
X33414Y-343080D01*
Y-343280D01*
X33405Y-343335D01*
X33395Y-343408D01*
X33386Y-343490D01*
X33368Y-343581D01*
X33341Y-343681D01*
X33277Y-343900D01*
X33232Y-344018D01*
X33168Y-344137D01*
X33104Y-344255D01*
X33031Y-344374D01*
X32940Y-344483D01*
X32840Y-344592D01*
X32831Y-344601D01*
X32812Y-344619D01*
X32785Y-344647D01*
X32740Y-344683D01*
X32676Y-344729D01*
X32612Y-344774D01*
X32530Y-344829D01*
X32439Y-344884D01*
X32339Y-344929D01*
X32230Y-344984D01*
X32102Y-345029D01*
X31974Y-345075D01*
X31838Y-345111D01*
X31683Y-345139D01*
X31528Y-345157D01*
X31364Y-345166D01*
X31355D01*
X31328D01*
X31282D01*
X31218Y-345157D01*
X31145Y-345148D01*
X31063Y-345139D01*
X30963Y-345121D01*
X30863Y-345102D01*
X30626Y-345048D01*
X30380Y-344957D01*
X30253Y-344902D01*
X30134Y-344829D01*
X30007Y-344756D01*
X29888Y-344665D01*
X29879Y-344656D01*
X29852Y-344638D01*
X29815Y-344601D01*
X29770Y-344556D01*
X29715Y-344492D01*
X29642Y-344419D01*
X29579Y-344328D01*
X29506Y-344228D01*
X29433Y-344118D01*
X29369Y-343991D01*
X29305Y-343854D01*
X29241Y-343708D01*
X29196Y-343554D01*
X29159Y-343381D01*
X29132Y-343198D01*
X29123Y-343007D01*
Y-342925D01*
X29132Y-342861D01*
X29141Y-342788D01*
X29150Y-342706D01*
X29159Y-342606D01*
X29187Y-342506D01*
X29241Y-342278D01*
X29323Y-342051D01*
X29378Y-341932D01*
X29442Y-341814D01*
X29515Y-341704D01*
X29597Y-341595D01*
X29606Y-341586D01*
X29615Y-341568D01*
X29651Y-341549D01*
X29688Y-341513D01*
X29733Y-341467D01*
X29788Y-341422D01*
X29861Y-341367D01*
X29943Y-341322D01*
X30025Y-341267D01*
X30125Y-341212D01*
X30344Y-341112D01*
X30599Y-341030D01*
X30735Y-341003D01*
X30881Y-340985D01*
X30945Y-341795D01*
D02*
G37*
G36*
X32621Y-345895D02*
X32730D01*
X32849Y-345904D01*
X32986Y-345913D01*
X33268Y-345940D01*
X33569Y-345986D01*
X33869Y-346041D01*
X34006Y-346077D01*
X34143Y-346114D01*
X34152D01*
X34170Y-346123D01*
X34206Y-346141D01*
X34252Y-346159D01*
X34316Y-346177D01*
X34379Y-346214D01*
X34534Y-346287D01*
X34698Y-346378D01*
X34871Y-346496D01*
X35045Y-346633D01*
X35190Y-346797D01*
Y-346806D01*
X35208Y-346815D01*
X35227Y-346842D01*
X35245Y-346879D01*
X35281Y-346924D01*
X35309Y-346979D01*
X35381Y-347116D01*
X35445Y-347280D01*
X35509Y-347471D01*
X35546Y-347699D01*
X35564Y-347945D01*
Y-348027D01*
X35555Y-348127D01*
X35536Y-348245D01*
X35509Y-348382D01*
X35473Y-348528D01*
X35427Y-348683D01*
X35354Y-348828D01*
Y-348837D01*
X35345Y-348847D01*
X35318Y-348892D01*
X35272Y-348965D01*
X35208Y-349056D01*
X35117Y-349156D01*
X35017Y-349266D01*
X34899Y-349366D01*
X34762Y-349466D01*
X34744Y-349475D01*
X34698Y-349512D01*
X34616Y-349548D01*
X34498Y-349612D01*
X34361Y-349667D01*
X34206Y-349739D01*
X34024Y-349803D01*
X33824Y-349858D01*
X33815D01*
X33796Y-349867D01*
X33769Y-349876D01*
X33724Y-349885D01*
X33669Y-349894D01*
X33605Y-349903D01*
X33523Y-349922D01*
X33432Y-349931D01*
X33332Y-349949D01*
X33222Y-349958D01*
X33095Y-349967D01*
X32967Y-349985D01*
X32822Y-349994D01*
X32676D01*
X32512Y-350004D01*
X32339D01*
X32330D01*
X32293D01*
X32230D01*
X32157D01*
X32056Y-349994D01*
X31947D01*
X31829Y-349985D01*
X31701Y-349976D01*
X31410Y-349949D01*
X31109Y-349903D01*
X30817Y-349849D01*
X30681Y-349812D01*
X30544Y-349767D01*
X30535D01*
X30517Y-349758D01*
X30480Y-349739D01*
X30435Y-349721D01*
X30371Y-349703D01*
X30307Y-349667D01*
X30152Y-349594D01*
X29988Y-349502D01*
X29806Y-349384D01*
X29642Y-349247D01*
X29487Y-349083D01*
Y-349074D01*
X29469Y-349065D01*
X29451Y-349038D01*
X29433Y-349002D01*
X29405Y-348956D01*
X29369Y-348910D01*
X29305Y-348774D01*
X29241Y-348610D01*
X29178Y-348418D01*
X29141Y-348191D01*
X29123Y-347945D01*
Y-347854D01*
X29132Y-347790D01*
X29141Y-347717D01*
X29159Y-347626D01*
X29178Y-347526D01*
X29205Y-347416D01*
X29241Y-347307D01*
X29278Y-347189D01*
X29333Y-347070D01*
X29396Y-346952D01*
X29469Y-346833D01*
X29560Y-346715D01*
X29660Y-346605D01*
X29770Y-346505D01*
X29779Y-346496D01*
X29806Y-346478D01*
X29852Y-346451D01*
X29925Y-346405D01*
X30007Y-346359D01*
X30116Y-346314D01*
X30244Y-346250D01*
X30389Y-346196D01*
X30553Y-346141D01*
X30744Y-346086D01*
X30954Y-346032D01*
X31191Y-345986D01*
X31446Y-345940D01*
X31719Y-345913D01*
X32020Y-345895D01*
X32339Y-345886D01*
X32348D01*
X32384D01*
X32448D01*
X32521D01*
X32621Y-345895D01*
D02*
G37*
G36*
X30945Y-351598D02*
X30936D01*
X30918D01*
X30890Y-351607D01*
X30845Y-351616D01*
X30744Y-351643D01*
X30608Y-351680D01*
X30471Y-351734D01*
X30316Y-351807D01*
X30180Y-351898D01*
X30052Y-352008D01*
X30043Y-352026D01*
X30007Y-352062D01*
X29961Y-352135D01*
X29906Y-352236D01*
X29852Y-352345D01*
X29806Y-352482D01*
X29770Y-352636D01*
X29761Y-352809D01*
Y-352864D01*
X29770Y-352901D01*
X29779Y-353010D01*
X29815Y-353137D01*
X29861Y-353292D01*
X29934Y-353447D01*
X30043Y-353611D01*
X30107Y-353684D01*
X30180Y-353757D01*
X30189Y-353766D01*
X30198Y-353775D01*
X30225Y-353793D01*
X30253Y-353821D01*
X30353Y-353884D01*
X30480Y-353957D01*
X30635Y-354021D01*
X30827Y-354085D01*
X31054Y-354130D01*
X31173Y-354149D01*
X31300D01*
X31309D01*
X31328D01*
X31364D01*
X31410Y-354139D01*
X31464D01*
X31528Y-354130D01*
X31674Y-354103D01*
X31847Y-354058D01*
X32020Y-353994D01*
X32184Y-353903D01*
X32339Y-353775D01*
X32348D01*
X32357Y-353757D01*
X32403Y-353711D01*
X32466Y-353629D01*
X32539Y-353520D01*
X32603Y-353374D01*
X32667Y-353210D01*
X32712Y-353019D01*
X32730Y-352910D01*
Y-352736D01*
X32721Y-352664D01*
X32712Y-352573D01*
X32685Y-352463D01*
X32658Y-352354D01*
X32612Y-352236D01*
X32557Y-352117D01*
X32548Y-352108D01*
X32530Y-352071D01*
X32485Y-352017D01*
X32439Y-351944D01*
X32375Y-351871D01*
X32293Y-351798D01*
X32211Y-351716D01*
X32111Y-351653D01*
X32211Y-350924D01*
X35454Y-351534D01*
Y-354668D01*
X34716D01*
Y-352144D01*
X33013Y-351807D01*
X33022Y-351816D01*
X33031Y-351835D01*
X33049Y-351862D01*
X33077Y-351907D01*
X33104Y-351962D01*
X33141Y-352026D01*
X33213Y-352172D01*
X33286Y-352354D01*
X33350Y-352554D01*
X33395Y-352773D01*
X33414Y-352882D01*
Y-353083D01*
X33405Y-353137D01*
X33395Y-353210D01*
X33386Y-353292D01*
X33368Y-353383D01*
X33341Y-353484D01*
X33277Y-353702D01*
X33232Y-353821D01*
X33168Y-353939D01*
X33104Y-354058D01*
X33031Y-354176D01*
X32940Y-354285D01*
X32840Y-354395D01*
X32831Y-354404D01*
X32812Y-354422D01*
X32785Y-354449D01*
X32740Y-354486D01*
X32676Y-354531D01*
X32612Y-354577D01*
X32530Y-354631D01*
X32439Y-354686D01*
X32339Y-354732D01*
X32230Y-354786D01*
X32102Y-354832D01*
X31974Y-354877D01*
X31838Y-354914D01*
X31683Y-354941D01*
X31528Y-354959D01*
X31364Y-354969D01*
X31355D01*
X31328D01*
X31282D01*
X31218Y-354959D01*
X31145Y-354950D01*
X31063Y-354941D01*
X30963Y-354923D01*
X30863Y-354905D01*
X30626Y-354850D01*
X30380Y-354759D01*
X30253Y-354704D01*
X30134Y-354631D01*
X30007Y-354559D01*
X29888Y-354468D01*
X29879Y-354458D01*
X29852Y-354440D01*
X29815Y-354404D01*
X29770Y-354358D01*
X29715Y-354294D01*
X29642Y-354222D01*
X29579Y-354130D01*
X29506Y-354030D01*
X29433Y-353921D01*
X29369Y-353793D01*
X29305Y-353657D01*
X29241Y-353511D01*
X29196Y-353356D01*
X29159Y-353183D01*
X29132Y-353001D01*
X29123Y-352809D01*
Y-352727D01*
X29132Y-352664D01*
X29141Y-352591D01*
X29150Y-352509D01*
X29159Y-352409D01*
X29187Y-352308D01*
X29241Y-352081D01*
X29323Y-351853D01*
X29378Y-351734D01*
X29442Y-351616D01*
X29515Y-351507D01*
X29597Y-351397D01*
X29606Y-351388D01*
X29615Y-351370D01*
X29651Y-351352D01*
X29688Y-351315D01*
X29733Y-351270D01*
X29788Y-351224D01*
X29861Y-351170D01*
X29943Y-351124D01*
X30025Y-351069D01*
X30125Y-351015D01*
X30344Y-350915D01*
X30599Y-350833D01*
X30735Y-350805D01*
X30881Y-350787D01*
X30945Y-351598D01*
D02*
G37*
G36*
X29405Y-355588D02*
X29487Y-355597D01*
X29579Y-355615D01*
X29670Y-355633D01*
X29770Y-355670D01*
X29779D01*
X29788Y-355679D01*
X29843Y-355697D01*
X29925Y-355734D01*
X30034Y-355788D01*
X30161Y-355861D01*
X30307Y-355952D01*
X30453Y-356053D01*
X30608Y-356180D01*
X30617D01*
X30626Y-356198D01*
X30681Y-356244D01*
X30763Y-356326D01*
X30881Y-356444D01*
X31018Y-356581D01*
X31182Y-356754D01*
X31364Y-356964D01*
X31555Y-357191D01*
X31564Y-357201D01*
X31592Y-357237D01*
X31637Y-357292D01*
X31692Y-357355D01*
X31765Y-357437D01*
X31847Y-357538D01*
X31938Y-357638D01*
X32038Y-357756D01*
X32257Y-357984D01*
X32475Y-358212D01*
X32585Y-358321D01*
X32694Y-358421D01*
X32794Y-358512D01*
X32895Y-358585D01*
X32904D01*
X32913Y-358603D01*
X32940Y-358622D01*
X32976Y-358640D01*
X33077Y-358704D01*
X33195Y-358776D01*
X33341Y-358840D01*
X33496Y-358904D01*
X33669Y-358941D01*
X33833Y-358959D01*
X33842D01*
X33851D01*
X33906Y-358950D01*
X33997Y-358941D01*
X34097Y-358913D01*
X34225Y-358877D01*
X34352Y-358813D01*
X34480Y-358731D01*
X34607Y-358622D01*
X34625Y-358603D01*
X34662Y-358558D01*
X34707Y-358494D01*
X34771Y-358394D01*
X34826Y-358266D01*
X34881Y-358121D01*
X34917Y-357947D01*
X34926Y-357756D01*
Y-357701D01*
X34917Y-357665D01*
X34908Y-357556D01*
X34881Y-357428D01*
X34844Y-357292D01*
X34780Y-357137D01*
X34698Y-356991D01*
X34589Y-356854D01*
X34571Y-356836D01*
X34525Y-356800D01*
X34452Y-356745D01*
X34343Y-356690D01*
X34215Y-356627D01*
X34051Y-356572D01*
X33869Y-356535D01*
X33660Y-356517D01*
X33742Y-355725D01*
X33751D01*
X33778Y-355734D01*
X33824D01*
X33887Y-355743D01*
X33960Y-355761D01*
X34042Y-355779D01*
X34143Y-355807D01*
X34243Y-355834D01*
X34461Y-355907D01*
X34680Y-356016D01*
X34789Y-356080D01*
X34899Y-356162D01*
X34999Y-356244D01*
X35090Y-356335D01*
X35099Y-356344D01*
X35108Y-356362D01*
X35136Y-356390D01*
X35163Y-356435D01*
X35199Y-356490D01*
X35236Y-356554D01*
X35281Y-356627D01*
X35327Y-356718D01*
X35372Y-356818D01*
X35418Y-356927D01*
X35454Y-357046D01*
X35491Y-357173D01*
X35518Y-357310D01*
X35546Y-357455D01*
X35555Y-357610D01*
X35564Y-357774D01*
Y-357866D01*
X35555Y-357929D01*
X35546Y-358002D01*
X35536Y-358093D01*
X35518Y-358193D01*
X35500Y-358294D01*
X35436Y-358530D01*
X35345Y-358767D01*
X35290Y-358886D01*
X35227Y-359004D01*
X35145Y-359114D01*
X35054Y-359214D01*
X35045Y-359223D01*
X35035Y-359241D01*
X34999Y-359259D01*
X34962Y-359296D01*
X34917Y-359341D01*
X34853Y-359387D01*
X34789Y-359432D01*
X34707Y-359487D01*
X34534Y-359578D01*
X34316Y-359669D01*
X34206Y-359706D01*
X34079Y-359724D01*
X33951Y-359742D01*
X33815Y-359751D01*
X33796D01*
X33751D01*
X33678Y-359742D01*
X33578Y-359733D01*
X33468Y-359715D01*
X33341Y-359678D01*
X33204Y-359642D01*
X33068Y-359587D01*
X33049Y-359578D01*
X33004Y-359560D01*
X32931Y-359524D01*
X32831Y-359469D01*
X32721Y-359396D01*
X32585Y-359305D01*
X32448Y-359195D01*
X32293Y-359068D01*
X32275Y-359050D01*
X32220Y-359004D01*
X32175Y-358959D01*
X32129Y-358913D01*
X32075Y-358858D01*
X32002Y-358786D01*
X31929Y-358713D01*
X31847Y-358622D01*
X31756Y-358530D01*
X31655Y-358421D01*
X31555Y-358303D01*
X31437Y-358175D01*
X31319Y-358030D01*
X31191Y-357884D01*
X31182Y-357875D01*
X31164Y-357856D01*
X31136Y-357820D01*
X31100Y-357774D01*
X31045Y-357720D01*
X30990Y-357656D01*
X30872Y-357510D01*
X30735Y-357355D01*
X30599Y-357210D01*
X30480Y-357082D01*
X30435Y-357027D01*
X30389Y-356982D01*
X30380Y-356973D01*
X30353Y-356945D01*
X30316Y-356909D01*
X30262Y-356863D01*
X30198Y-356818D01*
X30134Y-356763D01*
X29979Y-356654D01*
Y-359760D01*
X29232D01*
Y-355579D01*
X29241D01*
X29278D01*
X29333D01*
X29405Y-355588D01*
D02*
G37*
G36*
X33979Y-361191D02*
X33997Y-361209D01*
X34006Y-361245D01*
X34033Y-361291D01*
X34061Y-361346D01*
X34097Y-361409D01*
X34188Y-361564D01*
X34288Y-361746D01*
X34416Y-361929D01*
X34562Y-362120D01*
X34716Y-362311D01*
X34726Y-362320D01*
X34735Y-362329D01*
X34762Y-362357D01*
X34789Y-362393D01*
X34881Y-362475D01*
X34990Y-362584D01*
X35117Y-362694D01*
X35263Y-362812D01*
X35409Y-362912D01*
X35564Y-363003D01*
Y-363505D01*
X29232D01*
Y-362730D01*
X34161D01*
X34152Y-362721D01*
X34115Y-362676D01*
X34061Y-362621D01*
X33997Y-362530D01*
X33915Y-362430D01*
X33824Y-362302D01*
X33724Y-362156D01*
X33623Y-361992D01*
Y-361983D01*
X33614Y-361974D01*
X33578Y-361919D01*
X33532Y-361828D01*
X33478Y-361719D01*
X33414Y-361592D01*
X33350Y-361455D01*
X33286Y-361318D01*
X33232Y-361181D01*
X33979D01*
Y-361191D01*
D02*
G37*
%LPC*%
G36*
X34789Y-205956D02*
X32539D01*
Y-207651D01*
X32548Y-207715D01*
Y-207778D01*
X32557Y-207851D01*
X32576Y-208024D01*
X32612Y-208215D01*
X32667Y-208407D01*
X32740Y-208580D01*
X32785Y-208662D01*
X32840Y-208726D01*
X32858Y-208744D01*
X32895Y-208780D01*
X32967Y-208835D01*
X33059Y-208899D01*
X33177Y-208962D01*
X33323Y-209017D01*
X33487Y-209054D01*
X33678Y-209072D01*
X33687D01*
X33696D01*
X33742D01*
X33824Y-209063D01*
X33915Y-209045D01*
X34015Y-209026D01*
X34133Y-208990D01*
X34243Y-208935D01*
X34352Y-208871D01*
X34361Y-208862D01*
X34398Y-208835D01*
X34443Y-208789D01*
X34507Y-208735D01*
X34571Y-208653D01*
X34625Y-208562D01*
X34680Y-208461D01*
X34726Y-208343D01*
Y-208334D01*
X34735Y-208297D01*
X34744Y-208243D01*
X34762Y-208170D01*
X34771Y-208061D01*
X34780Y-207924D01*
X34789Y-207760D01*
Y-205956D01*
D02*
G37*
G36*
X31519Y-211395D02*
X31510D01*
X31482D01*
X31437D01*
X31373Y-211404D01*
X31300D01*
X31218Y-211413D01*
X31027Y-211440D01*
X30808Y-211486D01*
X30590Y-211559D01*
X30380Y-211650D01*
X30289Y-211714D01*
X30198Y-211777D01*
Y-211787D01*
X30180Y-211796D01*
X30134Y-211850D01*
X30061Y-211932D01*
X29988Y-212042D01*
X29906Y-212178D01*
X29833Y-212342D01*
X29788Y-212534D01*
X29779Y-212634D01*
X29770Y-212743D01*
Y-212798D01*
X29779Y-212843D01*
X29797Y-212944D01*
X29824Y-213080D01*
X29879Y-213226D01*
X29952Y-213390D01*
X30061Y-213545D01*
X30134Y-213627D01*
X30207Y-213700D01*
X30216Y-213709D01*
X30225Y-213718D01*
X30253Y-213736D01*
X30289Y-213763D01*
X30335Y-213791D01*
X30389Y-213827D01*
X30462Y-213864D01*
X30535Y-213900D01*
X30626Y-213937D01*
X30726Y-213964D01*
X30836Y-214000D01*
X30954Y-214028D01*
X31091Y-214055D01*
X31227Y-214073D01*
X31382Y-214091D01*
X31546D01*
X31555D01*
X31583D01*
X31628D01*
X31683Y-214082D01*
X31756D01*
X31838Y-214073D01*
X32029Y-214046D01*
X32230Y-214000D01*
X32448Y-213928D01*
X32649Y-213827D01*
X32749Y-213773D01*
X32831Y-213700D01*
X32840D01*
X32849Y-213682D01*
X32904Y-213627D01*
X32967Y-213545D01*
X33049Y-213436D01*
X33131Y-213299D01*
X33204Y-213135D01*
X33250Y-212953D01*
X33259Y-212853D01*
X33268Y-212743D01*
Y-212688D01*
X33259Y-212643D01*
X33250Y-212543D01*
X33213Y-212406D01*
X33159Y-212251D01*
X33086Y-212087D01*
X32976Y-211932D01*
X32904Y-211850D01*
X32831Y-211777D01*
X32822D01*
X32812Y-211759D01*
X32785Y-211741D01*
X32749Y-211714D01*
X32703Y-211686D01*
X32649Y-211659D01*
X32576Y-211623D01*
X32503Y-211586D01*
X32412Y-211550D01*
X32321Y-211513D01*
X32211Y-211486D01*
X32093Y-211459D01*
X31965Y-211431D01*
X31829Y-211413D01*
X31674Y-211404D01*
X31519Y-211395D01*
D02*
G37*
G36*
X31956Y-227638D02*
Y-230198D01*
X31965D01*
X31984D01*
X32011Y-230189D01*
X32047D01*
X32157Y-230171D01*
X32275Y-230143D01*
X32421Y-230098D01*
X32557Y-230052D01*
X32694Y-229979D01*
X32812Y-229897D01*
X32822D01*
X32831Y-229879D01*
X32885Y-229834D01*
X32958Y-229751D01*
X33040Y-229642D01*
X33122Y-229506D01*
X33195Y-229342D01*
X33250Y-229150D01*
X33259Y-229050D01*
X33268Y-228941D01*
Y-228886D01*
X33259Y-228850D01*
X33250Y-228749D01*
X33222Y-228631D01*
X33177Y-228485D01*
X33113Y-228330D01*
X33022Y-228185D01*
X32904Y-228039D01*
X32885Y-228021D01*
X32840Y-227984D01*
X32758Y-227920D01*
X32649Y-227857D01*
X32521Y-227784D01*
X32357Y-227720D01*
X32166Y-227665D01*
X31956Y-227638D01*
D02*
G37*
G36*
X31455Y-244000D02*
Y-245986D01*
X34279D01*
X31455Y-244000D01*
D02*
G37*
G36*
X34789Y-249566D02*
X32539D01*
Y-251260D01*
X32548Y-251324D01*
Y-251388D01*
X32557Y-251461D01*
X32576Y-251634D01*
X32612Y-251825D01*
X32667Y-252016D01*
X32740Y-252189D01*
X32785Y-252272D01*
X32840Y-252335D01*
X32858Y-252354D01*
X32895Y-252390D01*
X32967Y-252445D01*
X33059Y-252508D01*
X33177Y-252572D01*
X33323Y-252627D01*
X33487Y-252663D01*
X33678Y-252681D01*
X33687D01*
X33696D01*
X33742D01*
X33824Y-252672D01*
X33915Y-252654D01*
X34015Y-252636D01*
X34133Y-252599D01*
X34243Y-252545D01*
X34352Y-252481D01*
X34361Y-252472D01*
X34398Y-252445D01*
X34443Y-252399D01*
X34507Y-252344D01*
X34571Y-252262D01*
X34625Y-252171D01*
X34680Y-252071D01*
X34726Y-251953D01*
Y-251943D01*
X34735Y-251907D01*
X34744Y-251852D01*
X34762Y-251780D01*
X34771Y-251670D01*
X34780Y-251534D01*
X34789Y-251370D01*
Y-249566D01*
D02*
G37*
G36*
Y-267184D02*
X32539D01*
Y-268879D01*
X32548Y-268943D01*
Y-269006D01*
X32557Y-269079D01*
X32576Y-269252D01*
X32612Y-269444D01*
X32667Y-269635D01*
X32740Y-269808D01*
X32785Y-269890D01*
X32840Y-269954D01*
X32858Y-269972D01*
X32895Y-270009D01*
X32967Y-270063D01*
X33059Y-270127D01*
X33177Y-270191D01*
X33323Y-270246D01*
X33487Y-270282D01*
X33678Y-270300D01*
X33687D01*
X33696D01*
X33742D01*
X33824Y-270291D01*
X33915Y-270273D01*
X34015Y-270255D01*
X34133Y-270218D01*
X34243Y-270163D01*
X34352Y-270100D01*
X34361Y-270091D01*
X34398Y-270063D01*
X34443Y-270018D01*
X34507Y-269963D01*
X34571Y-269881D01*
X34625Y-269790D01*
X34680Y-269690D01*
X34726Y-269571D01*
Y-269562D01*
X34735Y-269526D01*
X34744Y-269471D01*
X34762Y-269398D01*
X34771Y-269289D01*
X34780Y-269152D01*
X34789Y-268988D01*
Y-267184D01*
D02*
G37*
G36*
X30462Y-272687D02*
X30453D01*
X30408D01*
X30353Y-272696D01*
X30280Y-272714D01*
X30198Y-272742D01*
X30116Y-272787D01*
X30025Y-272842D01*
X29943Y-272915D01*
X29934Y-272924D01*
X29915Y-272960D01*
X29879Y-273015D01*
X29843Y-273088D01*
X29806Y-273188D01*
X29770Y-273306D01*
X29752Y-273443D01*
X29742Y-273607D01*
Y-273680D01*
X29752Y-273771D01*
X29770Y-273871D01*
X29788Y-273999D01*
X29824Y-274126D01*
X29870Y-274263D01*
X29934Y-274400D01*
X29943Y-274418D01*
X29970Y-274454D01*
X30016Y-274518D01*
X30079Y-274591D01*
X30152Y-274673D01*
X30244Y-274764D01*
X30353Y-274837D01*
X30471Y-274910D01*
X30480Y-274919D01*
X30517Y-274928D01*
X30581Y-274946D01*
X30663Y-274974D01*
X30772Y-275001D01*
X30899Y-275019D01*
X31054Y-275028D01*
X31236Y-275037D01*
X31528Y-275046D01*
Y-275037D01*
X31519Y-275028D01*
X31510Y-275001D01*
X31501Y-274964D01*
X31482Y-274919D01*
X31464Y-274864D01*
X31446Y-274800D01*
X31428Y-274728D01*
X31400Y-274646D01*
X31382Y-274545D01*
X31355Y-274445D01*
X31328Y-274327D01*
X31300Y-274199D01*
X31273Y-274072D01*
X31255Y-273926D01*
X31227Y-273771D01*
Y-273753D01*
X31218Y-273698D01*
X31200Y-273607D01*
X31182Y-273507D01*
X31164Y-273398D01*
X31136Y-273288D01*
X31109Y-273188D01*
X31073Y-273097D01*
Y-273088D01*
X31054Y-273060D01*
X31036Y-273024D01*
X31009Y-272988D01*
X30936Y-272878D01*
X30827Y-272787D01*
X30817D01*
X30799Y-272769D01*
X30763Y-272760D01*
X30717Y-272742D01*
X30663Y-272723D01*
X30608Y-272705D01*
X30535Y-272696D01*
X30462Y-272687D01*
D02*
G37*
G36*
X34789Y-292173D02*
X32539D01*
Y-293868D01*
X32548Y-293932D01*
Y-293995D01*
X32557Y-294068D01*
X32576Y-294241D01*
X32612Y-294432D01*
X32667Y-294624D01*
X32740Y-294797D01*
X32785Y-294879D01*
X32840Y-294943D01*
X32858Y-294961D01*
X32895Y-294997D01*
X32967Y-295052D01*
X33059Y-295116D01*
X33177Y-295180D01*
X33323Y-295234D01*
X33487Y-295271D01*
X33678Y-295289D01*
X33687D01*
X33696D01*
X33742D01*
X33824Y-295280D01*
X33915Y-295262D01*
X34015Y-295243D01*
X34133Y-295207D01*
X34243Y-295152D01*
X34352Y-295089D01*
X34361Y-295079D01*
X34398Y-295052D01*
X34443Y-295006D01*
X34507Y-294952D01*
X34571Y-294870D01*
X34625Y-294779D01*
X34680Y-294678D01*
X34726Y-294560D01*
Y-294551D01*
X34735Y-294514D01*
X34744Y-294460D01*
X34762Y-294387D01*
X34771Y-294278D01*
X34780Y-294141D01*
X34789Y-293977D01*
Y-292173D01*
D02*
G37*
G36*
X32339Y-314821D02*
X32321D01*
X32275D01*
X32193D01*
X32084Y-314830D01*
X31965D01*
X31819Y-314839D01*
X31665Y-314848D01*
X31501Y-314866D01*
X31145Y-314912D01*
X30972Y-314939D01*
X30808Y-314976D01*
X30653Y-315012D01*
X30508Y-315067D01*
X30380Y-315121D01*
X30271Y-315185D01*
X30262D01*
X30253Y-315203D01*
X30189Y-315249D01*
X30107Y-315331D01*
X30016Y-315431D01*
X29925Y-315568D01*
X29843Y-315723D01*
X29779Y-315896D01*
X29770Y-315987D01*
X29761Y-316087D01*
Y-316142D01*
X29770Y-316178D01*
X29788Y-316269D01*
X29824Y-316397D01*
X29888Y-316533D01*
X29979Y-316688D01*
X30034Y-316761D01*
X30107Y-316834D01*
X30180Y-316907D01*
X30271Y-316980D01*
X30280D01*
X30298Y-316998D01*
X30325Y-317016D01*
X30371Y-317035D01*
X30435Y-317071D01*
X30517Y-317098D01*
X30608Y-317135D01*
X30717Y-317171D01*
X30854Y-317198D01*
X31000Y-317235D01*
X31173Y-317271D01*
X31355Y-317299D01*
X31574Y-317317D01*
X31801Y-317335D01*
X32056Y-317353D01*
X32339D01*
X32348D01*
X32357D01*
X32403D01*
X32485D01*
X32594Y-317344D01*
X32712D01*
X32858Y-317335D01*
X33013Y-317326D01*
X33186Y-317308D01*
X33532Y-317262D01*
X33705Y-317235D01*
X33869Y-317198D01*
X34024Y-317162D01*
X34170Y-317107D01*
X34297Y-317053D01*
X34407Y-316989D01*
X34416D01*
X34425Y-316971D01*
X34452Y-316952D01*
X34489Y-316925D01*
X34571Y-316843D01*
X34671Y-316743D01*
X34762Y-316606D01*
X34844Y-316451D01*
X34881Y-316369D01*
X34908Y-316278D01*
X34917Y-316178D01*
X34926Y-316078D01*
Y-316023D01*
X34917Y-315987D01*
X34899Y-315887D01*
X34871Y-315768D01*
X34817Y-315632D01*
X34735Y-315486D01*
X34680Y-315413D01*
X34625Y-315340D01*
X34552Y-315276D01*
X34470Y-315212D01*
X34461D01*
X34443Y-315194D01*
X34407Y-315176D01*
X34361Y-315149D01*
X34288Y-315121D01*
X34206Y-315085D01*
X34106Y-315058D01*
X33988Y-315021D01*
X33851Y-314985D01*
X33696Y-314948D01*
X33523Y-314912D01*
X33332Y-314884D01*
X33113Y-314857D01*
X32876Y-314839D01*
X32621Y-314830D01*
X32339Y-314821D01*
D02*
G37*
G36*
Y-331975D02*
X32321D01*
X32275D01*
X32193D01*
X32084Y-331984D01*
X31965D01*
X31819Y-331993D01*
X31665Y-332002D01*
X31501Y-332020D01*
X31145Y-332066D01*
X30972Y-332093D01*
X30808Y-332130D01*
X30653Y-332166D01*
X30508Y-332221D01*
X30380Y-332276D01*
X30271Y-332339D01*
X30262D01*
X30253Y-332358D01*
X30189Y-332403D01*
X30107Y-332485D01*
X30016Y-332585D01*
X29925Y-332722D01*
X29843Y-332877D01*
X29779Y-333050D01*
X29770Y-333141D01*
X29761Y-333241D01*
Y-333296D01*
X29770Y-333332D01*
X29788Y-333423D01*
X29824Y-333551D01*
X29888Y-333687D01*
X29979Y-333842D01*
X30034Y-333915D01*
X30107Y-333988D01*
X30180Y-334061D01*
X30271Y-334134D01*
X30280D01*
X30298Y-334152D01*
X30325Y-334170D01*
X30371Y-334189D01*
X30435Y-334225D01*
X30517Y-334252D01*
X30608Y-334289D01*
X30717Y-334325D01*
X30854Y-334353D01*
X31000Y-334389D01*
X31173Y-334425D01*
X31355Y-334453D01*
X31574Y-334471D01*
X31801Y-334489D01*
X32056Y-334507D01*
X32339D01*
X32348D01*
X32357D01*
X32403D01*
X32485D01*
X32594Y-334498D01*
X32712D01*
X32858Y-334489D01*
X33013Y-334480D01*
X33186Y-334462D01*
X33532Y-334416D01*
X33705Y-334389D01*
X33869Y-334353D01*
X34024Y-334316D01*
X34170Y-334261D01*
X34297Y-334207D01*
X34407Y-334143D01*
X34416D01*
X34425Y-334125D01*
X34452Y-334107D01*
X34489Y-334079D01*
X34571Y-333997D01*
X34671Y-333897D01*
X34762Y-333760D01*
X34844Y-333606D01*
X34881Y-333524D01*
X34908Y-333433D01*
X34917Y-333332D01*
X34926Y-333232D01*
Y-333177D01*
X34917Y-333141D01*
X34899Y-333041D01*
X34871Y-332922D01*
X34817Y-332786D01*
X34735Y-332640D01*
X34680Y-332567D01*
X34625Y-332494D01*
X34552Y-332430D01*
X34470Y-332367D01*
X34461D01*
X34443Y-332348D01*
X34407Y-332330D01*
X34361Y-332303D01*
X34288Y-332276D01*
X34206Y-332239D01*
X34106Y-332212D01*
X33988Y-332175D01*
X33851Y-332139D01*
X33696Y-332102D01*
X33523Y-332066D01*
X33332Y-332039D01*
X33113Y-332011D01*
X32876Y-331993D01*
X32621Y-331984D01*
X32339Y-331975D01*
D02*
G37*
G36*
Y-346678D02*
X32321D01*
X32275D01*
X32193D01*
X32084Y-346688D01*
X31965D01*
X31819Y-346697D01*
X31665Y-346706D01*
X31501Y-346724D01*
X31145Y-346769D01*
X30972Y-346797D01*
X30808Y-346833D01*
X30653Y-346870D01*
X30508Y-346924D01*
X30380Y-346979D01*
X30271Y-347043D01*
X30262D01*
X30253Y-347061D01*
X30189Y-347107D01*
X30107Y-347189D01*
X30016Y-347289D01*
X29925Y-347425D01*
X29843Y-347580D01*
X29779Y-347753D01*
X29770Y-347845D01*
X29761Y-347945D01*
Y-347999D01*
X29770Y-348036D01*
X29788Y-348127D01*
X29824Y-348254D01*
X29888Y-348391D01*
X29979Y-348546D01*
X30034Y-348619D01*
X30107Y-348692D01*
X30180Y-348765D01*
X30271Y-348837D01*
X30280D01*
X30298Y-348856D01*
X30325Y-348874D01*
X30371Y-348892D01*
X30435Y-348929D01*
X30517Y-348956D01*
X30608Y-348992D01*
X30717Y-349029D01*
X30854Y-349056D01*
X31000Y-349093D01*
X31173Y-349129D01*
X31355Y-349156D01*
X31574Y-349174D01*
X31801Y-349193D01*
X32056Y-349211D01*
X32339D01*
X32348D01*
X32357D01*
X32403D01*
X32485D01*
X32594Y-349202D01*
X32712D01*
X32858Y-349193D01*
X33013Y-349184D01*
X33186Y-349165D01*
X33532Y-349120D01*
X33705Y-349093D01*
X33869Y-349056D01*
X34024Y-349020D01*
X34170Y-348965D01*
X34297Y-348910D01*
X34407Y-348847D01*
X34416D01*
X34425Y-348828D01*
X34452Y-348810D01*
X34489Y-348783D01*
X34571Y-348701D01*
X34671Y-348601D01*
X34762Y-348464D01*
X34844Y-348309D01*
X34881Y-348227D01*
X34908Y-348136D01*
X34917Y-348036D01*
X34926Y-347936D01*
Y-347881D01*
X34917Y-347845D01*
X34899Y-347744D01*
X34871Y-347626D01*
X34817Y-347489D01*
X34735Y-347343D01*
X34680Y-347271D01*
X34625Y-347198D01*
X34552Y-347134D01*
X34470Y-347070D01*
X34461D01*
X34443Y-347052D01*
X34407Y-347034D01*
X34361Y-347006D01*
X34288Y-346979D01*
X34206Y-346943D01*
X34106Y-346915D01*
X33988Y-346879D01*
X33851Y-346842D01*
X33696Y-346806D01*
X33523Y-346769D01*
X33332Y-346742D01*
X33113Y-346715D01*
X32876Y-346697D01*
X32621Y-346688D01*
X32339Y-346678D01*
D02*
G37*
%LPD*%
M02*
