G04*
G04 #@! TF.GenerationSoftware,Altium Limited,Altium Designer,20.2.6 (244)*
G04*
G04 Layer_Physical_Order=1*
G04 Layer_Color=1930808*
%FSLAX25Y25*%
%MOIN*%
G70*
G04*
G04 #@! TF.SameCoordinates,2B018634-E8C6-49A8-AC31-D19AD41F8AF0*
G04*
G04*
G04 #@! TF.FilePolarity,Positive*
G04*
G01*
G75*
%ADD10C,0.00394*%
%ADD11C,0.01000*%
%ADD13R,0.02756X0.15748*%
%ADD14R,0.01181X0.15748*%
%ADD17C,0.01181*%
%ADD18C,0.01968*%
%ADD19C,0.02756*%
%ADD20C,0.00591*%
%ADD21C,0.02165*%
G36*
X12801Y-470413D02*
X12818Y-470496D01*
X12846Y-470582D01*
X12885Y-470671D01*
X12935Y-470764D01*
X12997Y-470859D01*
X13070Y-470958D01*
X13154Y-471060D01*
X13356Y-471274D01*
X11841D01*
X11947Y-471166D01*
X12127Y-470958D01*
X12200Y-470859D01*
X12261Y-470764D01*
X12312Y-470671D01*
X12351Y-470582D01*
X12379Y-470496D01*
X12396Y-470413D01*
X12402Y-470333D01*
X12795D01*
X12801Y-470413D01*
D02*
G37*
G36*
X15950Y-472381D02*
X15967Y-472464D01*
X15995Y-472550D01*
X16035Y-472640D01*
X16085Y-472732D01*
X16147Y-472828D01*
X16220Y-472927D01*
X16304Y-473029D01*
X16506Y-473243D01*
X14990D01*
X15097Y-473134D01*
X15276Y-472927D01*
X15349Y-472828D01*
X15411Y-472732D01*
X15461Y-472640D01*
X15501Y-472550D01*
X15529Y-472464D01*
X15546Y-472381D01*
X15551Y-472301D01*
X15945D01*
X15950Y-472381D01*
D02*
G37*
G36*
X40415Y-491433D02*
X40235Y-491640D01*
X40163Y-491739D01*
X40101Y-491835D01*
X40050Y-491927D01*
X40011Y-492016D01*
X39983Y-492103D01*
X39966Y-492186D01*
X39961Y-492265D01*
X39567D01*
X39561Y-492186D01*
X39544Y-492103D01*
X39516Y-492016D01*
X39477Y-491927D01*
X39427Y-491835D01*
X39365Y-491739D01*
X39292Y-491640D01*
X39208Y-491538D01*
X39006Y-491324D01*
X40522D01*
X40415Y-491433D01*
D02*
G37*
G36*
X37447Y-494873D02*
X37549Y-495288D01*
X37587Y-495402D01*
X37667Y-495594D01*
X37710Y-495672D01*
X37755Y-495737D01*
X37802Y-495791D01*
X37576Y-496122D01*
X37511Y-496066D01*
X37438Y-496019D01*
X37357Y-495980D01*
X37268Y-495951D01*
X37170Y-495930D01*
X37065Y-495919D01*
X36950Y-495916D01*
X36828Y-495922D01*
X36698Y-495936D01*
X36559Y-495960D01*
X36904Y-495457D01*
X36630Y-495193D01*
X36925Y-494898D01*
X36929Y-494905D01*
X36942Y-494920D01*
X36992Y-494975D01*
X37135Y-495121D01*
X37417Y-494710D01*
X37447Y-494873D01*
D02*
G37*
G36*
X42726Y-496689D02*
X42724Y-496709D01*
X42721Y-496783D01*
X42717Y-497233D01*
X43282Y-497241D01*
X43174Y-497347D01*
X42994Y-497551D01*
X42920Y-497648D01*
X42858Y-497743D01*
X42807Y-497835D01*
X42767Y-497924D01*
X42739Y-498010D01*
X42722Y-498093D01*
X42717Y-498174D01*
X42323Y-498168D01*
X42317Y-498089D01*
X42301Y-498006D01*
X42273Y-497920D01*
X42234Y-497830D01*
X42184Y-497737D01*
X42123Y-497640D01*
X42050Y-497540D01*
X41967Y-497436D01*
X41766Y-497219D01*
X42322Y-497227D01*
X42311Y-496681D01*
X42729D01*
X42726Y-496689D01*
D02*
G37*
G36*
X33370Y-497251D02*
X33383Y-497267D01*
X33433Y-497322D01*
X33757Y-497651D01*
X34154Y-497255D01*
X34155Y-497407D01*
X34174Y-497681D01*
X34193Y-497802D01*
X34217Y-497913D01*
X34246Y-498014D01*
X34282Y-498105D01*
X34323Y-498186D01*
X34370Y-498257D01*
X34422Y-498317D01*
X34144Y-498595D01*
X34083Y-498543D01*
X34013Y-498496D01*
X33932Y-498455D01*
X33841Y-498420D01*
X33740Y-498390D01*
X33629Y-498366D01*
X33507Y-498348D01*
X33375Y-498335D01*
X33082Y-498327D01*
X33478Y-497930D01*
X33071Y-497539D01*
X33366Y-497244D01*
X33370Y-497251D01*
D02*
G37*
G36*
X48627Y-573061D02*
X48643Y-573264D01*
X48669Y-573443D01*
X48705Y-573598D01*
X48752Y-573730D01*
X48809Y-573837D01*
X48876Y-573920D01*
X48954Y-573980D01*
X49042Y-574016D01*
X49141Y-574028D01*
X47709D01*
X47808Y-574016D01*
X47896Y-573980D01*
X47974Y-573920D01*
X48041Y-573837D01*
X48099Y-573730D01*
X48145Y-573598D01*
X48182Y-573443D01*
X48208Y-573264D01*
X48223Y-573061D01*
X48228Y-572835D01*
X48622D01*
X48627Y-573061D01*
D02*
G37*
G36*
X44688Y-573301D02*
X44716Y-573588D01*
X44740Y-573704D01*
X44771Y-573803D01*
X44808Y-573884D01*
X44853Y-573947D01*
X44904Y-573992D01*
X44962Y-574019D01*
X45027Y-574028D01*
X43949D01*
X44014Y-574019D01*
X44073Y-573992D01*
X44124Y-573947D01*
X44168Y-573884D01*
X44206Y-573803D01*
X44237Y-573704D01*
X44261Y-573588D01*
X44278Y-573453D01*
X44288Y-573301D01*
X44291Y-573130D01*
X44685D01*
X44688Y-573301D01*
D02*
G37*
G36*
X40752Y-573221D02*
X40784Y-573540D01*
X40812Y-573669D01*
X40848Y-573779D01*
X40892Y-573868D01*
X40944Y-573938D01*
X41005Y-573988D01*
X41073Y-574018D01*
X41149Y-574028D01*
X39953D01*
X40030Y-574018D01*
X40098Y-573988D01*
X40158Y-573938D01*
X40210Y-573868D01*
X40254Y-573779D01*
X40290Y-573669D01*
X40318Y-573540D01*
X40338Y-573390D01*
X40350Y-573221D01*
X40354Y-573032D01*
X40748D01*
X40752Y-573221D01*
D02*
G37*
G36*
X36817Y-572902D02*
X36836Y-573138D01*
X36868Y-573347D01*
X36913Y-573527D01*
X36970Y-573680D01*
X37040Y-573805D01*
X37123Y-573903D01*
X37219Y-573972D01*
X37327Y-574014D01*
X37448Y-574028D01*
X35780D01*
X35901Y-574014D01*
X36010Y-573972D01*
X36105Y-573903D01*
X36188Y-573805D01*
X36258Y-573680D01*
X36315Y-573527D01*
X36360Y-573347D01*
X36392Y-573138D01*
X36411Y-572902D01*
X36417Y-572638D01*
X36811D01*
X36817Y-572902D01*
D02*
G37*
G36*
X28940Y-573301D02*
X28968Y-573588D01*
X28992Y-573704D01*
X29022Y-573803D01*
X29060Y-573884D01*
X29105Y-573947D01*
X29156Y-573992D01*
X29214Y-574019D01*
X29279Y-574028D01*
X28201D01*
X28266Y-574019D01*
X28324Y-573992D01*
X28376Y-573947D01*
X28420Y-573884D01*
X28458Y-573803D01*
X28489Y-573704D01*
X28512Y-573588D01*
X28530Y-573453D01*
X28540Y-573301D01*
X28543Y-573130D01*
X28937D01*
X28940Y-573301D01*
D02*
G37*
G36*
X25003Y-573301D02*
X25031Y-573588D01*
X25055Y-573704D01*
X25085Y-573803D01*
X25123Y-573884D01*
X25168Y-573947D01*
X25219Y-573992D01*
X25277Y-574019D01*
X25342Y-574028D01*
X24264D01*
X24329Y-574019D01*
X24387Y-573992D01*
X24439Y-573947D01*
X24483Y-573884D01*
X24521Y-573803D01*
X24552Y-573704D01*
X24576Y-573588D01*
X24593Y-573453D01*
X24603Y-573301D01*
X24606Y-573130D01*
X25000D01*
X25003Y-573301D01*
D02*
G37*
G36*
X17129Y-573380D02*
X17151Y-573636D01*
X17171Y-573740D01*
X17197Y-573828D01*
X17228Y-573900D01*
X17265Y-573956D01*
X17307Y-573996D01*
X17355Y-574020D01*
X17409Y-574028D01*
X16450D01*
X16503Y-574020D01*
X16551Y-573996D01*
X16594Y-573956D01*
X16631Y-573900D01*
X16662Y-573828D01*
X16687Y-573740D01*
X16707Y-573636D01*
X16721Y-573516D01*
X16729Y-573380D01*
X16732Y-573228D01*
X17126D01*
X17129Y-573380D01*
D02*
G37*
G36*
X13192Y-573380D02*
X13214Y-573636D01*
X13234Y-573740D01*
X13260Y-573828D01*
X13291Y-573900D01*
X13328Y-573956D01*
X13370Y-573996D01*
X13418Y-574020D01*
X13472Y-574028D01*
X12513D01*
X12566Y-574020D01*
X12614Y-573996D01*
X12657Y-573956D01*
X12694Y-573900D01*
X12725Y-573828D01*
X12750Y-573740D01*
X12770Y-573636D01*
X12784Y-573516D01*
X12792Y-573380D01*
X12795Y-573228D01*
X13189D01*
X13192Y-573380D01*
D02*
G37*
G36*
X5319Y-573221D02*
X5351Y-573540D01*
X5379Y-573669D01*
X5415Y-573779D01*
X5459Y-573868D01*
X5511Y-573938D01*
X5571Y-573988D01*
X5640Y-574018D01*
X5716Y-574028D01*
X4520D01*
X4597Y-574018D01*
X4665Y-573988D01*
X4725Y-573938D01*
X4777Y-573868D01*
X4821Y-573779D01*
X4857Y-573669D01*
X4885Y-573540D01*
X4905Y-573390D01*
X4917Y-573221D01*
X4921Y-573032D01*
X5315D01*
X5319Y-573221D01*
D02*
G37*
G36*
X1383Y-573141D02*
X1419Y-573491D01*
X1452Y-573634D01*
X1493Y-573754D01*
X1543Y-573853D01*
X1603Y-573929D01*
X1672Y-573984D01*
X1750Y-574017D01*
X1838Y-574028D01*
X524D01*
X612Y-574017D01*
X690Y-573984D01*
X759Y-573929D01*
X819Y-573853D01*
X869Y-573754D01*
X911Y-573634D01*
X943Y-573491D01*
X966Y-573327D01*
X980Y-573141D01*
X984Y-572933D01*
X1378D01*
X1383Y-573141D01*
D02*
G37*
G36*
X35939Y-16543D02*
X35874Y-16602D01*
X35817Y-16701D01*
X35767Y-16838D01*
X35725Y-17016D01*
X35691Y-17232D01*
X35664Y-17488D01*
X35634Y-18118D01*
X35630Y-18492D01*
X35236D01*
X35232Y-18118D01*
X35175Y-17232D01*
X35141Y-17016D01*
X35099Y-16838D01*
X35049Y-16701D01*
X34992Y-16602D01*
X34927Y-16543D01*
X34855Y-16523D01*
X36012D01*
X35939Y-16543D01*
D02*
G37*
G36*
X33971D02*
X33906Y-16602D01*
X33849Y-16701D01*
X33799Y-16838D01*
X33757Y-17016D01*
X33722Y-17232D01*
X33696Y-17488D01*
X33665Y-18118D01*
X33661Y-18492D01*
X33268D01*
X33264Y-18118D01*
X33207Y-17232D01*
X33172Y-17016D01*
X33130Y-16838D01*
X33081Y-16701D01*
X33023Y-16602D01*
X32958Y-16543D01*
X32886Y-16523D01*
X34043D01*
X33971Y-16543D01*
D02*
G37*
G36*
X30034D02*
X29969Y-16602D01*
X29911Y-16701D01*
X29862Y-16838D01*
X29820Y-17016D01*
X29785Y-17232D01*
X29759Y-17488D01*
X29728Y-18118D01*
X29724Y-18492D01*
X29331D01*
X29327Y-18118D01*
X29270Y-17232D01*
X29235Y-17016D01*
X29193Y-16838D01*
X29144Y-16701D01*
X29086Y-16602D01*
X29021Y-16543D01*
X28949Y-16523D01*
X30106D01*
X30034Y-16543D01*
D02*
G37*
G36*
X28065D02*
X28000Y-16602D01*
X27943Y-16701D01*
X27893Y-16838D01*
X27851Y-17016D01*
X27817Y-17232D01*
X27790Y-17488D01*
X27760Y-18118D01*
X27756Y-18492D01*
X27362D01*
X27358Y-18118D01*
X27301Y-17232D01*
X27267Y-17016D01*
X27225Y-16838D01*
X27175Y-16701D01*
X27118Y-16602D01*
X27053Y-16543D01*
X26981Y-16523D01*
X28138D01*
X28065Y-16543D01*
D02*
G37*
G36*
X24128D02*
X24063Y-16602D01*
X24006Y-16701D01*
X23956Y-16838D01*
X23914Y-17016D01*
X23880Y-17232D01*
X23853Y-17488D01*
X23823Y-18118D01*
X23819Y-18492D01*
X23425D01*
X23421Y-18118D01*
X23364Y-17232D01*
X23330Y-17016D01*
X23288Y-16838D01*
X23238Y-16701D01*
X23181Y-16602D01*
X23116Y-16543D01*
X23043Y-16523D01*
X24201D01*
X24128Y-16543D01*
D02*
G37*
G36*
X22160D02*
X22095Y-16602D01*
X22037Y-16701D01*
X21988Y-16838D01*
X21946Y-17016D01*
X21912Y-17232D01*
X21885Y-17488D01*
X21854Y-18118D01*
X21850Y-18492D01*
X21457D01*
X21453Y-18118D01*
X21396Y-17232D01*
X21361Y-17016D01*
X21319Y-16838D01*
X21270Y-16701D01*
X21212Y-16602D01*
X21147Y-16543D01*
X21075Y-16523D01*
X22232D01*
X22160Y-16543D01*
D02*
G37*
G36*
X18223D02*
X18158Y-16602D01*
X18100Y-16701D01*
X18051Y-16838D01*
X18009Y-17016D01*
X17975Y-17232D01*
X17948Y-17488D01*
X17917Y-18118D01*
X17913Y-18492D01*
X17520D01*
X17516Y-18118D01*
X17459Y-17232D01*
X17424Y-17016D01*
X17382Y-16838D01*
X17333Y-16701D01*
X17275Y-16602D01*
X17210Y-16543D01*
X17138Y-16523D01*
X18295D01*
X18223Y-16543D01*
D02*
G37*
G36*
X14286D02*
X14221Y-16602D01*
X14163Y-16701D01*
X14114Y-16838D01*
X14072Y-17016D01*
X14038Y-17232D01*
X14011Y-17488D01*
X13980Y-18118D01*
X13976Y-18492D01*
X13583D01*
X13579Y-18118D01*
X13522Y-17232D01*
X13487Y-17016D01*
X13445Y-16838D01*
X13396Y-16701D01*
X13338Y-16602D01*
X13273Y-16543D01*
X13201Y-16523D01*
X14358D01*
X14286Y-16543D01*
D02*
G37*
G36*
X12317D02*
X12252Y-16602D01*
X12195Y-16701D01*
X12145Y-16838D01*
X12103Y-17016D01*
X12069Y-17232D01*
X12042Y-17488D01*
X12012Y-18118D01*
X12008Y-18492D01*
X11614D01*
X11610Y-18118D01*
X11553Y-17232D01*
X11519Y-17016D01*
X11477Y-16838D01*
X11427Y-16701D01*
X11370Y-16602D01*
X11305Y-16543D01*
X11232Y-16523D01*
X12390D01*
X12317Y-16543D01*
D02*
G37*
G36*
X10349D02*
X10284Y-16602D01*
X10226Y-16701D01*
X10177Y-16838D01*
X10135Y-17016D01*
X10100Y-17232D01*
X10074Y-17488D01*
X10043Y-18118D01*
X10039Y-18492D01*
X9646D01*
X9642Y-18118D01*
X9585Y-17232D01*
X9550Y-17016D01*
X9508Y-16838D01*
X9459Y-16701D01*
X9401Y-16602D01*
X9336Y-16543D01*
X9264Y-16523D01*
X10421D01*
X10349Y-16543D01*
D02*
G37*
G36*
X4531Y-15796D02*
X4666Y-17649D01*
X4716Y-17884D01*
X4774Y-18073D01*
X4839Y-18218D01*
X4912Y-18318D01*
X4589D01*
X4610Y-18379D01*
X4635Y-18434D01*
X4663Y-18481D01*
X4695Y-18518D01*
X3179D01*
X3211Y-18481D01*
X3239Y-18434D01*
X3264Y-18379D01*
X3285Y-18318D01*
X2962D01*
X3035Y-18218D01*
X3100Y-18073D01*
X3158Y-17884D01*
X3208Y-17649D01*
X3250Y-17368D01*
X3312Y-16673D01*
X3343Y-15796D01*
X3347Y-15290D01*
X4528D01*
X4531Y-15796D01*
D02*
G37*
G36*
X43899Y-19035D02*
X43924Y-19338D01*
X43940Y-19421D01*
X43958Y-19495D01*
X43980Y-19560D01*
X44005Y-19615D01*
X44033Y-19662D01*
X44065Y-19699D01*
X42549D01*
X42581Y-19662D01*
X42609Y-19615D01*
X42635Y-19560D01*
X42656Y-19495D01*
X42675Y-19421D01*
X42690Y-19338D01*
X42702Y-19246D01*
X42715Y-19035D01*
X42717Y-18915D01*
X43898D01*
X43899Y-19035D01*
D02*
G37*
G36*
X37992Y-18915D02*
X37994Y-19035D01*
X38019Y-19338D01*
X38034Y-19421D01*
X38052Y-19495D01*
X38074Y-19560D01*
X38099Y-19615D01*
X38128Y-19662D01*
X38159Y-19699D01*
X36644Y-19699D01*
X36676Y-19662D01*
X36704Y-19615D01*
X36729Y-19560D01*
X36751Y-19495D01*
X36769Y-19421D01*
X36784Y-19338D01*
X36796Y-19246D01*
X36809Y-19035D01*
X36811Y-18915D01*
X37992Y-18915D01*
D02*
G37*
G36*
X32087D02*
X32088Y-19035D01*
X32113Y-19338D01*
X32128Y-19421D01*
X32147Y-19495D01*
X32169Y-19560D01*
X32194Y-19615D01*
X32222Y-19662D01*
X32254Y-19699D01*
X30738Y-19699D01*
X30770Y-19662D01*
X30798Y-19615D01*
X30823Y-19560D01*
X30845Y-19495D01*
X30864Y-19421D01*
X30879Y-19338D01*
X30891Y-19246D01*
X30904Y-19035D01*
X30906Y-18915D01*
X32087Y-18915D01*
D02*
G37*
G36*
X26183Y-19035D02*
X26208Y-19338D01*
X26223Y-19421D01*
X26241Y-19495D01*
X26263Y-19560D01*
X26288Y-19615D01*
X26317Y-19662D01*
X26348Y-19699D01*
X24833D01*
X24864Y-19662D01*
X24893Y-19615D01*
X24918Y-19560D01*
X24940Y-19495D01*
X24958Y-19421D01*
X24973Y-19338D01*
X24985Y-19246D01*
X24998Y-19035D01*
X25000Y-18915D01*
X26181D01*
X26183Y-19035D01*
D02*
G37*
G36*
X20277D02*
X20302Y-19338D01*
X20317Y-19421D01*
X20336Y-19495D01*
X20358Y-19560D01*
X20383Y-19615D01*
X20411Y-19662D01*
X20443Y-19699D01*
X18927D01*
X18959Y-19662D01*
X18987Y-19615D01*
X19013Y-19560D01*
X19034Y-19495D01*
X19053Y-19421D01*
X19068Y-19338D01*
X19079Y-19246D01*
X19093Y-19035D01*
X19094Y-18915D01*
X20276D01*
X20277Y-19035D01*
D02*
G37*
G36*
X15557Y-463326D02*
X15574Y-463409D01*
X15602Y-463495D01*
X15641Y-463585D01*
X15691Y-463677D01*
X15753Y-463773D01*
X15826Y-463872D01*
X15910Y-463974D01*
X16112Y-464187D01*
X14596D01*
X14703Y-464079D01*
X14883Y-463872D01*
X14955Y-463773D01*
X15017Y-463677D01*
X15068Y-463585D01*
X15107Y-463495D01*
X15135Y-463409D01*
X15152Y-463326D01*
X15157Y-463246D01*
X15551D01*
X15557Y-463326D01*
D02*
G37*
G36*
X13520Y-467171D02*
X13590Y-467218D01*
X13670Y-467259D01*
X13761Y-467297D01*
X13862Y-467329D01*
X13975Y-467357D01*
X14098Y-467380D01*
X14377Y-467413D01*
X14532Y-467422D01*
X13404Y-468435D01*
X13410Y-468286D01*
X13403Y-468018D01*
X13390Y-467899D01*
X13369Y-467789D01*
X13342Y-467688D01*
X13309Y-467598D01*
X13269Y-467517D01*
X13221Y-467445D01*
X13168Y-467383D01*
X13462Y-467120D01*
X13520Y-467171D01*
D02*
G37*
D10*
X45587Y-20472D02*
G03*
X44685Y-18656I-2279J0D01*
G01*
X41929D02*
G03*
X45587Y-20472I1378J-1816D01*
G01*
X39681D02*
G03*
X38780Y-18656I-2279J0D01*
G01*
X35925Y-22209D02*
G03*
X39681Y-20472I1476J1737D01*
G01*
X41748Y-69095D02*
G03*
X41748Y-69095I-2279J0D01*
G01*
X30020Y-22209D02*
G03*
X32972Y-22209I1476J1737D01*
G01*
X44602Y-188976D02*
G03*
X44602Y-188976I-2279J0D01*
G01*
X32972Y-137751D02*
G03*
X30020Y-137919I-1378J-1816D01*
G01*
Y-141215D02*
G03*
X32972Y-141383I1575J1648D01*
G01*
X24016Y-22121D02*
G03*
X27067Y-22209I1575J1648D01*
G01*
Y-61255D02*
G03*
X24016Y-61344I-1476J-1737D01*
G01*
Y-64640D02*
G03*
X27067Y-64729I1575J1648D01*
G01*
Y-204956D02*
G03*
X24016Y-205045I-1476J-1737D01*
G01*
Y-208341D02*
G03*
X27067Y-208430I1575J1648D01*
G01*
X41650Y-425197D02*
G03*
X41650Y-425197I-2279J0D01*
G01*
X43893Y-497743D02*
G03*
X44405Y-496457I-1358J1286D01*
G01*
X43216Y-499515D02*
G03*
X43504Y-498819I-696J696D01*
G01*
X43216Y-499515D02*
G03*
X43504Y-498819I-696J696D01*
G01*
X54527Y-550000D02*
G03*
X50197Y-550000I-2165J0D01*
G01*
X47555Y-547244D02*
G03*
X47555Y-547244I-2279J0D01*
G01*
X49352Y-572505D02*
G03*
X49121Y-572139I-927J-330D01*
G01*
X49352Y-572505D02*
G03*
X49121Y-572139I-927J-330D01*
G01*
X41140Y-491818D02*
G03*
X41634Y-490551I-1376J1266D01*
G01*
D02*
G03*
X38382Y-491811I-1870J0D01*
G01*
X38174Y-494483D02*
G03*
X36612Y-496749I-1823J-415D01*
G01*
X44405Y-496457D02*
G03*
X40748Y-495907I-1870J0D01*
G01*
X32972Y-302397D02*
G03*
X30020Y-302397I-1476J-1737D01*
G01*
Y-305871D02*
G03*
X32972Y-305871I1476J1737D01*
G01*
Y-429365D02*
G03*
X30020Y-429365I-1476J-1737D01*
G01*
Y-432839D02*
G03*
X32972Y-432839I1476J1737D01*
G01*
X35637Y-483668D02*
G03*
X35925Y-482972I-696J696D01*
G01*
X35637Y-483668D02*
G03*
X35925Y-482972I-696J696D01*
G01*
X34939Y-497167D02*
G03*
X32985Y-499112I-1869J-78D01*
G01*
X35918Y-571942D02*
G03*
X35687Y-572307I696J-696D01*
G01*
X34843Y-571972D02*
G03*
X34957Y-571260I-2165J712D01*
G01*
X35918Y-571942D02*
G03*
X35687Y-572307I696J-696D01*
G01*
X35744Y-541339D02*
G03*
X35744Y-541339I-2279J0D01*
G01*
X34957Y-571260D02*
G03*
X30512Y-571972I-2279J0D01*
G01*
X29731Y-479942D02*
G03*
X30020Y-479246I-696J696D01*
G01*
X29731Y-479942D02*
G03*
X30020Y-479246I-696J696D01*
G01*
X29649Y-572752D02*
G03*
X29436Y-572434I-909J-378D01*
G01*
X29649Y-572752D02*
G03*
X29436Y-572434I-909J-378D01*
G01*
X27067Y-434287D02*
G03*
X24016Y-434375I-1476J-1737D01*
G01*
Y-437672D02*
G03*
X27067Y-437760I1575J1648D01*
G01*
X25584Y-489546D02*
G03*
X25295Y-490242I696J-696D01*
G01*
X25584Y-489546D02*
G03*
X25295Y-490242I696J-696D01*
G01*
X23728Y-476990D02*
G03*
X24016Y-476294I-696J696D01*
G01*
X24107Y-572434D02*
G03*
X23902Y-572734I696J-696D01*
G01*
X24107Y-572434D02*
G03*
X23902Y-572734I696J-696D01*
G01*
X17423Y-20189D02*
G03*
X21063Y-22288I2262J-283D01*
G01*
Y-132410D02*
G03*
X21063Y-132945I-2264J-267D01*
G01*
X20980Y-287402D02*
G03*
X20980Y-287402I-2279J0D01*
G01*
X10744Y-56004D02*
G03*
X10744Y-56004I-2279J0D01*
G01*
X8858Y-19291D02*
G03*
X9147Y-19987I984J0D01*
G01*
X8858Y-19291D02*
G03*
X9147Y-19987I984J0D01*
G01*
X6102Y-19291D02*
G03*
X5752Y-18110I-2165J0D01*
G01*
X311Y-121653D02*
G03*
X311Y-121653I-2279J0D01*
G01*
X10153Y-222441D02*
G03*
X6102Y-221007I-2279J0D01*
G01*
Y-223875D02*
G03*
X10153Y-222441I1772J1434D01*
G01*
X311Y-265748D02*
G03*
X311Y-265748I-2279J0D01*
G01*
X23728Y-476990D02*
G03*
X24016Y-476294I-696J696D01*
G01*
X20980Y-441929D02*
G03*
X20980Y-441929I-2279J0D01*
G01*
X18717Y-463008D02*
G03*
X18428Y-462312I-984J0D01*
G01*
X18717Y-463008D02*
G03*
X18428Y-462312I-984J0D01*
G01*
Y-470365D02*
G03*
X18717Y-469669I-696J696D01*
G01*
X18428Y-470365D02*
G03*
X18717Y-469669I-696J696D01*
G01*
X17618Y-474016D02*
G03*
X17130Y-472756I-1870J0D01*
G01*
X10827Y-469291D02*
G03*
X11115Y-469987I984J0D01*
G01*
X10827Y-469291D02*
G03*
X11115Y-469987I984J0D01*
G01*
X14057Y-473218D02*
G03*
X17618Y-474016I1691J-798D01*
G01*
X11222Y-470781D02*
G03*
X14057Y-473218I1376J-1266D01*
G01*
X23933Y-533465D02*
G03*
X23933Y-533465I-2279J0D01*
G01*
X23031Y-571972D02*
G03*
X23146Y-571260I-2165J712D01*
G01*
D02*
G03*
X18701Y-571972I-2279J0D01*
G01*
X13772Y-491725D02*
G03*
X13484Y-492421I696J-696D01*
G01*
X13772Y-491725D02*
G03*
X13484Y-492421I696J-696D01*
G01*
X12122Y-525591D02*
G03*
X12122Y-525591I-2279J0D01*
G01*
X11220Y-571972D02*
G03*
X11335Y-571260I-2165J712D01*
G01*
D02*
G03*
X6890Y-571972I-2279J0D01*
G01*
X10827Y-447669D02*
G03*
X10827Y-449968I-1969J-1149D01*
G01*
X311Y-456693D02*
G03*
X311Y-456693I-2279J0D01*
G01*
X1772Y-481496D02*
G03*
X6102Y-481496I2165J0D01*
G01*
X1863Y-494678D02*
G03*
X1575Y-495374I696J-696D01*
G01*
X1863Y-494678D02*
G03*
X1575Y-495374I696J-696D01*
G01*
X6036Y-572676D02*
G03*
X5814Y-572335I-918J-356D01*
G01*
X6036Y-572676D02*
G03*
X5814Y-572335I-918J-356D01*
G01*
X311Y-517717D02*
G03*
X311Y-517717I-2279J0D01*
G01*
X-591Y-571972D02*
G03*
X-476Y-571260I-2165J712D01*
G01*
X485Y-572237D02*
G03*
X254Y-572604I696J-696D01*
G01*
X485Y-572237D02*
G03*
X254Y-572604I696J-696D01*
G01*
X-476Y-571260D02*
G03*
X-4921Y-571972I-2279J0D01*
G01*
X45655Y-18110D02*
X48425Y-20880D01*
X45363Y-19489D02*
X48425Y-22550D01*
X45451Y-21247D02*
X48425Y-24221D01*
X44685Y-18110D02*
X48425D01*
X47326D02*
X48425Y-19210D01*
X39681Y-20488D02*
X48425Y-29232D01*
X39283Y-21760D02*
X48425Y-30902D01*
X44762Y-22228D02*
X48425Y-25891D01*
X43597Y-22733D02*
X48425Y-27561D01*
X35925Y-32824D02*
X48425Y-20324D01*
X36872Y-22690D02*
X48425Y-34243D01*
X35925Y-31154D02*
X48425Y-18654D01*
X38383Y-22530D02*
X48425Y-32572D01*
X35925Y-36165D02*
X48425Y-23665D01*
X35925Y-25083D02*
X48425Y-37583D01*
X35925Y-34495D02*
X48425Y-21995D01*
X35925Y-23413D02*
X48425Y-35913D01*
X35925Y-41787D02*
X48425Y-54287D01*
X35925Y-54539D02*
X48425Y-42039D01*
X35925Y-40116D02*
X48425Y-52616D01*
X35925Y-52868D02*
X48425Y-40368D01*
X35925Y-45127D02*
X48425Y-57627D01*
X35925Y-57879D02*
X48425Y-45379D01*
X35925Y-43457D02*
X48425Y-55957D01*
X35925Y-56209D02*
X48425Y-43709D01*
X35925Y-39506D02*
X48425Y-27006D01*
X35925Y-28424D02*
X48425Y-40924D01*
X35925Y-37835D02*
X48425Y-25335D01*
X35925Y-26754D02*
X48425Y-39254D01*
X35925Y-38446D02*
X48425Y-50946D01*
X35925Y-51198D02*
X48425Y-38698D01*
X35925Y-31765D02*
X48425Y-44265D01*
X35925Y-49528D02*
X48425Y-37028D01*
X45513Y-19896D02*
X47299Y-18110D01*
X44898Y-18840D02*
X45628Y-18110D01*
X41929Y-18656D02*
Y-18110D01*
X44685Y-18656D02*
Y-18110D01*
X40644D02*
X41552Y-19018D01*
X38780Y-18110D02*
X41929D01*
X38780Y-18656D02*
Y-18110D01*
X39383Y-19345D02*
X40617Y-18110D01*
X38974D02*
X41046Y-20182D01*
X39666Y-20731D02*
X41929Y-18469D01*
X35925Y-22802D02*
X36274Y-22454D01*
X35925Y-24473D02*
X37661Y-22737D01*
X35925Y-29484D02*
X42731Y-22678D01*
X35925Y-41176D02*
X48425Y-28676D01*
X35925Y-26143D02*
X41085Y-20983D01*
X35925Y-27813D02*
X41675Y-22064D01*
X35925Y-44517D02*
X48425Y-32017D01*
X35925Y-33435D02*
X48425Y-45935D01*
X35925Y-30094D02*
X48425Y-42594D01*
X35925Y-42846D02*
X48425Y-30346D01*
X35925Y-47857D02*
X48425Y-35357D01*
X35925Y-36776D02*
X48425Y-49276D01*
X35925Y-46187D02*
X48425Y-33687D01*
X35925Y-35105D02*
X48425Y-47605D01*
X35925Y-61220D02*
X48425Y-48720D01*
X35925Y-48468D02*
X48425Y-60968D01*
X35925Y-50138D02*
X48425Y-62638D01*
X35925Y-46798D02*
X48425Y-59298D01*
X35925Y-59550D02*
X48425Y-47050D01*
X48425Y-112992D02*
X48425Y-18110D01*
X38433Y-67064D02*
X48425Y-57072D01*
X35925Y-62890D02*
X48425Y-50390D01*
X40224Y-66944D02*
X48425Y-58742D01*
X35925Y-51809D02*
X48425Y-64309D01*
X35925Y-64561D02*
X48425Y-52061D01*
X35925Y-53479D02*
X48425Y-65979D01*
X35925Y-66231D02*
X48425Y-53731D01*
X35925Y-55149D02*
X48425Y-67649D01*
X35925Y-67901D02*
X48425Y-55401D01*
X35925Y-56820D02*
X48425Y-69320D01*
X35925Y-58490D02*
X48425Y-70990D01*
X35925Y-76253D02*
X48425Y-63753D01*
X35925Y-77923D02*
X48425Y-65423D01*
X41212Y-67626D02*
X48425Y-60412D01*
X41726Y-68781D02*
X48425Y-62083D01*
X35925Y-91896D02*
X48425Y-104396D01*
Y-112992D02*
X55118Y-119685D01*
X35925Y-101308D02*
X48425Y-88808D01*
X35925Y-90226D02*
X48425Y-102726D01*
X35925Y-107989D02*
X48425Y-95489D01*
X35925Y-96908D02*
X48425Y-109407D01*
X35925Y-106319D02*
X48425Y-93819D01*
X35925Y-95237D02*
X48425Y-107737D01*
X35925Y-111330D02*
X48425Y-98830D01*
X35925Y-111941D02*
X55118Y-131133D01*
X35925Y-109660D02*
X48425Y-97159D01*
X35925Y-98578D02*
X48425Y-111078D01*
X35925Y-63501D02*
X39250Y-66825D01*
X35925Y-61831D02*
X48425Y-74331D01*
X41737Y-69313D02*
X48425Y-76001D01*
X35925Y-60160D02*
X48425Y-72660D01*
X35925Y-65171D02*
X38058Y-67304D01*
X35925Y-69572D02*
X37438Y-68059D01*
X35925Y-66842D02*
X37346Y-68263D01*
X35925Y-68512D02*
X37350Y-69937D01*
X35925Y-81264D02*
X48425Y-68764D01*
X35925Y-70182D02*
X48425Y-82682D01*
X35925Y-79594D02*
X48425Y-67094D01*
X35925Y-71242D02*
X37318Y-69849D01*
X35925Y-82934D02*
X48425Y-70434D01*
X38626Y-71213D02*
X48425Y-81012D01*
X41259Y-70505D02*
X48425Y-77671D01*
X40300Y-71217D02*
X48425Y-79342D01*
X35925Y-83545D02*
X48425Y-96045D01*
X35925Y-96297D02*
X48425Y-83797D01*
X35925Y-81875D02*
X48425Y-94375D01*
X35925Y-94626D02*
X48425Y-82126D01*
X35925Y-86886D02*
X48425Y-99386D01*
X35925Y-99638D02*
X48425Y-87138D01*
X35925Y-85215D02*
X48425Y-97715D01*
X35925Y-97967D02*
X48425Y-85467D01*
X35925Y-104648D02*
X48425Y-92149D01*
X35925Y-93567D02*
X48425Y-106067D01*
X35925Y-88556D02*
X48425Y-101056D01*
X35925Y-102978D02*
X48425Y-90478D01*
X30020Y-22519D02*
X32972Y-25471D01*
X30020Y-25367D02*
X32972Y-22414D01*
X30020Y-27038D02*
X32972Y-24085D01*
X31889Y-22718D02*
X32972Y-23801D01*
X30020Y-25859D02*
X32972Y-28812D01*
X30020Y-30378D02*
X32972Y-27425D01*
X30020Y-24189D02*
X32972Y-27142D01*
X30020Y-28708D02*
X32972Y-25755D01*
X30020Y-33719D02*
X32972Y-30766D01*
X30020Y-30870D02*
X32972Y-33823D01*
X30020Y-27529D02*
X32972Y-30482D01*
X30020Y-29200D02*
X32972Y-32153D01*
X30020Y-37060D02*
X32972Y-34107D01*
X30020Y-34211D02*
X32972Y-37164D01*
X30020Y-35389D02*
X32972Y-32436D01*
X30020Y-32541D02*
X32972Y-35493D01*
X30020Y-55433D02*
X32972Y-52480D01*
X30020Y-52584D02*
X32972Y-55537D01*
X30020Y-53763D02*
X32972Y-50810D01*
X30020Y-50914D02*
X32972Y-53867D01*
X35925Y-72912D02*
X38000Y-70838D01*
X35925Y-74583D02*
X39155Y-71352D01*
X30020Y-57104D02*
X32972Y-54151D01*
X30020Y-54255D02*
X32972Y-57208D01*
X30020Y-40400D02*
X32972Y-37447D01*
X30020Y-37552D02*
X32972Y-40504D01*
X30020Y-38730D02*
X32972Y-35777D01*
X30020Y-35881D02*
X32972Y-38834D01*
X30020Y-43741D02*
X32972Y-40788D01*
X30020Y-50422D02*
X32972Y-47469D01*
X30020Y-42070D02*
X32972Y-39118D01*
X30020Y-39222D02*
X32972Y-42175D01*
X30020Y-67125D02*
X32972Y-64173D01*
X30020Y-62606D02*
X32972Y-65559D01*
X30020Y-64277D02*
X32972Y-67229D01*
X30020Y-60936D02*
X32972Y-63889D01*
X30020Y-65455D02*
X32972Y-62502D01*
X30020Y-70466D02*
X32972Y-67513D01*
X30020Y-67617D02*
X32972Y-70570D01*
X30020Y-68796D02*
X32972Y-65843D01*
X30020Y-65947D02*
X32972Y-68900D01*
X30020Y-55925D02*
X32972Y-58878D01*
X30020Y-60444D02*
X32972Y-57491D01*
X30020Y-32048D02*
X32972Y-29096D01*
X30020Y-58774D02*
X32972Y-55821D01*
X30020Y-59266D02*
X32972Y-62218D01*
X30020Y-63785D02*
X32972Y-60832D01*
X30020Y-57595D02*
X32972Y-60548D01*
X30020Y-62115D02*
X32972Y-59162D01*
X30020Y-80488D02*
X32972Y-77535D01*
X30020Y-77639D02*
X32972Y-80592D01*
X30020Y-78818D02*
X32972Y-75865D01*
X30020Y-75969D02*
X32972Y-78922D01*
X30020Y-83829D02*
X32972Y-80876D01*
X30020Y-80980D02*
X32972Y-83933D01*
X30020Y-82158D02*
X32972Y-79206D01*
X30020Y-79310D02*
X32972Y-82262D01*
X30020Y-73807D02*
X32972Y-70854D01*
X30020Y-70958D02*
X32972Y-73911D01*
X30020Y-72136D02*
X32972Y-69184D01*
X30020Y-69288D02*
X32972Y-72241D01*
X30020Y-77147D02*
X32972Y-74195D01*
X30020Y-74299D02*
X32972Y-77251D01*
X30020Y-75477D02*
X32972Y-72524D01*
X30020Y-72628D02*
X32972Y-75581D01*
X35925Y-92956D02*
X48425Y-80456D01*
X35925Y-80204D02*
X48425Y-92704D01*
X35925Y-100248D02*
X48425Y-112748D01*
X35925Y-78534D02*
X48425Y-91034D01*
X35925Y-91286D02*
X48425Y-78786D01*
X35925Y-101918D02*
X55118Y-121111D01*
X35925Y-103589D02*
X55118Y-122782D01*
X35925Y-113000D02*
X48425Y-100500D01*
X35925Y-114671D02*
X48425Y-102171D01*
X35925Y-73523D02*
X48425Y-86023D01*
X35925Y-86275D02*
X48425Y-73775D01*
X35925Y-71853D02*
X48425Y-84353D01*
X35925Y-84605D02*
X48425Y-72105D01*
X35925Y-76864D02*
X48425Y-89364D01*
X35925Y-89616D02*
X48425Y-77116D01*
X35925Y-75193D02*
X48425Y-87693D01*
X35925Y-87945D02*
X48425Y-75445D01*
X35925Y-126363D02*
X48860Y-113427D01*
X35925Y-128033D02*
X49696Y-114263D01*
X35925Y-123022D02*
X48425Y-110522D01*
X35925Y-124692D02*
X48425Y-112192D01*
X35925Y-113611D02*
X55118Y-132804D01*
X35925Y-115281D02*
X55118Y-134474D01*
X35925Y-129703D02*
X50531Y-115098D01*
X35925Y-131374D02*
X51366Y-115933D01*
X35925Y-119682D02*
X48425Y-107182D01*
X35925Y-121352D02*
X48425Y-108852D01*
X35925Y-116341D02*
X48425Y-103841D01*
X35925Y-118011D02*
X48425Y-105511D01*
X35925Y-108600D02*
X55118Y-127793D01*
X35925Y-110270D02*
X55118Y-129463D01*
X35925Y-105259D02*
X55118Y-124452D01*
X35925Y-106930D02*
X55118Y-126122D01*
X30020Y-84321D02*
X32972Y-87274D01*
X30020Y-87169D02*
X32972Y-84217D01*
X30020Y-88840D02*
X32972Y-85887D01*
X30020Y-85499D02*
X32972Y-82546D01*
X30020Y-82650D02*
X32972Y-85603D01*
Y-137751D02*
Y-22209D01*
X30020Y-89332D02*
X32972Y-92285D01*
X30020Y-85991D02*
X32972Y-88944D01*
X30020Y-92180D02*
X32972Y-89228D01*
X30020Y-100532D02*
X32972Y-97579D01*
X30020Y-97683D02*
X32972Y-100636D01*
X30020Y-98862D02*
X32972Y-95909D01*
X30020Y-96013D02*
X32972Y-98966D01*
X30020Y-103873D02*
X32972Y-100920D01*
X30020Y-101024D02*
X32972Y-103977D01*
X30020Y-102202D02*
X32972Y-99250D01*
X30020Y-99354D02*
X32972Y-102306D01*
X30020Y-113895D02*
X32972Y-110942D01*
X30020Y-111046D02*
X32972Y-113999D01*
X30020Y-112224D02*
X32972Y-109272D01*
X30020Y-109376D02*
X32972Y-112328D01*
X30020Y-117235D02*
X32972Y-114283D01*
X30020Y-114387D02*
X32972Y-117339D01*
X30020Y-115565D02*
X32972Y-112612D01*
X30020Y-112716D02*
X32972Y-115669D01*
X30020Y-107213D02*
X32972Y-104261D01*
X30020Y-104365D02*
X32972Y-107317D01*
X30020Y-105543D02*
X32972Y-102590D01*
X30020Y-102694D02*
X32972Y-105647D01*
X30020Y-110554D02*
X32972Y-107601D01*
X30020Y-107705D02*
X32972Y-110658D01*
X30020Y-108884D02*
X32972Y-105931D01*
X30020Y-106035D02*
X32972Y-108988D01*
X35925Y-146407D02*
X55118Y-127214D01*
X35925Y-126973D02*
X55118Y-146166D01*
X35925Y-128644D02*
X55118Y-147837D01*
X35925Y-125303D02*
X55118Y-144496D01*
X35925Y-144736D02*
X55118Y-125543D01*
X35925Y-149747D02*
X55118Y-130554D01*
X35925Y-131984D02*
X55118Y-151177D01*
X35925Y-148077D02*
X55118Y-128884D01*
X35925Y-130314D02*
X55118Y-149507D01*
X35925Y-120292D02*
X55118Y-139485D01*
X35925Y-139725D02*
X55118Y-120533D01*
X35925Y-116952D02*
X55118Y-136144D01*
X35925Y-118622D02*
X55118Y-137815D01*
X35925Y-123633D02*
X55118Y-142826D01*
X35925Y-143066D02*
X55118Y-123873D01*
X35925Y-121962D02*
X55118Y-141155D01*
X35925Y-141396D02*
X55118Y-122203D01*
X35925Y-159769D02*
X55118Y-140577D01*
X35925Y-142006D02*
X55118Y-161199D01*
X35925Y-158099D02*
X55118Y-138906D01*
X35925Y-140336D02*
X55118Y-159529D01*
X35925Y-160380D02*
X55118Y-179573D01*
X35925Y-179813D02*
X55118Y-160620D01*
X35925Y-161440D02*
X55118Y-142247D01*
X35925Y-143677D02*
X55118Y-162870D01*
X35925Y-153088D02*
X55118Y-133895D01*
X35925Y-135325D02*
X55118Y-154518D01*
X35925Y-151418D02*
X55118Y-132225D01*
X35925Y-133655D02*
X55118Y-152848D01*
X35925Y-156429D02*
X55118Y-137236D01*
X35925Y-138666D02*
X55118Y-157859D01*
X35925Y-154758D02*
X55118Y-135565D01*
X35925Y-136995D02*
X55118Y-156188D01*
X35925Y-150358D02*
X55118Y-169551D01*
X35925Y-168121D02*
X55118Y-148928D01*
X35925Y-169791D02*
X55118Y-150599D01*
X35925Y-166451D02*
X55118Y-147258D01*
X35925Y-148688D02*
X55118Y-167881D01*
X35925Y-153699D02*
X55118Y-172892D01*
X35925Y-173132D02*
X55118Y-153939D01*
X35925Y-152028D02*
X55118Y-171221D01*
X35925Y-171462D02*
X55118Y-152269D01*
X35925Y-136385D02*
X53872Y-118438D01*
X35925Y-138055D02*
X54707Y-119274D01*
X35925Y-133044D02*
X52201Y-116768D01*
X35925Y-134714D02*
X53036Y-117603D01*
X35925Y-164780D02*
X55118Y-145588D01*
X35925Y-147017D02*
X55118Y-166210D01*
X35925Y-163110D02*
X55118Y-143917D01*
X35925Y-145347D02*
X55118Y-164540D01*
X35925Y-157039D02*
X55118Y-176232D01*
X35925Y-176473D02*
X55118Y-157280D01*
X35925Y-155369D02*
X55118Y-174562D01*
X35925Y-174802D02*
X55118Y-155610D01*
X35925Y-162050D02*
X55118Y-181243D01*
X42403Y-186698D02*
X55118Y-173983D01*
X35925Y-158710D02*
X55118Y-177903D01*
X35925Y-178143D02*
X55118Y-158950D01*
X35925Y-183154D02*
X55118Y-163961D01*
X35925Y-165391D02*
X55118Y-184584D01*
X35925Y-181484D02*
X55118Y-162291D01*
X35925Y-163721D02*
X55118Y-182914D01*
X35925Y-184824D02*
X55118Y-165631D01*
X35925Y-167061D02*
X55118Y-186254D01*
X35925Y-186495D02*
X55118Y-167302D01*
X35925Y-180424D02*
X42201Y-186700D01*
X44401Y-188040D02*
X55118Y-177324D01*
X35925Y-188165D02*
X55118Y-168972D01*
X44517Y-189595D02*
X55118Y-178994D01*
X35925Y-168732D02*
X55118Y-187925D01*
X43649Y-187122D02*
X55118Y-175653D01*
X35925Y-191506D02*
X55118Y-172313D01*
X35925Y-173743D02*
X55118Y-192936D01*
X35925Y-189835D02*
X55118Y-170642D01*
X35925Y-172072D02*
X55118Y-191265D01*
X35925Y-177083D02*
X55118Y-196276D01*
X35925Y-178754D02*
X55118Y-197947D01*
X35925Y-170402D02*
X55118Y-189595D01*
X35925Y-175413D02*
X55118Y-194606D01*
X35925Y-203198D02*
X55118Y-184005D01*
X35925Y-204868D02*
X55118Y-185675D01*
X35925Y-199857D02*
X55118Y-180664D01*
X35925Y-201528D02*
X55118Y-182335D01*
X43229Y-191068D02*
X55118Y-202958D01*
X41642Y-191152D02*
X55118Y-204628D01*
X44599Y-189098D02*
X55118Y-199617D01*
X44159Y-190328D02*
X55118Y-201287D01*
X35925Y-208209D02*
X55118Y-189016D01*
X35925Y-190446D02*
X55118Y-209639D01*
X35925Y-206539D02*
X55118Y-187346D01*
X35925Y-188776D02*
X55118Y-207969D01*
X35925Y-247237D02*
X55118Y-266430D01*
X35925Y-268341D02*
X55118Y-249148D01*
X35925Y-187105D02*
X55118Y-206298D01*
X35925Y-209879D02*
X55118Y-190686D01*
X35925Y-252248D02*
X55118Y-271441D01*
X35925Y-271681D02*
X55118Y-252489D01*
X35925Y-250578D02*
X55118Y-269771D01*
X35925Y-270011D02*
X55118Y-250818D01*
X35925Y-182094D02*
X40971Y-187141D01*
X35925Y-183765D02*
X40231Y-188070D01*
X35925Y-185435D02*
X40147Y-189657D01*
X35925Y-193176D02*
X40045Y-189057D01*
X35925Y-198187D02*
X42942Y-191170D01*
X35925Y-192116D02*
X55118Y-211309D01*
X35925Y-194846D02*
X40469Y-190303D01*
X35925Y-196517D02*
X41387Y-191055D01*
X35925Y-213220D02*
X55118Y-194027D01*
X35925Y-195457D02*
X55118Y-214650D01*
X35925Y-211550D02*
X55118Y-192357D01*
X35925Y-193787D02*
X55118Y-212980D01*
X35925Y-273352D02*
X55118Y-254159D01*
X35925Y-255589D02*
X55118Y-274782D01*
X35925Y-243897D02*
X55118Y-263089D01*
X35925Y-253919D02*
X55118Y-273112D01*
X35925Y-276693D02*
X55118Y-257500D01*
X35925Y-258929D02*
X55118Y-278122D01*
X35925Y-275022D02*
X55118Y-255829D01*
X35925Y-257259D02*
X55118Y-276452D01*
X35925Y-216561D02*
X55118Y-197368D01*
X35925Y-258319D02*
X55118Y-239126D01*
X35925Y-214890D02*
X55118Y-195697D01*
X35925Y-197127D02*
X55118Y-216320D01*
X35925Y-242226D02*
X55118Y-261419D01*
X35925Y-261660D02*
X55118Y-242467D01*
X35925Y-240556D02*
X55118Y-259749D01*
X35925Y-259989D02*
X55118Y-240796D01*
X35925Y-223242D02*
X55118Y-204049D01*
X35925Y-203809D02*
X55118Y-223002D01*
X35925Y-205479D02*
X55118Y-224672D01*
X35925Y-202138D02*
X55118Y-221331D01*
X35925Y-221572D02*
X55118Y-202379D01*
X35925Y-226583D02*
X55118Y-207390D01*
X35925Y-208820D02*
X55118Y-228013D01*
X35925Y-224912D02*
X55118Y-205719D01*
X35925Y-207149D02*
X55118Y-226342D01*
X30020Y-150642D02*
X32972Y-147689D01*
X30020Y-147793D02*
X32972Y-150746D01*
X30020Y-148972D02*
X32972Y-146019D01*
X30020Y-146123D02*
X32972Y-149076D01*
X35925Y-200468D02*
X55118Y-219661D01*
X35925Y-219901D02*
X55118Y-200708D01*
X35925Y-198798D02*
X55118Y-217991D01*
X35925Y-218231D02*
X55118Y-199038D01*
X35925Y-236605D02*
X55118Y-217412D01*
X35925Y-218842D02*
X55118Y-238035D01*
X35925Y-234934D02*
X55118Y-215741D01*
X35925Y-217171D02*
X55118Y-236364D01*
X35925Y-239945D02*
X55118Y-220752D01*
X35925Y-222182D02*
X55118Y-241375D01*
X35925Y-238275D02*
X55118Y-219082D01*
X35925Y-220512D02*
X55118Y-239705D01*
X35925Y-229923D02*
X55118Y-210730D01*
X35925Y-212160D02*
X55118Y-231353D01*
X35925Y-228253D02*
X55118Y-209060D01*
X35925Y-210490D02*
X55118Y-229683D01*
X35925Y-233264D02*
X55118Y-214071D01*
X35925Y-215501D02*
X55118Y-234694D01*
X35925Y-231594D02*
X55118Y-212401D01*
X35925Y-213831D02*
X55118Y-233024D01*
X30020Y-124409D02*
X32972Y-127361D01*
X30020Y-127257D02*
X32972Y-124305D01*
X30020Y-128928D02*
X32972Y-125975D01*
X30020Y-125587D02*
X32972Y-122634D01*
X30020Y-122738D02*
X32972Y-125691D01*
X30020Y-127749D02*
X32972Y-130702D01*
X30020Y-132268D02*
X32972Y-129316D01*
X30020Y-126079D02*
X32972Y-129032D01*
X30020Y-130598D02*
X32972Y-127645D01*
X30020Y-120576D02*
X32972Y-117623D01*
X30020Y-117727D02*
X32972Y-120680D01*
X30020Y-118906D02*
X32972Y-115953D01*
X30020Y-116057D02*
X32972Y-119010D01*
X30020Y-123917D02*
X32972Y-120964D01*
X30020Y-121068D02*
X32972Y-124021D01*
X30020Y-122246D02*
X32972Y-119294D01*
X30020Y-119398D02*
X32972Y-122350D01*
X30020Y-135609D02*
X32972Y-132656D01*
X30020Y-132760D02*
X32972Y-135713D01*
X30020Y-133939D02*
X32972Y-130986D01*
X30020Y-131090D02*
X32972Y-134043D01*
X30441Y-141533D02*
X32972Y-144065D01*
X32309Y-141731D02*
X32972Y-142394D01*
X30020Y-137279D02*
X32972Y-134327D01*
X31680Y-137289D02*
X32972Y-135997D01*
X30020Y-129420D02*
X32972Y-132372D01*
X30020Y-134431D02*
X32972Y-137383D01*
X30020Y-147301D02*
X32972Y-144349D01*
X30020Y-144453D02*
X32972Y-147405D01*
X30020Y-145631D02*
X32972Y-142678D01*
X30020Y-142782D02*
X32972Y-145735D01*
X35925Y-232204D02*
X55118Y-251397D01*
X35925Y-249967D02*
X55118Y-230774D01*
X35925Y-251638D02*
X55118Y-232445D01*
X35925Y-248297D02*
X55118Y-229104D01*
X35925Y-230534D02*
X55118Y-249727D01*
X35925Y-235545D02*
X55118Y-254738D01*
X35925Y-254978D02*
X55118Y-235785D01*
X35925Y-233875D02*
X55118Y-253067D01*
X35925Y-253308D02*
X55118Y-234115D01*
X35925Y-243286D02*
X55118Y-224093D01*
X35925Y-225523D02*
X55118Y-244716D01*
X35925Y-241616D02*
X55118Y-222423D01*
X35925Y-223853D02*
X55118Y-243045D01*
X35925Y-246627D02*
X55118Y-227434D01*
X35925Y-228864D02*
X55118Y-248057D01*
X35925Y-244956D02*
X55118Y-225763D01*
X35925Y-227193D02*
X55118Y-246386D01*
X35925Y-280033D02*
X55118Y-260840D01*
X35925Y-262270D02*
X55118Y-281463D01*
X35925Y-278363D02*
X55118Y-259170D01*
X35925Y-260600D02*
X55118Y-279793D01*
X35925Y-296737D02*
X55118Y-277544D01*
X35925Y-278974D02*
X55118Y-298166D01*
X35925Y-281703D02*
X55118Y-262511D01*
X35925Y-273962D02*
X55118Y-293155D01*
X35925Y-238886D02*
X55118Y-258079D01*
X35925Y-263330D02*
X55118Y-244137D01*
X35925Y-237215D02*
X55118Y-256408D01*
X35925Y-256649D02*
X55118Y-237456D01*
X35925Y-266670D02*
X55118Y-247478D01*
X35925Y-248908D02*
X55118Y-268101D01*
X35925Y-245567D02*
X55118Y-264760D01*
X35925Y-265000D02*
X55118Y-245807D01*
X35925Y-267281D02*
X55118Y-286474D01*
X35925Y-286715D02*
X55118Y-267522D01*
X35925Y-265611D02*
X55118Y-284804D01*
X35925Y-285044D02*
X55118Y-265851D01*
X35925Y-270622D02*
X55118Y-289815D01*
X35925Y-290055D02*
X55118Y-270862D01*
X35925Y-268952D02*
X55118Y-288144D01*
X35925Y-288385D02*
X55118Y-269192D01*
X30020Y-254202D02*
X32972Y-251250D01*
X30020Y-251354D02*
X32972Y-254307D01*
X30020Y-252532D02*
X32972Y-249579D01*
X30020Y-249683D02*
X32972Y-252636D01*
X35925Y-263941D02*
X55118Y-283133D01*
X35925Y-283374D02*
X55118Y-264181D01*
X30020Y-255873D02*
X32972Y-252920D01*
X30020Y-253024D02*
X32972Y-255977D01*
X35925Y-272292D02*
X55118Y-291485D01*
X35925Y-291725D02*
X55118Y-272533D01*
X30020Y-290950D02*
X32972Y-287997D01*
X30020Y-288101D02*
X32972Y-291054D01*
X35925Y-295066D02*
X55118Y-275873D01*
X35925Y-277303D02*
X55118Y-296496D01*
X35925Y-293396D02*
X55118Y-274203D01*
X35925Y-275633D02*
X55118Y-294826D01*
X30020Y-294290D02*
X32972Y-291338D01*
X30020Y-291442D02*
X32972Y-294394D01*
X30020Y-292620D02*
X32972Y-289667D01*
X30020Y-289771D02*
X32972Y-292724D01*
X30020Y-297631D02*
X32972Y-294678D01*
X30020Y-294782D02*
X32972Y-297735D01*
X30020Y-295961D02*
X32972Y-293008D01*
X30020Y-293112D02*
X32972Y-296065D01*
X30020Y-23697D02*
X31016Y-22701D01*
X26651Y-22490D02*
X27067Y-22906D01*
X25210Y-22720D02*
X27067Y-24577D01*
X24016Y-28030D02*
X27067Y-24979D01*
X24016Y-31371D02*
X27067Y-28320D01*
X24016Y-26360D02*
X27067Y-23309D01*
X24016Y-24866D02*
X27067Y-27917D01*
X24016Y-34712D02*
X27067Y-31661D01*
X24016Y-33218D02*
X27067Y-36269D01*
X24016Y-29877D02*
X27067Y-32928D01*
X24016Y-31547D02*
X27067Y-34599D01*
X24016Y-38052D02*
X27067Y-35001D01*
X24016Y-36558D02*
X27067Y-39610D01*
X24016Y-36382D02*
X27067Y-33331D01*
X24016Y-34888D02*
X27067Y-37939D01*
X30020Y-42562D02*
X32972Y-45515D01*
X30020Y-47082D02*
X32972Y-44129D01*
X30020Y-40892D02*
X32972Y-43845D01*
X30020Y-45411D02*
X32972Y-42458D01*
X30020Y-52092D02*
X32972Y-49140D01*
X30020Y-49244D02*
X32972Y-52197D01*
X30020Y-44233D02*
X32972Y-47186D01*
X30020Y-48752D02*
X32972Y-45799D01*
X24016Y-41393D02*
X27067Y-38342D01*
X24016Y-39899D02*
X27067Y-42950D01*
X24016Y-39723D02*
X27067Y-36672D01*
X24016Y-38229D02*
X27067Y-41280D01*
X30020Y-45903D02*
X32972Y-48856D01*
X30020Y-47573D02*
X32972Y-50526D01*
X24016Y-43063D02*
X27067Y-40012D01*
X24016Y-78317D02*
X27067Y-81368D01*
X24412Y-61041D02*
X27067Y-58386D01*
X24016Y-28207D02*
X27067Y-31258D01*
X26298Y-60825D02*
X27067Y-60056D01*
X24016Y-29701D02*
X27067Y-26650D01*
Y-61255D02*
Y-22209D01*
X24016Y-61344D02*
Y-22121D01*
Y-41570D02*
X27067Y-44621D01*
X24016Y-44734D02*
X27067Y-41683D01*
X24016Y-26537D02*
X27067Y-29588D01*
X24016Y-33042D02*
X27067Y-29990D01*
X24016Y-64954D02*
X27067Y-68005D01*
X24016Y-68118D02*
X27067Y-65067D01*
X25972Y-65240D02*
X27067Y-66335D01*
X24016Y-66624D02*
X27067Y-69676D01*
X24016Y-66448D02*
X25222Y-65242D01*
X24016Y-69789D02*
X27067Y-66738D01*
X24016Y-69965D02*
X27067Y-73016D01*
X24016Y-73129D02*
X27067Y-70078D01*
X24016Y-68295D02*
X27067Y-71346D01*
X24016Y-71459D02*
X27067Y-68408D01*
X24016Y-73306D02*
X27067Y-76357D01*
X24016Y-76470D02*
X27067Y-73419D01*
X24016Y-71636D02*
X27067Y-74687D01*
X24016Y-74800D02*
X27067Y-71749D01*
X24016Y-76647D02*
X27067Y-79698D01*
X24016Y-79811D02*
X27067Y-76759D01*
X24016Y-74976D02*
X27067Y-78027D01*
X24016Y-78140D02*
X27067Y-75089D01*
X30020Y-151134D02*
X32972Y-154087D01*
X30020Y-153983D02*
X32972Y-151030D01*
X30020Y-155653D02*
X32972Y-152700D01*
X30020Y-152312D02*
X32972Y-149360D01*
X30020Y-149464D02*
X32972Y-152416D01*
X30020Y-154475D02*
X32972Y-157427D01*
X30020Y-158994D02*
X32972Y-156041D01*
X30020Y-152804D02*
X32972Y-155757D01*
X30020Y-157323D02*
X32972Y-154370D01*
X30020Y-93851D02*
X32972Y-90898D01*
X30020Y-91002D02*
X32972Y-93955D01*
X30020Y-90510D02*
X32972Y-87557D01*
X30020Y-87661D02*
X32972Y-90614D01*
X30020Y-97191D02*
X32972Y-94239D01*
X30020Y-94343D02*
X32972Y-97295D01*
X30020Y-95521D02*
X32972Y-92568D01*
X30020Y-92672D02*
X32972Y-95625D01*
X30020Y-177367D02*
X32972Y-174415D01*
X30020Y-174519D02*
X32972Y-177471D01*
X30020Y-175697D02*
X32972Y-172744D01*
X30020Y-172848D02*
X32972Y-175801D01*
X30020Y-177859D02*
X32972Y-180812D01*
X30020Y-182378D02*
X32972Y-179426D01*
X30020Y-179038D02*
X32972Y-176085D01*
X30020Y-180708D02*
X32972Y-177755D01*
X30020Y-157815D02*
X32972Y-160768D01*
X30020Y-162334D02*
X32972Y-159381D01*
X30020Y-156145D02*
X32972Y-159098D01*
X30020Y-160664D02*
X32972Y-157711D01*
X30020Y-161156D02*
X32972Y-164109D01*
X30020Y-171178D02*
X32972Y-174131D01*
X30020Y-159485D02*
X32972Y-162438D01*
X30020Y-164005D02*
X32972Y-161052D01*
X24016Y-81657D02*
X27067Y-84709D01*
X24016Y-83151D02*
X27067Y-80100D01*
X24016Y-84822D02*
X27067Y-81770D01*
X24016Y-81481D02*
X27067Y-78430D01*
X24016Y-79987D02*
X27067Y-83038D01*
X30020Y-137919D02*
Y-22209D01*
Y-136101D02*
X31235Y-137316D01*
X24016Y-205045D02*
Y-64640D01*
X27067Y-204956D02*
Y-64729D01*
X24016Y-84998D02*
X27067Y-88049D01*
X24016Y-88162D02*
X27067Y-85111D01*
X24016Y-83328D02*
X27067Y-86379D01*
X24016Y-86492D02*
X27067Y-83441D01*
X24016Y-88339D02*
X27067Y-91390D01*
X24016Y-91503D02*
X27067Y-88452D01*
X24016Y-86668D02*
X27067Y-89720D01*
X24016Y-89833D02*
X27067Y-86782D01*
X30020Y-143961D02*
X32222Y-141758D01*
X30020Y-142290D02*
X30663Y-141647D01*
X30020Y-167345D02*
X32972Y-164392D01*
X30020Y-164497D02*
X32972Y-167449D01*
X30020Y-165675D02*
X32972Y-162722D01*
X30020Y-162826D02*
X32972Y-165779D01*
X30020Y-170686D02*
X32972Y-167733D01*
X30020Y-167837D02*
X32972Y-170790D01*
X30020Y-169016D02*
X32972Y-166063D01*
X30020Y-166167D02*
X32972Y-169120D01*
X30020Y-174027D02*
X32972Y-171074D01*
X30020Y-176189D02*
X32972Y-179142D01*
X30020Y-172356D02*
X32972Y-169404D01*
X30020Y-169508D02*
X32972Y-172460D01*
X24016Y-51591D02*
X27067Y-54643D01*
X24016Y-53085D02*
X27067Y-50034D01*
X24016Y-54756D02*
X27067Y-51705D01*
X24016Y-51415D02*
X27067Y-48364D01*
X24016Y-49921D02*
X27067Y-52972D01*
X24016Y-54932D02*
X27067Y-57983D01*
X24016Y-58096D02*
X27067Y-55045D01*
X24016Y-53262D02*
X27067Y-56313D01*
X24016Y-56426D02*
X27067Y-53375D01*
X24016Y-46404D02*
X27067Y-43353D01*
X24016Y-44910D02*
X27067Y-47961D01*
X24016Y-23196D02*
X27067Y-26247D01*
X24016Y-43240D02*
X27067Y-46291D01*
X24016Y-49745D02*
X27067Y-46694D01*
X24016Y-48251D02*
X27067Y-51302D01*
X24016Y-48074D02*
X27067Y-45023D01*
X24016Y-46580D02*
X27067Y-49632D01*
X24016Y-96690D02*
X27067Y-99742D01*
X24016Y-99855D02*
X27067Y-96803D01*
X24016Y-95020D02*
X27067Y-98071D01*
X24016Y-98184D02*
X27067Y-95133D01*
X24016Y-118228D02*
X27067Y-115177D01*
X24016Y-116734D02*
X27067Y-119785D01*
X24016Y-98361D02*
X27067Y-101412D01*
X24016Y-101525D02*
X27067Y-98474D01*
X24016Y-90009D02*
X27067Y-93060D01*
X24016Y-93173D02*
X27067Y-90122D01*
X24016Y-56603D02*
X27067Y-59654D01*
X24016Y-59767D02*
X27067Y-56716D01*
X24016Y-93350D02*
X27067Y-96401D01*
X24016Y-96514D02*
X27067Y-93463D01*
X24016Y-91679D02*
X27067Y-94731D01*
X24016Y-94844D02*
X27067Y-91793D01*
X24016Y-108206D02*
X27067Y-105155D01*
X24016Y-105042D02*
X27067Y-108093D01*
X24016Y-106712D02*
X27067Y-109764D01*
X24016Y-103372D02*
X27067Y-106423D01*
X24016Y-106536D02*
X27067Y-103485D01*
X24016Y-111547D02*
X27067Y-108496D01*
X24016Y-110053D02*
X27067Y-113104D01*
X24016Y-109877D02*
X27067Y-106825D01*
X24016Y-108383D02*
X27067Y-111434D01*
X24016Y-24690D02*
X25989Y-22717D01*
X24016Y-58273D02*
X26808Y-61065D01*
X24016Y-23020D02*
X24540Y-22495D01*
X24016Y-59943D02*
X24894Y-60822D01*
X24016Y-101701D02*
X27067Y-104753D01*
X24016Y-104866D02*
X27067Y-101814D01*
X24016Y-100031D02*
X27067Y-103082D01*
X24016Y-103195D02*
X27067Y-100144D01*
X24016Y-123239D02*
X27067Y-120188D01*
X24016Y-121745D02*
X27067Y-124796D01*
X24016Y-121569D02*
X27067Y-118518D01*
X24016Y-120075D02*
X27067Y-123126D01*
X24016Y-126580D02*
X27067Y-123529D01*
X24016Y-125086D02*
X27067Y-128137D01*
X24016Y-124910D02*
X27067Y-121858D01*
X24016Y-123416D02*
X27067Y-126467D01*
X24016Y-114888D02*
X27067Y-111837D01*
X24016Y-113394D02*
X27067Y-116445D01*
X24016Y-113217D02*
X27067Y-110166D01*
X24016Y-111723D02*
X27067Y-114775D01*
X24016Y-119899D02*
X27067Y-116848D01*
X24016Y-118405D02*
X27067Y-121456D01*
X24016Y-116558D02*
X27067Y-113507D01*
X24016Y-115064D02*
X27067Y-118115D01*
X24016Y-161833D02*
X27067Y-164884D01*
X24016Y-163327D02*
X27067Y-160276D01*
X24016Y-164997D02*
X27067Y-161946D01*
X24016Y-161657D02*
X27067Y-158606D01*
X24016Y-160163D02*
X27067Y-163214D01*
X24016Y-165174D02*
X27067Y-168225D01*
X24016Y-168338D02*
X27067Y-165287D01*
X24016Y-163504D02*
X27067Y-166555D01*
X24016Y-166668D02*
X27067Y-163617D01*
X24016Y-156646D02*
X27067Y-153595D01*
X24016Y-155152D02*
X27067Y-158203D01*
X24016Y-154975D02*
X27067Y-151924D01*
X24016Y-153482D02*
X27067Y-156533D01*
X24016Y-159986D02*
X27067Y-156935D01*
X24016Y-158493D02*
X27067Y-161544D01*
X24016Y-158316D02*
X27067Y-155265D01*
X24016Y-156822D02*
X27067Y-159873D01*
X24016Y-175196D02*
X27067Y-178247D01*
X24016Y-178360D02*
X27067Y-175309D01*
X24016Y-173526D02*
X27067Y-176577D01*
X24016Y-176690D02*
X27067Y-173639D01*
X24016Y-178537D02*
X27067Y-181588D01*
X24016Y-181701D02*
X27067Y-178650D01*
X24016Y-176866D02*
X27067Y-179917D01*
X24016Y-180031D02*
X27067Y-176979D01*
X24016Y-168515D02*
X27067Y-171566D01*
X24016Y-171679D02*
X27067Y-168628D01*
X24016Y-166844D02*
X27067Y-169895D01*
X24016Y-170009D02*
X27067Y-166957D01*
X24016Y-171855D02*
X27067Y-174906D01*
X24016Y-175020D02*
X27067Y-171968D01*
X24016Y-170185D02*
X27067Y-173236D01*
X24016Y-173349D02*
X27067Y-170298D01*
X24016Y-136602D02*
X27067Y-133551D01*
X24016Y-135108D02*
X27067Y-138159D01*
X24016Y-134932D02*
X27067Y-131880D01*
X24016Y-133438D02*
X27067Y-136489D01*
X24016Y-139943D02*
X27067Y-136891D01*
X24016Y-138449D02*
X27067Y-141500D01*
X24016Y-138272D02*
X27067Y-135221D01*
X24016Y-136778D02*
X27067Y-139830D01*
X24016Y-129921D02*
X27067Y-126869D01*
X24016Y-128427D02*
X27067Y-131478D01*
X24016Y-128250D02*
X27067Y-125199D01*
X24016Y-126756D02*
X27067Y-129807D01*
X24016Y-133261D02*
X27067Y-130210D01*
X24016Y-131767D02*
X27067Y-134818D01*
X24016Y-131591D02*
X27067Y-128540D01*
X24016Y-130097D02*
X27067Y-133148D01*
X24016Y-149965D02*
X27067Y-146913D01*
X24016Y-148471D02*
X27067Y-151522D01*
X24016Y-148294D02*
X27067Y-145243D01*
X24016Y-146800D02*
X27067Y-149852D01*
X24016Y-153305D02*
X27067Y-150254D01*
X24016Y-151811D02*
X27067Y-154862D01*
X24016Y-151635D02*
X27067Y-148584D01*
X24016Y-150141D02*
X27067Y-153192D01*
X24016Y-143283D02*
X27067Y-140232D01*
X24016Y-141789D02*
X27067Y-144841D01*
X24016Y-141613D02*
X27067Y-138562D01*
X24016Y-140119D02*
X27067Y-143170D01*
X24016Y-146624D02*
X27067Y-143573D01*
X24016Y-145130D02*
X27067Y-148181D01*
X24016Y-144954D02*
X27067Y-141902D01*
X24016Y-143460D02*
X27067Y-146511D01*
X30020Y-192400D02*
X32972Y-189447D01*
X30020Y-187881D02*
X32972Y-190834D01*
X30020Y-189551D02*
X32972Y-192504D01*
X30020Y-186211D02*
X32972Y-189164D01*
X30020Y-190730D02*
X32972Y-187777D01*
X30020Y-195741D02*
X32972Y-192788D01*
X30020Y-192892D02*
X32972Y-195845D01*
X30020Y-194070D02*
X32972Y-191118D01*
X30020Y-191222D02*
X32972Y-194175D01*
X30020Y-181200D02*
X32972Y-184153D01*
X30020Y-185719D02*
X32972Y-182766D01*
X30020Y-179530D02*
X32972Y-182482D01*
X30020Y-184049D02*
X32972Y-181096D01*
X30020Y-184540D02*
X32972Y-187493D01*
X30020Y-189059D02*
X32972Y-186107D01*
X30020Y-182870D02*
X32972Y-185823D01*
X30020Y-187389D02*
X32972Y-184437D01*
X30020Y-205763D02*
X32972Y-202810D01*
X30020Y-202914D02*
X32972Y-205867D01*
X30020Y-204093D02*
X32972Y-201140D01*
X30020Y-201244D02*
X32972Y-204197D01*
X30020Y-217947D02*
X32972Y-220900D01*
X30020Y-219617D02*
X32972Y-222570D01*
X30020Y-207433D02*
X32972Y-204480D01*
X30020Y-220796D02*
X32972Y-217843D01*
X30020Y-199082D02*
X32972Y-196129D01*
X30020Y-196233D02*
X32972Y-199186D01*
X30020Y-197411D02*
X32972Y-194458D01*
X30020Y-194562D02*
X32972Y-197515D01*
X30020Y-202422D02*
X32972Y-199469D01*
X30020Y-199574D02*
X32972Y-202526D01*
X30020Y-200752D02*
X32972Y-197799D01*
X30020Y-197903D02*
X32972Y-200856D01*
X30020Y-210774D02*
X32972Y-207821D01*
X30020Y-206255D02*
X32972Y-209208D01*
X30020Y-207925D02*
X32972Y-210878D01*
X30020Y-204585D02*
X32972Y-207537D01*
X30020Y-209103D02*
X32972Y-206151D01*
X30020Y-214114D02*
X32972Y-211162D01*
X30020Y-211266D02*
X32972Y-214218D01*
X30020Y-212444D02*
X32972Y-209491D01*
X30020Y-209595D02*
X32972Y-212548D01*
X24016Y-198581D02*
X27067Y-201632D01*
X26258Y-204513D02*
X27067Y-203705D01*
X24016Y-186712D02*
X27067Y-183661D01*
X24016Y-185218D02*
X27067Y-188269D01*
X24257Y-204844D02*
X27067Y-202034D01*
X26016Y-208932D02*
X27067Y-209983D01*
X30020Y-217455D02*
X32972Y-214502D01*
X30020Y-214606D02*
X32972Y-217559D01*
X30020Y-215785D02*
X32972Y-212832D01*
X30020Y-212936D02*
X32972Y-215889D01*
X30020Y-222466D02*
X32972Y-219513D01*
X30020Y-224136D02*
X32972Y-221184D01*
X30020Y-219126D02*
X32972Y-216173D01*
X30020Y-216277D02*
X32972Y-219230D01*
X30020Y-225807D02*
X32972Y-222854D01*
X30020Y-222958D02*
X32972Y-225911D01*
X24016Y-213614D02*
X27067Y-216665D01*
X30020Y-221288D02*
X32972Y-224240D01*
X30020Y-229148D02*
X32972Y-226195D01*
X30020Y-226299D02*
X32972Y-229252D01*
X30020Y-227477D02*
X32972Y-224524D01*
X30020Y-224628D02*
X32972Y-227581D01*
X30020Y-272576D02*
X32972Y-269623D01*
X30020Y-268057D02*
X32972Y-271010D01*
X30020Y-269727D02*
X32972Y-272680D01*
X30020Y-266387D02*
X32972Y-269339D01*
X30020Y-270906D02*
X32972Y-267953D01*
X30020Y-275917D02*
X32972Y-272964D01*
X30020Y-273068D02*
X32972Y-276021D01*
X30020Y-274246D02*
X32972Y-271294D01*
X30020Y-271398D02*
X32972Y-274350D01*
X30020Y-261376D02*
X32972Y-264328D01*
X30020Y-265895D02*
X32972Y-262942D01*
X30020Y-259705D02*
X32972Y-262658D01*
X30020Y-264224D02*
X32972Y-261272D01*
X30020Y-264716D02*
X32972Y-267669D01*
X30020Y-269235D02*
X32972Y-266283D01*
X30020Y-263046D02*
X32972Y-265999D01*
X30020Y-267565D02*
X32972Y-264612D01*
X30020Y-285939D02*
X32972Y-282986D01*
X30020Y-283090D02*
X32972Y-286043D01*
X30020Y-284268D02*
X32972Y-281316D01*
X30020Y-281420D02*
X32972Y-284372D01*
X30020Y-289279D02*
X32972Y-286327D01*
X30020Y-286431D02*
X32972Y-289383D01*
X30020Y-287609D02*
X32972Y-284656D01*
X30020Y-284760D02*
X32972Y-287713D01*
X30020Y-279257D02*
X32972Y-276305D01*
X30020Y-276409D02*
X32972Y-279361D01*
X30020Y-277587D02*
X32972Y-274634D01*
X30020Y-274738D02*
X32972Y-277691D01*
X30020Y-282598D02*
X32972Y-279645D01*
X30020Y-279749D02*
X32972Y-282702D01*
X30020Y-280928D02*
X32972Y-277975D01*
X30020Y-278079D02*
X32972Y-281032D01*
X30020Y-236321D02*
X32972Y-239274D01*
X30020Y-239170D02*
X32972Y-236217D01*
X30020Y-240840D02*
X32972Y-237887D01*
X30020Y-237499D02*
X32972Y-234546D01*
X30020Y-234650D02*
X32972Y-237603D01*
X30020Y-239661D02*
X32972Y-242614D01*
X30020Y-244180D02*
X32972Y-241228D01*
X30020Y-237991D02*
X32972Y-240944D01*
X30020Y-242510D02*
X32972Y-239557D01*
X30020Y-232488D02*
X32972Y-229535D01*
X30020Y-229639D02*
X32972Y-232592D01*
X30020Y-230818D02*
X32972Y-227865D01*
X30020Y-227969D02*
X32972Y-230922D01*
X30020Y-235829D02*
X32972Y-232876D01*
X30020Y-232980D02*
X32972Y-235933D01*
X30020Y-234158D02*
X32972Y-231206D01*
X30020Y-231310D02*
X32972Y-234262D01*
X30020Y-254694D02*
X32972Y-257647D01*
X30020Y-259213D02*
X32972Y-256261D01*
X30020Y-248013D02*
X32972Y-250966D01*
X30020Y-257543D02*
X32972Y-254590D01*
X30020Y-258035D02*
X32972Y-260988D01*
X30020Y-262554D02*
X32972Y-259601D01*
X30020Y-256365D02*
X32972Y-259317D01*
X30020Y-260884D02*
X32972Y-257931D01*
X30020Y-243002D02*
X32972Y-245955D01*
X30020Y-247521D02*
X32972Y-244568D01*
X30020Y-241332D02*
X32972Y-244285D01*
X30020Y-245851D02*
X32972Y-242898D01*
X30020Y-246343D02*
X32972Y-249295D01*
X30020Y-250862D02*
X32972Y-247909D01*
X30020Y-244672D02*
X32972Y-247625D01*
X30020Y-249191D02*
X32972Y-246239D01*
X24016Y-193393D02*
X27067Y-190342D01*
X24016Y-190229D02*
X27067Y-193280D01*
X24016Y-191899D02*
X27067Y-194950D01*
X24016Y-188559D02*
X27067Y-191610D01*
X24016Y-191723D02*
X27067Y-188672D01*
X24016Y-196734D02*
X27067Y-193683D01*
X24016Y-195240D02*
X27067Y-198291D01*
X24016Y-195063D02*
X27067Y-192012D01*
X24016Y-193570D02*
X27067Y-196621D01*
X24016Y-181877D02*
X27067Y-184928D01*
X24016Y-185041D02*
X27067Y-181990D01*
X24016Y-180207D02*
X27067Y-183258D01*
X24016Y-183371D02*
X27067Y-180320D01*
X24016Y-186888D02*
X27067Y-189939D01*
X24016Y-190052D02*
X27067Y-187001D01*
X24016Y-183548D02*
X27067Y-186599D01*
X24016Y-188382D02*
X27067Y-185331D01*
X24016Y-210273D02*
X27067Y-213324D01*
X24016Y-213437D02*
X27067Y-210386D01*
X24016Y-208602D02*
X27067Y-211654D01*
X24016Y-211767D02*
X27067Y-208716D01*
X24016Y-216778D02*
X27067Y-213727D01*
X24016Y-233481D02*
X27067Y-230430D01*
X24016Y-211943D02*
X27067Y-214994D01*
X24016Y-215107D02*
X27067Y-212056D01*
X24016Y-200075D02*
X27067Y-197023D01*
X24016Y-201745D02*
X27067Y-198694D01*
X24016Y-198404D02*
X27067Y-195353D01*
X24016Y-196910D02*
X27067Y-199961D01*
X24016Y-200251D02*
X27067Y-203302D01*
X24016Y-203415D02*
X27067Y-200364D01*
X24016Y-221965D02*
X27067Y-225016D01*
X24016Y-223459D02*
X27067Y-220408D01*
X24016Y-225129D02*
X27067Y-222078D01*
X24016Y-221789D02*
X27067Y-218738D01*
X24016Y-220295D02*
X27067Y-223346D01*
X24016Y-225306D02*
X27067Y-228357D01*
X24016Y-228470D02*
X27067Y-225419D01*
X24016Y-223636D02*
X27067Y-226687D01*
X24016Y-226800D02*
X27067Y-223749D01*
X24016Y-201921D02*
X26981Y-204887D01*
X24016Y-215284D02*
X27067Y-218335D01*
X24016Y-203591D02*
X24934Y-204510D01*
X24016Y-210096D02*
X25177Y-208935D01*
X24016Y-220118D02*
X27067Y-217067D01*
X24016Y-218624D02*
X27067Y-221676D01*
X24016Y-218448D02*
X27067Y-215397D01*
X24016Y-216954D02*
X27067Y-220005D01*
X24016Y-238492D02*
X27067Y-235441D01*
X24016Y-236998D02*
X27067Y-240049D01*
X24016Y-236822D02*
X27067Y-233771D01*
X24016Y-235328D02*
X27067Y-238379D01*
X24016Y-241833D02*
X27067Y-238781D01*
X24016Y-240339D02*
X27067Y-243390D01*
X24016Y-240162D02*
X27067Y-237111D01*
X24016Y-238668D02*
X27067Y-241720D01*
X24016Y-228646D02*
X27067Y-231698D01*
X24016Y-231811D02*
X27067Y-228760D01*
X24016Y-226976D02*
X27067Y-230027D01*
X24016Y-230140D02*
X27067Y-227089D01*
X24016Y-235151D02*
X27067Y-232100D01*
X24016Y-233658D02*
X27067Y-236709D01*
X24016Y-230317D02*
X27067Y-233368D01*
X24016Y-231987D02*
X27067Y-235038D01*
X24016Y-277086D02*
X27067Y-280137D01*
X24016Y-278580D02*
X27067Y-275529D01*
X24016Y-280250D02*
X27067Y-277199D01*
X24016Y-276910D02*
X27067Y-273858D01*
X24016Y-275416D02*
X27067Y-278467D01*
X24016Y-280427D02*
X27067Y-283478D01*
X24016Y-283591D02*
X27067Y-280540D01*
X24016Y-278756D02*
X27067Y-281807D01*
X24016Y-281921D02*
X27067Y-278870D01*
X24016Y-271899D02*
X27067Y-268847D01*
X24016Y-270405D02*
X27067Y-273456D01*
X24016Y-270228D02*
X27067Y-267177D01*
X24016Y-268734D02*
X27067Y-271786D01*
X24016Y-275239D02*
X27067Y-272188D01*
X24016Y-273745D02*
X27067Y-276797D01*
X24016Y-273569D02*
X27067Y-270518D01*
X24016Y-272075D02*
X27067Y-275126D01*
X24016Y-290449D02*
X27067Y-293500D01*
X24016Y-293613D02*
X27067Y-290562D01*
X24016Y-288778D02*
X27067Y-291829D01*
X24016Y-291943D02*
X27067Y-288891D01*
X24016Y-293789D02*
X27067Y-296841D01*
X24016Y-296954D02*
X27067Y-293902D01*
X24016Y-292119D02*
X27067Y-295170D01*
X24016Y-295283D02*
X27067Y-292232D01*
X24016Y-283767D02*
X27067Y-286819D01*
X24016Y-286932D02*
X27067Y-283880D01*
X24016Y-282097D02*
X27067Y-285148D01*
X24016Y-285261D02*
X27067Y-282210D01*
X24016Y-287108D02*
X27067Y-290159D01*
X24016Y-290272D02*
X27067Y-287221D01*
X24016Y-285438D02*
X27067Y-288489D01*
X24016Y-288602D02*
X27067Y-285551D01*
X24016Y-251855D02*
X27067Y-248803D01*
X24016Y-250361D02*
X27067Y-253412D01*
X24016Y-250184D02*
X27067Y-247133D01*
X24016Y-248690D02*
X27067Y-251742D01*
X24016Y-255195D02*
X27067Y-252144D01*
X24016Y-253701D02*
X27067Y-256753D01*
X24016Y-253525D02*
X27067Y-250474D01*
X24016Y-252031D02*
X27067Y-255082D01*
X24016Y-245173D02*
X27067Y-242122D01*
X24016Y-243679D02*
X27067Y-246731D01*
X24016Y-243503D02*
X27067Y-240452D01*
X24016Y-242009D02*
X27067Y-245060D01*
X24016Y-248514D02*
X27067Y-245463D01*
X24016Y-247020D02*
X27067Y-250071D01*
X24016Y-246844D02*
X27067Y-243793D01*
X24016Y-245350D02*
X27067Y-248401D01*
X24016Y-265217D02*
X27067Y-262166D01*
X24016Y-263723D02*
X27067Y-266775D01*
X24016Y-263547D02*
X27067Y-260496D01*
X24016Y-262053D02*
X27067Y-265104D01*
X24016Y-268558D02*
X27067Y-265507D01*
X24016Y-267064D02*
X27067Y-270115D01*
X24016Y-266888D02*
X27067Y-263837D01*
X24016Y-265394D02*
X27067Y-268445D01*
X24016Y-258536D02*
X27067Y-255485D01*
X24016Y-257042D02*
X27067Y-260093D01*
X24016Y-256866D02*
X27067Y-253815D01*
X24016Y-255372D02*
X27067Y-258423D01*
X24016Y-261877D02*
X27067Y-258825D01*
X24016Y-260383D02*
X27067Y-263434D01*
X24016Y-260206D02*
X27067Y-257155D01*
X24016Y-258712D02*
X27067Y-261764D01*
X35925Y-343506D02*
X55118Y-324313D01*
X35925Y-324072D02*
X55118Y-343265D01*
X35925Y-325743D02*
X55118Y-344936D01*
X35925Y-322402D02*
X55118Y-341595D01*
X35925Y-341835D02*
X55118Y-322642D01*
X35925Y-346846D02*
X55118Y-327654D01*
X35925Y-329083D02*
X55118Y-348276D01*
X35925Y-345176D02*
X55118Y-325983D01*
X35925Y-327413D02*
X55118Y-346606D01*
X35925Y-310710D02*
X55118Y-329903D01*
X35925Y-330143D02*
X55118Y-310950D01*
X35925Y-307369D02*
X55118Y-326562D01*
X35925Y-326802D02*
X55118Y-307610D01*
X35925Y-320732D02*
X55118Y-339925D01*
X35925Y-340165D02*
X55118Y-320972D01*
X35925Y-312380D02*
X55118Y-331573D01*
X35925Y-331813D02*
X55118Y-312620D01*
X35925Y-356868D02*
X55118Y-337675D01*
X35925Y-339105D02*
X55118Y-358298D01*
X35925Y-355198D02*
X55118Y-336005D01*
X35925Y-337435D02*
X55118Y-356628D01*
X35925Y-360209D02*
X55118Y-341016D01*
X35925Y-342446D02*
X55118Y-361639D01*
X35925Y-358539D02*
X55118Y-339346D01*
X35925Y-340776D02*
X55118Y-359969D01*
X35925Y-350187D02*
X55118Y-330994D01*
X35925Y-332424D02*
X55118Y-351617D01*
X35925Y-348517D02*
X55118Y-329324D01*
X35925Y-330754D02*
X55118Y-349947D01*
X35925Y-353528D02*
X55118Y-334335D01*
X35925Y-335765D02*
X55118Y-354958D01*
X35925Y-351857D02*
X55118Y-332664D01*
X35925Y-334094D02*
X55118Y-353287D01*
X35925Y-288996D02*
X55118Y-308188D01*
X35925Y-306758D02*
X55118Y-287565D01*
X35925Y-308429D02*
X55118Y-289236D01*
X35925Y-305088D02*
X55118Y-285895D01*
X35925Y-287325D02*
X55118Y-306518D01*
X35925Y-292336D02*
X55118Y-311529D01*
X35925Y-311770D02*
X55118Y-292577D01*
X35925Y-290666D02*
X55118Y-309859D01*
X35925Y-310099D02*
X55118Y-290906D01*
X35925Y-300077D02*
X55118Y-280884D01*
X35925Y-282314D02*
X55118Y-301507D01*
X35925Y-298407D02*
X55118Y-279214D01*
X35925Y-280644D02*
X55118Y-299837D01*
X35925Y-303418D02*
X55118Y-284225D01*
X35925Y-285655D02*
X55118Y-304848D01*
X35925Y-301747D02*
X55118Y-282555D01*
X35925Y-283984D02*
X55118Y-303177D01*
X35925Y-302358D02*
X55118Y-321551D01*
X35925Y-321791D02*
X55118Y-302599D01*
X35925Y-300688D02*
X55118Y-319881D01*
X35925Y-320121D02*
X55118Y-300928D01*
X35925Y-305699D02*
X55118Y-324892D01*
X35925Y-325132D02*
X55118Y-305939D01*
X35925Y-304029D02*
X55118Y-323221D01*
X35925Y-323462D02*
X55118Y-304269D01*
X35925Y-295677D02*
X55118Y-314870D01*
X35925Y-315110D02*
X55118Y-295917D01*
X35925Y-294006D02*
X55118Y-313199D01*
X35925Y-313440D02*
X55118Y-294247D01*
X35925Y-299018D02*
X55118Y-318210D01*
X35925Y-318451D02*
X55118Y-299258D01*
X35925Y-297347D02*
X55118Y-316540D01*
X35925Y-316780D02*
X55118Y-297587D01*
X35925Y-352468D02*
X55118Y-371661D01*
X35925Y-370231D02*
X55118Y-351038D01*
X35925Y-371901D02*
X55118Y-352708D01*
X35925Y-368561D02*
X55118Y-349368D01*
X35925Y-350798D02*
X55118Y-369991D01*
X35925Y-355809D02*
X55118Y-375002D01*
X35925Y-375242D02*
X55118Y-356049D01*
X35925Y-354138D02*
X55118Y-373331D01*
X35925Y-373572D02*
X55118Y-354379D01*
X35925Y-363550D02*
X55118Y-344357D01*
X35925Y-345787D02*
X55118Y-364980D01*
X35925Y-361879D02*
X55118Y-342686D01*
X35925Y-344116D02*
X55118Y-363309D01*
X35925Y-366890D02*
X55118Y-347697D01*
X35925Y-349127D02*
X55118Y-368320D01*
X35925Y-365220D02*
X55118Y-346027D01*
X35925Y-347457D02*
X55118Y-366650D01*
X35925Y-365831D02*
X55118Y-385024D01*
X35925Y-385264D02*
X55118Y-366071D01*
X35925Y-364160D02*
X55118Y-383353D01*
X35925Y-383594D02*
X55118Y-364401D01*
X35925Y-369171D02*
X55118Y-388364D01*
X35925Y-388605D02*
X55118Y-369412D01*
X35925Y-367501D02*
X55118Y-386694D01*
X35925Y-386934D02*
X55118Y-367741D01*
X35925Y-359149D02*
X55118Y-378342D01*
X35925Y-378583D02*
X55118Y-359390D01*
X35925Y-357479D02*
X55118Y-376672D01*
X35925Y-376912D02*
X55118Y-357719D01*
X35925Y-362490D02*
X55118Y-381683D01*
X35925Y-381923D02*
X55118Y-362730D01*
X35925Y-360820D02*
X55118Y-380013D01*
X35925Y-380253D02*
X55118Y-361060D01*
X39954Y-422993D02*
X55118Y-407829D01*
X35925Y-374182D02*
X55118Y-393375D01*
X41007Y-423611D02*
X55118Y-409500D01*
X35925Y-372512D02*
X55118Y-391705D01*
X35925Y-391945D02*
X55118Y-372752D01*
Y-572835D02*
Y-119685D01*
X41594Y-424694D02*
X55118Y-411170D01*
X35925Y-393616D02*
X55118Y-374423D01*
X35925Y-375853D02*
X55118Y-395046D01*
X35925Y-370842D02*
X55118Y-390035D01*
X35925Y-390275D02*
X55118Y-371082D01*
X35925Y-396956D02*
X55118Y-377763D01*
X35925Y-379193D02*
X55118Y-398386D01*
X35925Y-395286D02*
X55118Y-376093D01*
X35925Y-377523D02*
X55118Y-396716D01*
X40780Y-488981D02*
X55118Y-474643D01*
X41521Y-489910D02*
X55118Y-476313D01*
X41641Y-424997D02*
X55118Y-438474D01*
X41332Y-426358D02*
X55118Y-440144D01*
X44193Y-495590D02*
X55118Y-484664D01*
X44250Y-497203D02*
X55118Y-486335D01*
X41611Y-494831D02*
X55118Y-481324D01*
X43343Y-494770D02*
X55118Y-482994D01*
X40487Y-427184D02*
X55118Y-441815D01*
X40755Y-492347D02*
X55118Y-477983D01*
X40748Y-494024D02*
X55118Y-479654D01*
X39092Y-427459D02*
X55118Y-443485D01*
X39366Y-488724D02*
X55118Y-472972D01*
X35925Y-380864D02*
X55118Y-400057D01*
X35925Y-398627D02*
X55118Y-379434D01*
X35925Y-400297D02*
X55118Y-381104D01*
X35925Y-319061D02*
X55118Y-338254D01*
X35925Y-338495D02*
X55118Y-319302D01*
X35925Y-384204D02*
X55118Y-403397D01*
X35925Y-403638D02*
X55118Y-384445D01*
X35925Y-382534D02*
X55118Y-401727D01*
X35925Y-401967D02*
X55118Y-382774D01*
X35925Y-314050D02*
X55118Y-333243D01*
X35925Y-333484D02*
X55118Y-314291D01*
X35925Y-309039D02*
X55118Y-328232D01*
X35925Y-328473D02*
X55118Y-309280D01*
X35925Y-317391D02*
X55118Y-336584D01*
X35925Y-336824D02*
X55118Y-317632D01*
X35925Y-315721D02*
X55118Y-334914D01*
X35925Y-335154D02*
X55118Y-315961D01*
X35925Y-394226D02*
X55118Y-413419D01*
X35925Y-413660D02*
X55118Y-394467D01*
X35925Y-392556D02*
X55118Y-411749D01*
X35925Y-411989D02*
X55118Y-392796D01*
X35925Y-397567D02*
X55118Y-416760D01*
X35925Y-417000D02*
X55118Y-397807D01*
X35925Y-395897D02*
X55118Y-415090D01*
X35925Y-415330D02*
X55118Y-396137D01*
X35925Y-387545D02*
X55118Y-406738D01*
X35925Y-406978D02*
X55118Y-387785D01*
X35925Y-385875D02*
X55118Y-405067D01*
X35925Y-405308D02*
X55118Y-386115D01*
X35925Y-390886D02*
X55118Y-410078D01*
X35925Y-410319D02*
X55118Y-391126D01*
X35925Y-389215D02*
X55118Y-408408D01*
X35925Y-408649D02*
X55118Y-389456D01*
X35925Y-409259D02*
X55118Y-428452D01*
X35925Y-407589D02*
X55118Y-426782D01*
X35925Y-410930D02*
X55118Y-430123D01*
X35925Y-405919D02*
X55118Y-425111D01*
X35925Y-425352D02*
X55118Y-406159D01*
X35925Y-414270D02*
X55118Y-433463D01*
X35925Y-433704D02*
X55118Y-414511D01*
X35925Y-412600D02*
X55118Y-431793D01*
X35925Y-432033D02*
X55118Y-412840D01*
X35925Y-400908D02*
X55118Y-420100D01*
X35925Y-420341D02*
X55118Y-401148D01*
X35925Y-399237D02*
X55118Y-418430D01*
X35925Y-418671D02*
X55118Y-399478D01*
X35925Y-404248D02*
X55118Y-423441D01*
X35925Y-423682D02*
X55118Y-404489D01*
X35925Y-402578D02*
X55118Y-421771D01*
X35925Y-422011D02*
X55118Y-402818D01*
X35925Y-422622D02*
X37383Y-424080D01*
X35925Y-428693D02*
X37784Y-426834D01*
X35925Y-424292D02*
X37108Y-425475D01*
X35925Y-427022D02*
X37167Y-425781D01*
X35925Y-443725D02*
X55118Y-424533D01*
X35925Y-425962D02*
X55118Y-445155D01*
X35925Y-442055D02*
X55118Y-422862D01*
X35925Y-430363D02*
X38868Y-427420D01*
X35925Y-415941D02*
X55118Y-435134D01*
X35925Y-435374D02*
X55118Y-416181D01*
X35925Y-419281D02*
X39570Y-422926D01*
X35925Y-420952D02*
X38209Y-423235D01*
X35925Y-438715D02*
X55118Y-419522D01*
X35925Y-440385D02*
X55118Y-421192D01*
X35925Y-417611D02*
X55118Y-436804D01*
X35925Y-437044D02*
X55118Y-417851D01*
X35925Y-435985D02*
X55118Y-455177D01*
X35925Y-453748D02*
X55118Y-434555D01*
X35925Y-455418D02*
X55118Y-436225D01*
X35925Y-452077D02*
X55118Y-432884D01*
X35925Y-434314D02*
X55118Y-453507D01*
X35925Y-439325D02*
X55118Y-458518D01*
X35925Y-458758D02*
X55118Y-439566D01*
X35925Y-437655D02*
X55118Y-456848D01*
X35925Y-457088D02*
X55118Y-437895D01*
X35925Y-447066D02*
X55118Y-427873D01*
X35925Y-429303D02*
X55118Y-448496D01*
X35925Y-445396D02*
X55118Y-426203D01*
X35925Y-427633D02*
X55118Y-446826D01*
X35925Y-450407D02*
X55118Y-431214D01*
X35925Y-432644D02*
X55118Y-451837D01*
X35925Y-448736D02*
X55118Y-429544D01*
X35925Y-430973D02*
X55118Y-450166D01*
X35925Y-449347D02*
X55118Y-468540D01*
X35925Y-468781D02*
X55118Y-449588D01*
X35925Y-447677D02*
X55118Y-466870D01*
X35925Y-467110D02*
X55118Y-447917D01*
X35925Y-452688D02*
X55118Y-471881D01*
X35925Y-472121D02*
X55118Y-452928D01*
X35925Y-451018D02*
X55118Y-470210D01*
X35925Y-470451D02*
X55118Y-451258D01*
X35925Y-442666D02*
X55118Y-461859D01*
X35925Y-462099D02*
X55118Y-442906D01*
X35925Y-440996D02*
X55118Y-460188D01*
X35925Y-460429D02*
X55118Y-441236D01*
X35925Y-446006D02*
X55118Y-465199D01*
X35925Y-465440D02*
X55118Y-446247D01*
X35925Y-444336D02*
X55118Y-463529D01*
X35925Y-463769D02*
X55118Y-444577D01*
X35925Y-475462D02*
X55118Y-456269D01*
X35925Y-456029D02*
X55118Y-475221D01*
X35925Y-457699D02*
X55118Y-476892D01*
X35925Y-454358D02*
X55118Y-473551D01*
X35925Y-473792D02*
X55118Y-454599D01*
X35925Y-478802D02*
X55118Y-459610D01*
X35925Y-461039D02*
X55118Y-480232D01*
X35925Y-477132D02*
X55118Y-457939D01*
X35925Y-459369D02*
X55118Y-478562D01*
X35925Y-482143D02*
X55118Y-462950D01*
X35925Y-464380D02*
X55118Y-483573D01*
X35925Y-480473D02*
X55118Y-461280D01*
X35925Y-462710D02*
X55118Y-481903D01*
X28248Y-491491D02*
X55118Y-464620D01*
X28248Y-493161D02*
X55118Y-466291D01*
X35925Y-466050D02*
X55118Y-485243D01*
X35925Y-467721D02*
X55118Y-486914D01*
X35925Y-472732D02*
X55118Y-491925D01*
X35925Y-474402D02*
X55118Y-493595D01*
X35925Y-469391D02*
X55118Y-488584D01*
X35925Y-471061D02*
X55118Y-490254D01*
X35925Y-479413D02*
X55118Y-498606D01*
X35925Y-482754D02*
X55118Y-501947D01*
X35925Y-476072D02*
X55118Y-495265D01*
X35925Y-477743D02*
X55118Y-496936D01*
X35403Y-483902D02*
X40245Y-488744D01*
X34568Y-484737D02*
X38787Y-488956D01*
X33733Y-485572D02*
X38025Y-489864D01*
X32898Y-486408D02*
X38737Y-492247D01*
X28248Y-498172D02*
X55118Y-471302D01*
X35925Y-481083D02*
X55118Y-500276D01*
X28248Y-494831D02*
X55118Y-467961D01*
X28248Y-496502D02*
X55118Y-469631D01*
X44047Y-497557D02*
X55118Y-508628D01*
X41929Y-511216D02*
X55118Y-498027D01*
X43504Y-498684D02*
X55118Y-510298D01*
X41929Y-506205D02*
X55118Y-493016D01*
X44392Y-496232D02*
X55118Y-506958D01*
X41929Y-505461D02*
X55118Y-518650D01*
X41929Y-519568D02*
X55118Y-506379D01*
X42940Y-499790D02*
X55118Y-511969D01*
X42105Y-500626D02*
X55118Y-513639D01*
X41929Y-514557D02*
X55118Y-501368D01*
X41929Y-502120D02*
X55118Y-515309D01*
X41929Y-509546D02*
X55118Y-496357D01*
X41929Y-512886D02*
X55118Y-499697D01*
X41929Y-517897D02*
X55118Y-504708D01*
X41929Y-507131D02*
X55118Y-520320D01*
X41929Y-516227D02*
X55118Y-503038D01*
X41929Y-503791D02*
X55118Y-516980D01*
X41929Y-515483D02*
X55118Y-528672D01*
X41929Y-529590D02*
X55118Y-516401D01*
X41929Y-513813D02*
X55118Y-527002D01*
X41929Y-527919D02*
X55118Y-514730D01*
X44896Y-544996D02*
X55118Y-534774D01*
X46336Y-545226D02*
X55118Y-536445D01*
X41929Y-517153D02*
X55118Y-530342D01*
X41929Y-531260D02*
X55118Y-518071D01*
X41929Y-522908D02*
X55118Y-509719D01*
X41929Y-510472D02*
X55118Y-523661D01*
X41929Y-521238D02*
X55118Y-508049D01*
X41929Y-508802D02*
X55118Y-521991D01*
X41929Y-526249D02*
X55118Y-513060D01*
X41929Y-526249D02*
X55118Y-513060D01*
X41929Y-524579D02*
X55118Y-511390D01*
X41929Y-512142D02*
X55118Y-525331D01*
X43504Y-498819D02*
Y-498279D01*
X41929Y-500801D02*
X43216Y-499515D01*
X41929Y-520494D02*
X55118Y-533683D01*
X41929Y-534601D02*
X55118Y-521412D01*
X41929Y-518824D02*
X55118Y-532013D01*
X41929Y-532930D02*
X55118Y-519741D01*
X41929Y-523835D02*
X55118Y-537024D01*
X41929Y-537941D02*
X55118Y-524752D01*
X41929Y-522164D02*
X55118Y-535353D01*
X41929Y-536271D02*
X55118Y-523082D01*
X41929Y-527175D02*
X55118Y-540364D01*
X41929Y-541282D02*
X55118Y-528093D01*
X41929Y-525505D02*
X55118Y-538694D01*
X41929Y-539612D02*
X55118Y-526423D01*
X41929Y-530516D02*
X55118Y-543705D01*
X47204Y-546029D02*
X55118Y-538115D01*
X47553Y-547351D02*
X55118Y-539785D01*
X52058Y-547856D02*
X55118Y-544796D01*
X53455Y-548130D02*
X55118Y-546467D01*
X41929Y-544623D02*
X55118Y-531434D01*
X41929Y-532186D02*
X55118Y-545375D01*
X41929Y-528846D02*
X55118Y-542035D01*
X41929Y-542952D02*
X55118Y-529763D01*
X41929Y-546293D02*
X55118Y-533104D01*
X41929Y-533857D02*
X55118Y-547046D01*
X41929Y-537197D02*
X52577Y-547845D01*
X41929Y-547963D02*
X43028Y-546865D01*
X54527Y-555409D02*
X55118Y-554818D01*
X54527Y-554807D02*
X55118Y-555397D01*
X54527Y-556477D02*
X55118Y-557068D01*
X54527Y-553136D02*
X55118Y-553727D01*
X54527Y-553739D02*
X55118Y-553148D01*
X54527Y-558750D02*
X55118Y-558159D01*
X54527Y-559818D02*
X55118Y-560408D01*
X54527Y-557079D02*
X55118Y-556489D01*
X54527Y-558147D02*
X55118Y-558738D01*
X41929Y-535527D02*
X55118Y-548716D01*
X54273Y-548982D02*
X55118Y-548137D01*
X54517Y-549785D02*
X55118Y-550386D01*
X54527Y-550398D02*
X55118Y-549807D01*
X54527Y-551466D02*
X55118Y-552057D01*
X54527Y-561024D02*
Y-550000D01*
Y-552068D02*
X55118Y-551478D01*
X54527Y-568772D02*
X55118Y-568181D01*
X54527Y-569840D02*
X55118Y-570430D01*
X54527Y-567101D02*
X55118Y-566511D01*
X54527Y-568169D02*
X55118Y-568760D01*
X54527Y-572112D02*
X55118Y-571522D01*
X54527Y-572833D02*
X55118Y-572835D01*
X54527Y-570442D02*
X55118Y-569851D01*
X54527Y-571510D02*
X55118Y-572100D01*
X54527Y-562090D02*
X55118Y-561500D01*
X54527Y-563158D02*
X55118Y-563749D01*
X54527Y-560420D02*
X55118Y-559829D01*
X54527Y-561488D02*
X55118Y-562079D01*
X54527Y-565431D02*
X55118Y-564840D01*
X54527Y-566499D02*
X55118Y-567090D01*
X54527Y-563761D02*
X55118Y-563170D01*
X54527Y-564829D02*
X55118Y-565419D01*
X41929Y-538868D02*
X51221Y-548160D01*
X47493Y-547772D02*
X50197Y-550476D01*
X41929Y-549634D02*
X43258Y-548305D01*
X46897Y-548846D02*
X50197Y-552146D01*
X45834Y-549454D02*
X50197Y-553817D01*
X41929Y-564947D02*
Y-500801D01*
X50197Y-561024D02*
Y-550000D01*
X41929Y-547219D02*
X50197Y-555487D01*
X41929Y-557985D02*
X50218Y-549696D01*
X41929Y-551304D02*
X44060Y-549173D01*
X41929Y-552974D02*
X45382Y-549521D01*
X41929Y-552230D02*
X50197Y-560498D01*
X41929Y-561326D02*
X50197Y-553058D01*
X41929Y-550560D02*
X50197Y-558828D01*
X41929Y-559656D02*
X50197Y-551388D01*
Y-571260D02*
Y-561024D01*
X54527Y-571260D02*
Y-561024D01*
X49281Y-572348D02*
X50197Y-571432D01*
X54527Y-572833D02*
Y-571260D01*
X49425Y-572816D02*
X50197Y-572819D01*
Y-571260D01*
X44295Y-567312D02*
X50197Y-561410D01*
X45130Y-568147D02*
X50197Y-563080D01*
X42624Y-565642D02*
X50197Y-558069D01*
X43459Y-566477D02*
X50197Y-559740D01*
X47635Y-570653D02*
X50197Y-568091D01*
X48471Y-571488D02*
X50197Y-569762D01*
X45965Y-568983D02*
X50197Y-564751D01*
X46800Y-569818D02*
X50197Y-566421D01*
X41929Y-501194D02*
X55118Y-488005D01*
X40748Y-492588D02*
X42761Y-494600D01*
X40748Y-495907D02*
Y-492371D01*
Y-494258D02*
X41435Y-494945D01*
X41929Y-504535D02*
X55118Y-491346D01*
X41359Y-491528D02*
X55118Y-505287D01*
X41929Y-502865D02*
X55118Y-489676D01*
X41571Y-490070D02*
X55118Y-503617D01*
X37761Y-493670D02*
X38780Y-492651D01*
X32063Y-487243D02*
X38780Y-493960D01*
X36700Y-493061D02*
X38194Y-491567D01*
X38780Y-495655D02*
Y-492371D01*
X38265Y-494836D02*
X38780Y-494322D01*
X32674Y-495417D02*
X37936Y-490154D01*
X38433Y-495308D02*
X38780Y-495655D01*
X38232Y-494703D02*
X38321Y-495066D01*
X38389Y-495240D02*
X38780Y-495630D01*
X41929Y-507875D02*
X55118Y-494687D01*
X37598Y-500380D02*
Y-497258D01*
X37127Y-496787D02*
X37598Y-497258D01*
X36830Y-499612D02*
X37598Y-498843D01*
X34869Y-496731D02*
X37598Y-499460D01*
X36564Y-496755D02*
X37598Y-497790D01*
X35995Y-498776D02*
X37556Y-497216D01*
X35054Y-497835D02*
X37598Y-500380D01*
X28248Y-525186D02*
X36417Y-533356D01*
X28248Y-534919D02*
X36417Y-526750D01*
X28248Y-495121D02*
X36417Y-503290D01*
X28248Y-496791D02*
X36417Y-504960D01*
X28248Y-501802D02*
X36417Y-509971D01*
X28248Y-500132D02*
X36417Y-508301D01*
X28248Y-511535D02*
X36417Y-503365D01*
X28248Y-498461D02*
X36417Y-506631D01*
X33662Y-499227D02*
X36417Y-501982D01*
X28248Y-505142D02*
X36417Y-513312D01*
X28248Y-514875D02*
X36417Y-506706D01*
X28248Y-503472D02*
X36417Y-511642D01*
X28248Y-513205D02*
X36417Y-505036D01*
X28248Y-508483D02*
X36417Y-516652D01*
X28248Y-518216D02*
X36417Y-510047D01*
X28248Y-506813D02*
X36417Y-514982D01*
X28248Y-516546D02*
X36417Y-508376D01*
X28248Y-511824D02*
X36417Y-519993D01*
X28248Y-521557D02*
X36417Y-513387D01*
X28248Y-510153D02*
X36417Y-518323D01*
X28248Y-519886D02*
X36417Y-511717D01*
X28248Y-521846D02*
X36417Y-530015D01*
X28248Y-531578D02*
X36417Y-523409D01*
X28248Y-520176D02*
X36417Y-528345D01*
X28248Y-529908D02*
X36417Y-521739D01*
X28248Y-526857D02*
X36417Y-535026D01*
X28248Y-536589D02*
X36417Y-528420D01*
X28248Y-523516D02*
X36417Y-531685D01*
X28248Y-533249D02*
X36417Y-525080D01*
X28248Y-515165D02*
X36417Y-523334D01*
X28248Y-524897D02*
X36417Y-516728D01*
X28248Y-513494D02*
X36417Y-521664D01*
X28248Y-523227D02*
X36417Y-515058D01*
X28248Y-518505D02*
X36417Y-526675D01*
X28248Y-528238D02*
X36417Y-520069D01*
X28248Y-516835D02*
X36417Y-525004D01*
X28248Y-526568D02*
X36417Y-518398D01*
X41929Y-542208D02*
X44747Y-545027D01*
X28248Y-539930D02*
X36417Y-531761D01*
X35467Y-542428D02*
X36417Y-543378D01*
X34053Y-539136D02*
X36417Y-536772D01*
X35104Y-539755D02*
X36417Y-538442D01*
X41929Y-554645D02*
X55118Y-541456D01*
X41929Y-556315D02*
X55118Y-543126D01*
X41929Y-540538D02*
X50425Y-549033D01*
X34653Y-543284D02*
X36417Y-545048D01*
X28248Y-530197D02*
X36417Y-538367D01*
X28248Y-540219D02*
X36417Y-548389D01*
X28248Y-528527D02*
X36417Y-536696D01*
X28248Y-538260D02*
X36417Y-530091D01*
X28248Y-551622D02*
X36417Y-543453D01*
X28248Y-543560D02*
X36417Y-551729D01*
X28248Y-549952D02*
X36417Y-541783D01*
X28248Y-541890D02*
X36417Y-550059D01*
X41929Y-548890D02*
X50197Y-557157D01*
X41929Y-553901D02*
X50197Y-562168D01*
X41929Y-543879D02*
X43673Y-545623D01*
X41929Y-545549D02*
X43066Y-546685D01*
X41929Y-564667D02*
X50197Y-556399D01*
X41929Y-562252D02*
X50197Y-570520D01*
X41929Y-562996D02*
X50197Y-554729D01*
X41929Y-555571D02*
X50197Y-563839D01*
X41929Y-557241D02*
X50197Y-565509D01*
X41929Y-558912D02*
X50197Y-567179D01*
X33312Y-543613D02*
X36417Y-546718D01*
X28248Y-553293D02*
X36417Y-545123D01*
X41929Y-560582D02*
X50197Y-568850D01*
X41929Y-563923D02*
X50197Y-572190D01*
X41929Y-564947D02*
X49121Y-572139D01*
X32603Y-568982D02*
X36417Y-565168D01*
X28248Y-541601D02*
X36417Y-533431D01*
X35689Y-540841D02*
X36417Y-540112D01*
X28248Y-539930D02*
X36417Y-531761D01*
X28248Y-531868D02*
X36417Y-540037D01*
Y-571443D02*
Y-501982D01*
X28248Y-545230D02*
X36417Y-553400D01*
X28248Y-543271D02*
X36417Y-535102D01*
X35720Y-541011D02*
X36417Y-541707D01*
X28248Y-556634D02*
X36417Y-548464D01*
X28248Y-548571D02*
X36417Y-556740D01*
X28248Y-554963D02*
X36417Y-546794D01*
X28248Y-546901D02*
X36417Y-555070D01*
X28248Y-559974D02*
X36417Y-551805D01*
X28248Y-551912D02*
X36417Y-560081D01*
X28248Y-558304D02*
X36417Y-550135D01*
X28248Y-550241D02*
X36417Y-558411D01*
X28248Y-569996D02*
X36417Y-561827D01*
X33912Y-569344D02*
X36417Y-566838D01*
X28248Y-568326D02*
X36417Y-560156D01*
X28248Y-560263D02*
X36417Y-568433D01*
X34918Y-571678D02*
X36417Y-570179D01*
X35918Y-571942D02*
X36417Y-571443D01*
X28458Y-571456D02*
X36417Y-563497D01*
X34706Y-570220D02*
X36417Y-568508D01*
X28248Y-563315D02*
X36417Y-555146D01*
X28248Y-555252D02*
X36417Y-563422D01*
X28248Y-561645D02*
X36417Y-553475D01*
X28248Y-553582D02*
X36417Y-561751D01*
X28248Y-566655D02*
X36417Y-558486D01*
X28248Y-558593D02*
X36417Y-566762D01*
X28248Y-564985D02*
X36417Y-556816D01*
X28248Y-556923D02*
X36417Y-565092D01*
X30020Y-298123D02*
X32972Y-301076D01*
X30020Y-300972D02*
X32972Y-298019D01*
X32323Y-302009D02*
X32972Y-301360D01*
X30020Y-299301D02*
X32972Y-296349D01*
X30020Y-296453D02*
X32972Y-299405D01*
X31625Y-306410D02*
X32972Y-307757D01*
Y-302397D02*
Y-141383D01*
X30641Y-302021D02*
X32972Y-299689D01*
X30020Y-306475D02*
X32972Y-309427D01*
X30020Y-310994D02*
X32972Y-308041D01*
X30020Y-309323D02*
X32972Y-306371D01*
X30020Y-309815D02*
X32972Y-312768D01*
X30020Y-314334D02*
X32972Y-311382D01*
X30020Y-308145D02*
X32972Y-311098D01*
X30020Y-312664D02*
X32972Y-309711D01*
X30020Y-319837D02*
X32972Y-322790D01*
X30020Y-324356D02*
X32972Y-321404D01*
X30020Y-318167D02*
X32972Y-321120D01*
X30020Y-322686D02*
X32972Y-319733D01*
X30020Y-342730D02*
X32972Y-339777D01*
X30020Y-339881D02*
X32972Y-342834D01*
X30020Y-321508D02*
X32972Y-324460D01*
X30020Y-338211D02*
X32972Y-341164D01*
X30020Y-313156D02*
X32972Y-316109D01*
X30020Y-317675D02*
X32972Y-314722D01*
X30020Y-311486D02*
X32972Y-314438D01*
X30020Y-316005D02*
X32972Y-313052D01*
X30020Y-316497D02*
X32972Y-319449D01*
X30020Y-321016D02*
X32972Y-318063D01*
X30020Y-314826D02*
X32972Y-317779D01*
X30020Y-319345D02*
X32972Y-316392D01*
X30020Y-299793D02*
X32188Y-301962D01*
X30020Y-302397D02*
Y-141215D01*
Y-301464D02*
X30596Y-302040D01*
X30020Y-323178D02*
X32972Y-326131D01*
X30020Y-327697D02*
X32972Y-324744D01*
X30020Y-307653D02*
X31271Y-306402D01*
X30020Y-326027D02*
X32972Y-323074D01*
X30020Y-326519D02*
X32972Y-329471D01*
X30020Y-331038D02*
X32972Y-328085D01*
X30020Y-324848D02*
X32972Y-327801D01*
X30020Y-329367D02*
X32972Y-326414D01*
X30020Y-329859D02*
X32972Y-332812D01*
X30020Y-334378D02*
X32972Y-331425D01*
X30020Y-328189D02*
X32972Y-331142D01*
X30020Y-332708D02*
X32972Y-329755D01*
X30020Y-346071D02*
X32972Y-343118D01*
X30020Y-343222D02*
X32972Y-346175D01*
X30020Y-344400D02*
X32972Y-341447D01*
X30020Y-341551D02*
X32972Y-344504D01*
X30020Y-349411D02*
X32972Y-346459D01*
X30020Y-346563D02*
X32972Y-349515D01*
X30020Y-347741D02*
X32972Y-344788D01*
X30020Y-344892D02*
X32972Y-347845D01*
X30020Y-333200D02*
X32972Y-336153D01*
X30020Y-337719D02*
X32972Y-334766D01*
X30020Y-331529D02*
X32972Y-334482D01*
X30020Y-336049D02*
X32972Y-333096D01*
X30020Y-336541D02*
X32972Y-339493D01*
X30020Y-341060D02*
X32972Y-338107D01*
X30020Y-334870D02*
X32972Y-337823D01*
X30020Y-339389D02*
X32972Y-336437D01*
X30020Y-349903D02*
X32972Y-352856D01*
X30020Y-352752D02*
X32972Y-349799D01*
X30020Y-354422D02*
X32972Y-351469D01*
X30020Y-351082D02*
X32972Y-348129D01*
X30020Y-348233D02*
X32972Y-351186D01*
X35925Y-482972D02*
Y-22209D01*
X30020Y-353244D02*
X32972Y-356197D01*
X30020Y-351573D02*
X32972Y-354526D01*
X30020Y-356093D02*
X32972Y-353140D01*
X30020Y-359433D02*
X32972Y-356481D01*
X30020Y-356585D02*
X32972Y-359537D01*
X30020Y-357763D02*
X32972Y-354810D01*
X30020Y-354914D02*
X32972Y-357867D01*
X30020Y-362774D02*
X32972Y-359821D01*
X30020Y-359925D02*
X32972Y-362878D01*
X30020Y-361104D02*
X32972Y-358151D01*
X30020Y-358255D02*
X32972Y-361208D01*
X30020Y-372796D02*
X32972Y-369843D01*
X30020Y-369947D02*
X32972Y-372900D01*
X30020Y-371126D02*
X32972Y-368173D01*
X30020Y-368277D02*
X32972Y-371230D01*
X30020Y-376136D02*
X32972Y-373184D01*
X30020Y-373288D02*
X32972Y-376240D01*
X30020Y-374466D02*
X32972Y-371513D01*
X30020Y-371618D02*
X32972Y-374570D01*
X30020Y-366114D02*
X32972Y-363162D01*
X30020Y-363266D02*
X32972Y-366219D01*
X30020Y-364444D02*
X32972Y-361491D01*
X30020Y-361596D02*
X32972Y-364548D01*
X30020Y-369455D02*
X32972Y-366502D01*
X30020Y-366606D02*
X32972Y-369559D01*
X30020Y-367785D02*
X32972Y-364832D01*
X30020Y-364936D02*
X32972Y-367889D01*
X30020Y-376628D02*
X32972Y-379581D01*
X30020Y-379477D02*
X32972Y-376524D01*
X30020Y-381148D02*
X32972Y-378195D01*
X30020Y-377807D02*
X32972Y-374854D01*
X30020Y-374958D02*
X32972Y-377911D01*
X30020Y-378299D02*
X32972Y-381252D01*
X30020Y-382818D02*
X32972Y-379865D01*
X30020Y-429365D02*
Y-305871D01*
X32972Y-429365D02*
Y-305871D01*
X30020Y-381639D02*
X32972Y-384592D01*
X30020Y-386158D02*
X32972Y-383206D01*
X30020Y-379969D02*
X32972Y-382922D01*
X30020Y-384488D02*
X32972Y-381535D01*
X30020Y-384980D02*
X32972Y-387933D01*
X30020Y-389499D02*
X32972Y-386546D01*
X30020Y-383310D02*
X32972Y-386262D01*
X30020Y-387829D02*
X32972Y-384876D01*
X30020Y-395002D02*
X32972Y-397955D01*
X30020Y-399521D02*
X32972Y-396568D01*
X30020Y-393332D02*
X32972Y-396285D01*
X30020Y-397851D02*
X32972Y-394898D01*
X30020Y-402862D02*
X32972Y-399909D01*
X30020Y-400013D02*
X32972Y-402966D01*
X30020Y-396672D02*
X32972Y-399625D01*
X30020Y-401192D02*
X32972Y-398239D01*
X30020Y-388321D02*
X32972Y-391273D01*
X30020Y-392840D02*
X32972Y-389887D01*
X30020Y-386650D02*
X32972Y-389603D01*
X30020Y-391170D02*
X32972Y-388217D01*
X30020Y-391661D02*
X32972Y-394614D01*
X30020Y-396181D02*
X32972Y-393228D01*
X30020Y-389991D02*
X32972Y-392944D01*
X30020Y-394510D02*
X32972Y-391557D01*
X24016Y-332207D02*
X27067Y-335258D01*
X24016Y-333701D02*
X27067Y-330650D01*
X24016Y-335371D02*
X27067Y-332320D01*
X24016Y-332031D02*
X27067Y-328979D01*
X24016Y-330537D02*
X27067Y-333588D01*
X24016Y-335548D02*
X27067Y-338599D01*
X24016Y-338712D02*
X27067Y-335661D01*
X24016Y-333877D02*
X27067Y-336928D01*
X24016Y-337041D02*
X27067Y-333990D01*
X24016Y-327020D02*
X27067Y-323968D01*
X24016Y-325526D02*
X27067Y-328577D01*
X24016Y-325349D02*
X27067Y-322298D01*
X24016Y-323855D02*
X27067Y-326906D01*
X24016Y-330360D02*
X27067Y-327309D01*
X24016Y-328866D02*
X27067Y-331918D01*
X24016Y-328690D02*
X27067Y-325639D01*
X24016Y-327196D02*
X27067Y-330247D01*
X24016Y-345570D02*
X27067Y-348621D01*
X24016Y-348734D02*
X27067Y-345683D01*
X24016Y-343899D02*
X27067Y-346950D01*
X24016Y-347063D02*
X27067Y-344012D01*
X24016Y-348910D02*
X27067Y-351961D01*
X24016Y-352075D02*
X27067Y-349023D01*
X24016Y-347240D02*
X27067Y-350291D01*
X24016Y-350404D02*
X27067Y-347353D01*
X24016Y-338888D02*
X27067Y-341939D01*
X24016Y-342053D02*
X27067Y-339001D01*
X24016Y-337218D02*
X27067Y-340269D01*
X24016Y-340382D02*
X27067Y-337331D01*
X24016Y-342229D02*
X27067Y-345280D01*
X24016Y-345393D02*
X27067Y-342342D01*
X24016Y-340559D02*
X27067Y-343610D01*
X24016Y-343723D02*
X27067Y-340672D01*
X24016Y-306976D02*
X27067Y-303924D01*
X24016Y-303811D02*
X27067Y-306862D01*
X24016Y-305482D02*
X27067Y-308533D01*
X24016Y-302141D02*
X27067Y-305192D01*
X24016Y-305305D02*
X27067Y-302254D01*
X24016Y-310316D02*
X27067Y-307265D01*
X24016Y-308822D02*
X27067Y-311874D01*
X24016Y-308646D02*
X27067Y-305595D01*
X24016Y-307152D02*
X27067Y-310203D01*
X24016Y-297130D02*
X27067Y-300181D01*
X24016Y-300294D02*
X27067Y-297243D01*
X24016Y-295460D02*
X27067Y-298511D01*
X24016Y-298624D02*
X27067Y-295573D01*
X24016Y-300471D02*
X27067Y-303522D01*
X24016Y-303635D02*
X27067Y-300584D01*
X24016Y-298800D02*
X27067Y-301852D01*
X24016Y-301965D02*
X27067Y-298913D01*
X24016Y-320338D02*
X27067Y-317287D01*
X24016Y-318844D02*
X27067Y-321896D01*
X24016Y-318668D02*
X27067Y-315617D01*
X24016Y-317174D02*
X27067Y-320225D01*
X24016Y-323679D02*
X27067Y-320628D01*
X24016Y-322185D02*
X27067Y-325236D01*
X24016Y-322009D02*
X27067Y-318957D01*
X24016Y-320515D02*
X27067Y-323566D01*
X24016Y-313657D02*
X27067Y-310606D01*
X24016Y-312163D02*
X27067Y-315214D01*
X24016Y-311987D02*
X27067Y-308935D01*
X24016Y-310493D02*
X27067Y-313544D01*
X24016Y-316998D02*
X27067Y-313946D01*
X24016Y-315504D02*
X27067Y-318555D01*
X24016Y-315327D02*
X27067Y-312276D01*
X24016Y-313833D02*
X27067Y-316884D01*
X24016Y-362097D02*
X27067Y-359045D01*
X24016Y-358932D02*
X27067Y-361983D01*
X24016Y-360603D02*
X27067Y-363654D01*
X24016Y-357262D02*
X27067Y-360313D01*
X24016Y-360426D02*
X27067Y-357375D01*
X24016Y-365437D02*
X27067Y-362386D01*
X24016Y-363943D02*
X27067Y-366994D01*
X24016Y-363767D02*
X27067Y-360716D01*
X24016Y-362273D02*
X27067Y-365324D01*
X24016Y-352251D02*
X27067Y-355302D01*
X24016Y-355415D02*
X27067Y-352364D01*
X24016Y-350581D02*
X27067Y-353632D01*
X24016Y-353745D02*
X27067Y-350694D01*
X24016Y-355592D02*
X27067Y-358643D01*
X24016Y-358756D02*
X27067Y-355705D01*
X24016Y-353921D02*
X27067Y-356972D01*
X24016Y-357085D02*
X27067Y-354034D01*
X24016Y-375459D02*
X27067Y-372408D01*
X24016Y-373965D02*
X27067Y-377016D01*
X24016Y-373789D02*
X27067Y-370738D01*
X24016Y-372295D02*
X27067Y-375346D01*
X24016Y-378800D02*
X27067Y-375749D01*
X30020Y-398343D02*
X32972Y-401296D01*
X24016Y-377129D02*
X27067Y-374078D01*
X24016Y-375636D02*
X27067Y-378687D01*
X24016Y-368778D02*
X27067Y-365727D01*
X24016Y-367284D02*
X27067Y-370335D01*
X24016Y-367108D02*
X27067Y-364056D01*
X24016Y-365614D02*
X27067Y-368665D01*
X24016Y-372118D02*
X27067Y-369067D01*
X24016Y-370624D02*
X27067Y-373676D01*
X24016Y-370448D02*
X27067Y-367397D01*
X24016Y-368954D02*
X27067Y-372005D01*
X24016Y-378976D02*
X27067Y-382027D01*
X24016Y-382140D02*
X27067Y-379089D01*
X24016Y-377306D02*
X27067Y-380357D01*
X24016Y-380470D02*
X27067Y-377419D01*
X24016Y-380646D02*
X27067Y-383698D01*
X24016Y-383811D02*
X27067Y-380760D01*
X24016Y-434375D02*
Y-208341D01*
X27067Y-434287D02*
Y-208430D01*
X24016Y-383987D02*
X27067Y-387038D01*
X24016Y-387151D02*
X27067Y-384100D01*
X24016Y-382317D02*
X27067Y-385368D01*
X24016Y-385481D02*
X27067Y-382430D01*
X24016Y-387328D02*
X27067Y-390379D01*
X24016Y-390492D02*
X27067Y-387441D01*
X24016Y-385658D02*
X27067Y-388709D01*
X24016Y-388822D02*
X27067Y-385771D01*
X24016Y-397350D02*
X27067Y-400401D01*
X24016Y-400514D02*
X27067Y-397463D01*
X24016Y-395679D02*
X27067Y-398731D01*
X24016Y-398844D02*
X27067Y-395793D01*
X24016Y-400691D02*
X27067Y-403742D01*
X24016Y-403855D02*
X27067Y-400804D01*
X24016Y-399020D02*
X27067Y-402071D01*
X24016Y-402184D02*
X27067Y-399133D01*
X24016Y-390669D02*
X27067Y-393720D01*
X24016Y-393833D02*
X27067Y-390782D01*
X24016Y-388998D02*
X27067Y-392049D01*
X24016Y-392162D02*
X27067Y-389111D01*
X24016Y-394009D02*
X27067Y-397060D01*
X24016Y-397173D02*
X27067Y-394122D01*
X24016Y-392339D02*
X27067Y-395390D01*
X24016Y-395503D02*
X27067Y-392452D01*
X30020Y-410035D02*
X32972Y-412988D01*
X30020Y-412884D02*
X32972Y-409931D01*
X30020Y-414554D02*
X32972Y-411601D01*
X30020Y-411213D02*
X32972Y-408261D01*
X30020Y-408365D02*
X32972Y-411317D01*
X30020Y-413376D02*
X32972Y-416328D01*
X30020Y-417895D02*
X32972Y-414942D01*
X30020Y-411705D02*
X32972Y-414658D01*
X30020Y-416224D02*
X32972Y-413272D01*
X30020Y-406202D02*
X32972Y-403250D01*
X30020Y-403354D02*
X32972Y-406307D01*
X30020Y-404532D02*
X32972Y-401579D01*
X30020Y-401683D02*
X32972Y-404636D01*
X30020Y-409543D02*
X32972Y-406590D01*
X30020Y-406694D02*
X32972Y-409647D01*
X30020Y-407873D02*
X32972Y-404920D01*
X30020Y-405024D02*
X32972Y-407977D01*
X30020Y-421235D02*
X32972Y-418283D01*
X30020Y-418387D02*
X32972Y-421340D01*
X30020Y-415046D02*
X32972Y-417999D01*
X30020Y-419565D02*
X32972Y-416612D01*
X30601Y-429006D02*
X32972Y-426634D01*
X32306Y-428971D02*
X32972Y-428305D01*
X30020Y-422906D02*
X32972Y-419953D01*
X30020Y-420057D02*
X32972Y-423010D01*
X30020Y-421727D02*
X32972Y-424680D01*
X30020Y-426246D02*
X32972Y-423294D01*
X30020Y-416716D02*
X32972Y-419669D01*
X30020Y-424576D02*
X32972Y-421623D01*
X30020Y-425068D02*
X32972Y-428021D01*
X30020Y-445112D02*
X32972Y-448065D01*
X30020Y-423398D02*
X32972Y-426350D01*
X30020Y-427917D02*
X32972Y-424964D01*
X30020Y-426738D02*
X32223Y-428942D01*
X30020Y-428409D02*
X30612Y-429001D01*
X30020Y-436268D02*
X32972Y-433316D01*
X31647Y-433377D02*
X32972Y-434702D01*
X30020Y-434598D02*
X31249Y-433368D01*
X30020Y-435090D02*
X32972Y-438043D01*
X30020Y-439609D02*
X32972Y-436656D01*
X30020Y-433420D02*
X32972Y-436372D01*
X30020Y-437939D02*
X32972Y-434986D01*
X30020Y-438431D02*
X32972Y-441383D01*
X30020Y-442950D02*
X32972Y-439997D01*
X30020Y-436760D02*
X32972Y-439713D01*
X30020Y-441279D02*
X32972Y-438327D01*
X30020Y-452972D02*
X32972Y-450019D01*
X30020Y-450123D02*
X32972Y-453076D01*
X30020Y-451301D02*
X32972Y-448349D01*
X30020Y-448453D02*
X32972Y-451405D01*
X30020Y-456312D02*
X32972Y-453360D01*
X30020Y-453464D02*
X32972Y-456416D01*
X30020Y-454642D02*
X32972Y-451689D01*
X30020Y-451793D02*
X32972Y-454746D01*
X30020Y-441771D02*
X32972Y-444724D01*
X30020Y-446290D02*
X32972Y-443338D01*
X30020Y-440101D02*
X32972Y-443054D01*
X30020Y-444620D02*
X32972Y-441667D01*
X30020Y-449631D02*
X32972Y-446678D01*
X30020Y-446782D02*
X32972Y-449735D01*
X30020Y-443442D02*
X32972Y-446394D01*
X30020Y-447961D02*
X32972Y-445008D01*
X31227Y-488078D02*
X36184Y-493035D01*
X30020Y-474686D02*
X32972Y-471733D01*
X30392Y-488913D02*
X35041Y-493562D01*
X34828Y-496603D02*
X35123Y-496308D01*
X35160Y-497941D02*
X36334Y-496768D01*
X34087Y-495674D02*
X34513Y-495248D01*
X30020Y-471837D02*
X32972Y-474790D01*
X30020Y-476356D02*
X32972Y-473404D01*
X30020Y-473016D02*
X32972Y-470063D01*
X30020Y-470167D02*
X32972Y-473120D01*
X29557Y-489748D02*
X34492Y-494684D01*
X28722Y-490583D02*
X33584Y-495446D01*
X30020Y-473508D02*
X32972Y-476460D01*
X30020Y-478027D02*
X32972Y-475074D01*
X34867Y-571893D02*
X35614Y-572641D01*
X34843Y-572769D02*
Y-571972D01*
Y-572769D02*
X35611Y-572772D01*
X28248Y-509864D02*
X36274Y-501839D01*
X30020Y-456804D02*
X32972Y-459757D01*
X30020Y-459653D02*
X32972Y-456700D01*
X30020Y-461323D02*
X32972Y-458371D01*
X30020Y-457983D02*
X32972Y-455030D01*
X30020Y-455134D02*
X32972Y-458087D01*
X30020Y-458475D02*
X32972Y-461427D01*
X30020Y-462994D02*
X32972Y-460041D01*
X30020Y-479246D02*
Y-432839D01*
X32972Y-482157D02*
Y-432839D01*
X30020Y-461815D02*
X32972Y-464768D01*
X30020Y-466334D02*
X32972Y-463382D01*
X30020Y-460145D02*
X32972Y-463098D01*
X30020Y-464664D02*
X32972Y-461711D01*
X30020Y-465156D02*
X32972Y-468109D01*
X30020Y-469675D02*
X32972Y-466722D01*
X30020Y-463486D02*
X32972Y-466438D01*
X30020Y-468005D02*
X32972Y-465052D01*
X30020Y-468497D02*
X32972Y-471449D01*
X30020Y-475178D02*
X32972Y-478131D01*
X30020Y-466826D02*
X32972Y-469779D01*
X30020Y-471345D02*
X32972Y-468393D01*
X30020Y-476848D02*
X32972Y-479801D01*
X30020Y-478519D02*
X32972Y-481471D01*
X29752Y-479921D02*
X32480Y-482649D01*
X30512Y-572755D02*
Y-571972D01*
X28917Y-480757D02*
X31645Y-483485D01*
X28248Y-503183D02*
X32430Y-499001D01*
X29294Y-572291D02*
X30399Y-571186D01*
X29649Y-572752D02*
X30512Y-572755D01*
X24016Y-413877D02*
X27067Y-410825D01*
X24016Y-410712D02*
X27067Y-413764D01*
X24016Y-412383D02*
X27067Y-415434D01*
X24016Y-409042D02*
X27067Y-412093D01*
X24016Y-412206D02*
X27067Y-409155D01*
X24016Y-417217D02*
X27067Y-414166D01*
X24016Y-415723D02*
X27067Y-418775D01*
X24016Y-415547D02*
X27067Y-412496D01*
X24016Y-414053D02*
X27067Y-417104D01*
X24016Y-404031D02*
X27067Y-407082D01*
X24016Y-407195D02*
X27067Y-404144D01*
X24016Y-402361D02*
X27067Y-405412D01*
X24016Y-405525D02*
X27067Y-402474D01*
X24016Y-407372D02*
X27067Y-410423D01*
X24016Y-410536D02*
X27067Y-407485D01*
X24016Y-405701D02*
X27067Y-408753D01*
X24016Y-408866D02*
X27067Y-405815D01*
X24016Y-427239D02*
X27067Y-424188D01*
X24016Y-425745D02*
X27067Y-428797D01*
X24016Y-425569D02*
X27067Y-422518D01*
X24016Y-424075D02*
X27067Y-427126D01*
X24016Y-430580D02*
X27067Y-427529D01*
X24016Y-429086D02*
X27067Y-432137D01*
X24016Y-428910D02*
X27067Y-425858D01*
X24016Y-427416D02*
X27067Y-430467D01*
X24016Y-420558D02*
X27067Y-417507D01*
X24016Y-419064D02*
X27067Y-422115D01*
X24016Y-418888D02*
X27067Y-415836D01*
X24016Y-417394D02*
X27067Y-420445D01*
X24016Y-423899D02*
X27067Y-420848D01*
X24016Y-422405D02*
X27067Y-425456D01*
X24016Y-422228D02*
X27067Y-419177D01*
X24016Y-420734D02*
X27067Y-423786D01*
X24016Y-433921D02*
X27067Y-430869D01*
X24016Y-430756D02*
X27067Y-433808D01*
X24016Y-432250D02*
X27067Y-429199D01*
X25848Y-433759D02*
X27067Y-432540D01*
X24700Y-438122D02*
X27067Y-440489D01*
X26402Y-438154D02*
X27067Y-438819D01*
X24016Y-440602D02*
X26507Y-438111D01*
X24016Y-432427D02*
X25346Y-433757D01*
X24016Y-438932D02*
X24790Y-438158D01*
X24016Y-440778D02*
X27067Y-443830D01*
X24016Y-443943D02*
X27067Y-440892D01*
X24016Y-439108D02*
X27067Y-442159D01*
X24016Y-442272D02*
X27067Y-439221D01*
X24016Y-450800D02*
X27067Y-453852D01*
X24016Y-453965D02*
X27067Y-450913D01*
X24016Y-449130D02*
X27067Y-452181D01*
X24016Y-452294D02*
X27067Y-449243D01*
X24016Y-454141D02*
X27067Y-457192D01*
X24016Y-457305D02*
X27067Y-454254D01*
X24016Y-452471D02*
X27067Y-455522D01*
X24016Y-455635D02*
X27067Y-452584D01*
X24016Y-444119D02*
X27067Y-447170D01*
X24016Y-447283D02*
X27067Y-444232D01*
X24016Y-442449D02*
X27067Y-445500D01*
X24016Y-445613D02*
X27067Y-442562D01*
X24016Y-447460D02*
X27067Y-450511D01*
X24016Y-450624D02*
X27067Y-447573D01*
X24016Y-445789D02*
X27067Y-448841D01*
X24016Y-448954D02*
X27067Y-445902D01*
X28248Y-491780D02*
X32109Y-495641D01*
X28248Y-491057D02*
X35637Y-483668D01*
X28248Y-493450D02*
X31338Y-496540D01*
X28082Y-481592D02*
X30810Y-484320D01*
X27247Y-482427D02*
X29975Y-485155D01*
X28248Y-501513D02*
X31501Y-498260D01*
X28248Y-504853D02*
X33768Y-499333D01*
X28248Y-571246D02*
Y-491057D01*
Y-499842D02*
X31244Y-496847D01*
X24016Y-472515D02*
X27067Y-475566D01*
X24016Y-475679D02*
X27067Y-472628D01*
X24016Y-464163D02*
X27067Y-467214D01*
X24016Y-474009D02*
X27067Y-470957D01*
X25584Y-489546D02*
X32972Y-482157D01*
X26412Y-483262D02*
X29140Y-485990D01*
X25576Y-484097D02*
X28304Y-486825D01*
X24741Y-484932D02*
X27469Y-487660D01*
X28248Y-548282D02*
X32967Y-543563D01*
X28248Y-561934D02*
X36417Y-570103D01*
X28248Y-565274D02*
X32044Y-569070D01*
X28248Y-566945D02*
X31009Y-569706D01*
X28248Y-563604D02*
X36252Y-571608D01*
X28248Y-570285D02*
X30512Y-572549D01*
X28248Y-568615D02*
X30443Y-570810D01*
X28248Y-571246D02*
X29436Y-572434D01*
X28248Y-506524D02*
X34603Y-500168D01*
X28248Y-508194D02*
X35438Y-501004D01*
X28248Y-533538D02*
X33793Y-539083D01*
X28248Y-535209D02*
X32376Y-539336D01*
X28248Y-536879D02*
X31519Y-540150D01*
X28248Y-546611D02*
X31881Y-542978D01*
X28248Y-538549D02*
X31190Y-541491D01*
X28248Y-544941D02*
X31262Y-541927D01*
X24016Y-457482D02*
X27067Y-460533D01*
X24016Y-460646D02*
X27067Y-457595D01*
X24016Y-455811D02*
X27067Y-458862D01*
X24016Y-458976D02*
X27067Y-455924D01*
X24016Y-459152D02*
X27067Y-462203D01*
X24016Y-462316D02*
X27067Y-459265D01*
X24016Y-476294D02*
Y-437672D01*
X27067Y-478431D02*
Y-437760D01*
X24016Y-462493D02*
X27067Y-465544D01*
X24016Y-465657D02*
X27067Y-462606D01*
X24016Y-460822D02*
X27067Y-463873D01*
X24016Y-463987D02*
X27067Y-460935D01*
X24016Y-468998D02*
X27067Y-465946D01*
X24016Y-467504D02*
X27067Y-470555D01*
X24016Y-467327D02*
X27067Y-464276D01*
X24016Y-465833D02*
X27067Y-468885D01*
X24016Y-470668D02*
X27067Y-467617D01*
X24016Y-472338D02*
X27067Y-469287D01*
X24016Y-474185D02*
X27067Y-477236D01*
X24016Y-475855D02*
X26829Y-478669D01*
X25295Y-571246D02*
Y-490242D01*
X24107Y-572434D02*
X25295Y-571246D01*
X24016Y-469174D02*
X27067Y-472225D01*
X24016Y-470844D02*
X27067Y-473896D01*
X23906Y-485768D02*
X26634Y-488495D01*
X23797Y-532689D02*
X25295Y-531191D01*
X23833Y-534134D02*
X25295Y-535596D01*
X16711Y-20902D02*
X21063Y-25254D01*
X16339Y-22200D02*
X21063Y-26924D01*
X16339Y-27356D02*
X21063Y-22632D01*
X20177Y-22698D02*
X21063Y-23584D01*
X16339Y-32222D02*
X21063Y-36946D01*
X16339Y-37378D02*
X21063Y-32654D01*
X16339Y-23870D02*
X21063Y-28595D01*
X16339Y-29026D02*
X21063Y-24302D01*
X16339Y-35563D02*
X21063Y-40287D01*
X16339Y-40719D02*
X21063Y-35994D01*
X16339Y-33892D02*
X21063Y-38617D01*
X16339Y-39048D02*
X21063Y-34324D01*
X16339Y-38903D02*
X21063Y-43628D01*
X16339Y-44059D02*
X21063Y-39335D01*
X16339Y-37233D02*
X21063Y-41957D01*
X16339Y-42389D02*
X21063Y-37664D01*
X16339Y-48925D02*
X21063Y-53650D01*
X16339Y-54081D02*
X21063Y-49357D01*
X16339Y-47255D02*
X21063Y-51979D01*
X16339Y-52411D02*
X21063Y-47686D01*
X16339Y-72455D02*
X21063Y-67730D01*
X16339Y-68969D02*
X21063Y-73694D01*
X16339Y-50596D02*
X21063Y-55320D01*
X16339Y-67299D02*
X21063Y-72023D01*
X16339Y-42244D02*
X21063Y-46968D01*
X16339Y-47400D02*
X21063Y-42676D01*
X16339Y-40574D02*
X21063Y-45298D01*
X16339Y-45730D02*
X21063Y-41005D01*
X16339Y-45585D02*
X21063Y-50309D01*
X16339Y-50741D02*
X21063Y-46016D01*
X16339Y-43914D02*
X21063Y-48639D01*
X16339Y-49070D02*
X21063Y-44346D01*
X16339Y-24015D02*
X18174Y-22179D01*
X16339Y-21274D02*
X17423Y-20189D01*
X16339Y-22345D02*
X17515Y-21169D01*
X16339Y-52266D02*
X21063Y-56990D01*
X16339Y-57422D02*
X21063Y-52697D01*
X16339Y-25686D02*
X19304Y-22720D01*
X16339Y-55752D02*
X21063Y-51027D01*
X16339Y-55607D02*
X21063Y-60331D01*
X16339Y-60763D02*
X21063Y-56038D01*
X16339Y-53936D02*
X21063Y-58661D01*
X16339Y-59092D02*
X21063Y-54368D01*
X16339Y-58947D02*
X21063Y-63672D01*
X16339Y-64103D02*
X21063Y-59379D01*
X16339Y-57277D02*
X21063Y-62001D01*
X16339Y-62433D02*
X21063Y-57709D01*
X16339Y-75796D02*
X21063Y-71071D01*
X16339Y-72310D02*
X21063Y-77034D01*
X16339Y-74125D02*
X21063Y-69401D01*
X16339Y-70640D02*
X21063Y-75364D01*
X16339Y-79136D02*
X21063Y-74412D01*
X16339Y-75651D02*
X21063Y-80375D01*
X16339Y-77466D02*
X21063Y-72742D01*
X16339Y-73980D02*
X21063Y-78705D01*
X16339Y-62288D02*
X21063Y-67012D01*
X16339Y-67444D02*
X21063Y-62720D01*
X16339Y-60618D02*
X21063Y-65342D01*
X16339Y-65774D02*
X21063Y-61049D01*
X16339Y-65629D02*
X21063Y-70353D01*
X16339Y-70785D02*
X21063Y-66060D01*
X16339Y-63958D02*
X21063Y-68683D01*
X16339Y-69114D02*
X21063Y-64390D01*
X16339Y-85673D02*
X21063Y-90397D01*
X16339Y-89158D02*
X21063Y-84434D01*
X16339Y-90829D02*
X21063Y-86104D01*
X16339Y-87488D02*
X21063Y-82763D01*
X16339Y-84002D02*
X21063Y-88727D01*
X16339Y-89013D02*
X21063Y-93738D01*
X16339Y-94169D02*
X21063Y-89445D01*
X16339Y-87343D02*
X21063Y-92067D01*
X16339Y-92499D02*
X21063Y-87774D01*
X16339Y-82477D02*
X21063Y-77753D01*
X16339Y-78991D02*
X21063Y-83716D01*
X16339Y-80807D02*
X21063Y-76082D01*
X16339Y-77321D02*
X21063Y-82045D01*
X16339Y-85818D02*
X21063Y-81093D01*
X16339Y-82332D02*
X21063Y-87056D01*
X16339Y-84147D02*
X21063Y-79423D01*
X16339Y-80662D02*
X21063Y-85386D01*
X16339Y-117554D02*
X21063Y-112829D01*
X16339Y-114068D02*
X21063Y-118793D01*
X16339Y-115884D02*
X21063Y-111159D01*
X16339Y-112398D02*
X21063Y-117122D01*
X16339Y-120895D02*
X21063Y-116170D01*
X16339Y-117409D02*
X21063Y-122133D01*
X16339Y-119224D02*
X21063Y-114500D01*
X16339Y-115738D02*
X21063Y-120463D01*
X16339Y-92354D02*
X21063Y-97078D01*
X16339Y-97510D02*
X21063Y-92785D01*
X16339Y-90684D02*
X21063Y-95408D01*
X16339Y-95840D02*
X21063Y-91115D01*
X16339Y-95695D02*
X21063Y-100419D01*
X16339Y-100850D02*
X21063Y-96126D01*
X16339Y-94024D02*
X21063Y-98749D01*
X16339Y-99180D02*
X21063Y-94456D01*
X16339Y-125906D02*
X21063Y-121181D01*
X16339Y-120749D02*
X21063Y-125474D01*
X16339Y-122420D02*
X21063Y-127144D01*
X16339Y-122565D02*
X21063Y-117840D01*
X16339Y-119079D02*
X21063Y-123804D01*
X18509Y-130416D02*
X21063Y-127862D01*
X19909Y-130686D02*
X21063Y-129533D01*
Y-132410D02*
Y-22288D01*
X16339Y-124090D02*
X21063Y-128815D01*
X16339Y-129246D02*
X21063Y-124522D01*
X16339Y-124235D02*
X21063Y-119511D01*
X16339Y-127576D02*
X21063Y-122851D01*
X16339Y-125760D02*
X21063Y-130485D01*
X16339Y-130917D02*
X21063Y-126192D01*
X16339Y-127431D02*
X19381Y-130473D01*
X16339Y-129101D02*
X17845Y-130607D01*
X20757Y-131509D02*
X21063Y-131203D01*
X16339Y-130772D02*
X16934Y-131367D01*
X16339Y-134257D02*
X16808Y-133787D01*
X20109Y-134543D02*
X21063Y-135496D01*
X18853Y-134956D02*
X21063Y-137166D01*
X16339Y-134112D02*
X21063Y-138837D01*
X16339Y-139268D02*
X21063Y-134544D01*
X16339Y-135927D02*
X17631Y-134635D01*
X16339Y-137598D02*
X18988Y-134949D01*
X16339Y-137453D02*
X21063Y-142177D01*
X16339Y-142609D02*
X21063Y-137884D01*
X16339Y-135783D02*
X21063Y-140507D01*
X16339Y-140938D02*
X21063Y-136214D01*
X6102Y-27570D02*
X10827Y-22846D01*
X6102Y-20315D02*
X10827Y-25040D01*
X6102Y-23656D02*
X10827Y-28381D01*
X7238Y-18110D02*
X10827Y-21699D01*
X9147Y-19987D02*
X10827Y-21667D01*
X16339Y-27211D02*
X21063Y-31935D01*
X16339Y-32367D02*
X21063Y-27643D01*
X16339Y-25541D02*
X21063Y-30265D01*
X16339Y-30697D02*
X21063Y-25972D01*
X6102Y-29241D02*
X10827Y-24516D01*
X6102Y-25326D02*
X10827Y-30051D01*
X5949Y-18492D02*
X10827Y-23370D01*
X6102Y-21986D02*
X10827Y-26710D01*
X6102Y-32581D02*
X10827Y-27857D01*
X6102Y-28667D02*
X10827Y-33391D01*
X6102Y-30911D02*
X10827Y-26186D01*
X6102Y-26997D02*
X10827Y-31721D01*
X16339Y-28881D02*
X21063Y-33606D01*
X16339Y-34037D02*
X21063Y-29313D01*
X6102Y-34252D02*
X10827Y-29527D01*
X6102Y-30337D02*
X10827Y-35062D01*
X16339Y-30552D02*
X21063Y-35276D01*
X16339Y-35708D02*
X21063Y-30983D01*
X6102Y-35922D02*
X10827Y-31198D01*
X6102Y-32008D02*
X10827Y-36732D01*
X6102Y-40933D02*
X10827Y-36209D01*
X6102Y-37019D02*
X10827Y-41743D01*
X6102Y-37592D02*
X10827Y-32868D01*
X6102Y-33678D02*
X10827Y-38403D01*
X6102Y-49284D02*
X10827Y-44560D01*
X6102Y-45370D02*
X10827Y-50095D01*
X6102Y-42603D02*
X10827Y-37879D01*
X6102Y-43700D02*
X10827Y-48425D01*
X8340Y-53728D02*
X10827Y-51241D01*
X6102Y-48711D02*
X10827Y-53435D01*
X9670Y-54069D02*
X10827Y-52912D01*
X6102Y-50955D02*
X10827Y-46231D01*
X6102Y-47041D02*
X10827Y-51765D01*
X6102Y-50381D02*
X10827Y-55106D01*
X10036Y-57656D02*
X10827Y-58447D01*
X6102Y-54295D02*
X10827Y-49571D01*
X10476Y-54932D02*
X10827Y-54582D01*
X6102Y-58733D02*
X10827Y-63458D01*
X6102Y-64318D02*
X10827Y-59593D01*
X6102Y-52625D02*
X10827Y-47901D01*
X6102Y-62647D02*
X10827Y-57923D01*
X6102Y-62074D02*
X10827Y-66798D01*
X6102Y-67658D02*
X10827Y-62934D01*
X6102Y-60403D02*
X10827Y-65128D01*
X6102Y-65988D02*
X10827Y-61263D01*
X6102Y-79351D02*
X10827Y-74626D01*
X6102Y-75436D02*
X10827Y-80161D01*
X6102Y-77680D02*
X10827Y-72956D01*
X6102Y-73766D02*
X10827Y-78490D01*
X6102Y-82691D02*
X10827Y-77967D01*
X6102Y-78777D02*
X10827Y-83501D01*
X6102Y-81021D02*
X10827Y-76296D01*
X6102Y-77107D02*
X10827Y-81831D01*
X6102Y-65414D02*
X10827Y-70139D01*
X6102Y-72669D02*
X10827Y-67945D01*
X6102Y-63744D02*
X10827Y-68468D01*
X6102Y-69328D02*
X10827Y-64604D01*
X6102Y-76010D02*
X10827Y-71285D01*
X6102Y-72096D02*
X10827Y-76820D01*
X6102Y-68755D02*
X10827Y-73479D01*
X6102Y-70425D02*
X10827Y-75150D01*
X6102Y-87702D02*
X10827Y-82978D01*
X6102Y-82118D02*
X10827Y-86842D01*
X6102Y-83788D02*
X10827Y-88512D01*
X6102Y-84361D02*
X10827Y-79637D01*
X6102Y-80447D02*
X10827Y-85172D01*
X16339Y-99035D02*
X21063Y-103760D01*
X16339Y-104191D02*
X21063Y-99467D01*
X16339Y-97365D02*
X21063Y-102089D01*
X16339Y-102521D02*
X21063Y-97796D01*
X6102Y-85458D02*
X10827Y-90183D01*
X6102Y-87129D02*
X10827Y-91853D01*
X6102Y-86032D02*
X10827Y-81307D01*
X6102Y-89372D02*
X10827Y-84648D01*
X6102Y-102735D02*
X10827Y-98011D01*
X6102Y-98821D02*
X10827Y-103545D01*
X6102Y-101065D02*
X10827Y-96340D01*
X6102Y-97151D02*
X10827Y-101875D01*
X16339Y-102376D02*
X21063Y-107100D01*
X16339Y-107532D02*
X21063Y-102807D01*
X16339Y-100706D02*
X21063Y-105430D01*
X16339Y-105861D02*
X21063Y-101137D01*
X16339Y-105717D02*
X21063Y-110441D01*
X16339Y-109057D02*
X21063Y-113782D01*
X16339Y-104046D02*
X21063Y-108771D01*
X16339Y-109202D02*
X21063Y-104478D01*
X6102Y-102162D02*
X10827Y-106886D01*
X16339Y-110872D02*
X21063Y-106148D01*
X6102Y-104405D02*
X10827Y-99681D01*
X6102Y-106076D02*
X10827Y-101351D01*
X16339Y-114213D02*
X21063Y-109489D01*
X16339Y-110728D02*
X21063Y-115452D01*
X16339Y-107387D02*
X21063Y-112111D01*
X16339Y-112543D02*
X21063Y-107818D01*
X6102Y-108843D02*
X10827Y-113567D01*
X6102Y-112757D02*
X10827Y-108033D01*
X6102Y-117768D02*
X10827Y-113044D01*
X6102Y-111087D02*
X10827Y-106362D01*
X6102Y-107173D02*
X10827Y-111897D01*
X6102Y-115524D02*
X10827Y-120249D01*
X6102Y-121109D02*
X10827Y-116384D01*
X6102Y-113854D02*
X10827Y-118578D01*
X6102Y-119438D02*
X10827Y-114714D01*
X6102Y-88799D02*
X10827Y-93523D01*
X6102Y-100491D02*
X10827Y-105216D01*
X6102Y-91043D02*
X10827Y-86318D01*
X6102Y-92713D02*
X10827Y-87989D01*
X6102Y-109416D02*
X10827Y-104692D01*
X6102Y-105502D02*
X10827Y-110227D01*
X6102Y-107746D02*
X10827Y-103022D01*
X6102Y-103832D02*
X10827Y-108556D01*
X6102Y-125546D02*
X10827Y-130271D01*
X6102Y-131131D02*
X10827Y-126406D01*
X6102Y-123876D02*
X10827Y-128600D01*
X6102Y-129460D02*
X10827Y-124736D01*
X6102Y-128887D02*
X10827Y-133611D01*
X6102Y-134471D02*
X10827Y-129747D01*
X6102Y-127217D02*
X10827Y-131941D01*
X6102Y-132801D02*
X10827Y-128077D01*
X6102Y-118865D02*
X10827Y-123589D01*
X6102Y-124449D02*
X10827Y-119725D01*
X6102Y-117195D02*
X10827Y-121919D01*
X6102Y-122779D02*
X10827Y-118055D01*
X6102Y-122206D02*
X10827Y-126930D01*
X6102Y-127790D02*
X10827Y-123066D01*
X6102Y-120535D02*
X10827Y-125260D01*
X6102Y-126120D02*
X10827Y-121395D01*
X16339Y-175870D02*
X21063Y-180595D01*
X16339Y-179356D02*
X21063Y-174632D01*
X16339Y-181026D02*
X21063Y-176302D01*
X16339Y-177686D02*
X21063Y-172961D01*
X16339Y-174200D02*
X21063Y-178925D01*
X16339Y-179211D02*
X21063Y-183935D01*
X16339Y-184367D02*
X21063Y-179643D01*
X16339Y-177541D02*
X21063Y-182265D01*
X16339Y-182697D02*
X21063Y-177972D01*
X16339Y-172675D02*
X21063Y-167950D01*
X16339Y-169189D02*
X21063Y-173914D01*
X16339Y-171004D02*
X21063Y-166280D01*
X16339Y-167519D02*
X21063Y-172243D01*
X16339Y-176015D02*
X21063Y-171291D01*
X16339Y-172530D02*
X21063Y-177254D01*
X16339Y-174345D02*
X21063Y-169621D01*
X16339Y-170859D02*
X21063Y-175584D01*
X16339Y-189233D02*
X21063Y-193957D01*
X16339Y-194389D02*
X21063Y-189665D01*
X16339Y-187563D02*
X21063Y-192287D01*
X16339Y-192719D02*
X21063Y-187994D01*
X16339Y-192574D02*
X21063Y-197298D01*
X16339Y-197730D02*
X21063Y-193005D01*
X16339Y-190903D02*
X21063Y-195628D01*
X16339Y-196059D02*
X21063Y-191335D01*
X16339Y-182552D02*
X21063Y-187276D01*
X16339Y-187708D02*
X21063Y-182983D01*
X16339Y-180881D02*
X21063Y-185606D01*
X16339Y-186037D02*
X21063Y-181313D01*
X16339Y-185892D02*
X21063Y-190617D01*
X16339Y-191048D02*
X21063Y-186324D01*
X16339Y-184222D02*
X21063Y-188946D01*
X16339Y-189378D02*
X21063Y-184654D01*
X16339Y-152631D02*
X21063Y-147906D01*
X16339Y-147475D02*
X21063Y-152199D01*
X16339Y-149145D02*
X21063Y-153869D01*
X16339Y-145804D02*
X21063Y-150529D01*
X16339Y-150960D02*
X21063Y-146236D01*
X16339Y-155971D02*
X21063Y-151247D01*
X16339Y-152486D02*
X21063Y-157210D01*
X16339Y-154301D02*
X21063Y-149577D01*
X16339Y-150815D02*
X21063Y-155540D01*
X16339Y-140794D02*
X21063Y-145518D01*
X16339Y-145949D02*
X21063Y-141225D01*
X16339Y-139123D02*
X21063Y-143848D01*
X16339Y-144279D02*
X21063Y-139555D01*
X16339Y-144134D02*
X21063Y-148858D01*
X16339Y-149290D02*
X21063Y-144566D01*
X16339Y-142464D02*
X21063Y-147188D01*
X16339Y-147620D02*
X21063Y-142895D01*
X16339Y-165993D02*
X21063Y-161269D01*
X16339Y-162508D02*
X21063Y-167232D01*
X16339Y-164323D02*
X21063Y-159599D01*
X16339Y-160837D02*
X21063Y-165562D01*
X16339Y-169334D02*
X21063Y-164610D01*
X16339Y-165848D02*
X21063Y-170573D01*
X16339Y-167664D02*
X21063Y-162939D01*
X16339Y-164178D02*
X21063Y-168903D01*
X16339Y-159312D02*
X21063Y-154588D01*
X16339Y-155826D02*
X21063Y-160551D01*
X16339Y-157642D02*
X21063Y-152917D01*
X16339Y-154156D02*
X21063Y-158880D01*
X16339Y-162653D02*
X21063Y-157928D01*
X16339Y-159167D02*
X21063Y-163891D01*
X16339Y-160982D02*
X21063Y-156258D01*
X16339Y-157497D02*
X21063Y-162221D01*
X16339Y-207752D02*
X21063Y-203027D01*
X16339Y-202596D02*
X21063Y-207320D01*
X16339Y-204266D02*
X21063Y-208990D01*
X16339Y-200925D02*
X21063Y-205650D01*
X16339Y-206081D02*
X21063Y-201357D01*
X16339Y-211092D02*
X21063Y-206368D01*
X16339Y-207607D02*
X21063Y-212331D01*
X16339Y-209422D02*
X21063Y-204697D01*
X16339Y-205936D02*
X21063Y-210661D01*
X16339Y-195914D02*
X21063Y-200639D01*
X16339Y-201070D02*
X21063Y-196346D01*
X16339Y-194244D02*
X21063Y-198969D01*
X16339Y-199400D02*
X21063Y-194676D01*
X16339Y-199255D02*
X21063Y-203979D01*
X16339Y-204411D02*
X21063Y-199687D01*
X16339Y-197585D02*
X21063Y-202309D01*
X16339Y-202741D02*
X21063Y-198016D01*
X16339Y-221114D02*
X21063Y-216390D01*
X16339Y-217629D02*
X21063Y-222353D01*
X16339Y-219444D02*
X21063Y-214720D01*
X16339Y-215958D02*
X21063Y-220683D01*
X16339Y-224455D02*
X21063Y-219730D01*
X16339Y-220969D02*
X21063Y-225694D01*
X16339Y-222785D02*
X21063Y-218060D01*
X16339Y-219299D02*
X21063Y-224023D01*
X16339Y-214433D02*
X21063Y-209708D01*
X16339Y-210947D02*
X21063Y-215672D01*
X16339Y-212763D02*
X21063Y-208038D01*
X16339Y-209277D02*
X21063Y-214001D01*
X16339Y-217774D02*
X21063Y-213049D01*
X16339Y-214288D02*
X21063Y-219012D01*
X16339Y-216103D02*
X21063Y-211379D01*
X16339Y-212618D02*
X21063Y-217342D01*
X16339Y-229466D02*
X21063Y-224742D01*
X16339Y-224310D02*
X21063Y-229034D01*
X19107Y-285159D02*
X21063Y-283203D01*
X20227Y-285709D02*
X21063Y-284873D01*
X20568Y-288709D02*
X21063Y-288214D01*
X20583Y-288687D02*
X21063Y-289166D01*
X16339Y-227796D02*
X21063Y-223071D01*
X16339Y-225980D02*
X21063Y-230705D01*
X16339Y-226125D02*
X21063Y-221401D01*
X16339Y-222640D02*
X21063Y-227364D01*
X16339Y-232807D02*
X21063Y-228082D01*
X16339Y-229321D02*
X21063Y-234045D01*
X16339Y-231136D02*
X21063Y-226412D01*
X16339Y-227651D02*
X21063Y-232375D01*
X19684Y-289458D02*
X21063Y-290837D01*
X18176Y-289620D02*
X21063Y-292507D01*
X16339Y-289453D02*
X21063Y-294177D01*
X16339Y-291268D02*
X18027Y-289579D01*
X16339Y-296279D02*
X21063Y-291555D01*
X16339Y-292793D02*
X21063Y-297518D01*
X16339Y-294609D02*
X21063Y-289884D01*
X16339Y-291123D02*
X21063Y-295848D01*
X16339Y-299620D02*
X21063Y-294895D01*
X16339Y-323004D02*
X21063Y-318280D01*
X16339Y-297950D02*
X21063Y-293225D01*
X16339Y-294464D02*
X21063Y-299188D01*
X16339Y-321189D02*
X21063Y-325914D01*
X16339Y-326345D02*
X21063Y-321621D01*
X16339Y-319519D02*
X21063Y-324243D01*
X16339Y-324675D02*
X21063Y-319950D01*
X16339Y-241158D02*
X21063Y-236434D01*
X16339Y-236002D02*
X21063Y-240727D01*
X16339Y-237673D02*
X21063Y-242397D01*
X16339Y-234332D02*
X21063Y-239056D01*
X16339Y-239488D02*
X21063Y-234764D01*
X16339Y-244499D02*
X21063Y-239774D01*
X16339Y-241013D02*
X21063Y-245738D01*
X16339Y-242829D02*
X21063Y-238104D01*
X16339Y-239343D02*
X21063Y-244067D01*
X6102Y-176230D02*
X10827Y-171505D01*
X16339Y-234477D02*
X21063Y-229752D01*
X6102Y-174559D02*
X10827Y-169835D01*
X6102Y-170645D02*
X10827Y-175370D01*
X16339Y-232662D02*
X21063Y-237386D01*
X16339Y-237818D02*
X21063Y-233093D01*
X16339Y-230991D02*
X21063Y-235716D01*
X16339Y-236147D02*
X21063Y-231423D01*
X16339Y-254521D02*
X21063Y-249797D01*
X16339Y-251035D02*
X21063Y-255760D01*
X16339Y-252851D02*
X21063Y-248126D01*
X16339Y-249365D02*
X21063Y-254089D01*
X16339Y-257861D02*
X21063Y-253137D01*
X16339Y-254376D02*
X21063Y-259100D01*
X16339Y-256191D02*
X21063Y-251467D01*
X16339Y-252706D02*
X21063Y-257430D01*
X16339Y-247840D02*
X21063Y-243115D01*
X16339Y-244354D02*
X21063Y-249078D01*
X16339Y-246169D02*
X21063Y-241445D01*
X16339Y-242684D02*
X21063Y-247408D01*
X16339Y-251180D02*
X21063Y-246456D01*
X16339Y-247695D02*
X21063Y-252419D01*
X16339Y-249510D02*
X21063Y-244785D01*
X16339Y-246024D02*
X21063Y-250749D01*
X6102Y-156186D02*
X10827Y-151461D01*
X6102Y-150601D02*
X10827Y-155326D01*
X6102Y-152271D02*
X10827Y-156996D01*
X6102Y-148931D02*
X10827Y-153655D01*
X6102Y-154515D02*
X10827Y-149791D01*
X6102Y-159526D02*
X10827Y-154802D01*
X6102Y-155612D02*
X10827Y-160337D01*
X6102Y-157856D02*
X10827Y-153132D01*
X6102Y-153942D02*
X10827Y-158666D01*
X6102Y-144493D02*
X10827Y-139769D01*
X6102Y-140579D02*
X10827Y-145304D01*
X6102Y-142823D02*
X10827Y-138099D01*
X6102Y-138909D02*
X10827Y-143633D01*
X6102Y-147260D02*
X10827Y-151985D01*
X6102Y-152845D02*
X10827Y-148121D01*
X6102Y-145590D02*
X10827Y-150315D01*
X6102Y-151175D02*
X10827Y-146450D01*
X6102Y-169548D02*
X10827Y-164824D01*
X6102Y-165634D02*
X10827Y-170359D01*
X6102Y-167878D02*
X10827Y-163154D01*
X6102Y-163964D02*
X10827Y-168688D01*
X6102Y-172889D02*
X10827Y-168165D01*
X6102Y-168975D02*
X10827Y-173699D01*
X6102Y-171219D02*
X10827Y-166494D01*
X6102Y-167305D02*
X10827Y-172029D01*
X6102Y-162867D02*
X10827Y-158143D01*
X6102Y-158953D02*
X10827Y-163677D01*
X6102Y-161197D02*
X10827Y-156472D01*
X6102Y-157282D02*
X10827Y-162007D01*
X6102Y-166208D02*
X10827Y-161483D01*
X6102Y-162294D02*
X10827Y-167018D01*
X6102Y-164537D02*
X10827Y-159813D01*
X6102Y-160623D02*
X10827Y-165348D01*
X16339Y-266068D02*
X21063Y-270793D01*
X16339Y-269554D02*
X21063Y-264829D01*
X16339Y-271224D02*
X21063Y-266500D01*
X16339Y-267883D02*
X21063Y-263159D01*
X16339Y-264398D02*
X21063Y-269122D01*
X16339Y-269409D02*
X21063Y-274133D01*
X16339Y-274565D02*
X21063Y-269840D01*
X16339Y-267739D02*
X21063Y-272463D01*
X16339Y-272895D02*
X21063Y-268170D01*
X16339Y-262873D02*
X21063Y-258148D01*
X16339Y-259387D02*
X21063Y-264111D01*
X16339Y-261202D02*
X21063Y-256478D01*
X16339Y-257717D02*
X21063Y-262441D01*
X16339Y-266213D02*
X21063Y-261489D01*
X16339Y-262728D02*
X21063Y-267452D01*
X16339Y-264543D02*
X21063Y-259818D01*
X16339Y-261057D02*
X21063Y-265782D01*
X16339Y-279431D02*
X21063Y-284155D01*
X16339Y-284587D02*
X21063Y-279862D01*
X16339Y-277761D02*
X21063Y-282485D01*
X16339Y-282916D02*
X21063Y-278192D01*
X16339Y-309497D02*
X21063Y-314221D01*
X16339Y-314653D02*
X21063Y-309928D01*
X16339Y-281101D02*
X21063Y-285826D01*
X16339Y-286257D02*
X21063Y-281533D01*
X16339Y-272749D02*
X21063Y-277474D01*
X16339Y-277906D02*
X21063Y-273181D01*
X16339Y-271079D02*
X21063Y-275804D01*
X16339Y-276235D02*
X21063Y-271511D01*
X16339Y-276090D02*
X21063Y-280815D01*
X16339Y-281246D02*
X21063Y-276522D01*
X16339Y-274420D02*
X21063Y-279144D01*
X16339Y-279576D02*
X21063Y-274851D01*
X16339Y-302960D02*
X21063Y-298236D01*
X16339Y-299475D02*
X21063Y-304199D01*
X16339Y-301290D02*
X21063Y-296566D01*
X16339Y-297804D02*
X21063Y-302529D01*
X16339Y-306301D02*
X21063Y-301577D01*
X16339Y-302816D02*
X21063Y-307540D01*
X16339Y-304631D02*
X21063Y-299906D01*
X16339Y-301145D02*
X21063Y-305870D01*
X16339Y-259532D02*
X21063Y-254807D01*
X16339Y-256046D02*
X21063Y-260771D01*
X16339Y-282771D02*
X18689Y-285122D01*
X16339Y-284442D02*
X17416Y-285519D01*
X16339Y-292938D02*
X20008Y-289269D01*
X16339Y-296134D02*
X21063Y-300859D01*
X16339Y-286112D02*
X16644Y-286418D01*
X16339Y-289598D02*
X17008Y-288928D01*
X16339Y-317993D02*
X21063Y-313269D01*
X16339Y-314508D02*
X21063Y-319232D01*
X16339Y-316323D02*
X21063Y-311599D01*
X16339Y-312837D02*
X21063Y-317562D01*
X16339Y-321334D02*
X21063Y-316610D01*
X16339Y-317848D02*
X21063Y-322573D01*
X16339Y-319664D02*
X21063Y-314939D01*
X16339Y-316178D02*
X21063Y-320902D01*
X16339Y-309642D02*
X21063Y-304917D01*
X16339Y-306156D02*
X21063Y-310881D01*
X16339Y-307971D02*
X21063Y-303247D01*
X16339Y-304486D02*
X21063Y-309210D01*
X16339Y-312982D02*
X21063Y-308258D01*
X16339Y-311167D02*
X21063Y-315892D01*
X16339Y-311312D02*
X21063Y-306588D01*
X16339Y-307826D02*
X21063Y-312551D01*
X6102Y-35348D02*
X10827Y-40073D01*
X6102Y-39263D02*
X10827Y-34538D01*
X6102Y-38689D02*
X10827Y-43413D01*
X6102Y-24230D02*
X9746Y-20586D01*
X6102Y-25900D02*
X10581Y-21421D01*
X6102Y-44273D02*
X10827Y-39549D01*
X6102Y-40359D02*
X10827Y-45084D01*
X8943Y-58233D02*
X10827Y-60117D01*
X6102Y-47614D02*
X10827Y-42890D01*
X6102Y-57063D02*
X10827Y-61787D01*
X6102Y-45944D02*
X10827Y-41219D01*
X6102Y-42030D02*
X10827Y-46754D01*
X6102Y-74339D02*
X10827Y-69615D01*
X6102Y-94383D02*
X10827Y-89659D01*
X6102Y-70999D02*
X10827Y-66274D01*
X6102Y-67085D02*
X10827Y-71809D01*
X6102Y-112184D02*
X10827Y-116908D01*
X6102Y-130557D02*
X10827Y-135282D01*
X6102Y-110513D02*
X10827Y-115238D01*
X6102Y-116098D02*
X10827Y-111373D01*
X6102Y-137812D02*
X10827Y-133088D01*
X6102Y-133898D02*
X10827Y-138622D01*
X6102Y-136142D02*
X10827Y-131417D01*
X6102Y-132228D02*
X10827Y-136952D01*
X6102Y-92140D02*
X10827Y-96864D01*
X6102Y-97724D02*
X10827Y-93000D01*
X6102Y-90469D02*
X10827Y-95194D01*
X6102Y-96054D02*
X10827Y-91329D01*
X6102Y-95480D02*
X10827Y-100205D01*
X6102Y-114427D02*
X10827Y-109703D01*
X6102Y-93810D02*
X10827Y-98534D01*
X6102Y-99394D02*
X10827Y-94670D01*
X8858Y-19291D02*
Y-18574D01*
X8839Y-18148D02*
X8843Y-18500D01*
X6102Y-20889D02*
X8839Y-18152D01*
X6102Y-30709D02*
Y-19291D01*
Y-57636D02*
X6530Y-57209D01*
X5752Y-18110D02*
X8837D01*
X6102Y-22559D02*
X8952Y-19710D01*
X6101Y-19220D02*
X7211Y-18110D01*
X6102Y-52052D02*
X7857Y-53807D01*
X6102Y-60977D02*
X8824Y-58255D01*
X6102Y-53722D02*
X6813Y-54433D01*
X6102Y-59307D02*
X7393Y-58016D01*
X-524Y-113909D02*
X1772Y-116205D01*
X-823Y-119683D02*
X1772Y-117088D01*
X1147Y-112239D02*
X1772Y-112864D01*
X312Y-113074D02*
X1772Y-114534D01*
X298Y-121413D02*
X1772Y-122886D01*
X7Y-122791D02*
X1772Y-124556D01*
X9Y-120520D02*
X1772Y-118758D01*
X297Y-121903D02*
X1772Y-120428D01*
X-1359Y-114744D02*
X1772Y-117875D01*
X-2196Y-119385D02*
X1772Y-115417D01*
X-2194Y-115580D02*
X1772Y-119545D01*
X-828Y-123627D02*
X1772Y-126226D01*
X-2204Y-123921D02*
X1772Y-127897D01*
X6102Y-173986D02*
X10827Y-178710D01*
X6102Y-177900D02*
X10827Y-173176D01*
X6102Y-179570D02*
X10827Y-174846D01*
X6102Y-149504D02*
X10827Y-144780D01*
X6102Y-172316D02*
X10827Y-177040D01*
X6102Y-177327D02*
X10827Y-182051D01*
X6102Y-182911D02*
X10827Y-178187D01*
X6102Y-175656D02*
X10827Y-180381D01*
X6102Y-181241D02*
X10827Y-176516D01*
X6102Y-141153D02*
X10827Y-136428D01*
X6102Y-137239D02*
X10827Y-141963D01*
X6102Y-139482D02*
X10827Y-134758D01*
X6102Y-135568D02*
X10827Y-140293D01*
X6102Y-147834D02*
X10827Y-143110D01*
X6102Y-143920D02*
X10827Y-148644D01*
X6102Y-146164D02*
X10827Y-141439D01*
X6102Y-142250D02*
X10827Y-146974D01*
X6102Y-187348D02*
X10827Y-192073D01*
X6102Y-192933D02*
X10827Y-188208D01*
X6102Y-185678D02*
X10827Y-190402D01*
X6102Y-191263D02*
X10827Y-186538D01*
X6102Y-190689D02*
X10827Y-195413D01*
X6102Y-196274D02*
X10827Y-191549D01*
X6102Y-189019D02*
X10827Y-193743D01*
X6102Y-194603D02*
X10827Y-189879D01*
X6102Y-180667D02*
X10827Y-185392D01*
X6102Y-186252D02*
X10827Y-181527D01*
X6102Y-178997D02*
X10827Y-183721D01*
X6102Y-184581D02*
X10827Y-179857D01*
X6102Y-184008D02*
X10827Y-188732D01*
X6102Y-189592D02*
X10827Y-184868D01*
X6102Y-182337D02*
X10827Y-187062D01*
X6102Y-187922D02*
X10827Y-183197D01*
X6102Y-200711D02*
X10827Y-205435D01*
X6102Y-204625D02*
X10827Y-199901D01*
X6102Y-206296D02*
X10827Y-201571D01*
X6102Y-202955D02*
X10827Y-198231D01*
X6102Y-199041D02*
X10827Y-203765D01*
X6102Y-204052D02*
X10827Y-208776D01*
X6102Y-209636D02*
X10827Y-204912D01*
X6102Y-202381D02*
X10827Y-207106D01*
X6102Y-207966D02*
X10827Y-203241D01*
X6102Y-194030D02*
X10827Y-198754D01*
X6102Y-199614D02*
X10827Y-194890D01*
X6102Y-192359D02*
X10827Y-197084D01*
X6102Y-197944D02*
X10827Y-193219D01*
X6102Y-195700D02*
X10827Y-200425D01*
X6102Y-201285D02*
X10827Y-196560D01*
X6102Y-221007D02*
Y-30709D01*
Y-197370D02*
X10827Y-202095D01*
X6102Y-212977D02*
X10827Y-208253D01*
X6102Y-209063D02*
X10827Y-213787D01*
X6102Y-205722D02*
X10827Y-210447D01*
X6102Y-211307D02*
X10827Y-206582D01*
X7152Y-220279D02*
X10827Y-216604D01*
X8760Y-220341D02*
X10827Y-218274D01*
X6102Y-214647D02*
X10827Y-209923D01*
X6102Y-210733D02*
X10827Y-215458D01*
X6102Y-212403D02*
X10827Y-217128D01*
X6102Y-217988D02*
X10827Y-213264D01*
X6102Y-207392D02*
X10827Y-212117D01*
X6102Y-216318D02*
X10827Y-211593D01*
X6102Y-215744D02*
X10827Y-220468D01*
X6102Y-217414D02*
X10827Y-222139D01*
X6102Y-214074D02*
X10827Y-218798D01*
X6102Y-219658D02*
X10827Y-214934D01*
X-6091Y-133302D02*
X1772Y-125439D01*
X-6092Y-131633D02*
X1772Y-123769D01*
X-6089Y-134971D02*
X1772Y-127110D01*
X-3029Y-116415D02*
X1772Y-121216D01*
X-6094Y-129964D02*
X1772Y-122099D01*
X-6086Y-138309D02*
X1772Y-130450D01*
X-6092Y-131725D02*
X1772Y-139589D01*
X-6088Y-136640D02*
X1772Y-128780D01*
X-6094Y-130053D02*
X1772Y-137919D01*
X-6101Y-121620D02*
X1772Y-113747D01*
X-6101Y-121695D02*
X1772Y-129567D01*
X-6103Y-119489D02*
X1772Y-111614D01*
X-6103Y-119951D02*
X1772Y-112077D01*
X-6097Y-126710D02*
X1772Y-134578D01*
X-6095Y-128382D02*
X1772Y-136249D01*
X-6100Y-123366D02*
X1772Y-131237D01*
X-6098Y-125038D02*
X1772Y-132908D01*
X-6078Y-148322D02*
X1772Y-140472D01*
X-6073Y-153458D02*
X1772Y-161303D01*
X-6081Y-144984D02*
X1772Y-137132D01*
X-6079Y-146653D02*
X1772Y-138802D01*
X-6063Y-165011D02*
X1772Y-157176D01*
X-6069Y-158474D02*
X1772Y-166314D01*
X-6065Y-163342D02*
X1772Y-155505D01*
X-6070Y-156802D02*
X1772Y-164644D01*
X-6084Y-141646D02*
X1772Y-133791D01*
X-6089Y-135069D02*
X1772Y-142930D01*
X-6085Y-139978D02*
X1772Y-132121D01*
X-6091Y-133397D02*
X1772Y-141260D01*
X-6086Y-138412D02*
X1772Y-146271D01*
X-6085Y-140084D02*
X1772Y-147941D01*
X-6082Y-143315D02*
X1772Y-135461D01*
X-6088Y-136741D02*
X1772Y-144600D01*
X-3864Y-117250D02*
X-1727Y-119387D01*
X-4699Y-118085D02*
X-3106Y-119678D01*
X-5534Y-118920D02*
X-3942Y-120513D01*
X-6073Y-153329D02*
X1772Y-145483D01*
X-6079Y-146771D02*
X1772Y-154622D01*
X-6076Y-149991D02*
X1772Y-142143D01*
X-6075Y-151660D02*
X1772Y-143813D01*
X-6098Y-124958D02*
X-3939Y-122799D01*
X-6097Y-126626D02*
X-3102Y-123631D01*
X-6102Y-120023D02*
X-4236Y-121889D01*
X-6100Y-123289D02*
X-4237Y-121426D01*
X-6082Y-143428D02*
X1772Y-151281D01*
X-6081Y-145099D02*
X1772Y-152952D01*
X-6095Y-128295D02*
X-1719Y-123919D01*
X-6084Y-141756D02*
X1772Y-149611D01*
X-6067Y-160146D02*
X1772Y-167985D01*
X-6060Y-168348D02*
X1772Y-160516D01*
X-6066Y-161673D02*
X1772Y-153835D01*
X-6062Y-166680D02*
X1772Y-158846D01*
X-6065Y-163489D02*
X1772Y-171326D01*
X-6058Y-171686D02*
X1772Y-163857D01*
X-6066Y-161817D02*
X1772Y-169655D01*
X-6059Y-170017D02*
X1772Y-162187D01*
X-6071Y-156666D02*
X1772Y-148824D01*
X-6076Y-150115D02*
X1772Y-157963D01*
X-6072Y-154997D02*
X1772Y-147154D01*
X-6078Y-148443D02*
X1772Y-156292D01*
X-6068Y-160004D02*
X1772Y-152165D01*
X-6072Y-155130D02*
X1772Y-162974D01*
X-6069Y-158335D02*
X1772Y-150494D01*
X-6075Y-151787D02*
X1772Y-159633D01*
X-6025Y-208401D02*
X1772Y-200604D01*
X-6027Y-206733D02*
X1772Y-198934D01*
X-6031Y-201940D02*
X1772Y-209743D01*
X-6030Y-203395D02*
X1772Y-195593D01*
X-6028Y-205064D02*
X1772Y-197264D01*
X-6023Y-211739D02*
X1772Y-203945D01*
X-6028Y-205284D02*
X1772Y-213084D01*
X-6024Y-210070D02*
X1772Y-202275D01*
X-6030Y-203612D02*
X1772Y-211413D01*
X-6038Y-193581D02*
X1772Y-201391D01*
X-6031Y-201726D02*
X1772Y-193923D01*
X-6040Y-191910D02*
X1772Y-199721D01*
X-6033Y-200057D02*
X1772Y-192253D01*
X-6034Y-198597D02*
X1772Y-206402D01*
X-6033Y-200268D02*
X1772Y-208073D01*
X-6037Y-195253D02*
X1772Y-203062D01*
X-6036Y-196925D02*
X1772Y-204732D01*
X-6015Y-220084D02*
X1772Y-212297D01*
X-6014Y-221753D02*
X1772Y-213967D01*
X-6018Y-216746D02*
X1772Y-208956D01*
X-6017Y-218415D02*
X1772Y-210626D01*
X-6011Y-225090D02*
X1772Y-217308D01*
X-6017Y-218658D02*
X1772Y-226446D01*
X-6013Y-223421D02*
X1772Y-215637D01*
X-6018Y-216986D02*
X1772Y-224776D01*
X-6020Y-215077D02*
X1772Y-207286D01*
X-6025Y-208627D02*
X1772Y-216424D01*
X-6021Y-213408D02*
X1772Y-205615D01*
X-6027Y-206956D02*
X1772Y-214754D01*
X-6021Y-213643D02*
X1772Y-221435D01*
X-6019Y-215315D02*
X1772Y-223106D01*
X-6024Y-210299D02*
X1772Y-218095D01*
X-6022Y-211971D02*
X1772Y-219765D01*
X-6050Y-180031D02*
X1772Y-172209D01*
X-6049Y-181699D02*
X1772Y-173879D01*
X-6053Y-176693D02*
X1772Y-168868D01*
X-6052Y-178362D02*
X1772Y-170538D01*
X-6053Y-176863D02*
X1772Y-184688D01*
X-6046Y-185037D02*
X1772Y-177220D01*
X-6054Y-175192D02*
X1772Y-183018D01*
X-6047Y-183368D02*
X1772Y-175549D01*
X-6062Y-166833D02*
X1772Y-174666D01*
X-6055Y-175024D02*
X1772Y-167198D01*
X-6063Y-165161D02*
X1772Y-172996D01*
X-6056Y-173355D02*
X1772Y-165527D01*
X-6057Y-171848D02*
X1772Y-179677D01*
X-6056Y-173520D02*
X1772Y-181347D01*
X-6060Y-168505D02*
X1772Y-176336D01*
X-6059Y-170176D02*
X1772Y-178007D01*
X-6039Y-193382D02*
X1772Y-185571D01*
X-6037Y-195050D02*
X1772Y-187242D01*
X-6041Y-190044D02*
X1772Y-182231D01*
X-6040Y-191713D02*
X1772Y-183901D01*
X-6041Y-190238D02*
X1772Y-198051D01*
X-6034Y-198388D02*
X1772Y-190582D01*
X-6043Y-188566D02*
X1772Y-196380D01*
X-6036Y-196719D02*
X1772Y-188912D01*
X-6050Y-180207D02*
X1772Y-188029D01*
X-6043Y-188375D02*
X1772Y-180560D01*
X-6052Y-178535D02*
X1772Y-186358D01*
X-6044Y-186706D02*
X1772Y-178890D01*
X-6046Y-185222D02*
X1772Y-193040D01*
X-6044Y-186894D02*
X1772Y-194710D01*
X-6049Y-181879D02*
X1772Y-189699D01*
X-6047Y-183551D02*
X1772Y-191369D01*
X10070Y-223052D02*
X10827Y-223809D01*
X9442Y-224095D02*
X10827Y-225480D01*
X8348Y-224671D02*
X10827Y-227150D01*
X9698Y-221074D02*
X10827Y-219945D01*
X10149Y-222293D02*
X10827Y-221615D01*
X6102Y-229680D02*
X10827Y-224956D01*
X6102Y-225766D02*
X10827Y-230490D01*
X6102Y-228010D02*
X10827Y-223285D01*
X6102Y-224096D02*
X10827Y-228820D01*
X6102Y-233021D02*
X10827Y-228296D01*
X6102Y-229107D02*
X10827Y-233831D01*
X6102Y-231350D02*
X10827Y-226626D01*
X6102Y-227436D02*
X10827Y-232161D01*
X6102Y-236362D02*
X10827Y-231637D01*
X6102Y-232447D02*
X10827Y-237172D01*
X6102Y-234691D02*
X10827Y-229967D01*
X6102Y-230777D02*
X10827Y-235502D01*
X6102Y-246384D02*
X10827Y-241659D01*
X6102Y-242469D02*
X10827Y-247194D01*
X6102Y-244713D02*
X10827Y-239989D01*
X6102Y-240799D02*
X10827Y-245523D01*
X6102Y-259173D02*
X10827Y-263897D01*
X6102Y-264757D02*
X10827Y-260033D01*
X6102Y-257502D02*
X10827Y-262227D01*
X6102Y-263087D02*
X10827Y-258362D01*
X6102Y-239702D02*
X10827Y-234978D01*
X6102Y-235788D02*
X10827Y-240512D01*
X6102Y-238032D02*
X10827Y-233307D01*
X6102Y-234118D02*
X10827Y-238842D01*
X6102Y-243043D02*
X10827Y-238318D01*
X6102Y-239129D02*
X10827Y-243853D01*
X6102Y-241372D02*
X10827Y-236648D01*
X6102Y-237458D02*
X10827Y-242183D01*
X6102Y-219085D02*
X7263Y-220245D01*
X6102Y-224669D02*
X6507Y-224265D01*
X6102Y-248054D02*
X10827Y-243329D01*
X6102Y-226340D02*
X7726Y-224716D01*
X6102Y-245810D02*
X10827Y-250534D01*
X6102Y-251395D02*
X10827Y-246670D01*
X6102Y-244140D02*
X10827Y-248864D01*
X6102Y-249724D02*
X10827Y-245000D01*
X6102Y-249151D02*
X10827Y-253875D01*
X6102Y-254735D02*
X10827Y-250011D01*
X6102Y-247480D02*
X10827Y-252205D01*
X6102Y-253065D02*
X10827Y-248340D01*
X6102Y-252491D02*
X10827Y-257216D01*
X6102Y-258076D02*
X10827Y-253351D01*
X6102Y-250821D02*
X10827Y-255545D01*
X6102Y-256405D02*
X10827Y-251681D01*
X6102Y-255832D02*
X10827Y-260556D01*
X6102Y-261416D02*
X10827Y-256692D01*
X6102Y-254162D02*
X10827Y-258886D01*
X6102Y-259746D02*
X10827Y-255022D01*
X6102Y-266427D02*
X10827Y-261703D01*
X6102Y-262513D02*
X10827Y-267238D01*
X6102Y-260843D02*
X10827Y-265567D01*
X302Y-265546D02*
X1772Y-264077D01*
X6102Y-269768D02*
X10827Y-265044D01*
X6102Y-265854D02*
X10827Y-270578D01*
X6102Y-268098D02*
X10827Y-263373D01*
X6102Y-264184D02*
X10827Y-268908D01*
X6102Y-308186D02*
X10827Y-303461D01*
X6102Y-302601D02*
X10827Y-307326D01*
X6102Y-304272D02*
X10827Y-308996D01*
X6102Y-300931D02*
X10827Y-305655D01*
X6102Y-306515D02*
X10827Y-301791D01*
X6102Y-311526D02*
X10827Y-306802D01*
X6102Y-307612D02*
X10827Y-312337D01*
X6102Y-309856D02*
X10827Y-305132D01*
X6102Y-305942D02*
X10827Y-310666D01*
X6102Y-295920D02*
X10827Y-300644D01*
X6102Y-301504D02*
X10827Y-296780D01*
X6102Y-294250D02*
X10827Y-298974D01*
X6102Y-299834D02*
X10827Y-295110D01*
X6102Y-299261D02*
X10827Y-303985D01*
X6102Y-304845D02*
X10827Y-300121D01*
X6102Y-297590D02*
X10827Y-302315D01*
X6102Y-303175D02*
X10827Y-298450D01*
X6102Y-321548D02*
X10827Y-316824D01*
X6102Y-317634D02*
X10827Y-322359D01*
X6102Y-319878D02*
X10827Y-315154D01*
X6102Y-315964D02*
X10827Y-320688D01*
X6102Y-324889D02*
X10827Y-320165D01*
X6102Y-320975D02*
X10827Y-325699D01*
X6102Y-323219D02*
X10827Y-318494D01*
X6102Y-319304D02*
X10827Y-324029D01*
X6102Y-314867D02*
X10827Y-310143D01*
X6102Y-310953D02*
X10827Y-315677D01*
X6102Y-313197D02*
X10827Y-308472D01*
X6102Y-309282D02*
X10827Y-314007D01*
X6102Y-318208D02*
X10827Y-313483D01*
X6102Y-314294D02*
X10827Y-319018D01*
X6102Y-316537D02*
X10827Y-311813D01*
X6102Y-312623D02*
X10827Y-317348D01*
X6102Y-275876D02*
X10827Y-280600D01*
X6102Y-279790D02*
X10827Y-275066D01*
X6102Y-281460D02*
X10827Y-276736D01*
X6102Y-278120D02*
X10827Y-273395D01*
X6102Y-274206D02*
X10827Y-278930D01*
X6102Y-279217D02*
X10827Y-283941D01*
X6102Y-284801D02*
X10827Y-280077D01*
X6102Y-277546D02*
X10827Y-282271D01*
X6102Y-283131D02*
X10827Y-278406D01*
X6102Y-273109D02*
X10827Y-268384D01*
X6102Y-269195D02*
X10827Y-273919D01*
X6102Y-271438D02*
X10827Y-266714D01*
X6102Y-267524D02*
X10827Y-272249D01*
X6102Y-276449D02*
X10827Y-271725D01*
X6102Y-272535D02*
X10827Y-277260D01*
X6102Y-274779D02*
X10827Y-270055D01*
X6102Y-270865D02*
X10827Y-275589D01*
X6102Y-289239D02*
X10827Y-293963D01*
X6102Y-294823D02*
X10827Y-290099D01*
X6102Y-287568D02*
X10827Y-292293D01*
X6102Y-293153D02*
X10827Y-288428D01*
X6102Y-292579D02*
X10827Y-297304D01*
X6102Y-298164D02*
X10827Y-293439D01*
X6102Y-290909D02*
X10827Y-295633D01*
X6102Y-296493D02*
X10827Y-291769D01*
X6102Y-282557D02*
X10827Y-287282D01*
X6102Y-288142D02*
X10827Y-283417D01*
X6102Y-280887D02*
X10827Y-285611D01*
X6102Y-286471D02*
X10827Y-281747D01*
X6102Y-285898D02*
X10827Y-290622D01*
X6102Y-291482D02*
X10827Y-286758D01*
X6102Y-284228D02*
X10827Y-288952D01*
X6102Y-289812D02*
X10827Y-285088D01*
X-6002Y-235104D02*
X1772Y-227330D01*
X-6004Y-233435D02*
X1772Y-225659D01*
X-6001Y-236772D02*
X1772Y-229000D01*
X-6007Y-230097D02*
X1772Y-222319D01*
X-6005Y-231766D02*
X1772Y-223989D01*
X-6005Y-232032D02*
X1772Y-239809D01*
X-5998Y-240110D02*
X1772Y-232341D01*
X-6006Y-230361D02*
X1772Y-238139D01*
X-5999Y-238441D02*
X1772Y-230670D01*
X-6008Y-228428D02*
X1772Y-220648D01*
X-6014Y-222002D02*
X1772Y-229787D01*
X-6010Y-226759D02*
X1772Y-218978D01*
X-6015Y-220330D02*
X1772Y-228117D01*
X-6009Y-227017D02*
X1772Y-234798D01*
X-6008Y-228689D02*
X1772Y-236468D01*
X-6012Y-223673D02*
X1772Y-231457D01*
X-6011Y-225345D02*
X1772Y-233128D01*
X-5991Y-248454D02*
X1772Y-240692D01*
X-5989Y-250123D02*
X1772Y-242362D01*
X-5994Y-245117D02*
X1772Y-237351D01*
X-5992Y-246786D02*
X1772Y-239022D01*
X-5993Y-245407D02*
X1772Y-253172D01*
X-5986Y-253461D02*
X1772Y-245703D01*
X-5995Y-243735D02*
X1772Y-251501D01*
X-5988Y-251792D02*
X1772Y-244033D01*
X-6002Y-235376D02*
X1772Y-243150D01*
X-5995Y-243448D02*
X1772Y-235681D01*
X-6004Y-233704D02*
X1772Y-241479D01*
X-5996Y-241779D02*
X1772Y-234011D01*
X-5998Y-240391D02*
X1772Y-248161D01*
X-5996Y-242063D02*
X1772Y-249831D01*
X-6001Y-237048D02*
X1772Y-244820D01*
X-5999Y-238720D02*
X1772Y-246490D01*
X-5978Y-263474D02*
X1772Y-255725D01*
X-5979Y-261806D02*
X1772Y-254055D01*
X-2781Y-263618D02*
X1772Y-259066D01*
X-5982Y-258468D02*
X1772Y-250714D01*
X-5980Y-260137D02*
X1772Y-252384D01*
X-5983Y-257109D02*
X1772Y-264864D01*
X-5976Y-265143D02*
X1772Y-257396D01*
X-5982Y-258781D02*
X-1137Y-263626D01*
X-5980Y-260453D02*
X-2805Y-263628D01*
X-5990Y-248750D02*
X1772Y-256512D01*
X-5983Y-256799D02*
X1772Y-249044D01*
X-5992Y-247078D02*
X1772Y-254842D01*
X-5985Y-255130D02*
X1772Y-247374D01*
X-5986Y-253766D02*
X1772Y-261523D01*
X-5985Y-255437D02*
X1772Y-263194D01*
X-5989Y-250422D02*
X1772Y-258183D01*
X-5988Y-252094D02*
X1772Y-259853D01*
X-1123Y-263631D02*
X1772Y-260736D01*
X-170Y-264348D02*
X1772Y-262406D01*
X154Y-264917D02*
X1772Y-266534D01*
X-562Y-267542D02*
X1772Y-269875D01*
X-1756Y-268018D02*
X1772Y-271545D01*
X152Y-266585D02*
X1772Y-268205D01*
X-5979Y-262124D02*
X-3762Y-264341D01*
X-5977Y-263796D02*
X-4238Y-265535D01*
X-5972Y-270150D02*
X-3369Y-267547D01*
X-5975Y-266812D02*
X-4098Y-264936D01*
X-5973Y-268481D02*
X-4086Y-266593D01*
X-5940Y-306865D02*
X1772Y-299154D01*
X-5941Y-305196D02*
X1772Y-297483D01*
X-5938Y-308534D02*
X1772Y-300824D01*
X-5944Y-301859D02*
X1772Y-294143D01*
X-5943Y-303527D02*
X1772Y-295813D01*
X-5942Y-303919D02*
X1772Y-311633D01*
X-5935Y-311872D02*
X1772Y-304165D01*
X-5944Y-302247D02*
X1772Y-309963D01*
X-5937Y-310203D02*
X1772Y-302494D01*
X-5946Y-300190D02*
X1772Y-292472D01*
X-5951Y-293888D02*
X1772Y-301611D01*
X-5947Y-298521D02*
X1772Y-290802D01*
X-5953Y-292217D02*
X1772Y-299941D01*
X-5947Y-298904D02*
X1772Y-306622D01*
X-5945Y-300575D02*
X1772Y-308293D01*
X-5950Y-295560D02*
X1772Y-303281D01*
X-5948Y-297232D02*
X1772Y-304952D01*
X-5928Y-320216D02*
X1772Y-312516D01*
X-5927Y-321885D02*
X1772Y-314187D01*
X-5931Y-316879D02*
X1772Y-309176D01*
X-5930Y-318547D02*
X1772Y-310846D01*
X-5931Y-317293D02*
X1772Y-324996D01*
X-5924Y-325223D02*
X1772Y-317527D01*
X-5932Y-315622D02*
X1772Y-323325D01*
X-5925Y-323554D02*
X1772Y-315857D01*
X-5940Y-307263D02*
X1772Y-314974D01*
X-5933Y-315210D02*
X1772Y-307505D01*
X-5941Y-305591D02*
X1772Y-313303D01*
X-5934Y-313541D02*
X1772Y-305835D01*
X-5935Y-312278D02*
X1772Y-319985D01*
X-5934Y-313950D02*
X1772Y-321655D01*
X-5938Y-308934D02*
X1772Y-316644D01*
X-5937Y-310606D02*
X1772Y-318315D01*
X-5965Y-278494D02*
X1772Y-270758D01*
X-5963Y-280163D02*
X1772Y-272428D01*
X-5968Y-275157D02*
X1772Y-267418D01*
X-5966Y-276825D02*
X1772Y-269088D01*
X-5960Y-283501D02*
X1772Y-275769D01*
X-5966Y-277170D02*
X1772Y-284908D01*
X-5962Y-281832D02*
X1772Y-274099D01*
X-5967Y-275499D02*
X1772Y-283238D01*
X-5969Y-273488D02*
X1772Y-265747D01*
X-5974Y-267140D02*
X1772Y-274886D01*
X-5976Y-265468D02*
X1772Y-273216D01*
X-5970Y-271819D02*
X-2170Y-268019D01*
X-5970Y-272155D02*
X1772Y-279897D01*
X-5969Y-273827D02*
X1772Y-281567D01*
X-5973Y-268812D02*
X1772Y-276556D01*
X-5971Y-270483D02*
X1772Y-278227D01*
X-5953Y-291845D02*
X1772Y-284121D01*
X-5951Y-293514D02*
X1772Y-285791D01*
X-5956Y-288508D02*
X1772Y-280780D01*
X-5954Y-290177D02*
X1772Y-282450D01*
X-5949Y-296852D02*
X1772Y-289132D01*
X-5954Y-290545D02*
X1772Y-298271D01*
X-5950Y-295183D02*
X1772Y-287461D01*
X-5956Y-288873D02*
X1772Y-296600D01*
X-5957Y-286839D02*
X1772Y-279110D01*
X-5963Y-280514D02*
X1772Y-288248D01*
X-5959Y-285170D02*
X1772Y-277439D01*
X-5964Y-278842D02*
X1772Y-286578D01*
X-5958Y-285529D02*
X1772Y-293260D01*
X-5957Y-287201D02*
X1772Y-294930D01*
X-5961Y-282186D02*
X1772Y-289919D01*
X-5960Y-283858D02*
X1772Y-291589D01*
X16339Y-371444D02*
X21063Y-366720D01*
X16339Y-366288D02*
X21063Y-371012D01*
X16339Y-367958D02*
X21063Y-372683D01*
X16339Y-364618D02*
X21063Y-369342D01*
X16339Y-369774D02*
X21063Y-365049D01*
X16339Y-374785D02*
X21063Y-370060D01*
X16339Y-371299D02*
X21063Y-376023D01*
X16339Y-373114D02*
X21063Y-368390D01*
X16339Y-369629D02*
X21063Y-374353D01*
X16339Y-359607D02*
X21063Y-364331D01*
X16339Y-364763D02*
X21063Y-360038D01*
X16339Y-357936D02*
X21063Y-362661D01*
X16339Y-363092D02*
X21063Y-358368D01*
X16339Y-362947D02*
X21063Y-367672D01*
X16339Y-368103D02*
X21063Y-363379D01*
X16339Y-361277D02*
X21063Y-366002D01*
X16339Y-366433D02*
X21063Y-361709D01*
X16339Y-384807D02*
X21063Y-380082D01*
X16339Y-381321D02*
X21063Y-386045D01*
X16339Y-383136D02*
X21063Y-378412D01*
X16339Y-379651D02*
X21063Y-384375D01*
X16339Y-388147D02*
X21063Y-383423D01*
X16339Y-384662D02*
X21063Y-389386D01*
X16339Y-386477D02*
X21063Y-381752D01*
X16339Y-382991D02*
X21063Y-387716D01*
X16339Y-378125D02*
X21063Y-373401D01*
X16339Y-374640D02*
X21063Y-379364D01*
X16339Y-376455D02*
X21063Y-371730D01*
X16339Y-372969D02*
X21063Y-377694D01*
X16339Y-381466D02*
X21063Y-376742D01*
X16339Y-377980D02*
X21063Y-382705D01*
X16339Y-379796D02*
X21063Y-375071D01*
X16339Y-376310D02*
X21063Y-381034D01*
X16339Y-336367D02*
X21063Y-331643D01*
X16339Y-331211D02*
X21063Y-335935D01*
X16339Y-332881D02*
X21063Y-337606D01*
X16339Y-329541D02*
X21063Y-334265D01*
X16339Y-334697D02*
X21063Y-329972D01*
X16339Y-339708D02*
X21063Y-334983D01*
X16339Y-336222D02*
X21063Y-340947D01*
X16339Y-338037D02*
X21063Y-333313D01*
X16339Y-334552D02*
X21063Y-339276D01*
X16339Y-324530D02*
X21063Y-329254D01*
X16339Y-329686D02*
X21063Y-324961D01*
X16339Y-322859D02*
X21063Y-327584D01*
X16339Y-328015D02*
X21063Y-323291D01*
X16339Y-327870D02*
X21063Y-332595D01*
X16339Y-333026D02*
X21063Y-328302D01*
X16339Y-326200D02*
X21063Y-330925D01*
X16339Y-331356D02*
X21063Y-326632D01*
X16339Y-351400D02*
X21063Y-346676D01*
X16339Y-347914D02*
X21063Y-352639D01*
X16339Y-348059D02*
X21063Y-343335D01*
X16339Y-346244D02*
X21063Y-350969D01*
X16339Y-356266D02*
X21063Y-360991D01*
X16339Y-361422D02*
X21063Y-356698D01*
X16339Y-354596D02*
X21063Y-359320D01*
X16339Y-359752D02*
X21063Y-355027D01*
X16339Y-343048D02*
X21063Y-338324D01*
X16339Y-339563D02*
X21063Y-344287D01*
X16339Y-341378D02*
X21063Y-336654D01*
X16339Y-337892D02*
X21063Y-342617D01*
X16339Y-346389D02*
X21063Y-341665D01*
X16339Y-342903D02*
X21063Y-347628D01*
X16339Y-344719D02*
X21063Y-339994D01*
X16339Y-341233D02*
X21063Y-345957D01*
X16339Y-394684D02*
X21063Y-399408D01*
X16339Y-398169D02*
X21063Y-393445D01*
X16339Y-399840D02*
X21063Y-395115D01*
X16339Y-396499D02*
X21063Y-391775D01*
X16339Y-393013D02*
X21063Y-397738D01*
X16339Y-398024D02*
X21063Y-402749D01*
X16339Y-403180D02*
X21063Y-398456D01*
X16339Y-396354D02*
X21063Y-401078D01*
X16339Y-401510D02*
X21063Y-396785D01*
X16339Y-391488D02*
X21063Y-386764D01*
X16339Y-388002D02*
X21063Y-392727D01*
X16339Y-389818D02*
X21063Y-385093D01*
X16339Y-386332D02*
X21063Y-391056D01*
X16339Y-394829D02*
X21063Y-390104D01*
X16339Y-391343D02*
X21063Y-396067D01*
X16339Y-393158D02*
X21063Y-388434D01*
X16339Y-389673D02*
X21063Y-394397D01*
X16339Y-408046D02*
X21063Y-412771D01*
X16339Y-413202D02*
X21063Y-408478D01*
X16339Y-406376D02*
X21063Y-411100D01*
X16339Y-411532D02*
X21063Y-406808D01*
X20603Y-440674D02*
X21063Y-440214D01*
X18240Y-439697D02*
X21063Y-436873D01*
X19718Y-439889D02*
X21063Y-438544D01*
X16339Y-401365D02*
X21063Y-406089D01*
X16339Y-406521D02*
X21063Y-401796D01*
X16339Y-399695D02*
X21063Y-404419D01*
X16339Y-404851D02*
X21063Y-400126D01*
X16339Y-404706D02*
X21063Y-409430D01*
X16339Y-409862D02*
X21063Y-405137D01*
X16339Y-403035D02*
X21063Y-407760D01*
X16339Y-408191D02*
X21063Y-403467D01*
X19065Y-444179D02*
X21063Y-446177D01*
X18655Y-462666D02*
X21063Y-460258D01*
X18717Y-464275D02*
X21063Y-461928D01*
X20659Y-440762D02*
X21063Y-441166D01*
X20201Y-443645D02*
X21063Y-444507D01*
X18717Y-465945D02*
X21063Y-463599D01*
X18717Y-463875D02*
X21063Y-466221D01*
Y-475478D02*
Y-132945D01*
X18717Y-469669D02*
Y-463008D01*
X16339Y-460222D02*
Y-21274D01*
X17048Y-460932D02*
X21063Y-456917D01*
X17884Y-461767D02*
X21063Y-458588D01*
X18717Y-469286D02*
X21063Y-466939D01*
X18717Y-467215D02*
X21063Y-469562D01*
X18717Y-467616D02*
X21063Y-465269D01*
X18717Y-465545D02*
X21063Y-467892D01*
X18717Y-468886D02*
X21063Y-471232D01*
X18475Y-470315D02*
X21063Y-472903D01*
X17037Y-472636D02*
X21063Y-468610D01*
X17598Y-473745D02*
X21063Y-470280D01*
X16732Y-472061D02*
X18428Y-470365D01*
X17642Y-471152D02*
X21063Y-474573D01*
X16807Y-471987D02*
X20681Y-475861D01*
X17573Y-474424D02*
X19845Y-476696D01*
X16938Y-475459D02*
X19010Y-477531D01*
X16339Y-349585D02*
X21063Y-354309D01*
X16339Y-353070D02*
X21063Y-348346D01*
X16339Y-354741D02*
X21063Y-350016D01*
X16339Y-344574D02*
X21063Y-349298D01*
X16339Y-349730D02*
X21063Y-345005D01*
X16339Y-352925D02*
X21063Y-357650D01*
X16339Y-416543D02*
X21063Y-411819D01*
X16339Y-351255D02*
X21063Y-355979D01*
X16339Y-356411D02*
X21063Y-351687D01*
X16339Y-358081D02*
X21063Y-353357D01*
X16339Y-409717D02*
X21063Y-414441D01*
X6102Y-346603D02*
X10827Y-341879D01*
X6102Y-361636D02*
X10827Y-356912D01*
X16339Y-413057D02*
X21063Y-417782D01*
X16339Y-418213D02*
X21063Y-413489D01*
X16339Y-414873D02*
X21063Y-410148D01*
X16339Y-411387D02*
X21063Y-416111D01*
X16339Y-423079D02*
X21063Y-427804D01*
X16339Y-428235D02*
X21063Y-423511D01*
X16339Y-421409D02*
X21063Y-426133D01*
X16339Y-426565D02*
X21063Y-421840D01*
X16339Y-426420D02*
X21063Y-431144D01*
X16339Y-431576D02*
X21063Y-426851D01*
X16339Y-424750D02*
X21063Y-429474D01*
X16339Y-429906D02*
X21063Y-425181D01*
X16339Y-416398D02*
X21063Y-421122D01*
X16339Y-421554D02*
X21063Y-416829D01*
X16339Y-414728D02*
X21063Y-419452D01*
X16339Y-419884D02*
X21063Y-415159D01*
X16339Y-419739D02*
X21063Y-424463D01*
X16339Y-424895D02*
X21063Y-420170D01*
X16339Y-418068D02*
X21063Y-422793D01*
X16339Y-423224D02*
X21063Y-418500D01*
X6102Y-364403D02*
X10827Y-369128D01*
X6102Y-361063D02*
X10827Y-365787D01*
X6102Y-407832D02*
X10827Y-412556D01*
X6102Y-359392D02*
X10827Y-364117D01*
X6102Y-364977D02*
X10827Y-360252D01*
X6102Y-415087D02*
X10827Y-410362D01*
X6102Y-411173D02*
X10827Y-415897D01*
X6102Y-413416D02*
X10827Y-408692D01*
X6102Y-409502D02*
X10827Y-414227D01*
X6102Y-344933D02*
X10827Y-340209D01*
X6102Y-341019D02*
X10827Y-345743D01*
X6102Y-336008D02*
X10827Y-340732D01*
X6102Y-341592D02*
X10827Y-336868D01*
X6102Y-344359D02*
X10827Y-349084D01*
X6102Y-349944D02*
X10827Y-345219D01*
X6102Y-342689D02*
X10827Y-347414D01*
X6102Y-348274D02*
X10827Y-343549D01*
X6102Y-425109D02*
X10827Y-420384D01*
X6102Y-421195D02*
X10827Y-425919D01*
X6102Y-423439D02*
X10827Y-418714D01*
X6102Y-419524D02*
X10827Y-424249D01*
X6102Y-428449D02*
X10827Y-423725D01*
X6102Y-424535D02*
X10827Y-429260D01*
X6102Y-426779D02*
X10827Y-422055D01*
X6102Y-422865D02*
X10827Y-427589D01*
X6102Y-418428D02*
X10827Y-413703D01*
X6102Y-414513D02*
X10827Y-419238D01*
X6102Y-416757D02*
X10827Y-412033D01*
X6102Y-412843D02*
X10827Y-417567D01*
X6102Y-421768D02*
X10827Y-417044D01*
X6102Y-417854D02*
X10827Y-422578D01*
X6102Y-420098D02*
X10827Y-415373D01*
X6102Y-416184D02*
X10827Y-420908D01*
X16339Y-448279D02*
X21063Y-443555D01*
X16339Y-443123D02*
X21063Y-447848D01*
X16339Y-444794D02*
X21063Y-449518D01*
X16339Y-434771D02*
X21063Y-439496D01*
X16339Y-439927D02*
X21063Y-435203D01*
X16339Y-451620D02*
X21063Y-446895D01*
X16339Y-448134D02*
X21063Y-452859D01*
X16339Y-449950D02*
X21063Y-445225D01*
X16339Y-446464D02*
X21063Y-451188D01*
X16339Y-429761D02*
X21063Y-434485D01*
X16339Y-434916D02*
X21063Y-430192D01*
X16339Y-428090D02*
X21063Y-432815D01*
X16339Y-433246D02*
X21063Y-428522D01*
X16339Y-433101D02*
X21063Y-437826D01*
X16339Y-438257D02*
X21063Y-433533D01*
X16339Y-431431D02*
X21063Y-436155D01*
X16339Y-436587D02*
X21063Y-431862D01*
X16339Y-454960D02*
X21063Y-450236D01*
X16339Y-451475D02*
X21063Y-456199D01*
X16339Y-453290D02*
X21063Y-448566D01*
X16339Y-449804D02*
X21063Y-454529D01*
X16339Y-458301D02*
X21063Y-453577D01*
X16339Y-454815D02*
X21063Y-459540D01*
X16339Y-456631D02*
X21063Y-451906D01*
X16339Y-453145D02*
X21063Y-457870D01*
X16339Y-458156D02*
X21063Y-462881D01*
X1863Y-494678D02*
X21063Y-475478D01*
X16339Y-459972D02*
X21063Y-455247D01*
X16339Y-456486D02*
X21063Y-461210D01*
X4528Y-496837D02*
X27067Y-474298D01*
X4528Y-498508D02*
X27067Y-475968D01*
X-5773Y-498786D02*
X21063Y-471950D01*
X-5771Y-500455D02*
X21063Y-473621D01*
X16339Y-436442D02*
X19868Y-439971D01*
X16339Y-438112D02*
X17990Y-439763D01*
X16339Y-439782D02*
X16985Y-440429D01*
X16339Y-443268D02*
X16661Y-442946D01*
X16339Y-446609D02*
X18739Y-444208D01*
X16339Y-459827D02*
X21063Y-464551D01*
X16339Y-444939D02*
X17445Y-443832D01*
X16339Y-460222D02*
X18428Y-462312D01*
X6102Y-440142D02*
X10827Y-435417D01*
X6102Y-464623D02*
X10829Y-469349D01*
X6102Y-469634D02*
X16505Y-480036D01*
X11115Y-469987D02*
X11535Y-470408D01*
X6102Y-466294D02*
X10958Y-471149D01*
X6102Y-467964D02*
X10851Y-472712D01*
X15694Y-475885D02*
X18175Y-478366D01*
X13496Y-473688D02*
X13879Y-474070D01*
X6102Y-472975D02*
X14834Y-481707D01*
X11934Y-473795D02*
X17340Y-479201D01*
X6102Y-478559D02*
X11284Y-473378D01*
X6102Y-476315D02*
X13164Y-483377D01*
X6102Y-471305D02*
X15669Y-480872D01*
X6055Y-481948D02*
X13881Y-474121D01*
X6102Y-475219D02*
X11224Y-470097D01*
X6102Y-480230D02*
X12423Y-473909D01*
X-5770Y-502124D02*
X21063Y-475291D01*
X-5774Y-497117D02*
X15477Y-475866D01*
X6102Y-474645D02*
X13999Y-482542D01*
X-5776Y-495448D02*
X14381Y-475292D01*
X23604Y-477113D02*
X25994Y-479504D01*
X23071Y-486603D02*
X25799Y-489331D01*
X22236Y-487438D02*
X25295Y-490497D01*
X21401Y-488273D02*
X25295Y-492168D01*
X20565Y-489108D02*
X25295Y-493838D01*
X18060Y-491614D02*
X25295Y-498849D01*
X17225Y-492449D02*
X25295Y-500520D01*
X19730Y-489943D02*
X25295Y-495508D01*
X18895Y-490779D02*
X25295Y-497179D01*
X16437Y-496620D02*
X32972Y-480085D01*
X16437Y-498291D02*
X32972Y-481755D01*
X16437Y-494950D02*
X32972Y-478414D01*
X16437Y-493237D02*
X29731Y-479942D01*
X16437Y-493331D02*
X25295Y-502190D01*
X16437Y-503302D02*
X25295Y-494443D01*
X16437Y-499961D02*
X25295Y-491103D01*
X16437Y-501631D02*
X25295Y-492773D01*
X16437Y-503354D02*
X25295Y-512212D01*
X16437Y-513324D02*
X25295Y-504465D01*
X16437Y-501683D02*
X25295Y-510541D01*
X16437Y-511653D02*
X25295Y-502795D01*
X16437Y-528357D02*
X25295Y-519498D01*
X16437Y-520057D02*
X25295Y-528915D01*
X16437Y-525016D02*
X25295Y-516158D01*
X16437Y-518387D02*
X25295Y-527245D01*
X16437Y-496672D02*
X25295Y-505531D01*
X16437Y-506642D02*
X25295Y-497784D01*
X16437Y-495002D02*
X25295Y-503860D01*
X16437Y-504972D02*
X25295Y-496114D01*
X16437Y-500013D02*
X25295Y-508871D01*
X16437Y-509983D02*
X25295Y-501125D01*
X16437Y-498343D02*
X25295Y-507201D01*
X16437Y-508313D02*
X25295Y-499454D01*
X22768Y-477949D02*
X25159Y-480339D01*
X21933Y-478784D02*
X24324Y-481174D01*
X21098Y-479619D02*
X23489Y-482009D01*
X20263Y-480454D02*
X22653Y-482844D01*
X19428Y-481289D02*
X21818Y-483680D01*
X18593Y-482124D02*
X20983Y-484515D01*
X16437Y-505024D02*
X25295Y-513882D01*
X17757Y-482960D02*
X20148Y-485350D01*
X16922Y-483795D02*
X19313Y-486185D01*
X16437Y-516664D02*
X25295Y-507806D01*
X16437Y-508364D02*
X25295Y-517223D01*
X16437Y-514994D02*
X25295Y-506136D01*
X16437Y-506694D02*
X25295Y-515552D01*
X16437Y-520005D02*
X25295Y-511147D01*
X16437Y-511705D02*
X25295Y-520563D01*
X16437Y-518335D02*
X25295Y-509476D01*
X16437Y-510035D02*
X25295Y-518893D01*
X16437Y-515046D02*
X25295Y-523904D01*
X16437Y-516716D02*
X25295Y-525574D01*
X16437Y-521675D02*
X25295Y-512817D01*
X16437Y-513376D02*
X25295Y-522234D01*
X21942Y-531203D02*
X25295Y-527850D01*
X23107Y-531708D02*
X25295Y-529520D01*
X16437Y-526686D02*
X25295Y-517828D01*
X16437Y-530027D02*
X25295Y-521169D01*
X16437Y-523346D02*
X25295Y-514487D01*
X16437Y-521727D02*
X25295Y-530585D01*
X16437Y-525068D02*
X22980Y-531611D01*
X16437Y-526738D02*
X20984Y-531285D01*
X16437Y-531697D02*
X25295Y-522839D01*
X16437Y-523397D02*
X25295Y-532256D01*
X16437Y-528408D02*
X19963Y-531935D01*
X16437Y-530079D02*
X19411Y-533053D01*
X23712Y-534445D02*
X25295Y-532861D01*
X16437Y-535038D02*
X25295Y-526180D01*
X23183Y-535155D02*
X25295Y-537267D01*
X16437Y-533368D02*
X25295Y-524509D01*
X23507Y-532138D02*
X25295Y-533926D01*
X16437Y-550071D02*
X25295Y-541213D01*
X16437Y-541771D02*
X25295Y-550629D01*
X16437Y-533419D02*
X25295Y-542278D01*
X22065Y-535707D02*
X25295Y-538937D01*
X16437Y-535090D02*
X25295Y-543948D01*
X16437Y-545060D02*
X25295Y-536202D01*
X16437Y-531749D02*
X25295Y-540607D01*
X16437Y-543390D02*
X25295Y-534531D01*
X16437Y-538430D02*
X25295Y-547289D01*
X16437Y-540101D02*
X25295Y-548959D01*
X16437Y-536760D02*
X25295Y-545618D01*
X16437Y-546730D02*
X25295Y-537872D01*
X16437Y-555134D02*
X25295Y-563992D01*
X16437Y-565104D02*
X25295Y-556246D01*
X16437Y-553463D02*
X25295Y-562322D01*
X16437Y-563434D02*
X25295Y-554575D01*
X22933Y-570300D02*
X25295Y-567938D01*
X23073Y-571830D02*
X25295Y-569608D01*
X16437Y-570115D02*
X25295Y-561257D01*
X22172Y-569391D02*
X25295Y-566267D01*
X16437Y-548452D02*
X25295Y-557311D01*
X16437Y-558423D02*
X25295Y-549564D01*
X16437Y-551741D02*
X25295Y-542883D01*
X16437Y-551741D02*
X25295Y-542883D01*
X16437Y-551793D02*
X25295Y-560651D01*
X16437Y-561763D02*
X25295Y-552905D01*
X16437Y-550123D02*
X25295Y-558981D01*
X16437Y-560093D02*
X25295Y-551235D01*
X16437Y-538378D02*
X19897Y-534918D01*
X16657Y-571565D02*
X25295Y-562927D01*
X16437Y-571344D02*
Y-493237D01*
Y-536708D02*
X19392Y-533753D01*
X16437Y-556804D02*
X25295Y-565662D01*
X16437Y-566774D02*
X25295Y-557916D01*
X16437Y-541719D02*
X22634Y-535523D01*
X16437Y-540049D02*
X20878Y-535608D01*
X16437Y-560145D02*
X25295Y-569003D01*
X16437Y-561815D02*
X25295Y-570673D01*
X16437Y-558474D02*
X25295Y-567333D01*
X16437Y-568444D02*
X25295Y-559586D01*
X20912Y-568981D02*
X25295Y-564597D01*
X23081Y-571800D02*
X23939Y-572658D01*
X23031Y-572731D02*
X23902Y-572734D01*
X18701Y-572717D02*
Y-571972D01*
X23031Y-572731D02*
Y-571972D01*
X16437Y-563485D02*
X24746Y-571795D01*
X16437Y-565156D02*
X20326Y-569045D01*
X16437Y-566826D02*
X19257Y-569646D01*
X17768Y-572714D02*
X18701Y-572717D01*
X17493Y-572400D02*
X18587Y-571305D01*
X16437Y-571344D02*
X17625Y-572532D01*
X16087Y-484630D02*
X18477Y-487020D01*
X14353Y-491145D02*
X27067Y-478431D01*
X15252Y-485465D02*
X17642Y-487855D01*
X14417Y-486300D02*
X16807Y-488691D01*
X13581Y-487135D02*
X15972Y-489526D01*
X16437Y-493280D02*
X32972Y-476744D01*
X13772Y-491725D02*
X14349Y-491149D01*
X12746Y-487971D02*
X15137Y-490361D01*
X11911Y-488806D02*
X14302Y-491196D01*
X11076Y-489641D02*
X13537Y-492102D01*
X10241Y-490476D02*
X13484Y-493719D01*
X4528Y-496189D02*
X23728Y-476990D01*
X4528Y-500178D02*
X27067Y-477639D01*
X9406Y-491311D02*
X13484Y-495390D01*
X8571Y-492146D02*
X13484Y-497060D01*
X4528Y-501848D02*
X13484Y-492892D01*
X6065Y-494652D02*
X13484Y-502071D01*
X7735Y-492981D02*
X13484Y-498730D01*
X6900Y-493817D02*
X13484Y-500401D01*
X4528Y-505189D02*
X13484Y-496232D01*
X4528Y-496455D02*
X13484Y-505412D01*
X4528Y-503519D02*
X13484Y-494562D01*
X5230Y-495487D02*
X13484Y-503741D01*
X4528Y-508530D02*
X13484Y-499573D01*
X4528Y-499796D02*
X13484Y-508752D01*
X4528Y-506859D02*
X13484Y-497903D01*
X4528Y-498125D02*
X13484Y-507082D01*
X4528Y-511870D02*
X13484Y-502914D01*
X4528Y-516499D02*
X13484Y-525456D01*
X4528Y-510200D02*
X13484Y-501243D01*
X4528Y-501466D02*
X13484Y-510423D01*
X4528Y-513541D02*
X13484Y-504584D01*
X4528Y-503136D02*
X13484Y-512093D01*
X4528Y-504807D02*
X13484Y-513763D01*
X6102Y-477986D02*
X12329Y-484212D01*
X6102Y-479656D02*
X11494Y-485047D01*
X4528Y-516881D02*
X13484Y-507925D01*
X4528Y-508147D02*
X13484Y-517104D01*
X4528Y-515211D02*
X13484Y-506254D01*
X4528Y-506477D02*
X13484Y-515434D01*
X4528Y-520222D02*
X13484Y-511265D01*
X4528Y-511488D02*
X13484Y-520445D01*
X4528Y-518552D02*
X13484Y-509595D01*
X4528Y-509818D02*
X13484Y-518774D01*
X4528Y-523563D02*
X13484Y-514606D01*
X4528Y-514829D02*
X13484Y-523785D01*
X4528Y-521892D02*
X13484Y-512936D01*
X4528Y-513158D02*
X13484Y-522115D01*
X9790Y-523312D02*
X13484Y-519617D01*
X11089Y-523682D02*
X13484Y-521287D01*
X11878Y-524564D02*
X13484Y-522958D01*
X11658Y-526970D02*
X13484Y-528796D01*
X10714Y-527697D02*
X13484Y-530467D01*
X12079Y-526034D02*
X13484Y-524628D01*
X12116Y-525758D02*
X13484Y-527126D01*
X4528Y-525233D02*
X13484Y-516276D01*
X4528Y-526903D02*
X13484Y-517947D01*
X9089Y-527742D02*
X13484Y-532137D01*
X4528Y-526521D02*
X13484Y-535478D01*
X4528Y-536925D02*
X13484Y-527969D01*
X4528Y-524851D02*
X13484Y-533807D01*
X4528Y-535255D02*
X13484Y-526298D01*
X4528Y-540266D02*
X13484Y-531309D01*
X4528Y-529861D02*
X13484Y-538818D01*
X4528Y-531532D02*
X13484Y-540489D01*
X4528Y-528191D02*
X13484Y-537148D01*
X4528Y-538596D02*
X13484Y-529639D01*
X4528Y-543607D02*
X13484Y-534650D01*
X16437Y-548400D02*
X25295Y-539542D01*
X4528Y-541936D02*
X13484Y-532980D01*
X4528Y-533202D02*
X13484Y-542159D01*
X4528Y-536543D02*
X13484Y-545500D01*
X4528Y-546947D02*
X13484Y-537991D01*
X4528Y-534872D02*
X13484Y-543829D01*
X4528Y-545277D02*
X13484Y-536320D01*
X4528Y-539884D02*
X13484Y-548840D01*
X4528Y-550288D02*
X13484Y-541331D01*
X4528Y-538213D02*
X13484Y-547170D01*
X4528Y-548618D02*
X13484Y-539661D01*
X16437Y-545112D02*
X25295Y-553970D01*
X16437Y-555082D02*
X25295Y-546224D01*
X16437Y-543441D02*
X25295Y-552300D01*
X16437Y-553411D02*
X25295Y-544553D01*
X16437Y-546782D02*
X25295Y-555640D01*
X16437Y-556752D02*
X25295Y-547894D01*
X16437Y-568496D02*
X18653Y-570713D01*
X16437Y-570167D02*
X18701Y-572430D01*
X4528Y-543224D02*
X13484Y-552181D01*
X4528Y-553629D02*
X13484Y-544672D01*
X4528Y-541554D02*
X13484Y-550511D01*
X4528Y-551958D02*
X13484Y-543002D01*
X4528Y-546565D02*
X13484Y-555521D01*
X4528Y-556969D02*
X13484Y-548013D01*
X4528Y-544895D02*
X13484Y-553851D01*
X4528Y-555299D02*
X13484Y-546342D01*
X4528Y-549905D02*
X13484Y-558862D01*
X4528Y-560310D02*
X13484Y-551353D01*
X4528Y-548235D02*
X13484Y-557192D01*
X4528Y-558640D02*
X13484Y-549683D01*
Y-571344D02*
Y-492421D01*
X4528Y-553246D02*
X13484Y-562203D01*
X4528Y-551576D02*
X13484Y-560533D01*
X4528Y-561980D02*
X13484Y-553024D01*
X4528Y-554916D02*
X13484Y-563873D01*
X4528Y-565321D02*
X13484Y-556364D01*
X4528Y-563651D02*
X13484Y-554694D01*
X4528Y-563651D02*
X13484Y-554694D01*
X4528Y-558257D02*
X13484Y-567214D01*
X4528Y-568662D02*
X13484Y-559705D01*
X4528Y-556587D02*
X13484Y-565544D01*
X4528Y-566991D02*
X13484Y-558035D01*
X10429Y-569441D02*
X13484Y-566386D01*
X11159Y-570382D02*
X13484Y-568057D01*
X11220Y-571991D02*
X13484Y-569727D01*
X12296Y-572532D02*
X13484Y-571344D01*
X11291Y-571702D02*
X12214Y-572625D01*
X11220Y-572693D02*
Y-571972D01*
Y-572693D02*
X12165Y-572696D01*
X4528Y-570332D02*
X13484Y-561375D01*
X4528Y-561598D02*
X13484Y-570554D01*
X4528Y-559928D02*
X13484Y-568884D01*
X9214Y-568986D02*
X13484Y-564716D01*
X5004Y-571526D02*
X13484Y-563046D01*
X4528Y-563268D02*
X13044Y-571785D01*
X6102Y-374999D02*
X10827Y-370274D01*
X6102Y-369414D02*
X10827Y-374139D01*
X6102Y-371085D02*
X10827Y-375809D01*
X6102Y-367744D02*
X10827Y-372468D01*
X6102Y-373328D02*
X10827Y-368604D01*
X6102Y-378340D02*
X10827Y-373615D01*
X6102Y-374425D02*
X10827Y-379150D01*
X6102Y-376669D02*
X10827Y-371945D01*
X6102Y-372755D02*
X10827Y-377480D01*
X6102Y-366647D02*
X10827Y-361923D01*
X6102Y-362733D02*
X10827Y-367458D01*
X6102Y-357722D02*
X10827Y-362446D01*
X6102Y-363307D02*
X10827Y-358582D01*
X6102Y-366074D02*
X10827Y-370798D01*
X6102Y-371658D02*
X10827Y-366934D01*
X6102Y-368318D02*
X10827Y-363593D01*
X6102Y-369988D02*
X10827Y-365264D01*
X6102Y-388362D02*
X10827Y-383637D01*
X6102Y-384447D02*
X10827Y-389172D01*
X6102Y-386691D02*
X10827Y-381967D01*
X6102Y-382777D02*
X10827Y-387502D01*
X6102Y-391702D02*
X10827Y-386978D01*
X6102Y-387788D02*
X10827Y-392512D01*
X6102Y-390032D02*
X10827Y-385307D01*
X6102Y-386118D02*
X10827Y-390842D01*
X6102Y-381680D02*
X10827Y-376956D01*
X6102Y-377766D02*
X10827Y-382490D01*
X6102Y-380010D02*
X10827Y-375286D01*
X6102Y-376096D02*
X10827Y-380820D01*
X6102Y-385021D02*
X10827Y-380296D01*
X6102Y-381107D02*
X10827Y-385831D01*
X6102Y-383350D02*
X10827Y-378626D01*
X6102Y-379436D02*
X10827Y-384161D01*
X6102Y-330997D02*
X10827Y-335721D01*
X6102Y-334911D02*
X10827Y-330187D01*
X6102Y-336581D02*
X10827Y-331857D01*
X6102Y-333241D02*
X10827Y-328516D01*
X6102Y-329327D02*
X10827Y-334051D01*
X6102Y-334337D02*
X10827Y-339062D01*
X6102Y-339922D02*
X10827Y-335197D01*
X6102Y-332667D02*
X10827Y-337392D01*
X6102Y-338252D02*
X10827Y-333527D01*
X6102Y-328230D02*
X10827Y-323505D01*
X6102Y-324316D02*
X10827Y-329040D01*
X6102Y-326559D02*
X10827Y-321835D01*
X6102Y-322645D02*
X10827Y-327370D01*
X6102Y-331570D02*
X10827Y-326846D01*
X6102Y-327656D02*
X10827Y-332381D01*
X6102Y-329900D02*
X10827Y-325176D01*
X6102Y-325986D02*
X10827Y-330710D01*
X6102Y-356625D02*
X10827Y-351901D01*
X6102Y-352711D02*
X10827Y-357435D01*
X6102Y-354955D02*
X10827Y-350231D01*
X6102Y-351041D02*
X10827Y-355765D01*
X6102Y-359966D02*
X10827Y-355241D01*
X6102Y-356052D02*
X10827Y-360776D01*
X6102Y-358296D02*
X10827Y-353571D01*
X6102Y-354381D02*
X10827Y-359106D01*
X6102Y-339349D02*
X10827Y-344073D01*
X6102Y-346030D02*
X10827Y-350754D01*
X6102Y-337678D02*
X10827Y-342403D01*
X6102Y-343263D02*
X10827Y-338538D01*
X6102Y-353285D02*
X10827Y-348560D01*
X6102Y-349371D02*
X10827Y-354095D01*
X6102Y-351614D02*
X10827Y-346890D01*
X6102Y-347700D02*
X10827Y-352425D01*
X6102Y-391129D02*
X10827Y-395853D01*
X6102Y-395043D02*
X10827Y-390318D01*
X6102Y-396713D02*
X10827Y-391989D01*
X6102Y-393373D02*
X10827Y-388648D01*
X6102Y-389458D02*
X10827Y-394183D01*
Y-447669D02*
Y-21667D01*
X6102Y-399480D02*
X10827Y-404205D01*
X6102Y-392799D02*
X10827Y-397523D01*
X6102Y-398383D02*
X10827Y-393659D01*
X6102Y-406735D02*
X10827Y-402011D01*
X6102Y-402821D02*
X10827Y-407545D01*
X6102Y-405065D02*
X10827Y-400340D01*
X6102Y-401151D02*
X10827Y-405875D01*
X6102Y-410076D02*
X10827Y-405351D01*
X6102Y-406162D02*
X10827Y-410886D01*
X6102Y-408405D02*
X10827Y-403681D01*
X6102Y-404491D02*
X10827Y-409216D01*
X6102Y-432887D02*
X10827Y-437611D01*
X6102Y-438471D02*
X10827Y-433747D01*
X6102Y-431217D02*
X10827Y-435941D01*
X6102Y-436801D02*
X10827Y-432077D01*
X6102Y-441239D02*
X10827Y-445963D01*
X6102Y-446823D02*
X10827Y-442099D01*
X6102Y-434557D02*
X10827Y-439282D01*
X6102Y-436228D02*
X10827Y-440952D01*
X6102Y-426206D02*
X10827Y-430930D01*
X6102Y-431790D02*
X10827Y-427066D01*
X6102Y-411746D02*
X10827Y-407022D01*
X6102Y-430120D02*
X10827Y-425395D01*
X6102Y-429546D02*
X10827Y-434271D01*
X6102Y-435131D02*
X10827Y-430406D01*
X6102Y-427876D02*
X10827Y-432600D01*
X6102Y-433460D02*
X10827Y-428736D01*
X6102Y-401724D02*
X10827Y-397000D01*
X6102Y-396140D02*
X10827Y-400864D01*
X6102Y-397810D02*
X10827Y-402534D01*
X6102Y-394469D02*
X10827Y-399194D01*
X6102Y-400054D02*
X10827Y-395329D01*
X6102Y-472047D02*
Y-223875D01*
Y-403395D02*
X10827Y-398670D01*
X1772Y-472047D02*
Y-111614D01*
X-5824Y-440376D02*
X1772Y-432780D01*
X-5828Y-435369D02*
X1772Y-427769D01*
X-5827Y-437038D02*
X1772Y-429439D01*
X-5831Y-432031D02*
X1772Y-424429D01*
X-5830Y-433700D02*
X1772Y-426099D01*
X-5830Y-432647D02*
X1772Y-440249D01*
X-5829Y-434318D02*
X1772Y-441919D01*
X-5832Y-430975D02*
X1772Y-438578D01*
X-5825Y-438707D02*
X1772Y-431110D01*
X6102Y-443482D02*
X10827Y-438758D01*
X6102Y-439568D02*
X10827Y-444293D01*
X6102Y-441812D02*
X10827Y-437088D01*
X6102Y-437898D02*
X10827Y-442622D01*
X-5818Y-447051D02*
X1772Y-439462D01*
X6102Y-445153D02*
X10827Y-440428D01*
X-5816Y-448720D02*
X1772Y-441132D01*
X-5815Y-450389D02*
X1772Y-442802D01*
X-5821Y-443713D02*
X1772Y-436121D01*
X-5826Y-437662D02*
X1772Y-445260D01*
X-5822Y-442044D02*
X1772Y-434450D01*
X-5827Y-435990D02*
X1772Y-443589D01*
X-5823Y-441005D02*
X1772Y-448600D01*
X-5822Y-442677D02*
X1772Y-450271D01*
X-5819Y-445382D02*
X1772Y-437791D01*
X-5825Y-439334D02*
X1772Y-446930D01*
X-5892Y-361938D02*
X1772Y-354275D01*
X-5893Y-360269D02*
X1772Y-352604D01*
X-5891Y-363607D02*
X1772Y-355945D01*
X-5896Y-356932D02*
X1772Y-349264D01*
X-5895Y-358600D02*
X1772Y-350934D01*
X-5894Y-359088D02*
X1772Y-366754D01*
X-5888Y-366945D02*
X1772Y-359286D01*
X-5896Y-357416D02*
X1772Y-365084D01*
X-5889Y-365276D02*
X1772Y-357615D01*
X-5898Y-355263D02*
X1772Y-347593D01*
X-5903Y-349057D02*
X1772Y-356732D01*
X-5899Y-353594D02*
X1772Y-345923D01*
X-5905Y-347386D02*
X1772Y-355062D01*
X-5899Y-354073D02*
X1772Y-361743D01*
X-5897Y-355744D02*
X1772Y-363413D01*
X-5902Y-350729D02*
X1772Y-358402D01*
X-5900Y-352401D02*
X1772Y-360073D01*
X-5880Y-375289D02*
X1772Y-367637D01*
X-5879Y-376958D02*
X1772Y-369308D01*
X-5883Y-371952D02*
X1772Y-364297D01*
X-5882Y-373620D02*
X1772Y-365967D01*
X-5883Y-372462D02*
X1772Y-380117D01*
X-5876Y-380296D02*
X1772Y-372648D01*
X-5884Y-370791D02*
X1772Y-378446D01*
X-5878Y-378627D02*
X1772Y-370978D01*
X-5892Y-362432D02*
X1772Y-370095D01*
X-5885Y-370283D02*
X1772Y-362626D01*
X-5893Y-360760D02*
X1772Y-368424D01*
X-5886Y-368614D02*
X1772Y-360956D01*
X-5887Y-367447D02*
X1772Y-375106D01*
X-5886Y-369119D02*
X1772Y-376776D01*
X-5890Y-364103D02*
X1772Y-371765D01*
X-5889Y-365775D02*
X1772Y-373435D01*
X-5915Y-335236D02*
X1772Y-327549D01*
X-5917Y-333567D02*
X1772Y-325879D01*
X-5921Y-328996D02*
X1772Y-336688D01*
X-5920Y-330230D02*
X1772Y-322538D01*
X-5918Y-331898D02*
X1772Y-324209D01*
X-5912Y-338574D02*
X1772Y-330890D01*
X-5918Y-332339D02*
X1772Y-340029D01*
X-5914Y-336905D02*
X1772Y-329220D01*
X-5919Y-330668D02*
X1772Y-338358D01*
X-5928Y-320637D02*
X1772Y-328337D01*
X-5921Y-328561D02*
X1772Y-320868D01*
X-5929Y-318965D02*
X1772Y-326666D01*
X-5922Y-326892D02*
X1772Y-319198D01*
X-5923Y-325652D02*
X1772Y-333348D01*
X-5922Y-327324D02*
X1772Y-335018D01*
X-5926Y-322309D02*
X1772Y-330007D01*
X-5925Y-323980D02*
X1772Y-331677D01*
X-5905Y-346918D02*
X1772Y-339242D01*
X-5904Y-348587D02*
X1772Y-340912D01*
X-5908Y-343581D02*
X1772Y-335901D01*
X-5906Y-345250D02*
X1772Y-337571D01*
X-5901Y-351925D02*
X1772Y-344253D01*
X-5906Y-345714D02*
X1772Y-353391D01*
X-5902Y-350256D02*
X1772Y-342582D01*
X-5908Y-344042D02*
X1772Y-351721D01*
X-5909Y-341912D02*
X1772Y-334231D01*
X-5915Y-335683D02*
X1772Y-343369D01*
X-5911Y-340243D02*
X1772Y-332560D01*
X-5916Y-334011D02*
X1772Y-341699D01*
X-5910Y-340698D02*
X1772Y-348380D01*
X-5909Y-342370D02*
X1772Y-350051D01*
X-5913Y-337355D02*
X1772Y-345040D01*
X-5912Y-339026D02*
X1772Y-346710D01*
X-5867Y-390309D02*
X1772Y-382670D01*
X-5869Y-388640D02*
X1772Y-381000D01*
X-5873Y-384165D02*
X1772Y-391809D01*
X-5872Y-385303D02*
X1772Y-377659D01*
X-5870Y-386971D02*
X1772Y-379330D01*
X-5864Y-393647D02*
X1772Y-386011D01*
X-5870Y-387508D02*
X1772Y-395150D01*
X-5866Y-391978D02*
X1772Y-384341D01*
X-5871Y-385837D02*
X1772Y-393479D01*
X-5880Y-375806D02*
X1772Y-383457D01*
X-5873Y-383634D02*
X1772Y-375989D01*
X-5881Y-374134D02*
X1772Y-381787D01*
X-5875Y-381965D02*
X1772Y-374319D01*
X-5875Y-380821D02*
X1772Y-388468D01*
X-5874Y-382493D02*
X1772Y-390139D01*
X-5878Y-377478D02*
X1772Y-385128D01*
X-5877Y-379149D02*
X1772Y-386798D01*
X-5857Y-401991D02*
X1772Y-394363D01*
X-5856Y-403660D02*
X1772Y-396033D01*
X-5860Y-398654D02*
X1772Y-391022D01*
X-5859Y-400322D02*
X1772Y-392692D01*
X-5853Y-406998D02*
X1772Y-399374D01*
X-5858Y-400883D02*
X1772Y-408512D01*
X-5854Y-405329D02*
X1772Y-397703D01*
X-5860Y-399211D02*
X1772Y-406842D01*
X-5861Y-396985D02*
X1772Y-389352D01*
X-5867Y-390852D02*
X1772Y-398490D01*
X-5863Y-395316D02*
X1772Y-387681D01*
X-5868Y-389180D02*
X1772Y-396820D01*
X-5862Y-395867D02*
X1772Y-403501D01*
X-5861Y-397539D02*
X1772Y-405172D01*
X-5865Y-392524D02*
X1772Y-400161D01*
X-5864Y-394195D02*
X1772Y-401831D01*
X-5846Y-415342D02*
X1772Y-407725D01*
X-5844Y-417011D02*
X1772Y-409396D01*
X-5848Y-412005D02*
X1772Y-404385D01*
X-5847Y-413673D02*
X1772Y-406055D01*
X-5848Y-412585D02*
X1772Y-420205D01*
X-5841Y-420349D02*
X1772Y-412736D01*
X-5849Y-410913D02*
X1772Y-418534D01*
X-5843Y-418680D02*
X1772Y-411066D01*
X-5850Y-410336D02*
X1772Y-402714D01*
X-5855Y-404226D02*
X1772Y-411853D01*
X-5851Y-408667D02*
X1772Y-401044D01*
X-5857Y-402554D02*
X1772Y-410183D01*
X-5854Y-405898D02*
X1772Y-413523D01*
X-5852Y-407570D02*
X1772Y-415194D01*
X-6103Y-119489D02*
X-5709Y-572638D01*
X-5851Y-409241D02*
X1772Y-416864D01*
X-5834Y-428693D02*
X1772Y-421088D01*
X-5832Y-430362D02*
X1772Y-422758D01*
X-5837Y-425356D02*
X1772Y-417747D01*
X-5835Y-427025D02*
X1772Y-419417D01*
X-5835Y-427631D02*
X1772Y-435238D01*
X-5833Y-429303D02*
X1772Y-436908D01*
X-5838Y-424288D02*
X1772Y-431897D01*
X-5836Y-425959D02*
X1772Y-433567D01*
X-5845Y-415929D02*
X1772Y-423545D01*
X-5838Y-423687D02*
X1772Y-416077D01*
X-5847Y-414257D02*
X1772Y-421875D01*
X-5840Y-422018D02*
X1772Y-414406D01*
X-5841Y-420944D02*
X1772Y-428556D01*
X-5839Y-422616D02*
X1772Y-430227D01*
X-5844Y-417600D02*
X1772Y-425216D01*
X-5842Y-419272D02*
X1772Y-426886D01*
X9602Y-446664D02*
X10827Y-445439D01*
X7791Y-446805D02*
X10827Y-443769D01*
X10374Y-450521D02*
X10827Y-450974D01*
X6102Y-442909D02*
X10102Y-446909D01*
X10594Y-447342D02*
X10827Y-447110D01*
X9247Y-451065D02*
X10827Y-452644D01*
Y-469291D02*
Y-449968D01*
X6102Y-451261D02*
X10827Y-455985D01*
X6102Y-456845D02*
X10827Y-452121D01*
X6102Y-449590D02*
X10827Y-454315D01*
X6102Y-455175D02*
X10827Y-450450D01*
X6102Y-454601D02*
X10827Y-459326D01*
X6102Y-460186D02*
X10827Y-455461D01*
X6102Y-452931D02*
X10827Y-457655D01*
X6102Y-458515D02*
X10827Y-453791D01*
X6102Y-457942D02*
X10827Y-462666D01*
X6102Y-463526D02*
X10827Y-458802D01*
X6102Y-456272D02*
X10827Y-460996D01*
X6102Y-461856D02*
X10827Y-457132D01*
X6102Y-461283D02*
X10827Y-466007D01*
X6102Y-466867D02*
X10827Y-462143D01*
X6102Y-459612D02*
X10827Y-464337D01*
X6102Y-465197D02*
X10827Y-460472D01*
X6102Y-470208D02*
X10827Y-465483D01*
X6102Y-471878D02*
X10827Y-467154D01*
X6102Y-462953D02*
X10827Y-467677D01*
X6102Y-468537D02*
X10827Y-463813D01*
X6102Y-473548D02*
X10827Y-468824D01*
X6102Y-476889D02*
X10740Y-472252D01*
X6102Y-481326D02*
X10659Y-485883D01*
X5764Y-482658D02*
X9823Y-486718D01*
X6102Y-446250D02*
X7156Y-447303D01*
X6102Y-444579D02*
X8169Y-446646D01*
X6102Y-448493D02*
X6844Y-447752D01*
X6102Y-447920D02*
X6612Y-448430D01*
X6102Y-453504D02*
X8532Y-451075D01*
X6102Y-450164D02*
X6703Y-449563D01*
X6102Y-451834D02*
X7381Y-450555D01*
X-1530Y-454456D02*
X1772Y-451154D01*
X-422Y-455018D02*
X1772Y-452824D01*
X218Y-456048D02*
X1772Y-454494D01*
X-225Y-458161D02*
X1772Y-456165D01*
X4880Y-483445D02*
X8988Y-487553D01*
X1772Y-481496D02*
Y-472047D01*
X6102Y-481496D02*
Y-472047D01*
X3343Y-483578D02*
X8153Y-488388D01*
X311Y-517758D02*
X1575Y-516494D01*
X271Y-457121D02*
X1772Y-458622D01*
X-288Y-458233D02*
X1772Y-460292D01*
X-1315Y-458877D02*
X1772Y-461963D01*
X-3374Y-458488D02*
X1772Y-463633D01*
X-2426Y-515483D02*
X1575Y-511482D01*
X-950Y-515677D02*
X1575Y-513153D01*
X-65Y-516463D02*
X1575Y-514823D01*
X4528Y-518169D02*
X9675Y-523317D01*
X4528Y-519840D02*
X8463Y-523775D01*
X4528Y-521510D02*
X7736Y-524719D01*
X4528Y-531914D02*
X8816Y-527626D01*
X4528Y-571049D02*
Y-496189D01*
Y-523180D02*
X7691Y-526344D01*
X-708Y-519616D02*
X1575Y-521898D01*
X-1997Y-519996D02*
X1575Y-523568D01*
X261Y-517244D02*
X1575Y-518557D01*
X75Y-518727D02*
X1575Y-520228D01*
X4528Y-530244D02*
X7934Y-526837D01*
X4528Y-533585D02*
X10286Y-527827D01*
X4528Y-528574D02*
X7564Y-525538D01*
X-5713Y-567210D02*
X1575Y-559922D01*
X4528Y-564938D02*
X8613Y-569024D01*
X5839Y-572361D02*
X6781Y-571419D01*
X6890Y-572679D02*
Y-571972D01*
X6036Y-572676D02*
X6890Y-572679D01*
X-2488Y-568996D02*
X1575Y-564933D01*
X-1315Y-569493D02*
X1575Y-566603D01*
X-5719Y-561374D02*
X1575Y-568667D01*
X-5712Y-568879D02*
X1575Y-561592D01*
X4528Y-566609D02*
X7506Y-569587D01*
X4528Y-569949D02*
X6890Y-572312D01*
X4528Y-568279D02*
X6867Y-570619D01*
X4528Y-571049D02*
X5814Y-572335D01*
X-1315Y-569493D02*
X1575Y-566603D01*
X-619Y-570467D02*
X1575Y-568274D01*
Y-571147D02*
Y-495374D01*
X-5718Y-562204D02*
X1575Y-554911D01*
X-5716Y-563872D02*
X1575Y-556581D01*
X-5715Y-565541D02*
X1575Y-558252D01*
X-5714Y-566389D02*
X-3097Y-569006D01*
X-5717Y-563046D02*
X1575Y-570337D01*
X-5711Y-570548D02*
X1575Y-563263D01*
X-5716Y-564717D02*
X1145Y-571578D01*
X-5713Y-568061D02*
X-4242Y-569531D01*
X-591Y-572109D02*
X1575Y-569944D01*
X485Y-572237D02*
X1575Y-571147D01*
X-502Y-571601D02*
X332Y-572435D01*
X-591Y-572654D02*
Y-571972D01*
Y-572654D02*
X236Y-572657D01*
X-5711Y-569733D02*
X-4915Y-570529D01*
X-5710Y-571405D02*
X-4921Y-572193D01*
Y-572640D02*
Y-571972D01*
X-5709Y-572217D02*
X-5020Y-571527D01*
X-5709Y-572638D02*
X-4921Y-572640D01*
X-5801Y-467078D02*
X1772Y-459505D01*
X-5806Y-461067D02*
X1772Y-468644D01*
X-5799Y-468747D02*
X1772Y-461176D01*
X-5802Y-465409D02*
X1772Y-457835D01*
X-5807Y-459395D02*
X1772Y-466974D01*
X-5803Y-464410D02*
X1772Y-471985D01*
X-5796Y-472084D02*
X1772Y-464516D01*
X-5804Y-462739D02*
X1772Y-470315D01*
X-5798Y-470415D02*
X1772Y-462846D01*
X-5819Y-446021D02*
X1772Y-453611D01*
X-5812Y-453727D02*
X1772Y-446143D01*
X-5820Y-444349D02*
X1772Y-451941D01*
X-5814Y-452058D02*
X1772Y-444473D01*
X-5809Y-457064D02*
X1772Y-449483D01*
X-5809Y-457723D02*
X1772Y-465304D01*
X-5817Y-447692D02*
X1772Y-455281D01*
X-5816Y-449364D02*
X1772Y-456952D01*
X-5790Y-479456D02*
X5647Y-490894D01*
X-5788Y-481128D02*
X4812Y-491729D01*
X-5780Y-490442D02*
X2070Y-482592D01*
X-5779Y-492111D02*
X2923Y-483409D01*
X-5787Y-482800D02*
X3977Y-492564D01*
X-5777Y-493780D02*
X4389Y-483614D01*
X-5785Y-484472D02*
X3142Y-493399D01*
X-5784Y-486144D02*
X2307Y-494234D01*
X-5800Y-467754D02*
X1772Y-475325D01*
X-5793Y-475422D02*
X1772Y-467857D01*
X-5801Y-466082D02*
X1772Y-473655D01*
X-5795Y-473753D02*
X1772Y-466187D01*
X-5793Y-476113D02*
X7318Y-489223D01*
X-5791Y-477785D02*
X6483Y-490059D01*
X-5798Y-469426D02*
X1772Y-476996D01*
X-5794Y-474441D02*
X1855Y-482090D01*
X-5790Y-478760D02*
X1772Y-471198D01*
X-5797Y-471098D02*
X1772Y-478666D01*
X-5796Y-472769D02*
X1772Y-480337D01*
X-5803Y-463740D02*
X-500Y-458436D01*
X-5792Y-477091D02*
X1772Y-469527D01*
X-5786Y-483766D02*
X1772Y-476209D01*
X-5785Y-485435D02*
X1772Y-477879D01*
X-5789Y-480429D02*
X1772Y-472868D01*
X-5787Y-482097D02*
X1772Y-474538D01*
X-5811Y-455395D02*
X1772Y-447813D01*
X-5815Y-451036D02*
X-2397Y-454454D01*
X-5813Y-452708D02*
X-3509Y-455012D01*
X-5812Y-454380D02*
X-4152Y-456039D01*
X-5806Y-460402D02*
X-3643Y-458239D01*
X-5805Y-462071D02*
X-2613Y-458879D01*
X-5810Y-456051D02*
X-3763Y-458098D01*
X-5808Y-458733D02*
X-4205Y-457131D01*
X-5767Y-505462D02*
X1575Y-498120D01*
X-5772Y-499518D02*
X1575Y-506865D01*
X-5768Y-503793D02*
X1575Y-496450D01*
X-5774Y-497846D02*
X1575Y-505195D01*
X-5764Y-508800D02*
X1575Y-501461D01*
X-5769Y-502861D02*
X1575Y-510206D01*
X-5766Y-507131D02*
X1575Y-499790D01*
X-5771Y-501190D02*
X1575Y-508535D01*
X-5783Y-487104D02*
X1772Y-479549D01*
X-5782Y-488773D02*
X1772Y-481220D01*
X-5782Y-487815D02*
X1592Y-495190D01*
X-5781Y-489487D02*
X1575Y-496843D01*
X-5777Y-494502D02*
X1575Y-501854D01*
X-5775Y-496174D02*
X1575Y-503524D01*
X-5779Y-491159D02*
X1575Y-498513D01*
X-5778Y-492831D02*
X1575Y-500184D01*
X-5750Y-525488D02*
X1575Y-518164D01*
X-5755Y-519579D02*
X1575Y-526909D01*
X-5748Y-527157D02*
X1575Y-519834D01*
X-5757Y-517144D02*
X1575Y-509812D01*
X-5756Y-517907D02*
X1575Y-525239D01*
X-5752Y-522923D02*
X1575Y-530250D01*
X-5745Y-530495D02*
X1575Y-523175D01*
X-5753Y-521251D02*
X1575Y-528579D01*
X-5747Y-528826D02*
X1575Y-521504D01*
X-5761Y-512137D02*
X1575Y-504801D01*
X-5767Y-506205D02*
X1575Y-513546D01*
X-5763Y-510468D02*
X1575Y-503131D01*
X-5768Y-504533D02*
X1575Y-511876D01*
X-5758Y-515475D02*
X1575Y-508142D01*
X-5764Y-509549D02*
X1575Y-516887D01*
X-5760Y-513806D02*
X1575Y-506471D01*
X-5765Y-507877D02*
X1575Y-515217D01*
X-5738Y-538839D02*
X1575Y-531527D01*
X-5737Y-540508D02*
X1575Y-533197D01*
X-5741Y-535502D02*
X1575Y-528186D01*
X-5740Y-537171D02*
X1575Y-529856D01*
X-5722Y-557197D02*
X1575Y-549900D01*
X-5727Y-551343D02*
X1575Y-558645D01*
X-5724Y-555528D02*
X1575Y-548230D01*
X-5729Y-549671D02*
X1575Y-556975D01*
X-5749Y-526266D02*
X1575Y-533590D01*
X-5742Y-533833D02*
X1575Y-526515D01*
X-5751Y-524594D02*
X1575Y-531920D01*
X-5744Y-532164D02*
X1575Y-524845D01*
X-5745Y-531282D02*
X1575Y-538601D01*
X-5743Y-532953D02*
X1575Y-540271D01*
X-5748Y-527938D02*
X1575Y-535260D01*
X-5746Y-529610D02*
X1575Y-536931D01*
X-5740Y-536297D02*
X1575Y-543612D01*
X-5734Y-543846D02*
X1575Y-536537D01*
X-5742Y-534625D02*
X1575Y-541942D01*
X-5735Y-542177D02*
X1575Y-534867D01*
X-5737Y-539641D02*
X1575Y-546953D01*
X-5731Y-547184D02*
X1575Y-539878D01*
X-5739Y-537969D02*
X1575Y-545282D01*
X-5732Y-545515D02*
X1575Y-538208D01*
X-5762Y-511220D02*
X-1496Y-515486D01*
X-5761Y-512892D02*
X-2979Y-515673D01*
X-5759Y-514564D02*
X-3867Y-516456D01*
X-5758Y-516236D02*
X-4248Y-517745D01*
X-5753Y-522151D02*
X-3222Y-519620D01*
X-5751Y-523819D02*
X-1927Y-519996D01*
X-5756Y-518813D02*
X-4202Y-517259D01*
X-5754Y-520482D02*
X-4008Y-518735D01*
X-5726Y-553015D02*
X1575Y-560315D01*
X-5719Y-560535D02*
X1575Y-553241D01*
X-5725Y-553859D02*
X1575Y-546559D01*
X-5721Y-558866D02*
X1575Y-551570D01*
X-5721Y-558030D02*
X1575Y-565326D01*
X-5720Y-559702D02*
X1575Y-566997D01*
X-5724Y-554687D02*
X1575Y-561986D01*
X-5723Y-556358D02*
X1575Y-563656D01*
X-5734Y-542984D02*
X1575Y-550293D01*
X-5728Y-550522D02*
X1575Y-543219D01*
X-5736Y-541312D02*
X1575Y-548623D01*
X-5729Y-548853D02*
X1575Y-541548D01*
X-5732Y-546328D02*
X1575Y-553634D01*
X-5730Y-547999D02*
X1575Y-555304D01*
X-5733Y-544656D02*
X1575Y-551964D01*
X-5726Y-552190D02*
X1575Y-544889D01*
X44488Y-582677D02*
Y-573130D01*
X39764Y-568405D02*
Y-490551D01*
Y-568405D02*
X44488Y-573130D01*
X40551Y-582677D02*
Y-573032D01*
X38583Y-571063D02*
Y-496850D01*
Y-571063D02*
X40551Y-573032D01*
X37402Y-571850D02*
Y-501575D01*
X36614Y-582677D02*
Y-572638D01*
X37402Y-571850D01*
X12992Y-466929D02*
X14567Y-468504D01*
X12992Y-466929D02*
Y-20472D01*
X14567Y-468504D02*
Y-468504D01*
X15354Y-464961D02*
Y-462992D01*
X17732Y-469669D02*
Y-463008D01*
X15354Y-460630D02*
Y-20866D01*
Y-460630D02*
X17732Y-463008D01*
X14173Y-461811D02*
X15354Y-462992D01*
X14173Y-461811D02*
Y-20079D01*
X48425Y-582677D02*
Y-572835D01*
X40945Y-565354D02*
X48425Y-572835D01*
X40945Y-565354D02*
Y-500394D01*
X11811Y-469291D02*
X12598Y-470079D01*
Y-472047D02*
Y-470079D01*
X11811Y-469291D02*
Y-21260D01*
X15354Y-20866D02*
X17717Y-18504D01*
X13780Y-19685D02*
X14173Y-20079D01*
X15748Y-471654D02*
X17732Y-469669D01*
X11811Y-19291D02*
X12992Y-20472D01*
X13780Y-19685D02*
Y-7874D01*
X17717Y-18504D02*
Y-7874D01*
X9843Y-19291D02*
X11811Y-21260D01*
X9843Y-19291D02*
Y-7874D01*
X36630Y-494898D02*
X38583Y-496850D01*
X33071Y-497244D02*
X37402Y-501575D01*
X40945Y-500394D02*
X42520Y-498819D01*
X11811Y-19291D02*
Y-7874D01*
X23622Y-18789D02*
Y-7874D01*
X21654Y-18701D02*
X22047Y-19094D01*
X21654Y-18701D02*
Y-7874D01*
X23031Y-19380D02*
X23622Y-18789D01*
X22047Y-475886D02*
Y-19094D01*
X23031Y-476294D02*
Y-19380D01*
X1181Y-582677D02*
Y-572933D01*
X2559Y-571555D02*
Y-495374D01*
X3543Y-495782D02*
X23031Y-476294D01*
X1181Y-572933D02*
X2559Y-571555D01*
Y-495374D02*
X22047Y-475886D01*
X3543Y-571457D02*
Y-495782D01*
X5118Y-582677D02*
Y-573032D01*
X3543Y-571457D02*
X5118Y-573032D01*
X34941Y-482972D02*
Y-19193D01*
X35433Y-18701D02*
Y-7874D01*
X34941Y-19193D02*
X35433Y-18701D01*
X33957Y-482565D02*
Y-19193D01*
X33465Y-18701D02*
Y-7874D01*
Y-18701D02*
X33957Y-19193D01*
X29035Y-19291D02*
X29528Y-18799D01*
X29035Y-479246D02*
Y-19291D01*
X29528Y-18799D02*
Y-7874D01*
X28051Y-478839D02*
Y-19291D01*
X27559Y-18799D02*
Y-7874D01*
Y-18799D02*
X28051Y-19291D01*
X28740Y-582677D02*
Y-573130D01*
X27264Y-571654D02*
Y-490650D01*
Y-571654D02*
X28740Y-573130D01*
X24803Y-582677D02*
Y-573130D01*
X26280Y-571654D02*
Y-490242D01*
X24803Y-573130D02*
X26280Y-571654D01*
X27264Y-490650D02*
X34941Y-482972D01*
X26280Y-490242D02*
X33957Y-482565D01*
X15453Y-492829D02*
X29035Y-479246D01*
X15045Y-491845D02*
X28051Y-478839D01*
X14469Y-492421D02*
X15045Y-491845D01*
X14469Y-571752D02*
Y-492421D01*
X15453Y-492829D02*
X15453D01*
X15453Y-571752D02*
Y-492829D01*
X15045Y-491845D02*
X15045D01*
X15453Y-571752D02*
X16929Y-573228D01*
X12992Y-573228D02*
X14469Y-571752D01*
X12992Y-582677D02*
Y-573228D01*
X16929Y-582677D02*
Y-573228D01*
X42520Y-498819D02*
Y-496472D01*
X15748Y-474016D02*
Y-471654D01*
D11*
X43307Y-20472D02*
X45390D01*
X43307Y-22555D02*
Y-20472D01*
X41224D02*
X43307D01*
X37402D02*
X39484D01*
X37402Y-22555D02*
Y-20472D01*
X39469Y-69095D02*
X41551D01*
X37386D02*
X39469D01*
Y-67012D01*
Y-71177D02*
Y-69095D01*
X42323Y-188976D02*
X44405D01*
X42323D02*
Y-186894D01*
X40240Y-188976D02*
X42323D01*
Y-191059D02*
Y-188976D01*
X31496Y-22555D02*
Y-20472D01*
X25591Y-22555D02*
Y-20472D01*
Y-62992D02*
Y-60909D01*
Y-65075D02*
Y-62992D01*
X31594Y-139567D02*
Y-137484D01*
Y-141650D02*
Y-139567D01*
X25591Y-206693D02*
Y-204610D01*
Y-208776D02*
Y-206693D01*
X39370Y-425197D02*
Y-423114D01*
Y-425197D02*
X41453D01*
X39370Y-427280D02*
Y-425197D01*
X37287D02*
X39370D01*
X45276Y-547244D02*
Y-545161D01*
X43193Y-547244D02*
X45276D01*
X47358D01*
X45276Y-549327D02*
Y-547244D01*
X31496Y-304134D02*
Y-302051D01*
Y-306217D02*
Y-304134D01*
Y-431102D02*
Y-429020D01*
Y-433185D02*
Y-431102D01*
X33465Y-541339D02*
X35547D01*
X33465D02*
Y-539256D01*
Y-543421D02*
Y-541339D01*
X31382D02*
X33465D01*
X32677Y-571260D02*
X34760D01*
X32677D02*
Y-569177D01*
X30595Y-571260D02*
X32677D01*
X25591Y-436024D02*
Y-433941D01*
Y-438106D02*
Y-436024D01*
X19685Y-22555D02*
Y-20472D01*
X17602D02*
X19685D01*
X18799Y-132677D02*
Y-130595D01*
X16716Y-132677D02*
X18799D01*
Y-134760D02*
Y-132677D01*
X18701Y-287402D02*
Y-285319D01*
Y-289484D02*
Y-287402D01*
X8465Y-56004D02*
Y-53921D01*
Y-58087D02*
Y-56004D01*
X-1969Y-121653D02*
X114D01*
X-1969D02*
Y-119571D01*
Y-123736D02*
Y-121653D01*
X-4051D02*
X-1969D01*
X7874Y-222441D02*
Y-220358D01*
Y-222441D02*
X9957D01*
X7874Y-224524D02*
Y-222441D01*
X-1969Y-265748D02*
Y-263665D01*
Y-267831D02*
Y-265748D01*
X-4051D02*
X-1969D01*
X114D01*
X18701Y-441929D02*
Y-439847D01*
Y-444012D02*
Y-441929D01*
X21654Y-533465D02*
X23736D01*
X19571D02*
X21654D01*
Y-531382D01*
Y-535547D02*
Y-533465D01*
X20866Y-571260D02*
X22949D01*
X20866D02*
Y-569177D01*
X18783Y-571260D02*
X20866D01*
X9843Y-525591D02*
X11925D01*
X9055Y-571260D02*
X11138D01*
X8858Y-450902D02*
Y-448819D01*
X6776D02*
X8858D01*
Y-446736D01*
X-4051Y-456693D02*
X-1969D01*
X114D01*
X-1969D02*
Y-454610D01*
Y-458776D02*
Y-456693D01*
X9843Y-525591D02*
Y-523508D01*
X7760Y-525591D02*
X9843D01*
Y-527673D02*
Y-525591D01*
X9055Y-571260D02*
Y-569177D01*
X6972Y-571260D02*
X9055D01*
X-1969Y-517717D02*
Y-515634D01*
Y-517717D02*
X114D01*
X-4051D02*
X-1969D01*
Y-519799D02*
Y-517717D01*
X-2756Y-571260D02*
Y-569177D01*
Y-571260D02*
X-673D01*
X-4839D02*
X-2756D01*
X3839Y-19390D02*
X3937Y-19291D01*
D13*
X52362Y-581890D02*
D03*
X48425D02*
D03*
X44488D02*
D03*
X40551D02*
D03*
X36614D02*
D03*
X32677D02*
D03*
X28740D02*
D03*
X24803D02*
D03*
X20866D02*
D03*
X16929D02*
D03*
X12992D02*
D03*
X9055D02*
D03*
X5118D02*
D03*
X1181D02*
D03*
X-2756D02*
D03*
D03*
D14*
X1969Y-8661D02*
D03*
X3937D02*
D03*
D03*
X5906D02*
D03*
X7874D02*
D03*
X9843D02*
D03*
X11811D02*
D03*
X13780D02*
D03*
X15748D02*
D03*
X17717D02*
D03*
X19685D02*
D03*
X21654D02*
D03*
X23622D02*
D03*
X25591D02*
D03*
X27559D02*
D03*
X29528D02*
D03*
X31496D02*
D03*
X33465D02*
D03*
X35433D02*
D03*
X37402D02*
D03*
X39370D02*
D03*
X41339D02*
D03*
X43307D02*
D03*
X45276D02*
D03*
X47244D02*
D03*
D17*
X43307Y-20472D02*
Y-7874D01*
X37402Y-20571D02*
Y-7874D01*
X37402Y-20571D02*
X37402Y-20571D01*
X43307Y-20472D02*
X43406Y-20571D01*
X31496Y-20374D02*
X31594Y-20472D01*
X31496Y-20374D02*
Y-7874D01*
X25591Y-20472D02*
Y-7874D01*
X19685Y-20472D02*
Y-7874D01*
Y-20571D02*
Y-20472D01*
X3937Y-19291D02*
Y-7874D01*
D18*
X52400Y-571321D02*
X52411Y-571309D01*
X52362Y-571260D02*
X52461Y-571161D01*
X52400Y-571351D02*
X52411Y-571362D01*
X52400Y-571351D02*
Y-571321D01*
X52362Y-582677D02*
X52411Y-582628D01*
X32677Y-571260D02*
X32677Y-571260D01*
X9055Y-582677D02*
X9055Y-582677D01*
D19*
X52362Y-582677D02*
Y-571260D01*
Y-561024D02*
Y-550000D01*
Y-571260D02*
Y-561024D01*
Y-571260D02*
Y-571260D01*
X32677Y-582677D02*
Y-571260D01*
X20866Y-582677D02*
Y-571260D01*
X9055Y-582677D02*
Y-571260D01*
X-2756Y-582677D02*
Y-571260D01*
X3937Y-30709D02*
Y-19291D01*
Y-472047D02*
Y-30709D01*
Y-481496D02*
Y-472047D01*
D20*
X36350Y-494898D02*
X36630D01*
X33071Y-497244D02*
Y-497244D01*
X42520Y-496472D02*
X42535Y-496457D01*
D21*
X8858Y-448819D02*
D03*
X31496Y-304134D02*
D03*
X18701Y-287402D02*
D03*
X42323Y-188976D02*
D03*
X25591Y-206693D02*
D03*
X7874Y-222441D02*
D03*
X-1969Y-265748D02*
D03*
X25591Y-62992D02*
D03*
X39469Y-69095D02*
D03*
X8465Y-56004D02*
D03*
X31594Y-139567D02*
D03*
X18799Y-132677D02*
D03*
X-1969Y-121653D02*
D03*
X39370Y-425197D02*
D03*
X25591Y-436024D02*
D03*
X31496Y-431102D02*
D03*
X18701Y-441929D02*
D03*
X-1969Y-456693D02*
D03*
X45276Y-547244D02*
D03*
X33465Y-541339D02*
D03*
X21654Y-533465D02*
D03*
X9843Y-525591D02*
D03*
X-1969Y-517717D02*
D03*
X15354Y-464961D02*
D03*
X14484Y-468504D02*
D03*
X37402Y-20472D02*
D03*
X52362Y-550000D02*
D03*
X9055Y-571260D02*
D03*
X12598Y-472047D02*
D03*
X3937D02*
D03*
Y-481496D02*
D03*
X52362Y-561024D02*
D03*
X3937Y-30709D02*
D03*
X19685Y-20472D02*
D03*
X31496D02*
D03*
X25591D02*
D03*
X3937Y-19291D02*
D03*
X52362Y-571260D02*
D03*
X36350Y-494898D02*
D03*
X33071Y-497244D02*
D03*
X42535Y-496457D02*
D03*
X39764Y-490551D02*
D03*
X15748Y-474016D02*
D03*
X43307Y-20472D02*
D03*
X32677Y-571260D02*
D03*
X20866D02*
D03*
X-2756D02*
D03*
M02*
